<svg width="31" height="32" viewBox="0 0 31 32" fill="none" xmlns="http://www.w3.org/2000/svg">
<path d="M15.4678 31.4164C15.0345 31.4164 14.6761 31.2747 14.3928 30.9914C14.1095 30.708 13.9678 30.3497 13.9678 29.9164V5.11636L2.61781 16.4664C2.31781 16.7664 1.96781 16.9164 1.56781 16.9164C1.16781 16.9164 0.81781 16.7664 0.51781 16.4664C0.21781 16.1664 0.0678101 15.8164 0.0678101 15.4164C0.0678101 15.0164 0.21781 14.6664 0.51781 14.3664L14.4178 0.466357C14.5845 0.299691 14.7595 0.183024 14.9428 0.116357C15.1261 0.0496902 15.3011 0.0163574 15.4678 0.0163574C15.6678 0.0163574 15.8511 0.0496902 16.0178 0.116357C16.1845 0.183024 16.3511 0.299691 16.5178 0.466357L30.4178 14.3664C30.7178 14.6664 30.8678 15.0164 30.8678 15.4164C30.8678 15.8164 30.7178 16.1664 30.4178 16.4664C30.1178 16.7664 29.7678 16.9164 29.3678 16.9164C28.9678 16.9164 28.6178 16.7664 28.3178 16.4664L16.9678 5.11636V29.9164C16.9678 30.3497 16.8261 30.708 16.5428 30.9914C16.2595 31.2747 15.9011 31.4164 15.4678 31.4164Z" fill="white"/>
</svg>
