<svg width="75" height="75" viewBox="0 0 75 75" fill="none" xmlns="http://www.w3.org/2000/svg">
<path opacity="0.2" d="M22.6 85.75L17.15 66.75C16.9146 65.935 16.4362 65.2112 15.7786 64.6751C15.1211 64.1391 14.3157 63.8164 13.47 63.75L-6.22 62.13C-6.95648 62.0707 -7.66408 61.8172 -8.27069 61.3953C-8.87731 60.9735 -9.36128 60.3984 -9.67329 59.7286C-9.9853 59.0589 -10.1142 58.3184 -10.0469 57.5826C-9.97955 56.8468 -9.71839 56.142 -9.29 55.54L2.17 39.43C2.65961 38.7374 2.92748 37.9125 2.93819 37.0643C2.9489 36.2162 2.70196 35.3848 2.23 34.68L-8.77 18.27C-9.18055 17.6572 -9.42162 16.9466 -9.46873 16.2105C-9.51585 15.4744 -9.36734 14.7389 -9.03828 14.0788C-8.70921 13.4186 -8.21132 12.8573 -7.59515 12.4518C-6.97898 12.0463 -6.26648 11.8111 -5.53 11.77L14.2 10.68C15.049 10.6372 15.8645 10.3354 16.5367 9.81509C17.2089 9.29482 17.7057 8.5811 17.96 7.77L23.96 -11.08C24.1888 -11.7705 24.5937 -12.3893 25.1349 -12.8754C25.6761 -13.3614 26.3347 -13.6978 27.0457 -13.8513C27.7568 -14.0048 28.4955 -13.9701 29.189 -13.7507C29.8825 -13.5312 30.5067 -13.1346 31 -12.6L44.16 2.15C44.7235 2.78627 45.4683 3.23469 46.2943 3.43493C47.1202 3.63516 47.9877 3.5776 48.78 3.27L67.22 -3.82C67.9099 -4.0842 68.6575 -4.16128 69.3868 -4.04343C70.1161 -3.92558 70.8013 -3.61699 71.3729 -3.14894C71.9445 -2.68089 72.3822 -2.07003 72.6416 -1.37828C72.901 -0.686531 72.9729 0.0615063 72.85 0.789997L69.51 20.27C69.3678 21.1064 69.4829 21.9663 69.84 22.7359C70.1971 23.5055 70.7795 24.1486 71.51 24.58L88.51 34.58C89.145 34.9556 89.6696 35.4922 90.0307 36.1356C90.3918 36.779 90.5766 37.5063 90.5664 38.244C90.5563 38.9817 90.3515 39.7036 89.9729 40.3368C89.5942 40.97 89.0551 41.492 88.41 41.85L71.1 51.39C70.3589 51.8003 69.7607 52.4271 69.3854 53.1866C69.0101 53.9461 68.8757 54.802 69 55.64L71.81 75.21C71.9139 75.9403 71.8228 76.6851 71.5458 77.3688C71.2688 78.0524 70.8158 78.6506 70.2328 79.1026C69.6498 79.5545 68.9576 79.8442 68.2265 79.9421C67.4954 80.04 66.7514 79.9427 66.07 79.66L47.86 72.08C47.0754 71.7528 46.2095 71.6733 45.3784 71.852C44.5474 72.0308 43.7907 72.4592 43.21 73.08L29.66 87.48C29.1527 88.017 28.5123 88.4099 27.8037 88.6189C27.0952 88.8278 26.344 88.8453 25.6266 88.6694C24.9091 88.4936 24.2511 88.1309 23.7194 87.618C23.1878 87.1052 22.8015 86.4606 22.6 85.75Z" fill="#FFFBDC"/>
<path opacity="0.2" d="M10 67.61L12.57 51.38C12.6765 50.6834 12.5702 49.9709 12.2651 49.3358C11.96 48.7006 11.4703 48.1723 10.86 47.82L-3.44 39.68C-3.96511 39.3748 -4.40091 38.937 -4.70383 38.4106C-5.00675 37.8841 -5.16618 37.2874 -5.16618 36.68C-5.16618 36.0726 -5.00675 35.4759 -4.70383 34.9494C-4.40091 34.4229 -3.96511 33.9852 -3.44 33.68L10.85 25.58C11.4676 25.23 11.9634 24.6994 12.2709 24.0595C12.5783 23.4196 12.6827 22.7009 12.57 22L10 5.74999C9.90607 5.14082 9.97562 4.51764 10.2015 3.94416C10.4274 3.37069 10.8016 2.8675 11.2858 2.48607C11.77 2.10464 12.3467 1.85864 12.9572 1.77323C13.5676 1.68783 14.1897 1.76608 14.76 1.99999L30 8.09999C30.6541 8.36334 31.3729 8.42114 32.0607 8.26572C32.7485 8.11029 33.3727 7.74901 33.85 7.22999L45 -4.88001C45.4157 -5.33115 45.9433 -5.66438 46.5292 -5.84595C47.1152 -6.02752 47.7387 -6.05097 48.3367 -5.91392C48.9346 -5.77687 49.4857 -5.48419 49.9341 -5.06554C50.3825 -4.64689 50.7123 -4.11716 50.89 -3.53001L55.61 12.21C55.8146 12.886 56.2195 13.4841 56.7712 13.9251C57.323 14.3661 57.9955 14.6293 58.7 14.68L75.09 15.82C75.7025 15.8609 76.2932 16.0636 76.8018 16.4073C77.3104 16.751 77.7187 17.2235 77.9851 17.7766C78.2514 18.3297 78.3663 18.9435 78.318 19.5554C78.2697 20.1674 78.0599 20.7556 77.71 21.26L68.35 34.76C67.9386 35.3458 67.7179 36.0442 67.7179 36.76C67.7179 37.4758 67.9386 38.1742 68.35 38.76L77.68 52.28C78.0183 52.7888 78.2167 53.3777 78.2552 53.9875C78.2937 54.5974 78.171 55.2066 77.8993 55.7539C77.6277 56.3012 77.2167 56.7674 76.7078 57.1055C76.1988 57.4436 75.6098 57.6417 75 57.68L58.61 58.78C57.9051 58.8293 57.2319 59.092 56.6799 59.5332C56.1279 59.9745 55.7234 60.5732 55.52 61.25L50.77 77C50.5937 77.5884 50.2643 78.1195 49.8156 78.539C49.3668 78.9585 48.8147 79.2513 48.2158 79.3876C47.6168 79.5239 46.9924 79.4987 46.4063 79.3146C45.8202 79.1306 45.2935 78.7942 44.88 78.34L33.8 66.18C33.3285 65.6682 32.7137 65.3105 32.0358 65.1535C31.3579 64.9965 30.6484 65.0476 30 65.3L14.69 71.38C14.1215 71.6019 13.5044 71.67 12.9012 71.5773C12.2979 71.4847 11.7298 71.2345 11.2541 70.8521C10.7784 70.4697 10.412 69.9687 10.1918 69.3994C9.9716 68.8302 9.90545 68.213 10 67.61V67.61Z" fill="#FFFBDC"/>
<path d="M19.48 39.5C4.25 38.38 -12.45 48 -17 53.8" stroke="#FFF4AD" stroke-width="5" stroke-linecap="round" stroke-linejoin="round"/>
<path d="M26.23 96.91C25.7614 96.8473 25.3202 96.6529 24.9575 96.3496C24.5949 96.0462 24.3258 95.6462 24.1813 95.196C24.0368 94.7459 24.023 94.264 24.1413 93.8062C24.2597 93.3485 24.5054 92.9337 24.85 92.61C27.3 90.31 28.52 88.18 28.27 86.61C28.02 85.04 26.5 84.17 24 82.72C21.5 81.27 18.57 79.55 17.44 76.34C15.51 70.85 19.65 63.96 30.44 54.64C30.9426 54.2064 31.5968 53.9901 32.2588 54.0389C32.9208 54.0877 33.5364 54.3974 33.97 54.9C34.4036 55.4026 34.6198 56.0568 34.5711 56.7188C34.5223 57.3808 34.2126 57.9964 33.71 58.43C21.71 68.74 21.63 73.23 22.14 74.68C22.65 76.13 24.52 77.24 26.5 78.39C29.21 79.97 32.57 81.93 33.2 85.84C33.73 89.17 32.07 92.68 28.26 96.26C27.9912 96.5124 27.6696 96.7018 27.3184 96.8142C26.9672 96.9267 26.5954 96.9594 26.23 96.91Z" fill="url(#paint0_linear_3_49)"/>
<path d="M-14.83 78C-17.9349 77.4435 -20.8328 76.0619 -23.22 74C-23.4842 73.7993 -23.7059 73.548 -23.872 73.2607C-24.0381 72.9735 -24.1454 72.6561 -24.1876 72.3269C-24.2298 71.9978 -24.206 71.6636 -24.1177 71.3437C-24.0294 71.0238 -23.8783 70.7248 -23.6732 70.4639C-23.4681 70.2031 -23.2131 69.9857 -22.9231 69.8244C-22.6331 69.6631 -22.3139 69.5611 -21.9841 69.5244C-21.6543 69.4878 -21.3205 69.5171 -21.0022 69.6108C-20.6839 69.7045 -20.3874 69.8606 -20.13 70.07C-17.13 72.42 -14.5 73.39 -12.31 72.95C-9.74 72.43 -8.23 70.02 -5.98 66.14C-4.39441 63.1999 -2.45317 60.466 -0.200001 58C5.8 51.73 15.33 48.66 27.98 48.87C28.3083 48.8752 28.6324 48.9451 28.9337 49.0756C29.235 49.2061 29.5076 49.3947 29.7361 49.6305C29.9645 49.8664 30.1442 50.1449 30.265 50.4502C30.3858 50.7556 30.4453 51.0817 30.44 51.41C30.4347 51.7383 30.3649 52.0624 30.2344 52.3637C30.1039 52.665 29.9153 52.9376 29.6795 53.1661C29.4436 53.3945 29.1651 53.5742 28.8598 53.695C28.5544 53.8158 28.2283 53.8753 27.9 53.87C16.68 53.68 8.44 56.24 3.4 61.47C1.44162 63.6719 -0.237722 66.107 -1.6 68.72C-3.94 72.72 -6.37 76.95 -11.28 77.93C-12.4508 78.1545 -13.6513 78.1782 -14.83 78V78Z" fill="url(#paint1_linear_3_49)"/>
<path d="M29.58 66.31L26.31 54.88C26.1668 54.3908 25.8792 53.9562 25.4849 53.6333C25.0905 53.3103 24.6078 53.114 24.1 53.07L12.26 52.07C11.8101 52.0402 11.3764 51.8897 11.0047 51.6344C10.633 51.3791 10.337 51.0284 10.1477 50.6191C9.95841 50.2098 9.88288 49.7571 9.92903 49.3086C9.97519 48.86 10.1413 48.4322 10.41 48.07L17.3 38.39C17.5912 37.97 17.7472 37.4711 17.7472 36.96C17.7472 36.4489 17.5912 35.95 17.3 35.53L10.67 25.67C10.4248 25.3009 10.2813 24.8737 10.2539 24.4314C10.2265 23.9891 10.3162 23.5475 10.5139 23.1509C10.7117 22.7544 11.0105 22.417 11.3803 22.1728C11.7501 21.9286 12.1777 21.7862 12.62 21.76L24.48 21.11C24.99 21.0829 25.4796 20.9008 25.8834 20.5881C26.2873 20.2754 26.5861 19.847 26.74 19.36L30.36 8.1C30.4942 7.67617 30.7382 7.2954 31.0671 6.99632C31.396 6.69724 31.7982 6.49049 32.2328 6.39707C32.6675 6.30364 33.1191 6.32685 33.5419 6.46436C33.9646 6.60186 34.3435 6.84876 34.64 7.18L42.54 16.05C42.8801 16.4314 43.3285 16.6999 43.8253 16.8196C44.322 16.9393 44.8435 16.9046 45.32 16.72L56.41 12.46C56.8244 12.2994 57.2741 12.2517 57.713 12.3218C58.1519 12.3919 58.5643 12.5773 58.908 12.859C59.2518 13.1407 59.5146 13.5087 59.6696 13.9253C59.8245 14.3418 59.8661 14.7921 59.79 15.23L57.79 26.94C57.707 27.4434 57.7782 27.9601 57.9941 28.4223C58.2101 28.8845 58.5607 29.2706 59 29.53L69.25 35.53C69.634 35.754 69.9516 36.0759 70.1703 36.4629C70.389 36.8499 70.5011 37.288 70.495 37.7325C70.4889 38.177 70.3648 38.6119 70.1356 38.9927C69.9063 39.3735 69.58 39.6866 69.19 39.9L58.78 45.64C58.3339 45.8852 57.9732 46.2607 57.7463 46.7164C57.5193 47.1721 57.4369 47.6862 57.51 48.19L59.19 60C59.2543 60.4395 59.2009 60.8883 59.0351 61.3004C58.8693 61.7125 58.5971 62.0732 58.2463 62.3457C57.8955 62.6182 57.4786 62.7928 57.0383 62.8515C56.598 62.9102 56.15 62.851 55.74 62.68L44.74 58.12C44.2673 57.9254 43.7468 57.8786 43.2469 57.9857C42.7471 58.0928 42.2915 58.3488 41.94 58.72L33.8 67.37C33.4921 67.6843 33.1072 67.9126 32.6837 68.032C32.2601 68.1514 31.8127 68.1578 31.3859 68.0506C30.9591 67.9434 30.5679 67.7263 30.251 67.4209C29.9342 67.1156 29.7028 66.7325 29.58 66.31Z" fill="url(#paint2_linear_3_49)"/>
<path d="M25.52 38.32C26.4368 38.32 27.18 37.5768 27.18 36.66C27.18 35.7432 26.4368 35 25.52 35C24.6032 35 23.86 35.7432 23.86 36.66C23.86 37.5768 24.6032 38.32 25.52 38.32Z" fill="#3C3C3B"/>
<path d="M33.04 41.35C33.9568 41.35 34.7 40.6068 34.7 39.69C34.7 38.7732 33.9568 38.03 33.04 38.03C32.1232 38.03 31.38 38.7732 31.38 39.69C31.38 40.6068 32.1232 41.35 33.04 41.35Z" fill="#3C3C3B"/>
<path d="M29.68 41.47C29.4994 41.8507 29.1808 42.1485 28.7888 42.303C28.3967 42.4575 27.9606 42.4571 27.5689 42.3019C27.1771 42.1467 26.859 41.8484 26.6791 41.4673C26.4992 41.0863 26.4709 40.6511 26.6 40.25" stroke="#3C3C3B" stroke-linecap="round" stroke-linejoin="round"/>
<path d="M-0.919992 62.22C-1.58303 62.1497 -2.191 61.8189 -2.61014 61.3004C-3.02929 60.7819 -3.22527 60.118 -3.15499 59.455C-3.08471 58.792 -2.75391 58.184 -2.23538 57.7649C-1.71684 57.3457 -1.05303 57.1497 -0.389993 57.22C7.78155 57.9077 16.0103 57.3173 24 55.47C32.7497 53.4446 41.0872 49.9337 48.65 45.09C48.9263 44.8975 49.2386 44.7629 49.5682 44.6941C49.8978 44.6252 50.2379 44.6237 50.5681 44.6896C50.8983 44.7554 51.2118 44.8873 51.4897 45.0773C51.7677 45.2673 52.0044 45.5115 52.1857 45.7952C52.367 46.079 52.4891 46.3964 52.5447 46.7285C52.6003 47.0605 52.5883 47.4004 52.5093 47.7277C52.4303 48.055 52.286 48.363 52.0851 48.6332C51.8842 48.9034 51.6307 49.1302 51.34 49.3C43.2874 54.4345 34.4163 58.1548 25.11 60.3C16.6252 62.2802 7.88451 62.9313 -0.799993 62.23L-0.919992 62.22Z" fill="url(#paint3_linear_3_49)"/>
<path d="M8.76 57.66L-42.41 50.18L-44 25.24C-44.0392 24.7942 -43.9783 24.3452 -43.8215 23.926C-43.6647 23.5068 -43.4161 23.128 -43.094 22.8174C-42.7718 22.5067 -42.3842 22.2721 -41.9596 22.1306C-41.535 21.9892 -41.0841 21.9446 -40.64 22L3.85 26.7C4.5579 26.767 5.21897 27.0834 5.71532 27.5925C6.21167 28.1017 6.51102 28.7706 6.56 29.48L8.76 57.66Z" fill="url(#paint4_linear_3_49)"/>
<path d="M21.18 69.35L-22.24 62.43C-24.4399 62.0803 -26.5263 61.217 -28.33 59.91L-41.76 50.19L8.47 57.53L22.17 66.86C22.4308 67.0342 22.624 67.2926 22.7172 67.5921C22.8105 67.8916 22.7981 68.214 22.6822 68.5055C22.5663 68.7969 22.3539 69.0398 22.0805 69.1935C21.8071 69.3472 21.4892 69.4025 21.18 69.35V69.35Z" fill="#878787"/>
<defs>
<linearGradient id="paint0_linear_3_49" x1="23.7594" y1="88.5446" x2="28.6954" y2="58.9865" gradientUnits="userSpaceOnUse">
<stop stop-color="#FFF4AD"/>
<stop offset="1" stop-color="#F9B233"/>
</linearGradient>
<linearGradient id="paint1_linear_3_49" x1="-15.7151" y1="78.1217" x2="3.48731" y2="61.4342" gradientUnits="userSpaceOnUse">
<stop stop-color="#FFF4AD"/>
<stop offset="1" stop-color="#F9B233"/>
</linearGradient>
<linearGradient id="paint2_linear_3_49" x1="27.0062" y1="24.2254" x2="65.6256" y2="63.3234" gradientUnits="userSpaceOnUse">
<stop stop-color="#FFF4AD"/>
<stop offset="1" stop-color="#F9B233"/>
</linearGradient>
<linearGradient id="paint3_linear_3_49" x1="31.0844" y1="51.4445" x2="63.792" y2="37.7426" gradientUnits="userSpaceOnUse">
<stop stop-color="#FFF4AD"/>
<stop offset="1" stop-color="#F9B233"/>
</linearGradient>
<linearGradient id="paint4_linear_3_49" x1="-45.3852" y1="35.3447" x2="10.7267" y2="42.7619" gradientUnits="userSpaceOnUse">
<stop stop-color="#DADADA"/>
<stop offset="1" stop-color="#B2B2B2"/>
</linearGradient>
</defs>
</svg>
