<svg width="200" height="177" viewBox="0 0 200 177" fill="none" xmlns="http://www.w3.org/2000/svg">
<path opacity="0.2" d="M61.6036 130.102L58.2615 110.619C58.1198 109.782 57.725 109.008 57.1303 108.401C56.5355 107.794 55.7693 107.385 54.9347 107.226L35.5281 103.468C34.8039 103.327 34.1299 102.997 33.5746 102.511C33.0193 102.026 32.6024 101.402 32.3664 100.703C32.1304 100.004 32.0836 99.2544 32.2308 98.5315C32.378 97.8085 32.7139 97.1374 33.2045 96.5862L46.3481 81.8284C46.9148 81.195 47.2745 80.4036 47.379 79.5601C47.4834 78.7166 47.3276 77.8614 46.9325 77.1089L37.7686 59.6004C37.4254 58.9465 37.2616 58.2134 37.2939 57.4756C37.3261 56.7378 37.5532 56.0217 37.9521 55.4002C38.351 54.7787 38.9074 54.274 39.5647 53.9374C40.2221 53.6009 40.9568 53.4444 41.6943 53.4841L61.4333 54.5623C62.2739 54.5961 63.1052 54.3761 63.8191 53.9308C64.5329 53.4856 65.0962 52.8358 65.4356 52.066L73.4523 33.9834C73.7506 33.3078 74.2225 32.7233 74.8201 32.2895C75.4177 31.8556 76.1196 31.5877 76.8543 31.5132C77.589 31.4387 78.3303 31.5602 79.0029 31.8652C79.6754 32.1703 80.2551 32.6481 80.6829 33.25L92.1581 49.3506C92.651 50.0415 93.3425 50.566 94.1407 50.8543C94.9389 51.1426 95.806 51.1811 96.6266 50.9647L115.741 45.9224C116.456 45.7337 117.207 45.7377 117.919 45.934C118.631 46.1303 119.279 46.5118 119.796 47.0397C120.313 47.5677 120.68 48.2231 120.861 48.9393C121.042 49.6556 121.03 50.407 120.826 51.1171L115.359 70.122C115.127 70.9386 115.149 71.8062 115.422 72.61C115.694 73.4139 116.204 74.116 116.885 74.6235L132.764 86.4681C133.355 86.9096 133.819 87.4998 134.108 88.1787C134.398 88.8576 134.502 89.601 134.411 90.3333C134.32 91.0657 134.037 91.7608 133.59 92.3481C133.143 92.9355 132.549 93.3941 131.867 93.6773L113.62 101.23C112.839 101.559 112.175 102.117 111.717 102.831C111.26 103.545 111.029 104.381 111.057 105.228L111.718 124.989C111.743 125.727 111.571 126.46 111.22 127.11C110.869 127.761 110.352 128.307 109.722 128.693C109.091 129.078 108.369 129.29 107.63 129.306C106.891 129.322 106.161 129.141 105.515 128.783L88.2036 119.257C87.4592 118.848 86.6077 118.675 85.7626 118.762C84.9175 118.848 84.1188 119.191 83.4731 119.743L68.4613 132.569C67.9003 133.054 67.2202 133.382 66.4909 133.518C65.7615 133.654 65.0091 133.593 64.3109 133.342C63.6128 133.091 62.994 132.658 62.5182 132.089C62.0425 131.52 61.7267 130.834 61.6036 130.102Z" fill="#FFFBDC"/>
<path opacity="0.2" d="M51.0315 110.683L55.3361 94.8367C55.5215 94.1546 55.4949 93.4323 55.2597 92.7657C55.0245 92.0992 54.5919 91.5201 54.0195 91.1054L40.7484 81.4632C40.2514 81.1034 39.8587 80.6183 39.6102 80.0573C39.3618 79.4963 39.2666 78.8795 39.3342 78.2697C39.4019 77.6599 39.63 77.0789 39.9953 76.586C40.3607 76.0931 40.8502 75.7059 41.414 75.4638L56.5 68.9677C57.1487 68.6897 57.6969 68.22 58.071 67.6216C58.4451 67.0231 58.6273 66.3246 58.5931 65.6197L57.8482 49.199C57.8189 48.586 57.9527 47.9763 58.2359 47.4319C58.5191 46.8875 58.9416 46.4279 59.4603 46.1001C59.9791 45.7722 60.5754 45.5878 61.1887 45.5656C61.8019 45.5434 62.4101 45.6842 62.9512 45.9737L77.444 53.717C78.0674 54.0491 78.7768 54.1842 79.4786 54.1045C80.1804 54.0248 80.8414 53.734 81.3745 53.2707L93.7345 42.4321C94.1983 42.0286 94.7607 41.7553 95.3644 41.6397C95.9682 41.5242 96.5918 41.5707 97.1718 41.7745C97.7518 41.9782 98.2674 42.3319 98.6663 42.7997C99.0652 43.2674 99.333 43.8325 99.4426 44.4373L102.428 60.5901C102.556 61.2844 102.892 61.9233 103.391 62.4221C103.891 62.9209 104.531 63.2559 105.225 63.3827L121.362 66.2976C121.965 66.4093 122.528 66.6783 122.993 67.0774C123.459 67.4765 123.811 67.9914 124.013 68.5702C124.215 69.1489 124.261 69.7708 124.146 70.373C124.031 70.9752 123.759 71.5363 123.357 71.9994L112.616 84.4495C112.152 84.9825 111.862 85.6443 111.785 86.3465C111.707 87.0487 111.846 87.7579 112.182 88.3791L119.979 102.836C120.27 103.377 120.413 103.985 120.393 104.599C120.373 105.212 120.191 105.81 119.866 106.331C119.54 106.851 119.083 107.277 118.54 107.563C117.997 107.85 117.388 107.988 116.774 107.963L100.325 107.218C99.6197 107.189 98.9226 107.375 98.3257 107.751C97.7289 108.128 97.2605 108.677 96.9827 109.325L90.5688 124.429C90.3288 124.994 89.9431 125.486 89.451 125.853C88.9589 126.221 88.3782 126.451 87.768 126.521C87.1578 126.59 86.5401 126.497 85.978 126.25C85.4158 126.002 84.9293 125.61 84.5682 125.114L74.8704 111.865C74.4542 111.295 73.8748 110.865 73.2088 110.633C72.5429 110.4 71.822 110.375 71.1416 110.561L55.3175 114.947C54.7254 115.114 54.0995 115.12 53.5041 114.965C52.9086 114.811 52.365 114.501 51.9288 114.067C51.4927 113.633 51.1798 113.091 51.0221 112.496C50.8644 111.902 50.8676 111.276 51.0315 110.683Z" fill="#FFFBDC"/>
<path d="M115.75 112.467C114.027 111.847 112.353 111.098 110.742 110.227C104.696 106.945 99.7217 101.992 96.4146 95.9589C96.2213 95.6698 96.0904 95.3435 96.0304 95.001C95.9703 94.6584 95.9824 94.3071 96.0658 93.9695C96.1493 93.6318 96.3023 93.3153 96.515 93.0402C96.7277 92.765 96.9955 92.5373 97.3012 92.3715C97.6069 92.2058 97.9439 92.1056 98.2905 92.0775C98.6372 92.0493 98.9859 92.0938 99.3143 92.2081C99.6428 92.3224 99.9438 92.504 100.198 92.7412C100.452 92.9784 100.654 93.2661 100.791 93.5859C103.661 98.7564 107.932 103.011 113.114 105.86C118.239 108.637 124.047 109.903 129.863 109.513C130.526 109.469 131.178 109.689 131.678 110.126C132.178 110.563 132.484 111.181 132.528 111.843C132.573 112.506 132.352 113.159 131.915 113.659C131.478 114.158 130.86 114.464 130.198 114.509C125.293 114.821 120.376 114.126 115.75 112.467Z" fill="url(#paint0_linear_6_16)"/>
<path d="M89.4344 148.382C88.9936 148.572 88.5074 148.631 88.0338 148.553C87.5602 148.474 87.1192 148.26 86.7637 147.938C85.5514 146.853 84.5413 145.562 83.7804 144.125C82.0458 140.788 82.8836 133.325 86.245 121.951C88.4772 114.467 87.4596 105.568 83.1882 95.5505C82.9328 94.9414 82.9279 94.2561 83.1744 93.6433C83.4209 93.0305 83.8991 92.5396 84.5052 92.2771C84.8065 92.1479 85.1303 92.0795 85.4582 92.0759C85.786 92.0722 86.1113 92.1333 86.4154 92.2557C86.7196 92.378 86.9965 92.5592 87.2305 92.7889C87.4644 93.0186 87.6507 93.2922 87.7786 93.594C92.5372 104.697 93.5811 114.749 91.0259 123.384C87.9126 133.889 87.3493 140.191 88.1713 141.829C88.659 142.752 89.3084 143.579 90.0883 144.272C90.332 144.492 90.5297 144.759 90.67 145.056C90.8102 145.353 90.8903 145.675 90.9056 146.003C90.9208 146.331 90.871 146.659 90.7589 146.968C90.6468 147.277 90.4747 147.561 90.2525 147.803C90.0248 148.052 89.7457 148.25 89.4344 148.382Z" fill="url(#paint1_linear_6_16)"/>
<path d="M45.3634 121.37C44.9075 121.329 44.4706 121.169 44.0973 120.904C43.8303 120.71 43.6044 120.466 43.4324 120.184C43.2604 119.903 43.1458 119.59 43.0953 119.264C43.0447 118.938 43.0591 118.605 43.1377 118.285C43.2163 117.965 43.3575 117.663 43.5532 117.398C43.7008 117.189 43.8426 116.93 44.0167 116.643C44.9017 114.742 46.4225 113.21 48.3166 112.311C52.547 110.653 56.4794 112.492 59.6474 113.987C61.5799 114.888 63.3571 115.727 64.7946 115.695C68.9401 115.555 73.7337 109.126 78.3264 97.5843C78.5931 97.0037 79.0719 96.5473 79.6645 96.3087C80.2572 96.0702 80.9187 96.0676 81.5132 96.3014C82.1078 96.5353 82.5902 96.9879 82.8615 97.5663C83.1328 98.1447 83.1724 98.805 82.9721 99.4116C77.4153 113.523 71.5343 120.484 64.9955 120.688C62.3489 120.781 59.9054 119.627 57.5491 118.51C54.7965 117.21 52.4112 116.08 50.2014 116.962C49.3872 117.494 48.7486 118.254 48.3658 119.148C48.1385 119.563 47.8877 119.965 47.6146 120.351C47.3604 120.702 47.0191 120.98 46.6242 121.159C46.2294 121.338 45.7948 121.41 45.3634 121.37Z" fill="url(#paint2_linear_6_16)"/>
<path d="M73.3198 112.533L82.6266 105.152C83.0257 104.833 83.5127 104.645 84.0223 104.611C84.5318 104.578 85.0394 104.701 85.4768 104.964L95.6711 111.074C96.0516 111.302 96.4858 111.426 96.9296 111.432C97.3733 111.438 97.8107 111.326 98.1971 111.108C98.5836 110.889 98.9053 110.573 99.1294 110.19C99.3536 109.807 99.4722 109.371 99.4731 108.927L99.4841 97.0474C99.4847 96.5363 99.6413 96.0376 99.933 95.618C100.225 95.1983 100.637 94.8777 101.116 94.6989L112.34 90.5393C112.756 90.3827 113.122 90.1191 113.403 89.7752C113.684 89.4313 113.869 89.0193 113.94 88.5809C114.01 88.1424 113.963 87.6932 113.804 87.2786C113.645 86.864 113.38 86.4988 113.034 86.2199L103.761 78.7913C103.365 78.4699 103.075 78.0359 102.931 77.5465C102.787 77.0571 102.795 76.5355 102.953 76.0506L106.634 64.754C106.773 64.3322 106.797 63.8811 106.705 63.4468C106.612 63.0125 106.406 62.6105 106.107 62.2818C105.809 61.9532 105.428 61.7096 105.005 61.576C104.581 61.4424 104.13 61.4235 103.697 61.5213L92.0645 64.1306C91.5662 64.2425 91.0457 64.1998 90.5724 64.0081C90.0991 63.8165 89.6955 63.4851 89.4155 63.0581L82.8846 53.1321C82.641 52.7604 82.3031 52.4601 81.9054 52.2618C81.5077 52.0635 81.0645 51.9743 80.6211 52.0034C80.1776 52.0325 79.7499 52.1788 79.3815 52.4273C79.0131 52.6758 78.7173 53.0177 78.5243 53.418L73.3645 64.1033C73.1398 64.562 72.7816 64.9419 72.337 65.1932C71.8923 65.4444 71.382 65.5552 70.8732 65.511L59.0142 64.4C58.5719 64.3603 58.127 64.4382 57.7245 64.6257C57.322 64.8132 56.9762 65.1038 56.7221 65.4679C56.468 65.8321 56.3147 66.2569 56.2776 66.6994C56.2405 67.1419 56.321 67.5864 56.5109 67.9877L61.631 78.7025C61.8547 79.1636 61.9313 79.6824 61.8503 80.1885C61.7694 80.6947 61.5348 81.1637 61.1784 81.5321L52.9605 90.1045C52.6513 90.4244 52.4328 90.8207 52.3272 91.2529C52.2216 91.6851 52.2328 92.1375 52.3596 92.564C52.4863 92.9904 52.7242 93.3755 53.0487 93.6797C53.3733 93.984 53.7729 94.1966 54.2066 94.2956L65.7841 97.0063C66.2817 97.1194 66.7325 97.3826 67.0755 97.7603C67.4186 98.138 67.6373 98.612 67.7022 99.1181L69.3213 110.89C69.3863 111.32 69.5617 111.726 69.8305 112.069C70.0993 112.411 70.4522 112.679 70.8549 112.844C71.2576 113.01 71.6963 113.068 72.1283 113.014C72.5603 112.959 72.9708 112.794 73.3198 112.533Z" fill="url(#paint3_linear_6_16)"/>
<path d="M98.933 87.3969L96.2124 88.0744L98.2408 89.7563" stroke="#3C3C3B" stroke-linecap="round" stroke-linejoin="round"/>
<path d="M87.6934 87.269L90.4354 86.6841L88.4651 84.9345" stroke="#3C3C3B" stroke-linecap="round" stroke-linejoin="round"/>
<path d="M89.7571 99.2208C82.7621 101.56 75.794 102.264 70.6012 101.39C67.2851 100.838 64.6864 99.6453 63.2815 97.8882C61.3687 95.4547 61.6892 92.1246 64.052 88.6128C65.5535 89.4076 67.0986 90.1171 68.6801 90.7378C67.3363 92.4649 66.6567 94.0858 67.2046 94.7595C68.6697 96.6627 77.1642 98.169 88.1654 94.4795C88.7941 94.2684 89.481 94.3157 90.0748 94.6111C90.6686 94.9064 91.1208 95.4255 91.3319 96.0543C91.5429 96.683 91.4956 97.3698 91.2003 97.9637C90.9049 98.5575 90.3858 99.0097 89.7571 99.2208Z" fill="url(#paint4_linear_6_16)"/>
<path d="M91.4298 88.6788C91.3557 89.0936 91.442 89.521 91.6714 89.8745C91.9007 90.228 92.2559 90.481 92.665 90.5823C93.074 90.6836 93.5062 90.6255 93.874 90.4199C94.2418 90.2142 94.5176 89.8764 94.6456 89.4749" stroke="#3C3C3B" stroke-linecap="round" stroke-linejoin="round"/>
<path d="M119.487 123.749C119.179 124.207 119.3 124.828 119.759 125.136C120.217 125.445 120.838 125.323 121.147 124.865L119.487 123.749ZM149.502 82.6926C149.81 82.2343 149.688 81.613 149.23 81.3048C148.772 80.9967 148.15 81.1184 147.842 81.5767L149.502 82.6926ZM121.147 124.865L149.502 82.6926L147.842 81.5767L119.487 123.749L121.147 124.865Z" fill="url(#paint5_linear_6_16)"/>
<path d="M178.616 95.9134C180.568 90.6748 157.258 82.7875 149.354 82.866L135.92 102.917C152.9 102.942 167.766 112.87 166.62 115.307L178.616 95.9134Z" fill="#3D4B9F"/>
<mask id="mask0_6_16" style="mask-type:alpha" maskUnits="userSpaceOnUse" x="135" y="82" width="44" height="34">
<path d="M178.616 95.9134C180.568 90.6748 157.258 82.7875 149.354 82.866L135.92 102.917C152.9 102.942 167.766 112.87 166.62 115.307L178.616 95.9134Z" fill="#3D4B9F"/>
</mask>
<g mask="url(#mask0_6_16)">
<path d="M174.471 103.198C176.422 97.9596 152.065 89.682 144.161 89.7604L140.797 94.9498C157.777 94.9752 172.984 105.269 171.838 107.705L174.471 103.198Z" fill="white"/>
<path d="M150.857 105.839L164.064 84.921L169.688 86.4638L156.447 108.795L150.857 105.839Z" fill="white"/>
<path d="M157.762 95.3129C154.235 89.9479 150.305 85.137 147.6 82.4511L150.817 81.5019C155.391 86.2447 158.869 90.6012 161.491 94.5034C169.91 92.7547 177.186 91.8263 179.421 93.1113L180.736 95.9872C179.197 94.665 171.805 95.6409 163.319 97.373C168.589 106.141 169.315 112.217 168.765 114.674C167.464 118.166 165.579 124.893 165.913 115.282C166.075 110.634 163.237 104.233 159.567 98.1705C150.116 100.254 140.188 102.965 135.871 104.33L134.556 101.454C140.496 99.6658 149.398 97.2017 157.762 95.3129Z" fill="white"/>
<path d="M151.71 106.65L165.559 84.8455L168.702 86.0163L155.194 108.187L151.71 106.65Z" fill="#D13636"/>
<path d="M174.081 104.246C176.032 99.0073 149.92 90.3148 142.017 90.3933L140.846 93.5364C157.826 93.5618 173.74 103.88 172.594 106.317L174.081 104.246Z" fill="#D13636"/>
</g>
<defs>
<linearGradient id="paint0_linear_6_16" x1="127.506" y1="116.211" x2="80.9242" y2="75.6556" gradientUnits="userSpaceOnUse">
<stop stop-color="#FFF4AD"/>
<stop offset="0.81" stop-color="#F9B233"/>
</linearGradient>
<linearGradient id="paint1_linear_6_16" x1="83.3825" y1="134.591" x2="91.836" y2="101.157" gradientUnits="userSpaceOnUse">
<stop stop-color="#FFF4AD"/>
<stop offset="0.81" stop-color="#F9B233"/>
</linearGradient>
<linearGradient id="paint2_linear_6_16" x1="54.4043" y1="121.973" x2="71.7975" y2="99.4949" gradientUnits="userSpaceOnUse">
<stop stop-color="#FFF4AD"/>
<stop offset="0.81" stop-color="#F9B233"/>
</linearGradient>
<linearGradient id="paint3_linear_6_16" x1="101.737" y1="64.4599" x2="59.181" y2="107.75" gradientUnits="userSpaceOnUse">
<stop stop-color="#FFF4AD"/>
<stop offset="0.81" stop-color="#F9B233"/>
</linearGradient>
<linearGradient id="paint4_linear_6_16" x1="74.0391" y1="104.084" x2="65.9213" y2="85.4509" gradientUnits="userSpaceOnUse">
<stop stop-color="#FFF4AD"/>
<stop offset="0.862312" stop-color="#F9B63A"/>
</linearGradient>
<linearGradient id="paint5_linear_6_16" x1="161.104" y1="99.8623" x2="124.905" y2="133.624" gradientUnits="userSpaceOnUse">
<stop stop-color="#574421"/>
<stop offset="1" stop-color="#2F2F2F"/>
</linearGradient>
</defs>
</svg>
