<svg width="141" height="103" viewBox="0 0 141 103" fill="none" xmlns="http://www.w3.org/2000/svg">
<path d="M80.2741 57.4751C78.443 57.4463 76.6167 57.2791 74.8108 56.9752C68.0277 55.8255 61.7191 52.7474 56.6385 48.1085C56.3621 47.8974 56.1327 47.6311 55.9651 47.3263C55.7975 47.0216 55.6953 46.6853 55.665 46.3388C55.6348 45.9923 55.6772 45.6434 55.7895 45.3142C55.9018 44.9851 56.0815 44.683 56.3172 44.4272C56.5529 44.1715 56.8393 43.9677 57.1582 43.829C57.4771 43.6902 57.8215 43.6195 58.1692 43.6214C58.517 43.6233 58.8606 43.6978 59.178 43.84C59.4953 43.9822 59.7795 44.1891 60.0124 44.4474C64.3998 48.412 69.8179 51.0567 75.6425 52.0768C81.3906 53.0463 87.2957 52.3662 92.673 50.1156C93.2855 49.8593 93.9747 49.8568 94.589 50.1087C95.2033 50.3606 95.6924 50.8462 95.9487 51.4586C96.205 52.0711 96.2075 52.7603 95.9556 53.3747C95.7038 53.989 95.2182 54.4781 94.6057 54.7344C90.0656 56.6166 85.1883 57.5494 80.2741 57.4751V57.4751Z" fill="url(#paint0_linear_11_22)"/>
<path d="M66.989 99.9712C66.6335 100.294 66.1925 100.507 65.7189 100.586C65.2453 100.665 64.759 100.605 64.3182 100.415C62.8204 99.781 61.447 98.886 60.262 97.7718C57.5415 95.1756 55.9203 87.8424 55.4223 75.9927C55.1138 68.1886 51.2727 60.0974 43.9909 52C43.5523 51.5062 43.3259 50.8593 43.361 50.1998C43.3961 49.5402 43.6898 48.921 44.1783 48.4765V48.4765C44.4217 48.2569 44.7061 48.0874 45.0151 47.9779C45.3241 47.8684 45.6517 47.821 45.979 47.8384C46.3064 47.8558 46.6271 47.9377 46.9227 48.0794C47.2184 48.2211 47.4832 48.4197 47.7018 48.664C55.7958 57.6313 60.0346 66.8049 60.4096 75.802C60.8616 86.7501 62.3667 92.8949 63.6745 94.1797C64.4344 94.8946 65.3163 95.4673 66.2785 95.8707C66.5804 96.0004 66.8536 96.1886 67.0824 96.4244C67.3112 96.6602 67.4911 96.9389 67.6117 97.2445C67.7323 97.5502 67.7912 97.8767 67.7851 98.2052C67.7789 98.5337 67.7078 98.8577 67.5758 99.1586C67.4412 99.4687 67.241 99.7459 66.989 99.9712V99.9712Z" fill="url(#paint1_linear_11_22)"/>
<path d="M16.5501 88.6652C16.1057 88.7746 15.6403 88.764 15.2015 88.6342C14.8862 88.5372 14.5933 88.3788 14.3395 88.1681C14.0857 87.9574 13.8762 87.6986 13.7229 87.4065C13.5696 87.1144 13.4756 86.7949 13.4464 86.4664C13.4172 86.1378 13.4532 85.8068 13.5525 85.4922C13.6247 85.2471 13.675 84.9559 13.747 84.6283C13.9697 82.5436 14.9133 80.6019 16.4148 79.1387C19.8814 76.2011 24.1972 76.6693 27.6784 77.0593C29.7987 77.2874 31.7516 77.5062 33.1014 77.0108C36.9787 75.5372 39.4356 67.904 40.0482 55.4969C40.1128 54.8613 40.4183 54.2746 40.9019 53.8571C41.3856 53.4397 42.0107 53.2233 42.6489 53.2523C43.2871 53.2813 43.89 53.5535 44.3338 54.0131C44.7776 54.4726 45.0286 55.0846 45.0353 55.7235C44.3414 70.8738 41.0279 79.3627 34.9066 81.6707C32.4324 82.6149 29.7468 82.3128 27.1559 82.0179C24.1307 81.6778 21.5082 81.3805 19.7024 82.9294C19.104 83.6961 18.7457 84.6226 18.6727 85.5924C18.5919 86.0584 18.4844 86.5194 18.3507 86.9731C18.2238 87.3875 17.9909 87.7615 17.6751 88.0583C17.3593 88.355 16.9715 88.5642 16.5501 88.6652V88.6652Z" fill="url(#paint2_linear_11_22)"/>
<path d="M40.1458 71.2617L46.565 61.2669C46.8396 60.8364 47.2394 60.5002 47.7107 60.3037C48.182 60.1072 48.7022 60.0598 49.2013 60.1677L60.8238 62.6515C61.2577 62.7446 61.7085 62.721 62.1303 62.5831C62.5521 62.4452 62.9298 62.1979 63.2249 61.8665C63.52 61.5351 63.722 61.1313 63.8102 60.6964C63.8984 60.2615 63.8698 59.8109 63.7271 59.3907L59.8951 48.1457C59.7304 47.6619 59.7172 47.1394 59.8575 46.6479C59.9977 46.1565 60.2847 45.7196 60.6799 45.3956L69.9551 37.8293C70.2977 37.5467 70.5595 37.1787 70.7141 36.7624C70.8686 36.3461 70.9105 35.8964 70.8353 35.4588C70.7602 35.0211 70.5707 34.6111 70.2861 34.2702C70.0015 33.9293 69.6319 33.6697 69.2147 33.5176L58.0374 29.4876C57.5585 29.3117 57.1443 28.9945 56.8496 28.578C56.5549 28.1616 56.3935 27.6655 56.3868 27.1554L56.2157 15.2756C56.2106 14.8316 56.0877 14.3968 55.8597 14.0158C55.6317 13.6348 55.3067 13.321 54.9179 13.1066C54.529 12.8922 54.0902 12.7848 53.6463 12.7953C53.2024 12.8058 52.7692 12.9339 52.391 13.1666L42.2277 19.3979C41.7925 19.665 41.2861 19.7929 40.7763 19.7647C40.2664 19.7365 39.7773 19.5534 39.3742 19.2399L29.984 11.9597C29.6332 11.6868 29.2164 11.5119 28.7759 11.4529C28.3355 11.3939 27.8872 11.4529 27.477 11.6238C27.0668 11.7948 26.7094 12.0716 26.4412 12.4259C26.173 12.7802 26.0037 13.1994 25.9506 13.6406L24.5241 25.4204C24.4598 25.9271 24.2438 26.4025 23.9043 26.7841C23.5648 27.1656 23.1177 27.4355 22.622 27.5582L11.0411 30.3426C10.6097 30.4481 10.2139 30.6657 9.89372 30.9733C9.5735 31.2809 9.34026 31.6677 9.21761 32.0945C9.09496 32.5212 9.08725 32.9728 9.19527 33.4035C9.30328 33.8343 9.52319 34.2288 9.83272 34.5472L18.1432 43.0299C18.504 43.3939 18.7443 43.8601 18.8314 44.3652C18.9185 44.8703 18.8482 45.39 18.6301 45.8538L13.6265 56.6234C13.4375 57.0262 13.3589 57.4719 13.3987 57.915C13.4386 58.3581 13.5955 58.7826 13.8534 59.1451C14.1113 59.5076 14.4609 59.795 14.8664 59.978C15.2719 60.1609 15.7188 60.2328 16.1612 60.1863L27.9932 59.0067C28.5006 58.9527 29.0123 59.056 29.4591 59.3024C29.9059 59.5489 30.2661 59.9266 30.4912 60.3846L35.8306 70.9996C36.0314 71.386 36.3288 71.7137 36.6939 71.9509C37.059 72.1881 37.4794 72.3267 37.914 72.3531C38.3486 72.3794 38.7826 72.2928 39.1737 72.1015C39.5649 71.9103 39.8998 71.6209 40.1458 71.2617Z" fill="url(#paint3_linear_11_22)"/>
<path d="M56.2522 39.1922L53.897 40.7132L56.3604 41.6486" stroke="#3C3C3B" stroke-linecap="round" stroke-linejoin="round"/>
<path d="M45.5755 42.7065L47.9809 41.2661L45.5506 40.2478" stroke="#3C3C3B" stroke-linecap="round" stroke-linejoin="round"/>
<path d="M51.3938 53.3483C45.5314 57.8243 39.1654 60.7437 33.9694 61.5971C30.653 62.1473 27.808 61.8588 25.9104 60.6506C23.3132 58.9665 22.5394 55.7117 23.6394 51.6245C25.3173 51.891 27.0088 52.0626 28.706 52.1385C27.993 54.2073 27.8743 55.9609 28.6106 56.4212C30.6126 57.7482 39.1376 56.4261 48.3542 49.3767C48.8809 48.9736 49.5461 48.7963 50.2035 48.8837C50.861 48.971 51.4568 49.316 51.8598 49.8427C52.2629 50.3694 52.4403 51.0346 52.3529 51.692C52.2655 52.3495 51.9205 52.9452 51.3938 53.3483Z" fill="url(#paint4_linear_11_22)"/>
<path d="M49.567 42.8319C49.631 43.2484 49.851 43.625 50.1823 43.8853C50.5137 44.1456 50.9317 44.2701 51.3514 44.2337C51.7712 44.1972 52.1615 44.0025 52.443 43.6889C52.7245 43.3754 52.8762 42.9665 52.8674 42.5452" stroke="#3C3C3B" stroke-linecap="round" stroke-linejoin="round"/>
<path d="M87.4589 66.9421C87.3156 67.4755 87.6317 68.024 88.1651 68.1674C88.6984 68.3108 89.247 67.9946 89.3904 67.4613L87.4589 66.9421ZM102.582 18.3849C102.725 17.8515 102.409 17.3029 101.876 17.1596C101.342 17.0162 100.794 17.3324 100.65 17.8657L102.582 18.3849ZM89.3904 67.4613L102.582 18.3849L100.65 17.8657L87.4589 66.9421L89.3904 67.4613Z" fill="url(#paint5_linear_11_22)"/>
<path d="M134.407 21.4784C134.559 15.8903 109.951 15.9662 102.498 18.5967L96.271 41.9146C112.347 36.4467 129.625 41.0329 129.328 43.7091L134.407 21.4784Z" fill="#3D4B9F"/>
<mask id="mask0_11_22" style="mask-type:alpha" maskUnits="userSpaceOnUse" x="96" y="16" width="39" height="28">
<path d="M134.407 21.4784C134.559 15.8903 109.951 15.9662 102.498 18.5967L96.271 41.9146C112.347 36.4467 129.625 41.0329 129.328 43.7091L134.407 21.4784Z" fill="#3D4B9F"/>
</mask>
<g mask="url(#mask0_11_22)">
<path d="M132.841 29.7123C132.993 24.1242 107.267 24.1696 99.814 26.8002L98.3086 32.7988C114.384 27.3309 132.103 32.1528 131.807 34.829L132.841 29.7123Z" fill="white"/>
<path d="M111.35 39.8488L117.082 15.7835L122.902 15.4245L117.596 40.8381L111.35 39.8488Z" fill="white"/>
<path d="M114.48 27.6552C109.407 23.7192 104.132 20.438 100.704 18.7715L103.441 16.8328C109.303 19.8415 114.003 22.8387 117.746 25.683C125.147 21.3053 131.732 18.0736 134.263 18.5665L136.437 20.8626C134.552 20.1094 127.874 23.4235 120.404 27.8073C128.227 34.3998 130.879 39.914 131.153 42.4166C131.052 46.142 131.443 53.1169 128.652 43.9144C127.302 39.4643 122.546 34.3252 117.112 29.7754C108.843 34.8038 100.325 40.5802 96.6815 43.2679L94.5071 40.9719C99.5491 37.3587 107.176 32.1478 114.48 27.6552Z" fill="white"/>
<path d="M112.419 40.3409L118.472 15.2287L121.824 15.32L116.213 40.6679L112.419 40.3409Z" fill="#D13636"/>
<path d="M132.81 30.8299C132.962 25.2418 105.443 25.4621 97.9893 28.0926L97.8981 31.4455C113.974 25.9776 132.369 30.5942 132.073 33.2704L132.81 30.8299Z" fill="#D13636"/>
</g>
<defs>
<linearGradient id="paint0_linear_11_22" x1="92.6092" y1="57.2154" x2="35.4139" y2="33.9066" gradientUnits="userSpaceOnUse">
<stop stop-color="#FFF4AD"/>
<stop offset="0.81" stop-color="#F9B233"/>
</linearGradient>
<linearGradient id="paint1_linear_11_22" x1="56.8018" y1="88.8787" x2="53.9874" y2="54.5084" gradientUnits="userSpaceOnUse">
<stop stop-color="#FFF4AD"/>
<stop offset="0.81" stop-color="#F9B233"/>
</linearGradient>
<linearGradient id="paint2_linear_11_22" x1="25.3004" y1="86.3125" x2="34.4883" y2="59.4166" gradientUnits="userSpaceOnUse">
<stop stop-color="#FFF4AD"/>
<stop offset="0.81" stop-color="#F9B233"/>
</linearGradient>
<linearGradient id="paint3_linear_11_22" x1="51.487" y1="16.5811" x2="25.2198" y2="71.3083" gradientUnits="userSpaceOnUse">
<stop stop-color="#FFF4AD"/>
<stop offset="0.81" stop-color="#F9B233"/>
</linearGradient>
<linearGradient id="paint4_linear_11_22" x1="38.0937" y1="63.0341" x2="24.3855" y2="48.028" gradientUnits="userSpaceOnUse">
<stop stop-color="#FFF4AD"/>
<stop offset="0.862312" stop-color="#F9B63A"/>
</linearGradient>
<linearGradient id="paint5_linear_11_22" x1="119.113" y1="30.8791" x2="95.7798" y2="74.5346" gradientUnits="userSpaceOnUse">
<stop stop-color="#574421"/>
<stop offset="1" stop-color="#2F2F2F"/>
</linearGradient>
</defs>
</svg>
