<svg width="43" height="36" viewBox="0 0 43 36" fill="none" xmlns="http://www.w3.org/2000/svg">
<path d="M4.15 34.85C3.81667 34.5167 3.65 34.1333 3.65 33.7C3.65 33.2667 3.81667 32.8833 4.15 32.55L16.95 19.75C17.1167 19.5833 17.2833 19.4667 17.45 19.4C17.6167 19.3333 17.8 19.3 18 19.3C18.2 19.3 18.3833 19.3333 18.55 19.4C18.7167 19.4667 18.8833 19.5833 19.05 19.75L26 26.75L39.9 11.2C40.1667 10.9 40.5083 10.7333 40.925 10.7C41.3417 10.6667 41.7 10.8 42 11.1C42.2667 11.3667 42.4083 11.7 42.425 12.1C42.4417 12.5 42.3167 12.85 42.05 13.15L27.05 30.05C26.8833 30.2167 26.7167 30.3417 26.55 30.425C26.3833 30.5083 26.2 30.55 26 30.55C25.8 30.55 25.6 30.525 25.4 30.475C25.2 30.425 25.0167 30.3167 24.85 30.15L18 23.3L6.45 34.85C6.11667 35.1833 5.73333 35.35 5.3 35.35C4.86667 35.35 4.48333 35.1833 4.15 34.85ZM3.85 19.65C3.71667 19.65 3.58333 19.6167 3.45 19.55C3.31667 19.4833 3.21667 19.3667 3.15 19.2L2.3 17.35L0.45 16.5C0.283333 16.4333 0.166667 16.3333 0.0999999 16.2C0.0333332 16.0667 0 15.9333 0 15.8C0 15.6667 0.0333332 15.5333 0.0999999 15.4C0.166667 15.2667 0.283333 15.1667 0.45 15.1L2.3 14.25L3.15 12.4C3.21667 12.2333 3.31667 12.1167 3.45 12.05C3.58333 11.9833 3.71667 11.95 3.85 11.95C3.98333 11.95 4.11667 11.9833 4.25 12.05C4.38333 12.1167 4.48333 12.2333 4.55 12.4L5.4 14.25L7.25 15.1C7.51667 15.2333 7.65 15.4667 7.65 15.8C7.65 16.1333 7.51667 16.3667 7.25 16.5L5.4 17.35L4.55 19.2C4.48333 19.3667 4.38333 19.4833 4.25 19.55C4.11667 19.6167 3.98333 19.65 3.85 19.65ZM27 15.65C26.8667 15.65 26.7333 15.6167 26.6 15.55C26.4667 15.4833 26.3667 15.3667 26.3 15.2L25.45 13.35L23.6 12.5C23.4333 12.4333 23.3167 12.3333 23.25 12.2C23.1833 12.0667 23.15 11.9333 23.15 11.8C23.15 11.6667 23.1833 11.5333 23.25 11.4C23.3167 11.2667 23.4333 11.1667 23.6 11.1L25.45 10.25L26.3 8.4C26.3667 8.23333 26.4667 8.11667 26.6 8.05C26.7333 7.98333 26.8667 7.95 27 7.95C27.1333 7.95 27.2667 7.98333 27.4 8.05C27.5333 8.11667 27.6333 8.23333 27.7 8.4L28.55 10.25L30.4 11.1C30.5667 11.1667 30.6833 11.2667 30.75 11.4C30.8167 11.5333 30.85 11.6667 30.85 11.8C30.85 11.9333 30.8167 12.0667 30.75 12.2C30.6833 12.3333 30.5667 12.4333 30.4 12.5L28.55 13.35L27.7 15.2C27.6333 15.3667 27.5333 15.4833 27.4 15.55C27.2667 15.6167 27.1333 15.65 27 15.65ZM13.5 9.6C13.3667 9.6 13.2333 9.56667 13.1 9.5C12.9667 9.43333 12.8667 9.31667 12.8 9.15L11.65 6.65L9.15 5.5C8.98333 5.43333 8.86667 5.33333 8.8 5.2C8.73333 5.06667 8.7 4.93333 8.7 4.8C8.7 4.66667 8.73333 4.53333 8.8 4.4C8.86667 4.26667 8.98333 4.16667 9.15 4.1L11.65 2.95L12.8 0.45C12.8667 0.283333 12.9667 0.166667 13.1 0.0999999C13.2333 0.0333332 13.3667 0 13.5 0C13.6333 0 13.7667 0.0333332 13.9 0.0999999C14.0333 0.166667 14.1333 0.283333 14.2 0.45L15.35 2.95L17.85 4.1C18.0167 4.16667 18.1333 4.26667 18.2 4.4C18.2667 4.53333 18.3 4.66667 18.3 4.8C18.3 4.93333 18.2667 5.06667 18.2 5.2C18.1333 5.33333 18.0167 5.43333 17.85 5.5L15.35 6.65L14.2 9.15C14.1333 9.31667 14.0333 9.43333 13.9 9.5C13.7667 9.56667 13.6333 9.6 13.5 9.6Z" fill="#F59E0B"/>
</svg>
