<svg width="102" height="103" viewBox="0 0 102 103" fill="none" xmlns="http://www.w3.org/2000/svg">
<path opacity="0.2" d="M33.6 99.75L28.15 80.75C27.9146 79.935 27.4362 79.2112 26.7786 78.6751C26.1211 78.1391 25.3157 77.8164 24.47 77.75L4.78 76.13C4.04352 76.0707 3.33592 75.8172 2.72931 75.3953C2.12269 74.9735 1.63872 74.3984 1.32671 73.7286C1.0147 73.0589 0.885793 72.3184 0.953123 71.5826C1.02045 70.8468 1.28161 70.142 1.71 69.54L13.17 53.43C13.6596 52.7374 13.9275 51.9125 13.9382 51.0643C13.9489 50.2162 13.702 49.3848 13.23 48.68L2.23 32.27C1.81945 31.6572 1.57838 30.9466 1.53127 30.2105C1.48415 29.4744 1.63266 28.7389 1.96172 28.0788C2.29079 27.4186 2.78868 26.8573 3.40485 26.4518C4.02102 26.0463 4.73352 25.8111 5.47 25.77L25.2 24.68C26.049 24.6372 26.8645 24.3354 27.5367 23.8151C28.2089 23.2948 28.7057 22.5811 28.96 21.77L34.96 2.92C35.1888 2.22951 35.5937 1.61067 36.1349 1.12464C36.6761 0.638609 37.3347 0.302214 38.0457 0.1487C38.7568 -0.00481305 39.4955 0.0298707 40.189 0.249323C40.8825 0.468776 41.5067 0.865401 42 1.4L55.16 16.15C55.7235 16.7863 56.4683 17.2347 57.2943 17.4349C58.1202 17.6352 58.9877 17.5776 59.78 17.27L78.22 10.18C78.9099 9.9158 79.6575 9.83872 80.3868 9.95657C81.1161 10.0744 81.8013 10.383 82.3729 10.8511C82.9445 11.3191 83.3822 11.93 83.6416 12.6217C83.901 13.3135 83.9729 14.0615 83.85 14.79L80.51 34.27C80.3678 35.1064 80.4829 35.9663 80.84 36.7359C81.1971 37.5055 81.7795 38.1486 82.51 38.58L99.51 48.58C100.145 48.9556 100.67 49.4922 101.031 50.1356C101.392 50.779 101.577 51.5063 101.566 52.244C101.556 52.9817 101.352 53.7036 100.973 54.3368C100.594 54.97 100.055 55.492 99.41 55.85L82.1 65.39C81.3589 65.8003 80.7607 66.4271 80.3854 67.1866C80.0101 67.9461 79.8757 68.802 80 69.64L82.81 89.21C82.9139 89.9403 82.8228 90.6851 82.5458 91.3688C82.2688 92.0524 81.8158 92.6506 81.2328 93.1026C80.6498 93.5545 79.9576 93.8442 79.2265 93.9421C78.4954 94.04 77.7514 93.9427 77.07 93.66L58.86 86.08C58.0754 85.7528 57.2095 85.6733 56.3784 85.852C55.5474 86.0308 54.7907 86.4592 54.21 87.08L40.66 101.48C40.1527 102.017 39.5123 102.41 38.8037 102.619C38.0952 102.828 37.344 102.845 36.6266 102.669C35.9091 102.494 35.2511 102.131 34.7194 101.618C34.1878 101.105 33.8015 100.461 33.6 99.75Z" fill="#FFFBDC"/>
</svg>
