<svg width="85" height="87" viewBox="0 0 85 87" fill="none" xmlns="http://www.w3.org/2000/svg">
<path opacity="0.2" d="M16 74.61L18.57 58.38C18.6765 57.6834 18.5702 56.9709 18.2651 56.3358C17.96 55.7006 17.4703 55.1723 16.86 54.82L2.56 46.68C2.03489 46.3748 1.59909 45.937 1.29617 45.4106C0.993246 44.8841 0.833817 44.2874 0.833817 43.68C0.833817 43.0726 0.993246 42.4759 1.29617 41.9494C1.59909 41.4229 2.03489 40.9852 2.56 40.68L16.85 32.58C17.4676 32.23 17.9634 31.6994 18.2709 31.0595C18.5783 30.4196 18.6827 29.7009 18.57 29L16 12.75C15.9061 12.1408 15.9756 11.5176 16.2015 10.9442C16.4274 10.3707 16.8016 9.8675 17.2858 9.48607C17.77 9.10464 18.3467 8.85864 18.9572 8.77323C19.5676 8.68783 20.1897 8.76608 20.76 8.99999L36 15.1C36.6541 15.3633 37.3729 15.4211 38.0607 15.2657C38.7485 15.1103 39.3727 14.749 39.85 14.23L51 2.11999C51.4157 1.66885 51.9433 1.33562 52.5292 1.15405C53.1152 0.972477 53.7387 0.94903 54.3367 1.08608C54.9346 1.22313 55.4857 1.51581 55.9341 1.93446C56.3825 2.35311 56.7123 2.88284 56.89 3.46999L61.61 19.21C61.8146 19.886 62.2195 20.4841 62.7712 20.9251C63.323 21.3661 63.9955 21.6293 64.7 21.68L81.09 22.82C81.7025 22.8609 82.2932 23.0636 82.8018 23.4073C83.3104 23.751 83.7187 24.2235 83.9851 24.7766C84.2514 25.3297 84.3663 25.9435 84.318 26.5554C84.2697 27.1674 84.0599 27.7556 83.71 28.26L74.35 41.76C73.9386 42.3458 73.7179 43.0442 73.7179 43.76C73.7179 44.4758 73.9386 45.1742 74.35 45.76L83.68 59.28C84.0183 59.7888 84.2167 60.3777 84.2552 60.9875C84.2937 61.5974 84.171 62.2066 83.8993 62.7539C83.6277 63.3012 83.2167 63.7674 82.7078 64.1055C82.1988 64.4436 81.6098 64.6417 81 64.68L64.61 65.78C63.9051 65.8293 63.2319 66.092 62.6799 66.5332C62.1279 66.9745 61.7234 67.5732 61.52 68.25L56.77 84C56.5937 84.5884 56.2643 85.1195 55.8156 85.539C55.3668 85.9585 54.8147 86.2513 54.2158 86.3876C53.6168 86.5239 52.9924 86.4987 52.4063 86.3146C51.8202 86.1306 51.2935 85.7942 50.88 85.34L39.8 73.18C39.3285 72.6682 38.7137 72.3105 38.0358 72.1535C37.3579 71.9965 36.6484 72.0476 36 72.3L20.69 78.38C20.1215 78.6019 19.5044 78.67 18.9012 78.5773C18.2979 78.4847 17.7298 78.2345 17.2541 77.8521C16.7784 77.4697 16.412 76.9687 16.1918 76.3994C15.9716 75.8302 15.9054 75.213 16 74.61V74.61Z" fill="#FFFBDC"/>
</svg>
