<svg width="115" height="91" viewBox="0 0 115 91" fill="none" xmlns="http://www.w3.org/2000/svg">
<path d="M63.48 33.5C48.25 32.38 31.55 42 27 47.8" stroke="#FFF4AD" stroke-width="5" stroke-linecap="round" stroke-linejoin="round"/>
<path d="M70.23 90.91C69.7614 90.8473 69.3202 90.6529 68.9575 90.3496C68.5949 90.0462 68.3258 89.6462 68.1813 89.196C68.0368 88.7459 68.023 88.264 68.1413 87.8062C68.2597 87.3485 68.5054 86.9337 68.85 86.61C71.3 84.31 72.52 82.18 72.27 80.61C72.02 79.04 70.5 78.17 68 76.72C65.5 75.27 62.57 73.55 61.44 70.34C59.51 64.85 63.65 57.96 74.44 48.64C74.9426 48.2064 75.5968 47.9901 76.2588 48.0389C76.9208 48.0877 77.5364 48.3974 77.97 48.9C78.4036 49.4026 78.6198 50.0568 78.5711 50.7188C78.5223 51.3808 78.2126 51.9964 77.71 52.43C65.71 62.74 65.63 67.23 66.14 68.68C66.65 70.13 68.52 71.24 70.5 72.39C73.21 73.97 76.57 75.93 77.2 79.84C77.73 83.17 76.07 86.68 72.26 90.26C71.9912 90.5124 71.6696 90.7018 71.3184 90.8142C70.9672 90.9267 70.5954 90.9594 70.23 90.91Z" fill="url(#paint0_linear_8_30)"/>
<path d="M29.17 72C26.0651 71.4435 23.1672 70.0619 20.78 68C20.5158 67.7993 20.2941 67.548 20.128 67.2607C19.9619 66.9735 19.8546 66.6561 19.8124 66.3269C19.7702 65.9978 19.794 65.6636 19.8823 65.3437C19.9706 65.0238 20.1217 64.7248 20.3268 64.4639C20.5319 64.2031 20.7869 63.9857 21.0769 63.8244C21.3669 63.6631 21.6861 63.5611 22.0159 63.5244C22.3457 63.4878 22.6795 63.5171 22.9978 63.6108C23.3161 63.7045 23.6126 63.8606 23.87 64.07C26.87 66.42 29.5 67.39 31.69 66.95C34.26 66.43 35.77 64.02 38.02 60.14C39.6056 57.1999 41.5468 54.466 43.8 52C49.8 45.73 59.33 42.66 71.98 42.87C72.3083 42.8752 72.6324 42.9451 72.9337 43.0756C73.235 43.2061 73.5076 43.3947 73.7361 43.6305C73.9645 43.8664 74.1442 44.1449 74.265 44.4502C74.3858 44.7556 74.4453 45.0817 74.44 45.41C74.4347 45.7383 74.3649 46.0624 74.2344 46.3637C74.1039 46.665 73.9153 46.9376 73.6795 47.1661C73.4436 47.3945 73.1651 47.5742 72.8598 47.695C72.5544 47.8158 72.2283 47.8753 71.9 47.87C60.68 47.68 52.44 50.24 47.4 55.47C45.4416 57.6719 43.7623 60.107 42.4 62.72C40.06 66.72 37.63 70.95 32.72 71.93C31.5492 72.1545 30.3487 72.1782 29.17 72V72Z" fill="url(#paint1_linear_8_30)"/>
<path d="M73.58 60.31L70.31 48.88C70.1668 48.3908 69.8792 47.9562 69.4849 47.6333C69.0905 47.3103 68.6078 47.114 68.1 47.07L56.26 46.07C55.8101 46.0402 55.3764 45.8897 55.0047 45.6344C54.633 45.3791 54.337 45.0284 54.1477 44.6191C53.9584 44.2098 53.8829 43.7571 53.929 43.3086C53.9752 42.86 54.1413 42.4322 54.41 42.07L61.3 32.39C61.5912 31.97 61.7472 31.4711 61.7472 30.96C61.7472 30.4489 61.5912 29.95 61.3 29.53L54.67 19.67C54.4248 19.3009 54.2813 18.8737 54.2539 18.4314C54.2265 17.9891 54.3162 17.5475 54.5139 17.1509C54.7117 16.7544 55.0105 16.417 55.3803 16.1728C55.7501 15.9286 56.1777 15.7862 56.62 15.76L68.48 15.11C68.99 15.0829 69.4796 14.9008 69.8834 14.5881C70.2873 14.2754 70.5861 13.847 70.74 13.36L74.36 2.1C74.4942 1.67617 74.7382 1.2954 75.0671 0.996318C75.396 0.697237 75.7982 0.490493 76.2328 0.397066C76.6675 0.303639 77.1191 0.326855 77.5419 0.464359C77.9646 0.601863 78.3435 0.848762 78.64 1.18L86.54 10.05C86.8801 10.4314 87.3285 10.6999 87.8253 10.8196C88.322 10.9393 88.8435 10.9046 89.32 10.72L100.41 6.45999C100.824 6.29938 101.274 6.25169 101.713 6.3218C102.152 6.39191 102.564 6.5773 102.908 6.85902C103.252 7.14075 103.515 7.5087 103.67 7.92528C103.825 8.34185 103.866 8.7921 103.79 9.23L101.79 20.94C101.707 21.4434 101.778 21.9601 101.994 22.4223C102.21 22.8845 102.561 23.2706 103 23.53L113.25 29.53C113.634 29.754 113.952 30.0759 114.17 30.4629C114.389 30.8499 114.501 31.288 114.495 31.7325C114.489 32.177 114.365 32.6119 114.136 32.9927C113.906 33.3735 113.58 33.6866 113.19 33.9L102.78 39.64C102.334 39.8852 101.973 40.2607 101.746 40.7164C101.519 41.1721 101.437 41.6862 101.51 42.19L103.19 54C103.254 54.4395 103.201 54.8883 103.035 55.3004C102.869 55.7125 102.597 56.0732 102.246 56.3457C101.895 56.6182 101.479 56.7928 101.038 56.8515C100.598 56.9102 100.15 56.851 99.74 56.68L88.74 52.12C88.2673 51.9254 87.7468 51.8786 87.2469 51.9857C86.7471 52.0928 86.2915 52.3488 85.94 52.72L77.8 61.37C77.4921 61.6843 77.1072 61.9126 76.6837 62.032C76.2601 62.1514 75.8127 62.1578 75.3859 62.0506C74.9591 61.9434 74.5679 61.7263 74.251 61.4209C73.9342 61.1156 73.7028 60.7325 73.58 60.31Z" fill="url(#paint2_linear_8_30)"/>
<path d="M69.52 32.32C70.4368 32.32 71.18 31.5768 71.18 30.66C71.18 29.7432 70.4368 29 69.52 29C68.6032 29 67.86 29.7432 67.86 30.66C67.86 31.5768 68.6032 32.32 69.52 32.32Z" fill="#3C3C3B"/>
<path d="M77.04 35.35C77.9568 35.35 78.7 34.6068 78.7 33.69C78.7 32.7732 77.9568 32.03 77.04 32.03C76.1232 32.03 75.38 32.7732 75.38 33.69C75.38 34.6068 76.1232 35.35 77.04 35.35Z" fill="#3C3C3B"/>
<path d="M73.68 35.47C73.4994 35.8507 73.1808 36.1485 72.7888 36.303C72.3967 36.4575 71.9606 36.4571 71.5689 36.3019C71.1771 36.1467 70.859 35.8484 70.6791 35.4673C70.4992 35.0863 70.4709 34.6511 70.6 34.25" stroke="#3C3C3B" stroke-linecap="round" stroke-linejoin="round"/>
<path d="M43.08 56.22C42.417 56.1497 41.809 55.8189 41.3899 55.3004C40.9707 54.7819 40.7747 54.118 40.845 53.455C40.9153 52.792 41.2461 52.184 41.7646 51.7649C42.2832 51.3457 42.947 51.1497 43.61 51.22C51.7815 51.9077 60.0103 51.3173 68 49.47C76.7497 47.4446 85.0872 43.9337 92.65 39.09C92.9263 38.8975 93.2386 38.7629 93.5682 38.6941C93.8978 38.6252 94.2379 38.6237 94.5681 38.6896C94.8983 38.7554 95.2118 38.8873 95.4897 39.0773C95.7677 39.2673 96.0044 39.5115 96.1857 39.7952C96.367 40.079 96.4891 40.3964 96.5447 40.7285C96.6003 41.0605 96.5883 41.4004 96.5093 41.7277C96.4303 42.055 96.286 42.363 96.0851 42.6332C95.8842 42.9034 95.6307 43.1302 95.34 43.3C87.2874 48.4345 78.4163 52.1548 69.11 54.3C60.6252 56.2802 51.8845 56.9313 43.2 56.23L43.08 56.22Z" fill="url(#paint3_linear_8_30)"/>
<path d="M52.76 51.66L1.59 44.18L9.41567e-07 19.24C-0.0392488 18.7942 0.0217475 18.3452 0.17852 17.926C0.335293 17.5068 0.58387 17.128 0.906035 16.8174C1.2282 16.5067 1.61579 16.2721 2.04041 16.1306C2.46502 15.9892 2.9159 15.9446 3.36 16L47.85 20.7C48.5579 20.767 49.219 21.0834 49.7153 21.5925C50.2117 22.1017 50.511 22.7706 50.56 23.48L52.76 51.66Z" fill="url(#paint4_linear_8_30)"/>
<path d="M65.18 63.35L21.76 56.43C19.5601 56.0803 17.4737 55.217 15.67 53.91L2.24 44.19L52.47 51.53L66.17 60.86C66.4308 61.0342 66.624 61.2926 66.7172 61.5921C66.8105 61.8916 66.7981 62.214 66.6822 62.5055C66.5663 62.7969 66.3539 63.0398 66.0805 63.1935C65.8071 63.3472 65.4892 63.4025 65.18 63.35V63.35Z" fill="#878787"/>
<path opacity="0.2" d="M25.22 23.91L26.74 29.28C26.7821 29.4362 26.8575 29.5815 26.9611 29.7058C27.0646 29.8301 27.1939 29.9304 27.34 30L32.27 32.32C33.14 32.73 33.14 34.05 32.27 34.26L27.27 35.45C27.1196 35.4865 26.9809 35.5607 26.8672 35.6657C26.7535 35.7707 26.6684 35.903 26.62 36.05L24.8 41.39C24.7217 41.5949 24.5782 41.7683 24.3916 41.8836C24.205 41.9989 23.9857 42.0496 23.7675 42.028C23.5492 42.0064 23.3441 41.9137 23.1837 41.764C23.0234 41.6144 22.9167 41.4162 22.88 41.2L21.34 35.47C21.2965 35.3078 21.2187 35.1569 21.1117 35.0275C21.0047 34.8981 20.8711 34.7932 20.72 34.72L15.5 32.33C15.291 32.2513 15.1125 32.108 14.9904 31.9209C14.8684 31.7338 14.8092 31.5127 14.8215 31.2897C14.8338 31.0666 14.9168 30.8533 15.0586 30.6807C15.2004 30.5082 15.3936 30.3853 15.61 30.33L20.9 29.2C21.0497 29.1696 21.189 29.1012 21.3046 29.0014C21.4202 28.9015 21.5081 28.7737 21.56 28.63L23.39 23.63C23.4921 23.4597 23.6425 23.3236 23.8222 23.2391C24.0019 23.1546 24.2027 23.1255 24.399 23.1555C24.5953 23.1856 24.7782 23.2734 24.9244 23.4077C25.0706 23.5421 25.1735 23.7169 25.22 23.91Z" fill="white"/>
<path opacity="0.2" d="M18.71 25.48L23.58 28.2C23.7222 28.2783 23.879 28.3268 24.0407 28.3422C24.2024 28.3577 24.3655 28.3399 24.52 28.29L29.65 26.44C30.55 26.11 31.48 27.05 31.01 27.81L28.29 32.21C28.2165 32.345 28.178 32.4963 28.178 32.65C28.178 32.8037 28.2165 32.955 28.29 33.09L30.78 38.15C30.8716 38.3503 30.8944 38.5752 30.8451 38.7898C30.7958 39.0044 30.677 39.1967 30.5071 39.3369C30.3373 39.4771 30.126 39.5573 29.9059 39.5651C29.6858 39.5729 29.4693 39.5078 29.29 39.38L24.15 36.38C24.0002 36.2924 23.8329 36.2389 23.66 36.2233C23.4872 36.2078 23.313 36.2305 23.15 36.29L17.79 38.29C17.59 38.4362 17.3428 38.5029 17.0964 38.4772C16.8499 38.4515 16.6218 38.3353 16.4562 38.151C16.2906 37.9667 16.1993 37.7275 16.2 37.4798C16.2007 37.232 16.2934 36.9933 16.46 36.81L19.4 32.27C19.4857 32.1431 19.5363 31.9958 19.5469 31.8431C19.5574 31.6903 19.5274 31.5375 19.46 31.4L17.24 26.58C16.86 25.76 17.86 25 18.71 25.48Z" fill="white"/>
<path d="M24.62 27.71L25.47 30.71C25.4933 30.799 25.5358 30.8819 25.5945 30.9527C25.6533 31.0235 25.7268 31.0806 25.81 31.12L28.57 32.41C28.6778 32.4547 28.7698 32.5303 28.8346 32.6273C28.8994 32.7243 28.934 32.8383 28.934 32.955C28.934 33.0716 28.8994 33.1857 28.8346 33.2827C28.7698 33.3797 28.6778 33.4553 28.57 33.5L25.76 34.16C25.6761 34.1814 25.599 34.2239 25.536 34.2834C25.473 34.3429 25.4262 34.4174 25.4 34.5L24.4 37.5C24.3581 37.6169 24.2785 37.7166 24.1737 37.7833C24.0689 37.85 23.9449 37.88 23.8212 37.8686C23.6976 37.8571 23.5812 37.8049 23.4905 37.72C23.3997 37.6352 23.3397 37.5226 23.32 37.4L22.46 34.18C22.4356 34.09 22.3916 34.0066 22.3311 33.9357C22.2705 33.8648 22.195 33.8082 22.11 33.77L19.21 32.43C19.094 32.3851 18.9951 32.3046 18.9276 32.2001C18.86 32.0956 18.8272 31.9725 18.8339 31.8482C18.8405 31.724 18.8863 31.605 18.9646 31.5084C19.043 31.4117 19.1498 31.3423 19.27 31.31L22.27 30.68C22.3547 30.6647 22.4337 30.627 22.4988 30.5707C22.5639 30.5144 22.6127 30.4416 22.64 30.36L23.64 27.57C23.77 27.09 24.47 27.19 24.62 27.71Z" fill="white"/>
<defs>
<linearGradient id="paint0_linear_8_30" x1="67.7594" y1="82.5446" x2="72.6954" y2="52.9865" gradientUnits="userSpaceOnUse">
<stop stop-color="#FFF4AD"/>
<stop offset="1" stop-color="#F9B233"/>
</linearGradient>
<linearGradient id="paint1_linear_8_30" x1="28.2849" y1="72.1217" x2="47.4873" y2="55.4342" gradientUnits="userSpaceOnUse">
<stop stop-color="#FFF4AD"/>
<stop offset="1" stop-color="#F9B233"/>
</linearGradient>
<linearGradient id="paint2_linear_8_30" x1="71.0062" y1="18.2254" x2="109.626" y2="57.3234" gradientUnits="userSpaceOnUse">
<stop stop-color="#FFF4AD"/>
<stop offset="1" stop-color="#F9B233"/>
</linearGradient>
<linearGradient id="paint3_linear_8_30" x1="75.0844" y1="45.4445" x2="107.792" y2="31.7426" gradientUnits="userSpaceOnUse">
<stop stop-color="#FFF4AD"/>
<stop offset="1" stop-color="#F9B233"/>
</linearGradient>
<linearGradient id="paint4_linear_8_30" x1="-1.38524" y1="29.3447" x2="54.7267" y2="36.7619" gradientUnits="userSpaceOnUse">
<stop stop-color="#DADADA"/>
<stop offset="1" stop-color="#B2B2B2"/>
</linearGradient>
</defs>
</svg>
