<svg width="135" height="111" viewBox="0 0 135 111" fill="none" xmlns="http://www.w3.org/2000/svg">
<path opacity="0.2" d="M66.6 99.75L61.15 80.75C60.9146 79.935 60.4362 79.2112 59.7786 78.6751C59.1211 78.1391 58.3157 77.8164 57.47 77.75L37.78 76.13C37.0435 76.0706 36.3359 75.8172 35.7293 75.3953C35.1227 74.9735 34.6387 74.3984 34.3267 73.7286C34.0147 73.0589 33.8858 72.3184 33.9531 71.5826C34.0205 70.8468 34.2816 70.142 34.71 69.54L46.17 53.43C46.6596 52.7374 46.9275 51.9125 46.9382 51.0643C46.9489 50.2162 46.702 49.3848 46.23 48.68L35.23 32.27C34.8195 31.6572 34.5784 30.9466 34.5313 30.2105C34.4841 29.4744 34.6327 28.7389 34.9617 28.0788C35.2908 27.4186 35.7887 26.8573 36.4049 26.4518C37.021 26.0463 37.7335 25.8111 38.47 25.77L58.2 24.68C59.049 24.6372 59.8645 24.3354 60.5367 23.8151C61.2089 23.2948 61.7057 22.5811 61.96 21.77L67.96 2.92C68.1888 2.22951 68.5937 1.61067 69.1349 1.12464C69.6761 0.638609 70.3347 0.302214 71.0457 0.1487C71.7568 -0.00481305 72.4955 0.0298707 73.189 0.249323C73.8825 0.468776 74.5067 0.865401 75 1.4L88.16 16.15C88.7235 16.7863 89.4683 17.2347 90.2943 17.4349C91.1202 17.6352 91.9877 17.5776 92.78 17.27L111.22 10.18C111.91 9.9158 112.657 9.83872 113.387 9.95657C114.116 10.0744 114.801 10.383 115.373 10.8511C115.945 11.3191 116.382 11.93 116.642 12.6217C116.901 13.3135 116.973 14.0615 116.85 14.79L113.51 34.27C113.368 35.1064 113.483 35.9663 113.84 36.7359C114.197 37.5055 114.779 38.1486 115.51 38.58L132.51 48.58C133.145 48.9556 133.67 49.4922 134.031 50.1356C134.392 50.779 134.577 51.5063 134.566 52.244C134.556 52.9817 134.352 53.7036 133.973 54.3368C133.594 54.97 133.055 55.492 132.41 55.85L115.1 65.39C114.359 65.8003 113.761 66.4271 113.385 67.1866C113.01 67.9461 112.876 68.802 113 69.64L115.81 89.21C115.914 89.9403 115.823 90.6851 115.546 91.3688C115.269 92.0524 114.816 92.6506 114.233 93.1026C113.65 93.5545 112.958 93.8442 112.226 93.9421C111.495 94.04 110.751 93.9427 110.07 93.66L91.86 86.08C91.0754 85.7528 90.2095 85.6733 89.3784 85.852C88.5474 86.0308 87.7907 86.4592 87.21 87.08L73.66 101.48C73.1527 102.017 72.5123 102.41 71.8037 102.619C71.0952 102.828 70.344 102.845 69.6266 102.669C68.9091 102.494 68.2511 102.131 67.7194 101.618C67.1878 101.105 66.8015 100.461 66.6 99.75Z" fill="#FFFBDC"/>
<path opacity="0.2" d="M54 81.61L56.57 65.38C56.6765 64.6834 56.5702 63.9709 56.2651 63.3358C55.96 62.7006 55.4703 62.1723 54.86 61.82L40.56 53.68C40.0349 53.3748 39.5991 52.937 39.2962 52.4106C38.9932 51.8841 38.8338 51.2874 38.8338 50.68C38.8338 50.0726 38.9932 49.4759 39.2962 48.9494C39.5991 48.423 40.0349 47.9852 40.56 47.68L54.85 39.58C55.4676 39.23 55.9634 38.6994 56.2709 38.0595C56.5783 37.4196 56.6827 36.7009 56.57 36L54 19.75C53.9061 19.1408 53.9756 18.5176 54.2015 17.9442C54.4274 17.3707 54.8016 16.8675 55.2858 16.4861C55.77 16.1046 56.3467 15.8586 56.9572 15.7732C57.5676 15.6878 58.1897 15.7661 58.76 16L74 22.1C74.6541 22.3633 75.3729 22.4211 76.0607 22.2657C76.7485 22.1103 77.3727 21.749 77.85 21.23L89 9.11999C89.4157 8.66885 89.9433 8.33562 90.5292 8.15405C91.1152 7.97248 91.7387 7.94903 92.3367 8.08608C92.9346 8.22313 93.4857 8.51581 93.9341 8.93446C94.3825 9.35311 94.7123 9.88284 94.89 10.47L99.61 26.21C99.8146 26.886 100.22 27.4841 100.771 27.9251C101.323 28.3661 101.995 28.6293 102.7 28.68L119.09 29.82C119.702 29.8609 120.293 30.0636 120.802 30.4073C121.31 30.751 121.719 31.2235 121.985 31.7766C122.251 32.3297 122.366 32.9435 122.318 33.5554C122.27 34.1674 122.06 34.7556 121.71 35.26L112.35 48.76C111.939 49.3458 111.718 50.0442 111.718 50.76C111.718 51.4758 111.939 52.1742 112.35 52.76L121.68 66.28C122.018 66.7888 122.217 67.3777 122.255 67.9875C122.294 68.5974 122.171 69.2066 121.899 69.7539C121.628 70.3012 121.217 70.7674 120.708 71.1055C120.199 71.4436 119.61 71.6417 119 71.68L102.61 72.78C101.905 72.8293 101.232 73.092 100.68 73.5332C100.128 73.9744 99.7234 74.5732 99.52 75.25L94.77 91C94.5937 91.5884 94.2643 92.1195 93.8156 92.539C93.3668 92.9585 92.8148 93.2513 92.2158 93.3876C91.6168 93.5239 90.9924 93.4987 90.4063 93.3146C89.8202 93.1306 89.2935 92.7942 88.88 92.34L77.8 80.18C77.3285 79.6682 76.7137 79.3105 76.0358 79.1535C75.3579 78.9965 74.6484 79.0476 74 79.3L58.69 85.38C58.1215 85.6019 57.5044 85.67 56.9012 85.5773C56.2979 85.4846 55.7298 85.2345 55.2541 84.8521C54.7784 84.4697 54.412 83.9687 54.1918 83.3994C53.9716 82.8302 53.9054 82.213 54 81.61Z" fill="#FFFBDC"/>
<path d="M63.48 53.5C48.25 52.38 31.55 62 27 67.8" stroke="#FFF4AD" stroke-width="5" stroke-linecap="round" stroke-linejoin="round"/>
<path d="M70.23 110.91C69.7614 110.847 69.3202 110.653 68.9575 110.35C68.5949 110.046 68.3258 109.646 68.1813 109.196C68.0368 108.746 68.023 108.264 68.1413 107.806C68.2597 107.348 68.5054 106.934 68.85 106.61C71.3 104.31 72.52 102.18 72.27 100.61C72.02 99.04 70.5 98.17 68 96.72C65.5 95.27 62.57 93.55 61.44 90.34C59.51 84.85 63.65 77.96 74.44 68.64C74.9426 68.2064 75.5968 67.9901 76.2588 68.0389C76.9208 68.0877 77.5364 68.3974 77.97 68.9C78.4036 69.4026 78.6198 70.0568 78.5711 70.7188C78.5223 71.3808 78.2126 71.9964 77.71 72.43C65.71 82.74 65.63 87.23 66.14 88.68C66.65 90.13 68.52 91.24 70.5 92.39C73.21 93.97 76.57 95.93 77.2 99.84C77.73 103.17 76.07 106.68 72.26 110.26C71.9912 110.512 71.6696 110.702 71.3184 110.814C70.9672 110.927 70.5954 110.959 70.23 110.91Z" fill="url(#paint0_linear_8_31)"/>
<path d="M29.17 92C26.0651 91.4435 23.1672 90.0619 20.78 88C20.5158 87.7993 20.2941 87.548 20.128 87.2607C19.9619 86.9735 19.8546 86.6561 19.8124 86.3269C19.7702 85.9978 19.794 85.6636 19.8823 85.3437C19.9706 85.0238 20.1217 84.7248 20.3268 84.4639C20.5319 84.2031 20.7869 83.9857 21.0769 83.8244C21.3669 83.6631 21.6861 83.5611 22.0159 83.5244C22.3457 83.4878 22.6795 83.5171 22.9978 83.6108C23.3161 83.7045 23.6126 83.8606 23.87 84.07C26.87 86.42 29.5 87.39 31.69 86.95C34.26 86.43 35.77 84.02 38.02 80.14C39.6056 77.1999 41.5468 74.466 43.8 72C49.8 65.73 59.33 62.66 71.98 62.87C72.3083 62.8752 72.6324 62.9451 72.9337 63.0756C73.235 63.2061 73.5076 63.3947 73.7361 63.6305C73.9645 63.8664 74.1442 64.1449 74.265 64.4502C74.3858 64.7556 74.4453 65.0817 74.44 65.41C74.4347 65.7383 74.3649 66.0624 74.2344 66.3637C74.1039 66.665 73.9153 66.9376 73.6795 67.1661C73.4436 67.3945 73.1651 67.5742 72.8598 67.695C72.5544 67.8158 72.2283 67.8753 71.9 67.87C60.68 67.68 52.44 70.24 47.4 75.47C45.4416 77.6719 43.7623 80.107 42.4 82.72C40.06 86.72 37.63 90.95 32.72 91.93C31.5492 92.1545 30.3487 92.1782 29.17 92Z" fill="url(#paint1_linear_8_31)"/>
<path d="M73.58 80.31L70.31 68.88C70.1668 68.3908 69.8792 67.9562 69.4849 67.6333C69.0905 67.3103 68.6078 67.1139 68.1 67.07L56.26 66.07C55.8101 66.0402 55.3764 65.8897 55.0047 65.6344C54.633 65.3791 54.337 65.0284 54.1477 64.6191C53.9584 64.2098 53.8829 63.7571 53.929 63.3086C53.9752 62.86 54.1413 62.4322 54.41 62.07L61.3 52.39C61.5912 51.97 61.7472 51.4711 61.7472 50.96C61.7472 50.4489 61.5912 49.95 61.3 49.53L54.67 39.67C54.4248 39.3009 54.2813 38.8737 54.2539 38.4314C54.2265 37.9891 54.3162 37.5475 54.5139 37.1509C54.7117 36.7544 55.0105 36.417 55.3803 36.1728C55.7501 35.9286 56.1777 35.7862 56.62 35.76L68.48 35.11C68.99 35.0829 69.4796 34.9008 69.8834 34.5881C70.2873 34.2754 70.5861 33.847 70.74 33.36L74.36 22.1C74.4942 21.6762 74.7382 21.2954 75.0671 20.9963C75.396 20.6972 75.7982 20.4905 76.2328 20.3971C76.6675 20.3036 77.1191 20.3269 77.5419 20.4644C77.9646 20.6019 78.3435 20.8488 78.64 21.18L86.54 30.05C86.8801 30.4314 87.3285 30.6999 87.8253 30.8196C88.322 30.9393 88.8435 30.9046 89.32 30.72L100.41 26.46C100.824 26.2994 101.274 26.2517 101.713 26.3218C102.152 26.3919 102.564 26.5773 102.908 26.859C103.252 27.1407 103.515 27.5087 103.67 27.9253C103.825 28.3418 103.866 28.7921 103.79 29.23L101.79 40.94C101.707 41.4434 101.778 41.9601 101.994 42.4223C102.21 42.8845 102.561 43.2706 103 43.53L113.25 49.53C113.634 49.754 113.952 50.0759 114.17 50.4629C114.389 50.8499 114.501 51.288 114.495 51.7325C114.489 52.177 114.365 52.6119 114.136 52.9927C113.906 53.3735 113.58 53.6866 113.19 53.9L102.78 59.64C102.334 59.8852 101.973 60.2607 101.746 60.7164C101.519 61.1721 101.437 61.6862 101.51 62.19L103.19 74C103.254 74.4395 103.201 74.8883 103.035 75.3004C102.869 75.7125 102.597 76.0732 102.246 76.3457C101.895 76.6182 101.479 76.7928 101.038 76.8515C100.598 76.9102 100.15 76.851 99.74 76.68L88.74 72.12C88.2673 71.9254 87.7468 71.8786 87.2469 71.9857C86.7471 72.0928 86.2915 72.3488 85.94 72.72L77.8 81.37C77.4921 81.6843 77.1072 81.9126 76.6837 82.032C76.2601 82.1514 75.8127 82.1578 75.3859 82.0506C74.9591 81.9434 74.5679 81.7263 74.251 81.4209C73.9342 81.1156 73.7028 80.7325 73.58 80.31Z" fill="url(#paint2_linear_8_31)"/>
<path d="M69.52 52.32C70.4368 52.32 71.18 51.5768 71.18 50.66C71.18 49.7432 70.4368 49 69.52 49C68.6032 49 67.86 49.7432 67.86 50.66C67.86 51.5768 68.6032 52.32 69.52 52.32Z" fill="#3C3C3B"/>
<path d="M77.04 55.35C77.9568 55.35 78.7 54.6068 78.7 53.69C78.7 52.7732 77.9568 52.03 77.04 52.03C76.1232 52.03 75.38 52.7732 75.38 53.69C75.38 54.6068 76.1232 55.35 77.04 55.35Z" fill="#3C3C3B"/>
<path d="M73.68 55.47C73.4994 55.8507 73.1808 56.1485 72.7888 56.303C72.3967 56.4575 71.9606 56.4571 71.5689 56.3019C71.1771 56.1467 70.859 55.8484 70.6791 55.4673C70.4992 55.0863 70.4709 54.6511 70.6 54.25" stroke="#3C3C3B" stroke-linecap="round" stroke-linejoin="round"/>
<path d="M43.08 76.22C42.417 76.1497 41.809 75.8189 41.3899 75.3004C40.9707 74.7819 40.7747 74.118 40.845 73.455C40.9153 72.792 41.2461 72.184 41.7646 71.7649C42.2832 71.3457 42.947 71.1497 43.61 71.22C51.7815 71.9077 60.0103 71.3173 68 69.47C76.7496 67.4446 85.0872 63.9337 92.65 59.09C92.9263 58.8975 93.2386 58.7629 93.5682 58.6941C93.8978 58.6252 94.2379 58.6237 94.5681 58.6896C94.8983 58.7554 95.2118 58.8873 95.4897 59.0773C95.7677 59.2673 96.0044 59.5115 96.1857 59.7952C96.367 60.079 96.4891 60.3964 96.5447 60.7285C96.6003 61.0605 96.5883 61.4004 96.5093 61.7277C96.4303 62.055 96.286 62.363 96.0851 62.6332C95.8842 62.9034 95.6307 63.1302 95.34 63.3C87.2874 68.4345 78.4163 72.1548 69.11 74.3C60.6252 76.2802 51.8845 76.9313 43.2 76.23L43.08 76.22Z" fill="url(#paint3_linear_8_31)"/>
<path d="M52.76 71.66L1.59 64.18L9.41567e-07 39.24C-0.0392488 38.7942 0.0217475 38.3452 0.17852 37.926C0.335293 37.5068 0.58387 37.128 0.906035 36.8174C1.2282 36.5067 1.61579 36.2721 2.04041 36.1306C2.46502 35.9892 2.9159 35.9446 3.36 36L47.85 40.7C48.5579 40.767 49.219 41.0834 49.7153 41.5925C50.2117 42.1017 50.511 42.7706 50.56 43.48L52.76 71.66Z" fill="url(#paint4_linear_8_31)"/>
<path d="M65.18 83.35L21.76 76.43C19.5601 76.0803 17.4737 75.217 15.67 73.91L2.24 64.19L52.47 71.53L66.17 80.86C66.4308 81.0342 66.624 81.2926 66.7172 81.5921C66.8105 81.8916 66.7981 82.214 66.6822 82.5055C66.5663 82.7969 66.3539 83.0398 66.0805 83.1935C65.8071 83.3472 65.4892 83.4025 65.18 83.35Z" fill="#878787"/>
<path opacity="0.2" d="M25.22 43.91L26.74 49.28C26.7821 49.4362 26.8575 49.5815 26.9611 49.7058C27.0646 49.8301 27.1939 49.9304 27.34 50L32.27 52.32C33.14 52.73 33.14 54.05 32.27 54.26L27.27 55.45C27.1196 55.4865 26.9809 55.5607 26.8672 55.6657C26.7535 55.7707 26.6684 55.903 26.62 56.05L24.8 61.39C24.7217 61.5949 24.5782 61.7683 24.3916 61.8836C24.205 61.9989 23.9857 62.0496 23.7675 62.028C23.5492 62.0064 23.3441 61.9137 23.1837 61.764C23.0234 61.6144 22.9167 61.4162 22.88 61.2L21.34 55.47C21.2965 55.3078 21.2187 55.1569 21.1117 55.0275C21.0047 54.8981 20.8711 54.7932 20.72 54.72L15.5 52.33C15.291 52.2513 15.1125 52.108 14.9904 51.9209C14.8684 51.7338 14.8092 51.5127 14.8215 51.2897C14.8338 51.0666 14.9168 50.8533 15.0586 50.6807C15.2004 50.5082 15.3936 50.3853 15.61 50.33L20.9 49.2C21.0497 49.1696 21.189 49.1012 21.3046 49.0014C21.4202 48.9015 21.5081 48.7737 21.56 48.63L23.39 43.63C23.4921 43.4597 23.6425 43.3236 23.8222 43.2391C24.0019 43.1546 24.2027 43.1255 24.399 43.1555C24.5953 43.1856 24.7782 43.2734 24.9244 43.4077C25.0706 43.5421 25.1735 43.7169 25.22 43.91Z" fill="white"/>
<path opacity="0.2" d="M18.71 45.48L23.58 48.2C23.7222 48.2783 23.879 48.3268 24.0407 48.3422C24.2024 48.3577 24.3655 48.3399 24.52 48.29L29.65 46.44C30.55 46.11 31.48 47.05 31.01 47.81L28.29 52.21C28.2165 52.345 28.178 52.4963 28.178 52.65C28.178 52.8037 28.2165 52.955 28.29 53.09L30.78 58.15C30.8716 58.3503 30.8944 58.5752 30.8451 58.7898C30.7958 59.0044 30.677 59.1967 30.5071 59.3369C30.3373 59.4771 30.126 59.5573 29.9059 59.5651C29.6858 59.5729 29.4693 59.5078 29.29 59.38L24.15 56.38C24.0002 56.2924 23.8329 56.2389 23.66 56.2233C23.4872 56.2078 23.313 56.2305 23.15 56.29L17.79 58.29C17.59 58.4362 17.3428 58.5029 17.0964 58.4772C16.8499 58.4515 16.6218 58.3353 16.4562 58.151C16.2906 57.9667 16.1993 57.7275 16.2 57.4798C16.2007 57.232 16.2934 56.9933 16.46 56.81L19.4 52.27C19.4857 52.1431 19.5363 51.9958 19.5469 51.8431C19.5574 51.6903 19.5274 51.5375 19.46 51.4L17.24 46.58C16.86 45.76 17.86 45 18.71 45.48Z" fill="white"/>
<path d="M24.62 47.71L25.47 50.71C25.4933 50.799 25.5358 50.8819 25.5945 50.9527C25.6533 51.0235 25.7268 51.0806 25.81 51.12L28.57 52.41C28.6778 52.4547 28.7698 52.5303 28.8346 52.6273C28.8994 52.7243 28.934 52.8383 28.934 52.955C28.934 53.0716 28.8994 53.1857 28.8346 53.2827C28.7698 53.3797 28.6778 53.4553 28.57 53.5L25.76 54.16C25.6761 54.1814 25.599 54.2239 25.536 54.2834C25.473 54.3429 25.4262 54.4174 25.4 54.5L24.4 57.5C24.3581 57.6169 24.2785 57.7166 24.1737 57.7833C24.0689 57.85 23.9449 57.88 23.8212 57.8686C23.6976 57.8571 23.5812 57.8049 23.4905 57.72C23.3997 57.6352 23.3397 57.5226 23.32 57.4L22.46 54.18C22.4356 54.09 22.3916 54.0066 22.3311 53.9357C22.2705 53.8648 22.195 53.8082 22.11 53.77L19.21 52.43C19.094 52.3851 18.9951 52.3046 18.9276 52.2001C18.86 52.0956 18.8272 51.9725 18.8339 51.8482C18.8405 51.724 18.8863 51.605 18.9646 51.5084C19.043 51.4117 19.1498 51.3423 19.27 51.31L22.27 50.68C22.3547 50.6647 22.4337 50.627 22.4988 50.5707C22.5639 50.5144 22.6127 50.4416 22.64 50.36L23.64 47.57C23.77 47.09 24.47 47.19 24.62 47.71Z" fill="white"/>
<defs>
<linearGradient id="paint0_linear_8_31" x1="67.7594" y1="102.545" x2="72.6954" y2="72.9865" gradientUnits="userSpaceOnUse">
<stop stop-color="#FFF4AD"/>
<stop offset="1" stop-color="#F9B233"/>
</linearGradient>
<linearGradient id="paint1_linear_8_31" x1="28.2849" y1="92.1217" x2="47.4873" y2="75.4342" gradientUnits="userSpaceOnUse">
<stop stop-color="#FFF4AD"/>
<stop offset="1" stop-color="#F9B233"/>
</linearGradient>
<linearGradient id="paint2_linear_8_31" x1="71.0062" y1="38.2254" x2="109.626" y2="77.3234" gradientUnits="userSpaceOnUse">
<stop stop-color="#FFF4AD"/>
<stop offset="1" stop-color="#F9B233"/>
</linearGradient>
<linearGradient id="paint3_linear_8_31" x1="75.0844" y1="65.4445" x2="107.792" y2="51.7426" gradientUnits="userSpaceOnUse">
<stop stop-color="#FFF4AD"/>
<stop offset="1" stop-color="#F9B233"/>
</linearGradient>
<linearGradient id="paint4_linear_8_31" x1="-1.38524" y1="49.3447" x2="54.7267" y2="56.7619" gradientUnits="userSpaceOnUse">
<stop stop-color="#DADADA"/>
<stop offset="1" stop-color="#B2B2B2"/>
</linearGradient>
</defs>
</svg>
