<svg width="42" height="25" viewBox="0 0 42 25" fill="none" xmlns="http://www.w3.org/2000/svg">
<path d="M10.9655 1.82446L8.82436 4.06149C8.73262 4.15795 8.61354 4.224 8.48314 4.25076C8.35274 4.27752 8.21727 4.2637 8.09495 4.21117L5.24511 2.99572C5.13873 2.95025 5.0222 2.9338 4.9074 2.94803C4.79259 2.96227 4.68361 3.00669 4.59157 3.07677C4.49952 3.14685 4.4277 3.24008 4.38343 3.34695C4.33915 3.45383 4.324 3.57054 4.33953 3.68518L4.75891 6.7536C4.77692 6.8856 4.7542 7.01996 4.69379 7.13871C4.63338 7.25745 4.53817 7.35493 4.42087 7.41811L1.67013 8.89124C1.56838 8.94644 1.48302 9.02755 1.4227 9.12635C1.36238 9.22515 1.32924 9.33813 1.32663 9.45386C1.32402 9.56959 1.35203 9.68395 1.40784 9.78537C1.46364 9.88679 1.54526 9.97166 1.64441 10.0314L4.30323 11.6203C4.41698 11.6892 4.50712 11.791 4.56175 11.9123C4.61638 12.0335 4.63291 12.1685 4.60917 12.2994L4.06018 15.3475C4.03934 15.4614 4.04907 15.5788 4.0884 15.6876C4.12772 15.7965 4.19523 15.893 4.28402 15.9673C4.37282 16.0415 4.47972 16.0909 4.59383 16.1104C4.70794 16.1298 4.82517 16.1187 4.93356 16.078L7.84492 14.9907C7.96961 14.9441 8.10555 14.9367 8.23459 14.9693C8.36364 15.002 8.47965 15.0732 8.56714 15.1736L10.6065 17.5049C10.6826 17.5922 10.7806 17.6577 10.8903 17.6948C11.0001 17.7319 11.1177 17.7392 11.2312 17.7159C11.3447 17.6926 11.45 17.6396 11.5363 17.5624C11.6226 17.4851 11.6868 17.3863 11.7224 17.276L12.6752 14.3332C12.7169 14.2067 12.7959 14.0959 12.9018 14.0152C13.0077 13.9345 13.1356 13.8878 13.2685 13.8811L16.3706 13.7465C16.4863 13.7411 16.5984 13.7052 16.6957 13.6424C16.793 13.5797 16.8719 13.4924 16.9246 13.3893C16.9773 13.2862 17.0018 13.171 16.9956 13.0554C16.9895 12.9399 16.9529 12.8279 16.8896 12.731L15.1865 10.1459C15.1124 10.0348 15.0741 9.9035 15.0771 9.76992C15.08 9.63633 15.1239 9.50687 15.2028 9.39907L17.0205 6.89316C17.0889 6.79955 17.1313 6.68943 17.1432 6.57407C17.1551 6.45871 17.1361 6.34226 17.0882 6.23664C17.0404 6.13102 16.9652 6.04002 16.8706 5.97298C16.776 5.90593 16.6652 5.86524 16.5497 5.85508L13.4635 5.56651C13.3309 5.55499 13.2052 5.50304 13.1031 5.41769C13.0011 5.33234 12.9278 5.21771 12.8931 5.08931L12.0566 2.10684C12.0245 1.99797 11.9647 1.89927 11.8831 1.82036C11.8015 1.74145 11.7009 1.68503 11.591 1.65659C11.4811 1.62815 11.3658 1.62867 11.2561 1.65809C11.1465 1.68751 11.0464 1.74483 10.9655 1.82446Z" fill="url(#paint0_linear_36_12)"/>
<path d="M23.0807 5.15698L22.9694 6.87964L22.9284 6.89136C22.6393 6.45776 22.1471 6.17651 21.4518 6.04761C21.233 6.00464 21.0221 5.98315 20.819 5.98315C20.6198 5.98315 20.4479 6.00073 20.3034 6.03589C20.1627 6.07104 20.0416 6.12183 19.9401 6.18823C19.7252 6.32886 19.6178 6.51245 19.6178 6.73901C19.6178 7.03589 19.7116 7.25854 19.8991 7.40698C20.1334 7.58667 20.5221 7.71362 21.0651 7.78784C21.608 7.85815 22.0436 7.95581 22.3717 8.08081C22.6998 8.20581 22.9694 8.36401 23.1803 8.55542C23.5788 8.91479 23.778 9.42261 23.778 10.0789C23.778 10.9382 23.4538 11.6003 22.8053 12.0652C22.2506 12.4636 21.5514 12.6628 20.7077 12.6628C20.028 12.6628 19.3561 12.5339 18.692 12.2761C18.4733 12.1902 18.2819 12.0906 18.1178 11.9773L18.1823 10.0203L18.2057 10.0027C18.6901 10.8386 19.485 11.2566 20.5905 11.2566C21.3756 11.2566 21.8952 11.0671 22.1491 10.6882C22.235 10.5593 22.278 10.4167 22.278 10.2605C22.278 10.1003 22.2526 9.96948 22.2018 9.86792C22.151 9.76245 22.067 9.67261 21.9498 9.59839C21.7233 9.44995 21.3424 9.35034 20.8073 9.29956C20.2721 9.24878 19.8346 9.15308 19.4948 9.01245C19.1549 8.87183 18.8834 8.698 18.6803 8.49097C18.3131 8.11597 18.1295 7.59253 18.1295 6.92065C18.1295 6.22534 18.3737 5.66284 18.862 5.23315C19.358 4.79565 20.026 4.5769 20.8659 4.5769C21.7096 4.5769 22.4479 4.77026 23.0807 5.15698ZM27.944 11.2273C28.4479 11.2273 28.7936 11.0964 28.9811 10.8347H29.028L29.0455 12.1941C28.8541 12.3855 28.4987 12.5125 27.9791 12.575C27.8385 12.5945 27.6627 12.6042 27.4518 12.6042C27.2448 12.6042 27.0182 12.5652 26.7721 12.4871C26.5299 12.4089 26.3229 12.282 26.151 12.1062C25.7955 11.7429 25.6178 11.1746 25.6178 10.4011V7.74097H24.733C24.7291 7.62769 24.7272 7.51245 24.7272 7.39526V6.49292C24.7272 6.42651 24.7291 6.39331 24.733 6.39331H25.6178V4.72339H27.0534V6.39331H28.6647V7.74097H27.0534V10.1316C27.0534 10.7449 27.2233 11.0945 27.5631 11.1804C27.6725 11.2117 27.7995 11.2273 27.944 11.2273ZM34.2838 12.1531C33.7291 12.4539 33.2272 12.6042 32.778 12.6042C32.3288 12.6042 31.944 12.5632 31.6237 12.4812C31.3034 12.3953 31.0319 12.2703 30.8092 12.1062C30.3561 11.7742 30.1295 11.2937 30.1295 10.6648C30.1295 10.1023 30.4069 9.63354 30.9616 9.25854C31.5631 8.85229 32.3795 8.64917 33.4108 8.64917L33.6452 8.65503C33.692 8.65894 33.7448 8.66284 33.8034 8.66675C33.862 8.66675 33.9147 8.67065 33.9616 8.67847C33.9303 8.05347 33.6608 7.68823 33.153 7.58276C32.985 7.54761 32.8053 7.53003 32.6139 7.53003C32.4264 7.53003 32.2409 7.54761 32.0573 7.58276C31.8776 7.61401 31.7018 7.65698 31.5299 7.71167C31.151 7.83276 30.8795 7.97144 30.7155 8.12769L30.6979 8.11597L30.5221 6.82104C31.2135 6.45776 31.9694 6.27612 32.7897 6.27612C34.0631 6.27612 34.8776 6.73511 35.233 7.65308C35.3463 7.94604 35.403 8.27612 35.403 8.64331V10.7644C35.403 11.2175 35.5631 11.5261 35.8834 11.6902L34.8229 12.6628C34.6002 12.5457 34.4205 12.3757 34.2838 12.1531ZM33.9674 9.73315C33.862 9.71362 33.7526 9.70386 33.6393 9.70386H33.4049C32.5416 9.70386 31.9928 9.89526 31.7584 10.2781C31.6881 10.3914 31.653 10.5105 31.653 10.6355C31.653 10.7605 31.6745 10.8718 31.7174 10.9695C31.7643 11.0632 31.8405 11.1414 31.9459 11.2039C32.1491 11.321 32.4498 11.3796 32.8483 11.3796C33.2506 11.3796 33.6256 11.2839 33.9733 11.0925C33.9694 11.0496 33.9674 11.0046 33.9674 10.9578V9.73315ZM38.6198 11.8601C38.6198 12.196 38.6276 12.4148 38.6432 12.5164H37.1842V6.39331H38.6198V6.84448C38.9518 6.46558 39.2995 6.27612 39.6627 6.27612C40.0299 6.27612 40.319 6.32104 40.5299 6.41089L40.4245 7.98706L40.401 8.00464C40.2643 7.76245 39.9811 7.64136 39.5514 7.64136C39.3873 7.64136 39.2194 7.698 39.0475 7.81128C38.8795 7.92065 38.737 8.06714 38.6198 8.25073V11.8601Z" fill="#111827"/>
<path d="M10.5182 20.5164C9.94398 20.5164 9.56313 20.5281 9.37563 20.5515V12.6882C9.46938 12.7117 9.66273 12.7234 9.9557 12.7234C10.2526 12.7234 10.5963 12.7156 10.987 12.7V19.1101H12.1998C12.5514 19.1101 12.8327 19.0984 13.0436 19.075C13.0163 19.989 13.0026 20.4636 13.0026 20.4988V20.5574C12.6198 20.53 11.9772 20.5164 11.0748 20.5164H10.5182ZM14.0573 12.6472C14.3698 12.1589 14.6959 11.7292 15.0358 11.3582L16.2955 12.3484C16.1276 12.5554 15.9713 12.7585 15.8268 12.9578C15.8268 12.9578 15.6764 13.1707 15.3756 13.5964L14.0573 12.6472ZM15.5983 19.8601C15.5983 20.196 15.6061 20.4148 15.6217 20.5164H14.1334V14.3933H15.5983V19.8601ZM18.7975 19.7664C18.7975 20.1101 18.8131 20.3601 18.8444 20.5164H17.3737V14.3933H18.7975V14.9148C19.3131 14.489 19.8639 14.2761 20.4498 14.2761C21.0905 14.2761 21.6022 14.4949 21.985 14.9324C22.3678 15.366 22.5592 15.9382 22.5592 16.6492V18.9812C22.5592 19.6414 22.569 20.0378 22.5885 20.1707C22.608 20.3035 22.6334 20.3894 22.6647 20.4285C22.6998 20.4675 22.7291 20.5027 22.7526 20.5339L22.7409 20.5574C22.4245 20.53 22.194 20.5164 22.0495 20.5164H21.6393C21.5143 20.5164 21.3463 20.5222 21.1354 20.5339V17.3406C21.1354 16.196 20.7877 15.6238 20.0924 15.6238C19.5768 15.6238 19.1452 15.8894 18.7975 16.4207V19.7664ZM25.8873 18.8875C25.7428 19.0789 25.6705 19.2312 25.6705 19.3445C25.6705 19.4539 25.6881 19.5398 25.7233 19.6023C25.7584 19.6609 25.8346 19.7175 25.9518 19.7722C26.2096 19.8933 26.6334 20.0007 27.2233 20.0945C27.8131 20.1843 28.2741 20.2976 28.6061 20.4343C28.942 20.571 29.2135 20.739 29.4205 20.9382C29.8073 21.3171 30.0006 21.8542 30.0006 22.5496C30.0006 23.2449 29.7565 23.7781 29.2682 24.1492C28.7799 24.5242 28.0553 24.7117 27.0944 24.7117C26.1256 24.7117 25.3444 24.5007 24.7506 24.0789C24.1569 23.657 23.8522 23.0964 23.8366 22.3972C23.8131 21.5847 24.1315 20.9968 24.7916 20.6335C24.612 20.4851 24.4909 20.3113 24.4284 20.1121C24.3698 19.9089 24.3405 19.6785 24.3405 19.4207C24.3405 18.9871 24.5299 18.6199 24.9088 18.3191C24.4674 17.9011 24.2467 17.3816 24.2467 16.7605C24.2467 16.0652 24.4967 15.4832 24.9967 15.0144C25.5241 14.5222 26.2077 14.2761 27.0475 14.2761C27.4889 14.2761 27.903 14.3582 28.2897 14.5222C28.7975 14.3074 29.1705 14.1199 29.4088 13.9597C29.6471 13.7957 29.7995 13.6765 29.8659 13.6023L29.901 13.6082C29.9362 13.7019 29.9772 13.8347 30.0241 14.0066L30.1295 14.4285C30.2233 14.7761 30.2799 15.0144 30.2995 15.1433C30.1276 15.3308 29.8248 15.4636 29.3913 15.5417C29.5592 15.866 29.6432 16.2097 29.6432 16.573C29.6432 16.9363 29.5807 17.2664 29.4557 17.5632C29.3307 17.8562 29.153 18.114 28.9225 18.3367C28.4108 18.8171 27.7584 19.0574 26.9655 19.0574C26.5788 19.0574 26.2194 19.0007 25.8873 18.8875ZM25.735 16.2507C25.6803 16.3914 25.653 16.5339 25.653 16.6785C25.653 16.823 25.6823 16.9617 25.7409 17.0945C25.8034 17.2273 25.8932 17.3464 26.0104 17.4519C26.2721 17.6863 26.6139 17.8035 27.0358 17.8035C27.3561 17.8035 27.6334 17.696 27.8678 17.4812C28.1139 17.2468 28.237 16.9656 28.237 16.6375C28.237 16.3054 28.1256 16.0378 27.903 15.8347C27.6803 15.6316 27.3737 15.53 26.983 15.53C26.3385 15.53 25.9225 15.7703 25.735 16.2507ZM27.1705 23.4695C28.1315 23.4695 28.612 23.1335 28.612 22.4617C28.612 22.1414 28.4557 21.8835 28.1432 21.6882C27.7916 21.4656 27.1881 21.2917 26.3327 21.1667L26.028 21.114C25.7702 21.2507 25.5807 21.4265 25.4596 21.6414C25.3385 21.8562 25.278 22.0593 25.278 22.2507C25.2819 22.446 25.3288 22.614 25.4186 22.7546C25.5084 22.8953 25.6334 23.0183 25.7936 23.1238C26.1491 23.3542 26.608 23.4695 27.1705 23.4695ZM30.8268 17.4871C30.8268 17.0574 30.8991 16.6472 31.0436 16.2566C31.192 15.8621 31.403 15.5183 31.6764 15.2253C32.2741 14.5925 33.0495 14.2761 34.0026 14.2761C34.9518 14.2761 35.7057 14.575 36.2643 15.1726C36.7995 15.7429 37.067 16.4832 37.067 17.3933C37.067 18.3035 36.7916 19.0574 36.2409 19.655C35.6588 20.2878 34.8873 20.6042 33.9264 20.6042C32.9342 20.6042 32.1569 20.2937 31.5944 19.6726C31.0827 19.1062 30.8268 18.3777 30.8268 17.4871ZM32.2506 17.4519C32.2506 17.698 32.2916 17.9363 32.3737 18.1667C32.4557 18.3972 32.5729 18.5945 32.7252 18.7585C33.0495 19.114 33.4752 19.2917 34.0026 19.2917C34.4909 19.2917 34.8756 19.1179 35.1569 18.7703C35.4303 18.4343 35.567 17.9968 35.567 17.4578C35.567 16.9109 35.4264 16.4695 35.1452 16.1335C34.8444 15.7742 34.4323 15.5945 33.9088 15.5945C33.3776 15.5945 32.9616 15.7859 32.6608 16.1687C32.3873 16.5203 32.2506 16.948 32.2506 17.4519Z" fill="#111827"/>
<defs>
<linearGradient id="paint0_linear_36_12" x1="6.22167" y1="4.04977" x2="12.6255" y2="17.7425" gradientUnits="userSpaceOnUse">
<stop stop-color="#FFD770"/>
<stop offset="0.81" stop-color="#F59E0B"/>
</linearGradient>
</defs>
</svg>
