<svg width="42" height="25" viewBox="0 0 42 25" fill="none" xmlns="http://www.w3.org/2000/svg">
<path d="M10.6601 1.27974L8.51895 3.51677C8.42721 3.61322 8.30813 3.67927 8.17773 3.70603C8.04733 3.73279 7.91186 3.71898 7.78955 3.66645L4.9397 2.45099C4.83333 2.40553 4.7168 2.38907 4.60199 2.40331C4.48719 2.41755 4.37821 2.46197 4.28616 2.53205C4.19412 2.60213 4.1223 2.69535 4.07802 2.80223C4.03375 2.90911 4.0186 3.02581 4.03412 3.14045L4.45351 6.20887C4.47151 6.34088 4.44879 6.47524 4.38839 6.59398C4.32798 6.71273 4.23276 6.81021 4.11546 6.87338L1.36472 8.34652C1.26297 8.40172 1.17762 8.48282 1.11729 8.58162C1.05697 8.68042 1.02383 8.7934 1.02122 8.90913C1.01861 9.02486 1.04663 9.13923 1.10243 9.24064C1.15824 9.34206 1.23985 9.42693 1.33901 9.48667L3.99783 11.0755C4.11157 11.1445 4.20172 11.2463 4.25635 11.3675C4.31097 11.4888 4.32751 11.6238 4.30377 11.7546L3.75478 14.8028C3.73393 14.9167 3.74367 15.034 3.78299 15.1429C3.82232 15.2518 3.88982 15.3483 3.97862 15.4225C4.06741 15.4968 4.17432 15.5462 4.28843 15.5656C4.40254 15.5851 4.51977 15.5739 4.62816 15.5333L7.53951 14.446C7.6642 14.3994 7.80014 14.3919 7.92919 14.4246C8.05823 14.4573 8.17424 14.5285 8.26174 14.6288L10.3011 16.9601C10.3772 17.0475 10.4752 17.113 10.5849 17.1501C10.6947 17.1872 10.8123 17.1944 10.9258 17.1712C11.0393 17.1479 11.1445 17.0949 11.2309 17.0176C11.3172 16.9404 11.3814 16.8416 11.417 16.7313L12.3698 13.7885C12.4115 13.662 12.4905 13.5512 12.5964 13.4705C12.7023 13.3898 12.8302 13.343 12.9631 13.3364L16.0652 13.2018C16.1809 13.1963 16.293 13.1604 16.3903 13.0977C16.4875 13.035 16.5665 12.9476 16.6192 12.8446C16.6719 12.7415 16.6964 12.6263 16.6902 12.5107C16.6841 12.3951 16.6475 12.2832 16.5842 12.1863L14.8811 9.60118C14.807 9.49003 14.7687 9.35878 14.7717 9.22519C14.7746 9.09161 14.8185 8.96215 14.8974 8.85435L16.7151 6.34844C16.7835 6.25483 16.8259 6.14471 16.8378 6.02935C16.8497 5.91399 16.8307 5.79753 16.7828 5.69191C16.7349 5.58629 16.6598 5.4953 16.5652 5.42826C16.4706 5.36121 16.3598 5.32052 16.2443 5.31035L13.158 5.02178C13.0255 5.01027 12.8998 4.95832 12.7977 4.87297C12.6957 4.78762 12.6224 4.67298 12.5877 4.54458L11.7511 1.56211C11.7191 1.45324 11.6593 1.35454 11.5777 1.27564C11.4961 1.19673 11.3955 1.14031 11.2856 1.11187C11.1757 1.08343 11.0604 1.08394 10.9507 1.11336C10.8411 1.14278 10.741 1.2001 10.6601 1.27974Z" fill="url(#paint0_linear_36_11)"/>
<path d="M22.7753 4.61226L22.664 6.33492L22.623 6.34663C22.3339 5.91304 21.8417 5.63179 21.1464 5.50288C20.9276 5.45992 20.7167 5.43843 20.5136 5.43843C20.3144 5.43843 20.1425 5.45601 19.998 5.49117C19.8573 5.52632 19.7362 5.5771 19.6347 5.64351C19.4198 5.78413 19.3124 5.96773 19.3124 6.19429C19.3124 6.49117 19.4062 6.71382 19.5937 6.86226C19.828 7.04195 20.2167 7.1689 20.7597 7.24312C21.3026 7.31343 21.7382 7.41109 22.0663 7.53609C22.3944 7.66109 22.664 7.81929 22.8749 8.0107C23.2733 8.37007 23.4726 8.87788 23.4726 9.53413C23.4726 10.3935 23.1483 11.0556 22.4999 11.5205C21.9452 11.9189 21.246 12.1181 20.4023 12.1181C19.7226 12.1181 19.0507 11.9892 18.3866 11.7314C18.1679 11.6455 17.9765 11.5459 17.8124 11.4326L17.8769 9.47554L17.9003 9.45796C18.3847 10.2939 19.1796 10.7119 20.2851 10.7119C21.0702 10.7119 21.5898 10.5224 21.8437 10.1435C21.9296 10.0146 21.9726 9.87202 21.9726 9.71577C21.9726 9.55562 21.9472 9.42476 21.8964 9.3232C21.8456 9.21773 21.7616 9.12788 21.6444 9.05367C21.4179 8.90523 21.037 8.80562 20.5019 8.75484C19.9667 8.70406 19.5292 8.60835 19.1894 8.46773C18.8495 8.3271 18.578 8.15327 18.3749 7.94624C18.0077 7.57124 17.8241 7.04781 17.8241 6.37593C17.8241 5.68062 18.0683 5.11812 18.5565 4.68843C19.0526 4.25093 19.7206 4.03218 20.5605 4.03218C21.4042 4.03218 22.1425 4.22554 22.7753 4.61226ZM27.6386 10.6826C28.1425 10.6826 28.4882 10.5517 28.6757 10.29H28.7226L28.7401 11.6494C28.5487 11.8408 28.1933 11.9677 27.6737 12.0302C27.5331 12.0498 27.3573 12.0595 27.1464 12.0595C26.9394 12.0595 26.7128 12.0205 26.4667 11.9423C26.2245 11.8642 26.0175 11.7373 25.8456 11.5615C25.4901 11.1982 25.3124 10.6298 25.3124 9.8564V7.19624H24.4276C24.4237 7.08296 24.4218 6.96773 24.4218 6.85054V5.9482C24.4218 5.88179 24.4237 5.84859 24.4276 5.84859H25.3124V4.17867H26.748V5.84859H28.3593V7.19624H26.748V9.58687C26.748 10.2001 26.9179 10.5498 27.2577 10.6357C27.3671 10.6669 27.494 10.6826 27.6386 10.6826ZM33.9784 11.6084C33.4237 11.9091 32.9218 12.0595 32.4726 12.0595C32.0233 12.0595 31.6386 12.0185 31.3183 11.9365C30.998 11.8505 30.7265 11.7255 30.5038 11.5615C30.0507 11.2294 29.8241 10.749 29.8241 10.1201C29.8241 9.55757 30.1015 9.08882 30.6562 8.71382C31.2577 8.30757 32.0741 8.10445 33.1054 8.10445L33.3398 8.11031C33.3866 8.11421 33.4394 8.11812 33.498 8.12202C33.5565 8.12202 33.6093 8.12593 33.6562 8.13374C33.6249 7.50874 33.3554 7.14351 32.8476 7.03804C32.6796 7.00288 32.4999 6.98531 32.3085 6.98531C32.121 6.98531 31.9355 7.00288 31.7519 7.03804C31.5722 7.06929 31.3964 7.11226 31.2245 7.16695C30.8456 7.28804 30.5741 7.42671 30.4101 7.58296L30.3925 7.57124L30.2167 6.27632C30.9081 5.91304 31.664 5.7314 32.4843 5.7314C33.7577 5.7314 34.5722 6.19038 34.9276 7.10835C35.0409 7.40132 35.0976 7.7314 35.0976 8.09859V10.2197C35.0976 10.6728 35.2577 10.9814 35.578 11.1455L34.5175 12.1181C34.2948 12.0009 34.1151 11.831 33.9784 11.6084ZM33.662 9.18843C33.5565 9.1689 33.4472 9.15913 33.3339 9.15913H33.0995C32.2362 9.15913 31.6874 9.35054 31.453 9.73335C31.3827 9.84663 31.3476 9.96577 31.3476 10.0908C31.3476 10.2158 31.369 10.3271 31.412 10.4248C31.4589 10.5185 31.5351 10.5966 31.6405 10.6591C31.8437 10.7763 32.1444 10.8349 32.5429 10.8349C32.9452 10.8349 33.3202 10.7392 33.6679 10.5478C33.664 10.5048 33.662 10.4599 33.662 10.413V9.18843ZM38.3144 11.3154C38.3144 11.6513 38.3222 11.8701 38.3378 11.9716H36.8788V5.84859H38.3144V6.29976C38.6464 5.92085 38.994 5.7314 39.3573 5.7314C39.7245 5.7314 40.0136 5.77632 40.2245 5.86617L40.119 7.44234L40.0956 7.45992C39.9589 7.21773 39.6757 7.09663 39.246 7.09663C39.0819 7.09663 38.914 7.15327 38.7421 7.26656C38.5741 7.37593 38.4315 7.52242 38.3144 7.70601V11.3154Z" fill="white"/>
<path d="M10.2128 19.9716C9.63858 19.9716 9.25772 19.9834 9.07022 20.0068V12.1435C9.16397 12.1669 9.35733 12.1787 9.6503 12.1787C9.94717 12.1787 10.2909 12.1709 10.6815 12.1552V18.5654H11.8944C12.246 18.5654 12.5273 18.5537 12.7382 18.5302C12.7108 19.4443 12.6972 19.9189 12.6972 19.9541V20.0126C12.3144 19.9853 11.6718 19.9716 10.7694 19.9716H10.2128ZM13.7519 12.1025C14.0644 11.6142 14.3905 11.1845 14.7304 10.8134L15.9901 11.8037C15.8222 12.0107 15.6659 12.2138 15.5214 12.413C15.5214 12.413 15.371 12.6259 15.0702 13.0517L13.7519 12.1025ZM15.2929 19.3154C15.2929 19.6513 15.3007 19.8701 15.3163 19.9716H13.828V13.8486H15.2929V19.3154ZM18.4921 19.2216C18.4921 19.5654 18.5077 19.8154 18.539 19.9716H17.0683V13.8486H18.4921V14.3701C19.0077 13.9443 19.5585 13.7314 20.1444 13.7314C20.7851 13.7314 21.2968 13.9501 21.6796 14.3876C22.0624 14.8212 22.2538 15.3935 22.2538 16.1044V18.4365C22.2538 19.0966 22.2636 19.4931 22.2831 19.6259C22.3026 19.7587 22.328 19.8447 22.3593 19.8837C22.3944 19.9228 22.4237 19.958 22.4472 19.9892L22.4355 20.0126C22.119 19.9853 21.8886 19.9716 21.744 19.9716H21.3339C21.2089 19.9716 21.0409 19.9775 20.83 19.9892V16.7959C20.83 15.6513 20.4823 15.0791 19.787 15.0791C19.2714 15.0791 18.8398 15.3447 18.4921 15.8759V19.2216ZM25.5819 18.3427C25.4374 18.5341 25.3651 18.6865 25.3651 18.7998C25.3651 18.9091 25.3827 18.9951 25.4179 19.0576C25.453 19.1162 25.5292 19.1728 25.6464 19.2275C25.9042 19.3486 26.328 19.456 26.9179 19.5498C27.5077 19.6396 27.9687 19.7529 28.3007 19.8896C28.6366 20.0263 28.9081 20.1943 29.1151 20.3935C29.5019 20.7724 29.6952 21.3095 29.6952 22.0048C29.6952 22.7001 29.4511 23.2334 28.9628 23.6044C28.4745 23.9794 27.7499 24.1669 26.789 24.1669C25.8202 24.1669 25.039 23.956 24.4452 23.5341C23.8515 23.1123 23.5468 22.5517 23.5312 21.8525C23.5077 21.04 23.8261 20.4521 24.4862 20.0888C24.3065 19.9404 24.1855 19.7666 24.123 19.5673C24.0644 19.3642 24.0351 19.1337 24.0351 18.8759C24.0351 18.4423 24.2245 18.0751 24.6034 17.7744C24.162 17.3564 23.9413 16.8369 23.9413 16.2158C23.9413 15.5205 24.1913 14.9384 24.6913 14.4697C25.2187 13.9775 25.9023 13.7314 26.7421 13.7314C27.1835 13.7314 27.5976 13.8134 27.9843 13.9775C28.4921 13.7626 28.8651 13.5751 29.1034 13.415C29.3417 13.2509 29.494 13.1318 29.5605 13.0576L29.5956 13.0634C29.6308 13.1572 29.6718 13.29 29.7187 13.4619L29.8241 13.8837C29.9179 14.2314 29.9745 14.4697 29.994 14.5986C29.8222 14.7861 29.5194 14.9189 29.0858 14.997C29.2538 15.3212 29.3378 15.665 29.3378 16.0283C29.3378 16.3916 29.2753 16.7216 29.1503 17.0185C29.0253 17.3115 28.8476 17.5693 28.6171 17.7919C28.1054 18.2724 27.453 18.5126 26.6601 18.5126C26.2733 18.5126 25.914 18.456 25.5819 18.3427ZM25.4296 15.706C25.3749 15.8466 25.3476 15.9892 25.3476 16.1337C25.3476 16.2783 25.3769 16.4169 25.4355 16.5498C25.498 16.6826 25.5878 16.8017 25.705 16.9072C25.9667 17.1416 26.3085 17.2587 26.7304 17.2587C27.0507 17.2587 27.328 17.1513 27.5624 16.9365C27.8085 16.7021 27.9315 16.4209 27.9315 16.0927C27.9315 15.7607 27.8202 15.4931 27.5976 15.29C27.3749 15.0869 27.0683 14.9853 26.6776 14.9853C26.0331 14.9853 25.6171 15.2255 25.4296 15.706ZM26.8651 22.9248C27.8261 22.9248 28.3065 22.5888 28.3065 21.9169C28.3065 21.5966 28.1503 21.3388 27.8378 21.1435C27.4862 20.9209 26.8827 20.747 26.0273 20.622L25.7226 20.5693C25.4648 20.706 25.2753 20.8818 25.1542 21.0966C25.0331 21.3115 24.9726 21.5146 24.9726 21.706C24.9765 21.9013 25.0233 22.0693 25.1132 22.2099C25.203 22.3505 25.328 22.4736 25.4882 22.5791C25.8437 22.8095 26.3026 22.9248 26.8651 22.9248ZM30.5214 16.9423C30.5214 16.5126 30.5937 16.1025 30.7382 15.7119C30.8866 15.3173 31.0976 14.9736 31.371 14.6806C31.9687 14.0478 32.744 13.7314 33.6972 13.7314C34.6464 13.7314 35.4003 14.0302 35.9589 14.6279C36.494 15.1982 36.7616 15.9384 36.7616 16.8486C36.7616 17.7587 36.4862 18.5126 35.9355 19.1103C35.3534 19.7431 34.5819 20.0595 33.621 20.0595C32.6288 20.0595 31.8515 19.749 31.289 19.1279C30.7773 18.5615 30.5214 17.833 30.5214 16.9423ZM31.9452 16.9072C31.9452 17.1533 31.9862 17.3916 32.0683 17.622C32.1503 17.8525 32.2675 18.0498 32.4198 18.2138C32.744 18.5693 33.1698 18.747 33.6972 18.747C34.1855 18.747 34.5702 18.5732 34.8515 18.2255C35.1249 17.8896 35.2616 17.4521 35.2616 16.913C35.2616 16.3662 35.121 15.9248 34.8398 15.5888C34.539 15.2294 34.1269 15.0498 33.6034 15.0498C33.0722 15.0498 32.6562 15.2412 32.3554 15.624C32.0819 15.9755 31.9452 16.4033 31.9452 16.9072Z" fill="white"/>
<defs>
<linearGradient id="paint0_linear_36_11" x1="5.91626" y1="3.50504" x2="12.3201" y2="17.1978" gradientUnits="userSpaceOnUse">
<stop stop-color="#FFD770"/>
<stop offset="0.81" stop-color="#F59E0B"/>
</linearGradient>
</defs>
</svg>
