<svg width="28" height="40" viewBox="0 0 28 40" fill="none" xmlns="http://www.w3.org/2000/svg">
<path d="M14 29.1C17.4667 26.3 20.0833 23.6083 21.85 21.025C23.6167 18.4417 24.5 16.0333 24.5 13.8C24.5 11.8333 24.1417 10.1667 23.425 8.8C22.7083 7.43333 21.825 6.31667 20.775 5.45C19.725 4.58333 18.5833 3.95833 17.35 3.575C16.1167 3.19167 15 3 14 3C13 3 11.8833 3.19167 10.65 3.575C9.41667 3.95833 8.275 4.58333 7.225 5.45C6.175 6.31667 5.29167 7.43333 4.575 8.8C3.85833 10.1667 3.5 11.8333 3.5 13.8C3.5 16.0333 4.38333 18.4417 6.15 21.025C7.91667 23.6083 10.5333 26.3 14 29.1ZM14 32.35C13.7667 32.35 13.55 32.325 13.35 32.275C13.15 32.225 12.9667 32.1333 12.8 32C8.63333 28.7667 5.54167 25.6583 3.525 22.675C1.50833 19.6917 0.5 16.7333 0.5 13.8C0.5 11.5333 0.908334 9.54167 1.725 7.825C2.54167 6.10833 3.6 4.66667 4.9 3.5C6.2 2.33333 7.65 1.45833 9.25 0.875C10.85 0.291667 12.4333 0 14 0C15.5667 0 17.15 0.291667 18.75 0.875C20.35 1.45833 21.8 2.33333 23.1 3.5C24.4 4.66667 25.4583 6.10833 26.275 7.825C27.0917 9.54167 27.5 11.5333 27.5 13.8C27.5 16.7333 26.4917 19.6917 24.475 22.675C22.4583 25.6583 19.3667 28.7667 15.2 32C15.0333 32.1333 14.85 32.225 14.65 32.275C14.45 32.325 14.2333 32.35 14 32.35ZM14 17C14.9667 17 15.7917 16.6583 16.475 15.975C17.1583 15.2917 17.5 14.4667 17.5 13.5C17.5 12.5333 17.1583 11.7083 16.475 11.025C15.7917 10.3417 14.9667 10 14 10C13.0333 10 12.2083 10.3417 11.525 11.025C10.8417 11.7083 10.5 12.5333 10.5 13.5C10.5 14.4667 10.8417 15.2917 11.525 15.975C12.2083 16.6583 13.0333 17 14 17ZM2 40C1.56667 40 1.20833 39.8583 0.925 39.575C0.641667 39.2917 0.5 38.9333 0.5 38.5C0.5 38.0667 0.641667 37.7083 0.925 37.425C1.20833 37.1417 1.56667 37 2 37H26C26.4333 37 26.7917 37.1417 27.075 37.425C27.3583 37.7083 27.5 38.0667 27.5 38.5C27.5 38.9333 27.3583 39.2917 27.075 39.575C26.7917 39.8583 26.4333 40 26 40H2Z" fill="#F59E0B"/>
</svg>
