<svg width="44" height="44" viewBox="0 0 44 44" fill="none" xmlns="http://www.w3.org/2000/svg">
<path d="M22 44C18.2667 44 14.6667 42.9 11.2 40.7C7.73333 38.5 5 35.9833 3 33.15V38.5C3 38.9333 2.85833 39.2917 2.575 39.575C2.29167 39.8583 1.93333 40 1.5 40C1.06667 40 0.708333 39.8583 0.425 39.575C0.141667 39.2917 0 38.9333 0 38.5V29.5C0 29.0667 0.141667 28.7083 0.425 28.425C0.708333 28.1417 1.06667 28 1.5 28H10.5C10.9333 28 11.2917 28.1417 11.575 28.425C11.8583 28.7083 12 29.0667 12 29.5C12 29.9333 11.8583 30.2917 11.575 30.575C11.2917 30.8583 10.9333 31 10.5 31H5.15C6.85 33.5667 9.275 35.875 12.425 37.925C15.575 39.975 18.7667 41 22 41C27 41 31.3167 39.3083 34.95 35.925C38.5833 32.5417 40.5833 28.4 40.95 23.5C40.9833 23.0667 41.1417 22.7083 41.425 22.425C41.7083 22.1417 42.0667 22 42.5 22C42.9333 22 43.2917 22.15 43.575 22.45C43.8583 22.75 43.9833 23.1 43.95 23.5C43.75 26.3667 43.0417 29.0417 41.825 31.525C40.6083 34.0083 39.0167 36.175 37.05 38.025C35.0833 39.875 32.8083 41.3333 30.225 42.4C27.6417 43.4667 24.9 44 22 44ZM1.5 22C1.06667 22 0.708333 21.85 0.425 21.55C0.141667 21.25 0.0166666 20.9 0.05 20.5C0.25 17.6333 0.958333 14.9583 2.175 12.475C3.39167 9.99167 4.98333 7.825 6.95 5.975C8.91667 4.125 11.1917 2.66667 13.775 1.6C16.3583 0.533333 19.1 0 22 0C25.7333 0 29.3333 1.1 32.8 3.3C36.2667 5.5 39 8.01667 41 10.85V5.5C41 5.06667 41.1417 4.70833 41.425 4.425C41.7083 4.14167 42.0667 4 42.5 4C42.9333 4 43.2917 4.14167 43.575 4.425C43.8583 4.70833 44 5.06667 44 5.5V14.5C44 14.9333 43.8583 15.2917 43.575 15.575C43.2917 15.8583 42.9333 16 42.5 16H33.5C33.0667 16 32.7083 15.8583 32.425 15.575C32.1417 15.2917 32 14.9333 32 14.5C32 14.0667 32.1417 13.7083 32.425 13.425C32.7083 13.1417 33.0667 13 33.5 13H38.85C37.15 10.4333 34.7333 8.125 31.6 6.075C28.4667 4.025 25.2667 3 22 3C17 3 12.6833 4.69167 9.05 8.075C5.41667 11.4583 3.41667 15.6 3.05 20.5C3.01667 20.9333 2.85833 21.2917 2.575 21.575C2.29167 21.8583 1.93333 22 1.5 22ZM21.95 36.35C21.5833 36.35 21.2583 36.2167 20.975 35.95C20.6917 35.6833 20.55 35.3667 20.55 35V33.65C19.2833 33.3167 18.1917 32.8083 17.275 32.125C16.3583 31.4417 15.5667 30.55 14.9 29.45C14.6667 29.0833 14.625 28.725 14.775 28.375C14.925 28.025 15.2167 27.7667 15.65 27.6C15.95 27.5 16.2417 27.525 16.525 27.675C16.8083 27.825 17.0333 28.0333 17.2 28.3C17.7 29.2667 18.4083 30.0167 19.325 30.55C20.2417 31.0833 21.25 31.35 22.35 31.35C23.65 31.35 24.75 30.975 25.65 30.225C26.55 29.475 27 28.55 27 27.45C27 26.3833 26.6167 25.5167 25.85 24.85C25.0833 24.1833 23.5167 23.4 21.15 22.5C18.85 21.6333 17.275 20.7167 16.425 19.75C15.575 18.7833 15.15 17.4833 15.15 15.85C15.15 14.35 15.6417 13.1 16.625 12.1C17.6083 11.1 18.95 10.4833 20.65 10.25V9.05C20.65 8.68333 20.7917 8.36667 21.075 8.1C21.3583 7.83333 21.6833 7.7 22.05 7.7C22.4167 7.7 22.7333 7.83333 23 8.1C23.2667 8.36667 23.4 8.68333 23.4 9.05V10.25C24.4333 10.35 25.3583 10.6333 26.175 11.1C26.9917 11.5667 27.6833 12.2 28.25 13C28.4833 13.3 28.5417 13.6333 28.425 14C28.3083 14.3667 28.0667 14.6333 27.7 14.8C27.4 14.9667 27.0833 15 26.75 14.9C26.4167 14.8 26.1333 14.6167 25.9 14.35C25.4333 13.75 24.8833 13.3 24.25 13C23.6167 12.7 22.9 12.55 22.1 12.55C20.8 12.55 19.775 12.8417 19.025 13.425C18.275 14.0083 17.9 14.8167 17.9 15.85C17.9 16.95 18.2917 17.8417 19.075 18.525C19.8583 19.2083 21.3 19.9 23.4 20.6C25.7333 21.3667 27.375 22.2667 28.325 23.3C29.275 24.3333 29.75 25.7167 29.75 27.45C29.75 29.1833 29.175 30.6083 28.025 31.725C26.875 32.8417 25.3 33.5167 23.3 33.75V34.95C23.3 35.3167 23.1667 35.6417 22.9 35.925C22.6333 36.2083 22.3167 36.35 21.95 36.35Z" fill="#F59E0B"/>
</svg>
