<svg width="147" height="113" viewBox="0 0 147 113" fill="none" xmlns="http://www.w3.org/2000/svg">
<path d="M77.1645 112.911C59.5709 113.291 60.4688 99.9333 51.8466 90.8939C43.2243 81.8546 16.4948 88.9014 14.6247 58.4203C14.0457 48.9826 -7.88845 32.9222 3.57455 22.5854C12.4661 14.5674 28.1759 20.6421 36.5469 19.2199C55.4399 16.0101 58.2403 5.72837 74.0077 0.86627C90.7307 -4.2905 91.5746 20.315 115.003 32.6997C138.758 45.2572 153.909 58.094 143.69 73.1296C136.491 83.7211 124.1 79.1704 112.647 87.8422C100.755 96.8464 94.758 112.531 77.1645 112.911Z" fill="url(#paint0_radial_6_26)"/>
<defs>
<radialGradient id="paint0_radial_6_26" cx="0" cy="0" r="1" gradientUnits="userSpaceOnUse" gradientTransform="translate(0.223406 72.8025) rotate(-21.6747) scale(129.428 119.836)">
<stop stop-color="#037CC2"/>
<stop offset="1" stop-color="#692584"/>
</radialGradient>
</defs>
</svg>
