<svg width="238" height="236" viewBox="0 0 238 236" fill="none" xmlns="http://www.w3.org/2000/svg">
<path d="M143.411 77.3261C157.346 88.0717 148.264 97.9078 149.304 110.357C150.344 122.805 175.577 134.094 157.903 158.999C152.431 166.71 159.428 192.979 144.017 193.833C132.062 194.495 123.644 179.906 116.234 175.76C99.5105 166.402 90.8776 172.649 75.5506 166.539C59.2947 160.059 74.0797 140.373 63.6123 116.028C52.9987 91.3428 49.2588 71.8401 66.651 66.5474C78.9025 62.8192 85.6937 74.1386 100.053 74.5751C114.962 75.0283 129.475 66.5805 143.411 77.3261Z" fill="url(#paint0_radial_28_88)"/>
<g clip-path="url(#clip0_28_88)">
<path opacity="0.2" d="M134.933 172.688C134.389 176.894 137.359 180.745 141.566 181.289C145.772 181.832 149.623 178.863 150.166 174.656C150.71 170.45 147.741 166.599 143.534 166.055C139.327 165.512 135.477 168.481 134.933 172.688Z" fill="url(#paint1_linear_28_88)"/>
<path opacity="0.2" d="M131.462 172.239C130.671 178.363 134.993 183.968 141.117 184.76C147.241 185.551 152.846 181.228 153.638 175.105C154.429 168.981 150.106 163.375 143.982 162.584C137.859 161.793 132.253 166.116 131.462 172.239Z" fill="url(#paint2_linear_28_88)"/>
<path d="M137.135 171.097L139.439 170.749C139.538 170.736 139.631 170.692 139.705 170.624C139.778 170.556 139.829 170.467 139.851 170.369L140.337 168.092C140.355 168.007 140.396 167.928 140.454 167.863C140.513 167.799 140.587 167.75 140.67 167.723C140.753 167.696 140.842 167.692 140.928 167.709C141.013 167.727 141.092 167.767 141.158 167.825L142.858 169.416C142.932 169.482 143.025 169.524 143.124 169.537C143.223 169.55 143.324 169.533 143.413 169.488L145.504 168.447C145.582 168.41 145.668 168.394 145.754 168.4C145.841 168.406 145.924 168.434 145.996 168.482C146.068 168.53 146.127 168.596 146.166 168.673C146.205 168.75 146.223 168.837 146.219 168.923L146.069 171.253C146.061 171.355 146.085 171.456 146.137 171.544C146.188 171.632 146.266 171.701 146.358 171.744L148.47 172.723C148.548 172.761 148.615 172.818 148.663 172.89C148.712 172.962 148.742 173.044 148.749 173.131C148.756 173.217 148.741 173.304 148.704 173.382C148.668 173.461 148.612 173.529 148.541 173.579L146.607 174.892C146.524 174.947 146.461 175.027 146.425 175.12C146.39 175.213 146.384 175.314 146.409 175.411L146.952 177.679C146.973 177.763 146.971 177.852 146.947 177.935C146.922 178.018 146.876 178.093 146.813 178.153C146.75 178.212 146.672 178.254 146.588 178.274C146.503 178.293 146.415 178.29 146.332 178.265L144.101 177.583C144.007 177.553 143.907 177.553 143.813 177.582C143.719 177.612 143.636 177.669 143.576 177.747L142.149 179.579C142.098 179.651 142.028 179.706 141.947 179.741C141.866 179.776 141.777 179.788 141.69 179.777C141.603 179.766 141.52 179.731 141.451 179.677C141.382 179.623 141.328 179.551 141.296 179.469L140.432 177.341C140.397 177.247 140.333 177.166 140.25 177.11C140.167 177.054 140.068 177.026 139.968 177.029L137.645 177.061C137.557 177.065 137.469 177.044 137.392 177.002C137.314 176.959 137.249 176.897 137.204 176.821C137.159 176.745 137.136 176.658 137.136 176.57C137.137 176.481 137.161 176.395 137.206 176.319L138.375 174.302C138.422 174.214 138.443 174.114 138.435 174.014C138.426 173.915 138.388 173.82 138.326 173.741L136.844 171.946C136.778 171.88 136.731 171.797 136.71 171.706C136.689 171.615 136.694 171.519 136.724 171.431C136.755 171.342 136.809 171.264 136.882 171.205C136.955 171.146 137.042 171.108 137.135 171.097Z" fill="url(#paint3_linear_28_88)"/>
</g>
<path opacity="0.2" d="M92.9688 89.1621C92.3014 94.3272 95.9475 99.0554 101.113 99.7229C106.278 100.39 111.006 96.7442 111.673 91.5791C112.341 86.414 108.695 81.6858 103.53 81.0184C98.3644 80.3509 93.6362 83.997 92.9688 89.1621Z" fill="url(#paint4_linear_28_88)"/>
<path opacity="0.2" d="M96.2416 89.585C95.8077 92.9426 98.1779 96.0162 101.535 96.4501C104.893 96.8839 107.967 94.5138 108.4 91.1562C108.834 87.7986 106.464 84.725 103.107 84.2912C99.749 83.8573 96.6755 86.2275 96.2416 89.585Z" fill="url(#paint5_linear_28_88)"/>
<path d="M106.354 91.2345L103.768 92.0499C103.688 92.0786 103.62 92.1339 103.576 92.2066L102.12 94.499C102.083 94.5582 102.029 94.6056 101.965 94.6354C101.901 94.6652 101.831 94.6762 101.761 94.6672C101.691 94.6582 101.625 94.6295 101.571 94.5845C101.517 94.5395 101.477 94.48 101.456 94.4131L100.641 91.8273C100.613 91.7446 100.558 91.6736 100.485 91.6257L98.1914 90.1798C98.1321 90.1421 98.0848 90.0882 98.055 90.0245C98.0252 89.9609 98.0142 89.89 98.0232 89.8203C98.0322 89.7506 98.0609 89.6849 98.1059 89.6309C98.1509 89.5769 98.2104 89.5368 98.2773 89.5154L100.858 88.7397C100.939 88.7156 101.01 88.6642 101.058 88.5942L102.511 86.251C102.548 86.1917 102.602 86.1443 102.666 86.1145C102.73 86.0848 102.8 86.0737 102.87 86.0827C102.94 86.0917 103.006 86.1204 103.06 86.1654C103.114 86.2104 103.154 86.2699 103.175 86.3368L103.951 88.9175C103.961 88.9704 103.984 89.0202 104.017 89.063C104.05 89.1057 104.092 89.1402 104.141 89.1639L106.439 90.5701C106.499 90.6078 106.546 90.6617 106.576 90.7254C106.606 90.789 106.617 90.8599 106.608 90.9296C106.599 90.9993 106.57 91.065 106.525 91.119C106.48 91.173 106.421 91.2131 106.354 91.2345Z" fill="white"/>
<path opacity="0.2" d="M82.5811 137.944C82.1211 141.504 84.6343 144.763 88.1945 145.223C91.7548 145.683 95.0139 143.17 95.4739 139.61C95.934 136.05 93.4208 132.79 89.8605 132.33C86.3003 131.87 83.0412 134.384 82.5811 137.944Z" fill="url(#paint6_linear_28_88)"/>
<path opacity="0.2" d="M84.837 138.235C84.538 140.55 86.1717 142.668 88.486 142.967C90.8004 143.266 92.919 141.633 93.218 139.318C93.5171 137.004 91.8834 134.885 89.569 134.586C87.2547 134.287 85.1361 135.921 84.837 138.235Z" fill="url(#paint7_linear_28_88)"/>
<path d="M91.8071 139.372L90.0247 139.934C89.9696 139.954 89.923 139.992 89.8926 140.042L88.8892 141.622C88.8632 141.663 88.826 141.696 88.7821 141.716C88.7382 141.737 88.6894 141.745 88.6414 141.738C88.5933 141.732 88.548 141.712 88.5108 141.681C88.4736 141.65 88.4459 141.609 88.4312 141.563L87.8692 139.781C87.85 139.724 87.8123 139.675 87.762 139.642L86.181 138.645C86.1402 138.619 86.1075 138.582 86.087 138.538C86.0665 138.494 86.0589 138.445 86.0651 138.397C86.0713 138.349 86.0911 138.304 86.1221 138.267C86.1531 138.23 86.1941 138.202 86.2402 138.187L88.0191 137.653C88.0752 137.636 88.124 137.601 88.1571 137.552L89.1582 135.937C89.1842 135.896 89.2213 135.864 89.2652 135.843C89.3091 135.823 89.3579 135.815 89.406 135.821C89.454 135.827 89.4993 135.847 89.5365 135.878C89.5738 135.909 89.6014 135.95 89.6162 135.996L90.1508 137.775C90.1581 137.812 90.1737 137.846 90.1964 137.875C90.2191 137.905 90.2483 137.929 90.2818 137.945L91.8663 138.914C91.9072 138.94 91.9398 138.977 91.9603 139.021C91.9809 139.065 91.9885 139.114 91.9823 139.162C91.976 139.21 91.9563 139.255 91.9253 139.293C91.8942 139.33 91.8533 139.357 91.8071 139.372Z" fill="white"/>
<path opacity="0.2" d="M144.883 107.216C149.172 110.17 155.044 109.089 157.998 104.8C160.953 100.512 159.872 94.6395 155.583 91.6847C151.294 88.73 145.422 89.8114 142.468 94.1001C139.513 98.3888 140.594 104.261 144.883 107.216Z" fill="url(#paint8_linear_28_88)"/>
<path opacity="0.2" d="M146.755 104.498C149.543 106.419 153.36 105.716 155.281 102.928C157.202 100.14 156.499 96.323 153.711 94.4022C150.923 92.4815 147.106 93.1844 145.185 95.9723C143.264 98.7602 143.967 102.577 146.755 104.498Z" fill="url(#paint9_linear_28_88)"/>
<path d="M152.845 96.2586L152.388 98.9311C152.377 99.0153 152.395 99.1008 152.44 99.1732L153.813 101.516C153.848 101.577 153.866 101.646 153.863 101.716C153.861 101.787 153.838 101.855 153.798 101.913C153.758 101.97 153.703 102.016 153.638 102.043C153.573 102.071 153.502 102.079 153.433 102.068L150.76 101.611C150.674 101.598 150.586 101.614 150.51 101.657L148.176 103.036C148.115 103.071 148.045 103.089 147.975 103.086C147.905 103.084 147.837 103.061 147.779 103.021C147.721 102.981 147.676 102.926 147.648 102.861C147.621 102.796 147.612 102.725 147.624 102.656L148.114 100.006C148.13 99.9224 148.116 99.836 148.076 99.7612L146.656 97.3984C146.62 97.3377 146.603 97.2681 146.605 97.1979C146.608 97.1276 146.63 97.0596 146.67 97.0017C146.71 96.9438 146.766 96.8985 146.83 96.871C146.895 96.8436 146.966 96.8351 147.036 96.8466L149.686 97.3365C149.737 97.3513 149.792 97.3539 149.845 97.3442C149.898 97.3344 149.948 97.3125 149.992 97.2801L152.293 95.8784C152.354 95.843 152.423 95.8255 152.494 95.8281C152.564 95.8307 152.632 95.8533 152.69 95.8932C152.748 95.933 152.793 95.9886 152.82 96.0533C152.848 96.118 152.856 96.1892 152.845 96.2586Z" fill="white"/>
<path opacity="0.2" d="M78.297 171.1C77.6296 176.265 81.2756 180.993 86.4407 181.66C91.6058 182.328 96.334 178.682 97.0015 173.517C97.6689 168.351 94.0228 163.623 88.8577 162.956C83.6926 162.288 78.9644 165.934 78.297 171.1Z" fill="url(#paint10_linear_28_88)"/>
<path opacity="0.2" d="M81.5698 171.522C81.1359 174.88 83.5061 177.954 86.8636 178.388C90.2212 178.821 93.2948 176.451 93.7287 173.094C94.1625 169.736 91.7924 166.662 88.4348 166.229C85.0772 165.795 82.0036 168.165 81.5698 171.522Z" fill="url(#paint11_linear_28_88)"/>
<path d="M91.6818 173.172L89.096 173.987C89.016 174.016 88.9483 174.071 88.9043 174.144L87.4485 176.436C87.4108 176.496 87.3569 176.543 87.2932 176.573C87.2295 176.603 87.1587 176.614 87.089 176.605C87.0193 176.596 86.9536 176.567 86.8996 176.522C86.8455 176.477 86.8055 176.417 86.784 176.351L85.9687 173.765C85.9409 173.682 85.8861 173.611 85.8132 173.563L83.5196 172.117C83.4603 172.08 83.413 172.026 83.3832 171.962C83.3534 171.898 83.3424 171.827 83.3514 171.758C83.3604 171.688 83.3891 171.622 83.4341 171.568C83.4791 171.514 83.5385 171.474 83.6055 171.453L86.1862 170.677C86.2677 170.653 86.3384 170.602 86.3865 170.532L87.8387 168.188C87.8765 168.129 87.9304 168.082 87.994 168.052C88.0577 168.022 88.1285 168.011 88.1983 168.02C88.268 168.029 88.3337 168.058 88.3877 168.103C88.4417 168.148 88.4818 168.207 88.5032 168.274L89.2789 170.855C89.2894 170.908 89.312 170.958 89.345 171C89.378 171.043 89.4204 171.078 89.4689 171.101L91.7676 172.508C91.8269 172.545 91.8742 172.599 91.904 172.663C91.9338 172.726 91.9449 172.797 91.9359 172.867C91.9268 172.937 91.8982 173.002 91.8532 173.056C91.8082 173.11 91.7487 173.151 91.6818 173.172Z" fill="white"/>
<path opacity="0.2" d="M109.489 55.587C106.691 58.507 106.79 63.1422 109.71 65.94C112.63 68.7378 117.266 68.6388 120.063 65.7188C122.861 62.7988 122.762 58.1635 119.842 55.3657C116.922 52.5679 112.287 52.667 109.489 55.587Z" fill="url(#paint12_linear_28_88)"/>
<path opacity="0.2" d="M111.339 57.3598C109.521 59.2579 109.585 62.2711 111.483 64.0898C113.381 65.9085 116.394 65.8441 118.213 63.946C120.032 62.0478 119.968 59.0347 118.069 57.2159C116.171 55.3972 113.158 55.4616 111.339 57.3598Z" fill="url(#paint13_linear_28_88)"/>
<path d="M116.898 63.0514L114.906 62.369C114.843 62.3501 114.775 62.3535 114.714 62.3786L112.748 63.1401C112.697 63.1598 112.642 63.1645 112.588 63.1538C112.535 63.143 112.485 63.1173 112.446 63.0795C112.406 63.0418 112.378 62.9935 112.365 62.9405C112.352 62.8875 112.355 62.8319 112.372 62.7802L113.055 60.7885C113.075 60.724 113.074 60.6544 113.05 60.5909L112.284 58.6302C112.264 58.5792 112.259 58.5238 112.27 58.4703C112.281 58.4167 112.306 58.3674 112.344 58.328C112.382 58.2886 112.43 58.2607 112.483 58.2477C112.536 58.2347 112.592 58.2371 112.644 58.2545L114.614 58.9593C114.676 58.9818 114.744 58.9823 114.806 58.9607L116.794 58.1658C116.844 58.1462 116.9 58.1414 116.953 58.1522C117.007 58.1629 117.056 58.1887 117.096 58.2264C117.135 58.2642 117.163 58.3124 117.176 58.3654C117.189 58.4184 117.187 58.474 117.169 58.5258L116.464 60.496C116.447 60.5339 116.438 60.5754 116.439 60.6173C116.44 60.6592 116.45 60.7003 116.47 60.7375L117.258 62.6758C117.278 62.7267 117.282 62.7822 117.272 62.8357C117.261 62.8892 117.235 62.9386 117.197 62.978C117.16 63.0174 117.111 63.0452 117.058 63.0582C117.005 63.0712 116.95 63.0689 116.898 63.0514Z" fill="white"/>
<path opacity="0.2" d="M148.432 164.242C147.901 168.35 150.801 172.11 154.909 172.641C159.017 173.172 162.777 170.272 163.308 166.164C163.839 162.056 160.939 158.296 156.831 157.765C152.723 157.234 148.963 160.134 148.432 164.242Z" fill="url(#paint14_linear_28_88)"/>
<path opacity="0.2" d="M151.037 164.579C150.693 167.248 152.577 169.691 155.246 170.036C157.914 170.38 160.358 168.496 160.702 165.828C161.047 163.159 159.163 160.715 156.494 160.371C153.826 160.026 151.382 161.91 151.037 164.579Z" fill="url(#paint15_linear_28_88)"/>
<path d="M160.91 167.152L157.733 167.471C157.661 167.479 157.594 167.507 157.537 167.551C157.48 167.595 157.436 167.653 157.41 167.72L156.265 170.674C156.236 170.746 156.187 170.808 156.124 170.852C156.061 170.896 155.986 170.921 155.909 170.923C155.831 170.925 155.755 170.905 155.69 170.865C155.624 170.824 155.571 170.765 155.539 170.695L154.254 167.826C154.224 167.761 154.177 167.705 154.118 167.664C154.059 167.623 153.99 167.599 153.919 167.593L150.751 167.421C150.67 167.418 150.592 167.391 150.527 167.342C150.461 167.294 150.413 167.226 150.387 167.149C150.362 167.072 150.361 166.989 150.384 166.911C150.408 166.834 150.454 166.765 150.518 166.715L152.901 164.59C152.957 164.543 152.998 164.482 153.019 164.412C153.04 164.343 153.04 164.269 153.019 164.199L152.212 161.135C152.193 161.06 152.196 160.981 152.221 160.908C152.246 160.835 152.293 160.771 152.355 160.725C152.417 160.678 152.491 160.651 152.568 160.648C152.646 160.644 152.722 160.663 152.789 160.703L155.53 162.287C155.592 162.324 155.663 162.343 155.735 162.341C155.807 162.34 155.877 162.318 155.937 162.279L158.625 160.565C158.691 160.515 158.771 160.486 158.853 160.484C158.936 160.481 159.018 160.505 159.086 160.551C159.155 160.597 159.207 160.663 159.236 160.741C159.265 160.819 159.269 160.903 159.247 160.983L158.531 164.067C158.516 164.137 158.52 164.209 158.544 164.277C158.567 164.344 158.609 164.404 158.664 164.449L161.108 166.454C161.171 166.502 161.218 166.567 161.243 166.641C161.268 166.715 161.269 166.796 161.248 166.871C161.227 166.946 161.183 167.014 161.122 167.064C161.062 167.114 160.988 167.145 160.91 167.152V167.152Z" fill="white"/>
<path opacity="0.2" d="M95.1899 146.675C98.9427 151.585 105.965 152.523 110.876 148.77C115.786 145.017 116.724 137.995 112.971 133.084C109.218 128.174 102.196 127.236 97.2855 130.989C92.3753 134.742 91.4371 141.764 95.1899 146.675Z" fill="url(#paint16_linear_28_88)"/>
<path opacity="0.2" d="M98.3044 144.294C100.743 147.484 105.305 148.094 108.495 145.656C111.685 143.218 112.295 138.655 109.857 135.465C107.418 132.275 102.856 131.665 99.6658 134.103C96.4758 136.542 95.8662 141.104 98.3044 144.294Z" fill="url(#paint17_linear_28_88)"/>
<path d="M111.467 136.65L108.437 140.326C108.37 140.41 108.327 140.51 108.313 140.616C108.299 140.722 108.314 140.83 108.356 140.929L110.246 145.262C110.291 145.368 110.304 145.485 110.283 145.598C110.263 145.711 110.21 145.816 110.13 145.9C110.051 145.983 109.949 146.042 109.836 146.068C109.724 146.094 109.607 146.086 109.499 146.047L105.123 144.356C105.023 144.319 104.915 144.309 104.809 144.327C104.704 144.346 104.606 144.392 104.524 144.462L100.987 147.606C100.898 147.689 100.786 147.742 100.666 147.759C100.546 147.776 100.424 147.756 100.316 147.701C100.208 147.646 100.119 147.559 100.063 147.452C100.006 147.345 99.9831 147.223 99.9979 147.103L100.291 142.348C100.301 142.24 100.28 142.132 100.229 142.036C100.179 141.941 100.101 141.862 100.006 141.811L95.9319 139.412C95.8324 139.353 95.7526 139.266 95.7027 139.162C95.6529 139.058 95.6352 138.941 95.652 138.827C95.6688 138.713 95.7193 138.606 95.797 138.521C95.8747 138.436 95.9761 138.375 96.0883 138.348L100.658 137.147C100.762 137.121 100.857 137.067 100.931 136.989C101.006 136.912 101.057 136.816 101.08 136.711L102.127 132.071C102.144 131.949 102.199 131.835 102.284 131.745C102.369 131.656 102.48 131.595 102.601 131.572C102.722 131.549 102.848 131.564 102.96 131.616C103.072 131.668 103.165 131.753 103.226 131.861L105.706 135.881C105.764 135.97 105.845 136.043 105.94 136.089C106.036 136.136 106.143 136.156 106.249 136.146L110.945 135.703C111.061 135.687 111.179 135.707 111.283 135.759C111.388 135.812 111.474 135.895 111.531 135.998C111.587 136.1 111.612 136.217 111.6 136.334C111.589 136.45 111.543 136.561 111.467 136.65V136.65Z" fill="white"/>
<g clip-path="url(#clip1_28_88)">
<path opacity="0.2" d="M76.5097 92.1974C75.9661 96.4039 78.9355 100.255 83.1421 100.798C87.3487 101.342 91.1994 98.3724 91.743 94.1658C92.2866 89.9592 89.3171 86.1085 85.1106 85.5649C80.904 85.0213 77.0532 87.9908 76.5097 92.1974Z" fill="url(#paint18_linear_28_88)"/>
<path opacity="0.2" d="M73.0385 91.7488C72.2472 97.8724 76.57 103.478 82.6936 104.269C88.8172 105.061 94.4229 100.738 95.2142 94.6143C96.0054 88.4907 91.6827 82.8851 85.5591 82.0938C79.4355 81.3025 73.8298 85.6252 73.0385 91.7488Z" fill="url(#paint19_linear_28_88)"/>
<path d="M78.7117 90.6064L81.0152 90.2588C81.1146 90.2452 81.2074 90.2014 81.2811 90.1334C81.3548 90.0654 81.4059 89.9764 81.4274 89.8784L81.9131 87.6019C81.9317 87.5166 81.9723 87.4377 82.0309 87.3729C82.0895 87.3082 82.164 87.2599 82.247 87.2329C82.3301 87.2059 82.4187 87.2011 82.5042 87.219C82.5896 87.2369 82.6689 87.2769 82.7341 87.3349L84.4342 88.9259C84.5091 88.992 84.602 89.0341 84.701 89.0469C84.7999 89.0596 84.9005 89.0425 84.9896 88.9977L87.0802 87.957C87.1583 87.9197 87.2447 87.9033 87.3311 87.9094C87.4174 87.9155 87.5006 87.9439 87.5727 87.9919C87.6447 88.0398 87.7031 88.1056 87.7421 88.1828C87.7811 88.2601 87.7994 88.3461 87.7952 88.4326L87.6454 90.7626C87.6378 90.8642 87.6615 90.9657 87.7132 91.0535C87.7649 91.1412 87.8423 91.2111 87.9348 91.2537L90.0468 92.2325C90.1246 92.2705 90.1912 92.3281 90.24 92.3996C90.2889 92.4711 90.3183 92.5541 90.3255 92.6404C90.3326 92.7267 90.3172 92.8134 90.2808 92.892C90.2443 92.9705 90.1881 93.0383 90.1177 93.0886L88.1834 94.4016C88.1007 94.4568 88.0372 94.5365 88.0017 94.6294C87.9662 94.7224 87.9605 94.8241 87.9853 94.9204L88.5291 97.1888C88.5498 97.273 88.5478 97.3612 88.5233 97.4444C88.4988 97.5276 88.4527 97.6027 88.3896 97.6623C88.3266 97.7218 88.2489 97.7635 88.1644 97.7832C88.08 97.8028 87.9918 97.7997 87.909 97.7742L85.6779 97.0926C85.5841 97.0628 85.4834 97.0625 85.3894 97.0919C85.2954 97.1212 85.2127 97.1788 85.1526 97.2567L83.726 99.089C83.6743 99.1601 83.6043 99.216 83.5235 99.2508C83.4428 99.2857 83.3541 99.2981 83.2668 99.2868C83.1796 99.2755 83.097 99.241 83.0277 99.1868C82.9584 99.1326 82.905 99.0607 82.8731 98.9788L82.0087 96.8504C81.9737 96.7565 81.9101 96.6759 81.8269 96.6199C81.7437 96.564 81.6451 96.5355 81.5449 96.5384L79.2215 96.5709C79.1332 96.5743 79.0457 96.5537 78.9681 96.5114C78.8906 96.4691 78.8259 96.4066 78.781 96.3305C78.736 96.2544 78.7125 96.1676 78.7129 96.0793C78.7132 95.9909 78.7375 95.9043 78.783 95.8286L79.9512 93.8117C79.999 93.7238 80.0199 93.6237 80.0113 93.524C80.0027 93.4242 79.9649 93.3293 79.9026 93.2508L78.4204 91.4561C78.3542 91.3899 78.308 91.3065 78.2868 91.2153C78.2657 91.1242 78.2706 91.0289 78.301 90.9404C78.3313 90.8519 78.3859 90.7736 78.4585 90.7146C78.5311 90.6555 78.6188 90.6181 78.7117 90.6064Z" fill="url(#paint20_linear_28_88)"/>
</g>
<path d="M188.949 102.36C178.816 97.4029 167.567 98.6106 164.254 107.5C161.128 115.89 177.175 118.559 176.408 136.351C175.554 156.166 203.111 145.237 205.141 126.368C206.587 112.937 207.467 111.419 188.949 102.36Z" fill="url(#paint21_linear_28_88)"/>
<path opacity="0.2" d="M173.679 123.133C177.867 122.457 180.714 118.515 180.038 114.328C179.363 110.14 175.421 107.293 171.233 107.969C167.046 108.644 164.199 112.587 164.874 116.774C165.55 120.961 169.492 123.808 173.679 123.133Z" fill="url(#paint22_linear_28_88)"/>
<path opacity="0.2" d="M174.237 126.588C180.332 125.605 184.477 119.866 183.494 113.77C182.51 107.675 176.771 103.53 170.676 104.514C164.58 105.497 160.436 111.236 161.419 117.331C162.402 123.427 168.141 127.572 174.237 126.588Z" fill="url(#paint23_linear_28_88)"/>
<path d="M171.528 121.474L170.539 119.365C170.498 119.274 170.429 119.197 170.343 119.146C170.257 119.094 170.157 119.071 170.057 119.078L167.737 119.26C167.65 119.266 167.562 119.25 167.484 119.212C167.405 119.174 167.337 119.117 167.288 119.045C167.238 118.973 167.209 118.889 167.201 118.802C167.194 118.715 167.21 118.628 167.247 118.549L168.289 116.466C168.331 116.376 168.345 116.275 168.329 116.176C168.313 116.078 168.268 115.986 168.2 115.913L166.607 114.205C166.549 114.141 166.509 114.063 166.49 113.978C166.472 113.894 166.475 113.806 166.501 113.723C166.526 113.64 166.572 113.566 166.635 113.506C166.698 113.447 166.776 113.405 166.86 113.385L169.136 112.865C169.236 112.844 169.326 112.792 169.396 112.718C169.465 112.643 169.51 112.549 169.525 112.448L169.862 110.145C169.877 110.06 169.913 109.979 169.967 109.912C170.022 109.845 170.093 109.793 170.174 109.762C170.255 109.73 170.342 109.721 170.428 109.733C170.514 109.746 170.595 109.78 170.663 109.834L172.472 111.314C172.548 111.378 172.643 111.416 172.742 111.424C172.841 111.431 172.94 111.408 173.026 111.357L175.046 110.19C175.12 110.146 175.205 110.123 175.292 110.123C175.379 110.123 175.464 110.146 175.539 110.189C175.614 110.233 175.676 110.295 175.719 110.371C175.762 110.446 175.784 110.531 175.783 110.618L175.764 112.951C175.762 113.049 175.791 113.146 175.846 113.228C175.901 113.309 175.979 113.372 176.071 113.408L178.233 114.254C178.316 114.284 178.39 114.335 178.446 114.402C178.503 114.47 178.54 114.551 178.554 114.638C178.568 114.725 178.558 114.814 178.526 114.896C178.494 114.978 178.44 115.049 178.37 115.103L176.576 116.537C176.496 116.598 176.437 116.682 176.407 116.777C176.377 116.873 176.377 116.976 176.409 117.071L177.101 119.289C177.129 119.373 177.134 119.462 177.116 119.549C177.097 119.635 177.056 119.715 176.996 119.78C176.935 119.844 176.859 119.892 176.774 119.916C176.689 119.941 176.599 119.943 176.514 119.92L174.248 119.374C174.15 119.353 174.048 119.362 173.955 119.399C173.862 119.435 173.782 119.498 173.724 119.58L172.425 121.512C172.381 121.594 172.314 121.662 172.232 121.708C172.151 121.755 172.058 121.777 171.965 121.773C171.871 121.769 171.781 121.739 171.703 121.686C171.626 121.634 171.565 121.56 171.528 121.474Z" fill="url(#paint24_linear_28_88)"/>
<path opacity="0.2" d="M182.116 110.63C186.205 109.97 188.985 106.12 188.326 102.031C187.666 97.9418 183.816 95.1615 179.727 95.8212C175.638 96.4808 172.857 100.331 173.517 104.42C174.177 108.509 178.027 111.289 182.116 110.63Z" fill="url(#paint25_linear_28_88)"/>
<path opacity="0.2" d="M181.698 108.039C184.356 107.61 186.163 105.107 185.735 102.449C185.306 99.7908 182.803 97.9835 180.145 98.4123C177.487 98.8411 175.679 101.344 176.108 104.002C176.537 106.66 179.04 108.467 181.698 108.039Z" fill="url(#paint26_linear_28_88)"/>
<path d="M180.668 99.9553L181.874 101.742C181.914 101.797 181.972 101.836 182.037 101.853L184.115 102.445C184.168 102.46 184.217 102.49 184.254 102.532C184.291 102.574 184.315 102.625 184.324 102.681C184.333 102.736 184.326 102.792 184.304 102.844C184.282 102.895 184.246 102.939 184.199 102.971L182.412 104.177C182.355 104.217 182.314 104.275 182.294 104.341L181.71 106.417C181.695 106.471 181.664 106.519 181.623 106.556C181.581 106.594 181.529 106.618 181.474 106.627C181.419 106.636 181.362 106.629 181.311 106.607C181.26 106.585 181.216 106.548 181.184 106.502L180.009 104.71C179.972 104.653 179.917 104.611 179.853 104.59L177.737 104.013C177.684 103.998 177.635 103.967 177.598 103.925C177.561 103.884 177.537 103.832 177.528 103.777C177.519 103.722 177.526 103.665 177.548 103.614C177.57 103.562 177.606 103.518 177.652 103.487L179.445 102.312C179.483 102.292 179.516 102.263 179.541 102.228C179.566 102.194 179.583 102.153 179.59 102.111L180.142 100.04C180.157 99.9864 180.187 99.9381 180.229 99.901C180.271 99.8639 180.323 99.8394 180.378 99.8305C180.433 99.8216 180.49 99.8286 180.541 99.8507C180.592 99.8728 180.636 99.9091 180.668 99.9553Z" fill="white"/>
<path opacity="0.2" d="M200.601 120.238C200.07 124.346 202.97 128.106 207.078 128.637C211.186 129.168 214.947 126.268 215.477 122.16C216.008 118.052 213.108 114.292 209 113.761C204.892 113.23 201.132 116.13 200.601 120.238Z" fill="url(#paint27_linear_28_88)"/>
<path opacity="0.2" d="M203.207 120.575C202.862 123.243 204.746 125.687 207.415 126.031C210.084 126.376 212.527 124.492 212.872 121.823C213.217 119.155 211.333 116.711 208.664 116.366C205.995 116.022 203.552 117.906 203.207 120.575Z" fill="url(#paint28_linear_28_88)"/>
<path d="M213.079 123.148L209.902 123.467C209.831 123.475 209.763 123.503 209.706 123.547C209.649 123.591 209.605 123.649 209.579 123.716L208.434 126.67C208.405 126.742 208.356 126.804 208.293 126.848C208.23 126.892 208.155 126.917 208.078 126.919C208.001 126.921 207.925 126.901 207.859 126.86C207.793 126.82 207.741 126.761 207.708 126.691L206.423 123.822C206.393 123.757 206.346 123.701 206.287 123.66C206.228 123.619 206.16 123.595 206.088 123.589L202.921 123.416C202.839 123.414 202.761 123.387 202.696 123.338C202.631 123.29 202.582 123.222 202.557 123.145C202.531 123.068 202.53 122.985 202.553 122.907C202.577 122.829 202.624 122.761 202.687 122.711L205.071 120.586C205.126 120.539 205.167 120.478 205.188 120.408C205.209 120.339 205.209 120.265 205.189 120.195L204.382 117.131C204.362 117.056 204.365 116.977 204.39 116.904C204.416 116.831 204.462 116.767 204.524 116.721C204.586 116.674 204.66 116.647 204.738 116.643C204.815 116.639 204.892 116.659 204.958 116.699L207.7 118.283C207.761 118.32 207.832 118.339 207.904 118.337C207.976 118.336 208.046 118.314 208.106 118.275L210.794 116.561C210.86 116.51 210.94 116.482 211.023 116.479C211.105 116.477 211.187 116.5 211.255 116.547C211.324 116.593 211.377 116.659 211.405 116.737C211.434 116.814 211.438 116.899 211.416 116.979L210.7 120.063C210.685 120.133 210.69 120.205 210.713 120.272C210.736 120.34 210.778 120.4 210.833 120.445L213.277 122.45C213.34 122.497 213.387 122.563 213.412 122.637C213.437 122.711 213.439 122.791 213.417 122.867C213.396 122.942 213.352 123.01 213.292 123.06C213.231 123.11 213.157 123.141 213.079 123.148V123.148Z" fill="white"/>
<defs>
<radialGradient id="paint0_radial_28_88" cx="0" cy="0" r="1" gradientUnits="userSpaceOnUse" gradientTransform="translate(178.141 156.84) rotate(-162.803) scale(129.428 119.836)">
<stop stop-color="#037CC2"/>
<stop offset="1" stop-color="#692584"/>
</radialGradient>
<linearGradient id="paint1_linear_28_88" x1="145.8" y1="170.442" x2="136.061" y2="180.113" gradientUnits="userSpaceOnUse">
<stop stop-color="#FCFAED"/>
<stop offset="1" stop-color="#FDFEFF"/>
</linearGradient>
<linearGradient id="paint2_linear_28_88" x1="147.281" y1="168.97" x2="133.11" y2="183.05" gradientUnits="userSpaceOnUse">
<stop stop-color="#FCFAED"/>
<stop offset="1" stop-color="#FDFEFF"/>
</linearGradient>
<linearGradient id="paint3_linear_28_88" x1="145.388" y1="171.65" x2="136.81" y2="178.185" gradientUnits="userSpaceOnUse">
<stop stop-color="#FCFAED"/>
<stop offset="1" stop-color="#FDFEFF"/>
</linearGradient>
<linearGradient id="paint4_linear_28_88" x1="106.302" y1="86.4081" x2="94.3386" y2="98.3031" gradientUnits="userSpaceOnUse">
<stop stop-color="#FCFAED"/>
<stop offset="1" stop-color="#FDFEFF"/>
</linearGradient>
<linearGradient id="paint5_linear_28_88" x1="104.912" y1="87.8014" x2="97.1385" y2="95.5189" gradientUnits="userSpaceOnUse">
<stop stop-color="#FCFAED"/>
<stop offset="1" stop-color="#FDFEFF"/>
</linearGradient>
<linearGradient id="paint6_linear_28_88" x1="91.7713" y1="136.045" x2="83.5253" y2="144.245" gradientUnits="userSpaceOnUse">
<stop stop-color="#FCFAED"/>
<stop offset="1" stop-color="#FDFEFF"/>
</linearGradient>
<linearGradient id="paint7_linear_28_88" x1="90.8132" y1="137.006" x2="85.4553" y2="142.325" gradientUnits="userSpaceOnUse">
<stop stop-color="#FCFAED"/>
<stop offset="1" stop-color="#FDFEFF"/>
</linearGradient>
<linearGradient id="paint8_linear_28_88" x1="148.528" y1="94.0984" x2="153.639" y2="110.176" gradientUnits="userSpaceOnUse">
<stop stop-color="#FCFAED"/>
<stop offset="1" stop-color="#FDFEFF"/>
</linearGradient>
<linearGradient id="paint9_linear_28_88" x1="149.132" y1="95.9716" x2="152.443" y2="106.413" gradientUnits="userSpaceOnUse">
<stop stop-color="#FCFAED"/>
<stop offset="1" stop-color="#FDFEFF"/>
</linearGradient>
<linearGradient id="paint10_linear_28_88" x1="91.6299" y1="168.346" x2="79.6668" y2="180.24" gradientUnits="userSpaceOnUse">
<stop stop-color="#FCFAED"/>
<stop offset="1" stop-color="#FDFEFF"/>
</linearGradient>
<linearGradient id="paint11_linear_28_88" x1="90.2398" y1="169.739" x2="82.4667" y2="177.456" gradientUnits="userSpaceOnUse">
<stop stop-color="#FCFAED"/>
<stop offset="1" stop-color="#FDFEFF"/>
</linearGradient>
<linearGradient id="paint12_linear_28_88" x1="119.09" y1="60.0115" x2="106.132" y2="61.9305" gradientUnits="userSpaceOnUse">
<stop stop-color="#FCFAED"/>
<stop offset="1" stop-color="#FDFEFF"/>
</linearGradient>
<linearGradient id="paint13_linear_28_88" x1="117.579" y1="60.2415" x2="109.165" y2="61.4812" gradientUnits="userSpaceOnUse">
<stop stop-color="#FCFAED"/>
<stop offset="1" stop-color="#FDFEFF"/>
</linearGradient>
<linearGradient id="paint14_linear_28_88" x1="159.041" y1="162.051" x2="149.527" y2="171.507" gradientUnits="userSpaceOnUse">
<stop stop-color="#FCFAED"/>
<stop offset="1" stop-color="#FDFEFF"/>
</linearGradient>
<linearGradient id="paint15_linear_28_88" x1="157.932" y1="163.158" x2="151.753" y2="169.294" gradientUnits="userSpaceOnUse">
<stop stop-color="#FCFAED"/>
<stop offset="1" stop-color="#FDFEFF"/>
</linearGradient>
<linearGradient id="paint16_linear_28_88" x1="104.13" y1="133.209" x2="103.982" y2="153.221" gradientUnits="userSpaceOnUse">
<stop stop-color="#FCFAED"/>
<stop offset="1" stop-color="#FDFEFF"/>
</linearGradient>
<linearGradient id="paint17_linear_28_88" x1="104.117" y1="135.547" x2="104.015" y2="148.538" gradientUnits="userSpaceOnUse">
<stop stop-color="#FCFAED"/>
<stop offset="1" stop-color="#FDFEFF"/>
</linearGradient>
<linearGradient id="paint18_linear_28_88" x1="87.3771" y1="89.9515" x2="77.6373" y2="99.6231" gradientUnits="userSpaceOnUse">
<stop stop-color="#FCFAED"/>
<stop offset="1" stop-color="#FDFEFF"/>
</linearGradient>
<linearGradient id="paint19_linear_28_88" x1="88.858" y1="88.4792" x2="74.6867" y2="102.559" gradientUnits="userSpaceOnUse">
<stop stop-color="#FCFAED"/>
<stop offset="1" stop-color="#FDFEFF"/>
</linearGradient>
<linearGradient id="paint20_linear_28_88" x1="86.9647" y1="91.1597" x2="78.387" y2="97.6947" gradientUnits="userSpaceOnUse">
<stop stop-color="#FCFAED"/>
<stop offset="1" stop-color="#FDFEFF"/>
</linearGradient>
<linearGradient id="paint21_linear_28_88" x1="160.175" y1="112.561" x2="218.267" y2="113.791" gradientUnits="userSpaceOnUse">
<stop stop-color="#1A68B4"/>
<stop offset="1" stop-color="#87C38E"/>
</linearGradient>
<linearGradient id="paint22_linear_28_88" x1="168.435" y1="113.353" x2="180.477" y2="119.939" gradientUnits="userSpaceOnUse">
<stop stop-color="#FCFAED"/>
<stop offset="1" stop-color="#FDFEFF"/>
</linearGradient>
<linearGradient id="paint23_linear_28_88" x1="166.602" y1="112.352" x2="184.132" y2="121.933" gradientUnits="userSpaceOnUse">
<stop stop-color="#FCFAED"/>
<stop offset="1" stop-color="#FDFEFF"/>
</linearGradient>
<linearGradient id="paint24_linear_28_88" x1="169.71" y1="113.405" x2="178.415" y2="119.769" gradientUnits="userSpaceOnUse">
<stop stop-color="#FCFAED"/>
<stop offset="1" stop-color="#FDFEFF"/>
</linearGradient>
<linearGradient id="paint25_linear_28_88" x1="176.999" y1="101.087" x2="188.776" y2="107.517" gradientUnits="userSpaceOnUse">
<stop stop-color="#FCFAED"/>
<stop offset="1" stop-color="#FDFEFF"/>
</linearGradient>
<linearGradient id="paint26_linear_28_88" x1="178.376" y1="101.831" x2="186.019" y2="106.012" gradientUnits="userSpaceOnUse">
<stop stop-color="#FCFAED"/>
<stop offset="1" stop-color="#FDFEFF"/>
</linearGradient>
<linearGradient id="paint27_linear_28_88" x1="211.211" y1="118.047" x2="201.697" y2="127.502" gradientUnits="userSpaceOnUse">
<stop stop-color="#FCFAED"/>
<stop offset="1" stop-color="#FDFEFF"/>
</linearGradient>
<linearGradient id="paint28_linear_28_88" x1="210.101" y1="119.154" x2="203.922" y2="125.29" gradientUnits="userSpaceOnUse">
<stop stop-color="#FCFAED"/>
<stop offset="1" stop-color="#FDFEFF"/>
</linearGradient>
<clipPath id="clip0_28_88">
<rect width="22.35" height="22.35" fill="white" transform="translate(155.07 164.017) rotate(97.3629)"/>
</clipPath>
<clipPath id="clip1_28_88">
<rect width="22.35" height="22.35" fill="white" transform="translate(96.6469 83.5265) rotate(97.3629)"/>
</clipPath>
</defs>
</svg>
