<svg width="173" height="183" viewBox="0 0 173 183" fill="none" xmlns="http://www.w3.org/2000/svg">
<g clip-path="url(#clip0_28_20)">
<path d="M107.078 114.497C91.7137 123.076 79.3182 107.891 67.4655 103.945C55.6128 99.9999 25.033 107.804 9.09822 81.7527C0.239219 67.2694 8.71166 58.0652 23.8982 46.3767C39.0847 34.6883 31.8298 27.3467 43.4808 15.6631C55.8379 3.27155 68.5995 15.6282 95.0995 15.5912C121.97 15.5538 139.365 23.5512 137.382 41.6224C135.986 54.3523 118.31 55.7911 119.745 70.6384C121.18 85.4857 122.443 105.917 107.078 114.497Z" fill="url(#paint0_radial_28_20)"/>
<g clip-path="url(#clip1_28_20)">
<path opacity="0.2" d="M20.9906 47.4963C17.9872 44.5013 13.1245 44.508 10.1295 47.5114C7.13441 50.5148 7.14119 55.3775 10.1446 58.3726C13.148 61.3676 18.0107 61.3609 21.0057 58.3575C24.0008 55.354 23.994 50.4913 20.9906 47.4963Z" fill="url(#paint1_linear_28_20)"/>
<path opacity="0.2" d="M23.462 45.018C19.0899 40.658 12.0111 40.6679 7.65114 45.04C3.29117 49.4121 3.30103 56.4909 7.67317 60.8509C12.0453 65.2109 19.1241 65.201 23.4841 60.8289C27.844 56.4567 27.8342 49.378 23.462 45.018Z" fill="url(#paint2_linear_28_20)"/>
<path d="M20.9095 50.2117L19.781 52.2497C19.7312 52.3368 19.7094 52.437 19.7183 52.5369C19.7273 52.6368 19.7668 52.7315 19.8313 52.8083L21.3399 54.581C21.3962 54.6478 21.434 54.7281 21.4496 54.814C21.4653 54.8999 21.4581 54.9884 21.4289 55.0706C21.3997 55.1529 21.3495 55.2261 21.2832 55.283C21.2169 55.3398 21.1369 55.3783 21.0511 55.3946L18.7535 55.7726C18.6556 55.7916 18.5656 55.8396 18.4951 55.9103C18.4246 55.9809 18.3769 56.0711 18.3581 56.1691L17.9088 58.4607C17.8907 58.5454 17.8511 58.6239 17.7936 58.6886C17.7361 58.7533 17.6629 58.802 17.581 58.8299C17.4991 58.8578 17.4113 58.864 17.3263 58.8478C17.2413 58.8316 17.1619 58.7937 17.096 58.7377L15.3402 57.1986C15.2643 57.1307 15.1694 57.0876 15.0683 57.0751C14.9671 57.0626 14.8646 57.0813 14.7744 57.1287L12.7112 58.2064C12.6336 58.2448 12.5473 58.2625 12.4609 58.2577C12.3744 58.2528 12.2907 58.2256 12.2179 58.1786C12.1451 58.1317 12.0858 58.0666 12.0457 57.9899C12.0056 57.9131 11.9862 57.8272 11.9893 57.7407L12.1274 55.407C12.134 55.3077 12.1096 55.2089 12.0576 55.124C12.0055 55.0392 11.9284 54.9727 11.8369 54.9337L9.70715 53.982C9.62777 53.9471 9.55908 53.8918 9.50808 53.8217C9.45708 53.7516 9.4256 53.6692 9.41685 53.5829C9.40811 53.4966 9.4224 53.4096 9.45829 53.3307C9.49417 53.2517 9.55036 53.1838 9.62111 53.1336L11.5213 51.7804C11.6022 51.7242 11.6638 51.6445 11.6978 51.5521C11.7318 51.4598 11.7366 51.3592 11.7115 51.264L11.1286 49.0162C11.1037 48.9318 11.102 48.8423 11.1237 48.757C11.1453 48.6717 11.1895 48.5939 11.2516 48.5316C11.3137 48.4693 11.3915 48.4249 11.4767 48.403C11.5619 48.3811 11.6514 48.3826 11.7359 48.4072L13.9499 49.0193C14.0458 49.0488 14.1484 49.0475 14.2435 49.0157C14.3386 48.9838 14.4213 48.923 14.48 48.8418L15.8704 46.9802C15.9216 46.9081 15.9913 46.8513 16.0721 46.8156C16.1529 46.7799 16.2419 46.7667 16.3296 46.7775C16.4173 46.7882 16.5004 46.8225 16.5702 46.8766C16.6401 46.9308 16.6939 47.0028 16.7262 47.085L17.6131 49.2405C17.6536 49.332 17.7202 49.4096 17.8045 49.4635C17.8888 49.5175 17.9872 49.5454 18.0873 49.5439L20.4135 49.4628C20.5063 49.4507 20.6007 49.4649 20.6858 49.5037C20.7709 49.5426 20.8435 49.6045 20.8952 49.6825C20.9468 49.7605 20.9756 49.8515 20.9781 49.945C20.9807 50.0386 20.9569 50.131 20.9095 50.2117Z" fill="url(#paint3_linear_28_20)"/>
</g>
<g clip-path="url(#clip2_28_20)">
<path opacity="0.2" d="M149.723 75.6012C146.72 72.6062 141.857 72.613 138.862 75.6164C135.867 78.6198 135.874 83.4825 138.877 86.4775C141.881 89.4725 146.743 89.4658 149.738 86.4624C152.734 83.459 152.727 78.5963 149.723 75.6012Z" fill="url(#paint4_linear_28_20)"/>
<path opacity="0.2" d="M152.195 73.1229C147.823 68.7629 140.744 68.7728 136.384 73.1449C132.024 77.5171 132.034 84.5958 136.406 88.9558C140.778 93.3158 147.857 93.3059 152.217 88.9338C156.577 84.5616 156.567 77.4829 152.195 73.1229Z" fill="url(#paint5_linear_28_20)"/>
<path d="M149.642 78.3166L148.514 80.3547C148.464 80.4417 148.442 80.542 148.451 80.6418C148.46 80.7417 148.499 80.8364 148.564 80.9132L150.073 82.686C150.129 82.7527 150.167 82.833 150.182 82.9189C150.198 83.0048 150.191 83.0933 150.162 83.1756C150.132 83.2579 150.082 83.3311 150.016 83.3879C149.95 83.4447 149.87 83.4832 149.784 83.4995L147.486 83.8775C147.388 83.8966 147.298 83.9445 147.228 84.0152C147.157 84.0859 147.11 84.176 147.091 84.274L146.641 86.5657C146.623 86.6503 146.584 86.7288 146.526 86.7935C146.469 86.8582 146.396 86.9069 146.314 86.9348C146.232 86.9627 146.144 86.9689 146.059 86.9527C145.974 86.9366 145.895 86.8986 145.829 86.8426L144.073 85.3035C143.997 85.2356 143.902 85.1925 143.801 85.18C143.7 85.1675 143.597 85.1862 143.507 85.2336L141.444 86.3113C141.366 86.3498 141.28 86.3675 141.194 86.3626C141.107 86.3577 141.023 86.3305 140.951 86.2835C140.878 86.2366 140.819 86.1716 140.778 86.0948C140.738 86.018 140.719 85.9322 140.722 85.8456L140.86 83.512C140.867 83.4127 140.842 83.3138 140.79 83.229C140.738 83.1442 140.661 83.0777 140.57 83.0386L138.44 82.087C138.36 82.0521 138.292 81.9967 138.241 81.9266C138.19 81.8565 138.158 81.7741 138.15 81.6878C138.141 81.6016 138.155 81.5145 138.191 81.4356C138.227 81.3567 138.283 81.2887 138.354 81.2386L140.254 79.8853C140.335 79.8292 140.397 79.7495 140.431 79.6571C140.465 79.5647 140.469 79.4641 140.444 79.3689L139.861 77.1211C139.836 77.0367 139.835 76.9472 139.856 76.8619C139.878 76.7767 139.922 76.6988 139.984 76.6365C140.046 76.5742 140.124 76.5298 140.209 76.5079C140.295 76.486 140.384 76.4875 140.469 76.5121L142.683 77.1242C142.778 77.1537 142.881 77.1524 142.976 77.1206C143.071 77.0888 143.154 77.028 143.213 76.9467L144.603 75.0851C144.654 75.0131 144.724 74.9562 144.805 74.9205C144.886 74.8848 144.975 74.8717 145.062 74.8824C145.15 74.8932 145.233 74.9274 145.303 74.9816C145.373 75.0357 145.427 75.1077 145.459 75.19L146.346 77.3454C146.386 77.4369 146.453 77.5145 146.537 77.5685C146.622 77.6224 146.72 77.6504 146.82 77.6488L149.146 77.5678C149.239 77.5557 149.333 77.5698 149.419 77.6087C149.504 77.6475 149.576 77.7094 149.628 77.7875C149.68 77.8655 149.708 77.9564 149.711 78.05C149.713 78.1435 149.69 78.2359 149.642 78.3166Z" fill="url(#paint6_linear_28_20)"/>
</g>
<path opacity="0.2" d="M80.2499 75.5212C76.5621 71.8437 70.5914 71.852 66.9139 75.5398C63.2364 79.2276 63.2447 85.1983 66.9325 88.8758C70.6202 92.5534 76.591 92.545 80.2685 88.8573C83.946 85.1695 83.9377 79.1987 80.2499 75.5212Z" fill="url(#paint7_linear_28_20)"/>
<path opacity="0.2" d="M77.9197 77.8579C75.5225 75.4674 71.6412 75.4728 69.2506 77.87C66.86 80.2673 66.8654 84.1486 69.2627 86.5391C71.6599 88.9297 75.5412 88.9243 77.9318 86.5271C80.3224 84.1298 80.317 80.2485 77.9197 77.8579Z" fill="url(#paint8_linear_28_20)"/>
<path d="M70.4483 84.8687L71.3781 82.3218C71.4041 82.2409 71.4015 82.1536 71.3707 82.0744L70.4408 79.523C70.4168 79.4569 70.4122 79.3854 70.4274 79.3167C70.4425 79.2481 70.477 79.1852 70.5266 79.1354C70.5763 79.0857 70.639 79.0511 70.7076 79.0357C70.7762 79.0203 70.8478 79.0248 70.9139 79.0486L73.4608 79.9784C73.5433 80.0068 73.6329 80.0066 73.7154 79.9781L76.2596 79.0411C76.3257 79.0171 76.3973 79.0125 76.4659 79.0277C76.5345 79.0428 76.5974 79.0773 76.6472 79.1269C76.697 79.1766 76.7316 79.2393 76.747 79.3079C76.7624 79.3765 76.7579 79.4481 76.7341 79.5142L75.7759 82.0329C75.7453 82.1122 75.7429 82.1995 75.7692 82.2804L76.7415 84.86C76.7655 84.926 76.7702 84.9976 76.755 85.0662C76.7398 85.1348 76.7054 85.1977 76.6557 85.2475C76.6061 85.2973 76.5433 85.3319 76.4747 85.3473C76.4061 85.3627 76.3346 85.3582 76.2684 85.3344L73.7498 84.3762C73.7014 84.3523 73.6481 84.3399 73.5942 84.34C73.5402 84.34 73.487 84.3526 73.4387 84.3767L70.9227 85.3418C70.8566 85.3658 70.7851 85.3705 70.7164 85.3553C70.6478 85.3401 70.5849 85.3057 70.5351 85.256C70.4854 85.2064 70.4508 85.1436 70.4354 85.075C70.42 85.0064 70.4245 84.9349 70.4483 84.8687Z" fill="white"/>
<path opacity="0.2" d="M117.716 32.187C115.174 29.6521 111.058 29.6579 108.523 32.1998C105.988 34.7417 105.994 38.8573 108.536 41.3922C111.078 43.927 115.194 43.9213 117.729 41.3794C120.263 38.8374 120.258 34.7219 117.716 32.187Z" fill="url(#paint9_linear_28_20)"/>
<path opacity="0.2" d="M116.11 33.7976C114.457 32.1498 111.782 32.1536 110.134 33.806C108.486 35.4584 108.49 38.1337 110.142 39.7815C111.795 41.4293 114.47 41.4256 116.118 39.7732C117.766 38.1208 117.762 35.4454 116.11 33.7976Z" fill="url(#paint10_linear_28_20)"/>
<path d="M110.96 38.6301L111.6 36.8746C111.618 36.8188 111.617 36.7586 111.595 36.704L110.954 34.9454C110.938 34.8998 110.935 34.8505 110.945 34.8032C110.956 34.7559 110.979 34.7125 111.014 34.6782C111.048 34.6439 111.091 34.6201 111.138 34.6095C111.186 34.5988 111.235 34.6019 111.281 34.6183L113.036 35.2593C113.093 35.2788 113.155 35.2787 113.212 35.259L114.965 34.6132C115.011 34.5967 115.06 34.5934 115.107 34.6039C115.155 34.6144 115.198 34.6381 115.232 34.6723C115.267 34.7066 115.291 34.7498 115.301 34.7971C115.312 34.8444 115.309 34.8937 115.292 34.9393L114.632 36.6754C114.611 36.73 114.609 36.7903 114.627 36.846L115.297 38.6241C115.314 38.6696 115.317 38.7189 115.307 38.7662C115.296 38.8135 115.273 38.8569 115.238 38.8912C115.204 38.9255 115.161 38.9494 115.114 38.96C115.066 38.9706 115.017 38.9675 114.971 38.9511L113.235 38.2906C113.202 38.2741 113.165 38.2656 113.128 38.2656C113.091 38.2657 113.054 38.2743 113.021 38.2909L111.287 38.9562C111.241 38.9727 111.192 38.976 111.144 38.9655C111.097 38.955 111.054 38.9313 111.019 38.8971C110.985 38.8629 110.961 38.8196 110.951 38.7723C110.94 38.725 110.943 38.6757 110.96 38.6301Z" fill="white"/>
<path opacity="0.2" d="M153.819 61.1281C151.277 58.5932 147.161 58.599 144.626 61.1409C142.091 63.6828 142.097 67.7984 144.639 70.3333C147.181 72.8681 151.296 72.8624 153.831 70.3205C156.366 67.7785 156.36 63.663 153.819 61.1281Z" fill="url(#paint11_linear_28_20)"/>
<path opacity="0.2" d="M152.212 62.7387C150.56 61.0909 147.885 61.0947 146.237 62.7471C144.589 64.3995 144.593 67.0748 146.245 68.7226C147.898 70.3704 150.573 70.3667 152.221 68.7143C153.868 67.0619 153.865 64.3865 152.212 62.7387Z" fill="url(#paint12_linear_28_20)"/>
<path d="M147.062 67.5712L147.703 65.8157C147.721 65.7599 147.719 65.6997 147.698 65.6451L147.057 63.8865C147.041 63.8409 147.037 63.7916 147.048 63.7443C147.058 63.697 147.082 63.6536 147.116 63.6193C147.151 63.585 147.194 63.5612 147.241 63.5506C147.288 63.5399 147.338 63.543 147.383 63.5594L149.139 64.2004C149.196 64.2199 149.258 64.2198 149.314 64.2001L151.068 63.5543C151.114 63.5378 151.163 63.5345 151.21 63.545C151.258 63.5555 151.301 63.5792 151.335 63.6134C151.37 63.6477 151.393 63.6909 151.404 63.7382C151.415 63.7855 151.412 63.8348 151.395 63.8804L150.735 65.6165C150.714 65.6711 150.712 65.7314 150.73 65.7871L151.4 67.5652C151.417 67.6107 151.42 67.66 151.41 67.7073C151.399 67.7546 151.375 67.798 151.341 67.8323C151.307 67.8666 151.264 67.8905 151.216 67.9011C151.169 67.9117 151.12 67.9086 151.074 67.8922L149.338 67.2317C149.305 67.2152 149.268 67.2067 149.231 67.2067C149.194 67.2068 149.157 67.2154 149.124 67.232L147.389 67.8973C147.344 67.9139 147.295 67.9171 147.247 67.9066C147.2 67.8961 147.157 67.8724 147.122 67.8382C147.088 67.804 147.064 67.7607 147.053 67.7134C147.043 67.6661 147.046 67.6168 147.062 67.5712Z" fill="white"/>
<path opacity="0.2" d="M105.751 108.013C102.063 104.335 96.0926 104.343 92.415 108.031C88.7375 111.719 88.7459 117.69 92.4336 121.367C96.1214 125.045 102.092 125.036 105.77 121.349C109.447 117.661 109.439 111.69 105.751 108.013Z" fill="url(#paint13_linear_28_20)"/>
<path opacity="0.2" d="M103.421 110.349C101.024 107.959 97.1423 107.964 94.7518 110.361C92.3612 112.759 92.3666 116.64 94.7638 119.031C97.1611 121.421 101.042 121.416 103.433 119.018C105.824 116.621 105.818 112.74 103.421 110.349Z" fill="url(#paint14_linear_28_20)"/>
<path d="M95.9494 117.36L96.8793 114.813C96.9053 114.732 96.9027 114.645 96.8719 114.566L95.942 112.014C95.918 111.948 95.9133 111.877 95.9285 111.808C95.9437 111.74 95.9781 111.677 96.0278 111.627C96.0774 111.577 96.1402 111.542 96.2088 111.527C96.2774 111.512 96.3489 111.516 96.4151 111.54L98.962 112.47C99.0445 112.498 99.1341 112.498 99.2165 112.469L101.761 111.533C101.827 111.509 101.898 111.504 101.967 111.519C102.036 111.534 102.099 111.569 102.148 111.618C102.198 111.668 102.233 111.731 102.248 111.799C102.264 111.868 102.259 111.94 102.235 112.006L101.277 114.524C101.246 114.604 101.244 114.691 101.27 114.772L102.243 117.351C102.267 117.417 102.271 117.489 102.256 117.558C102.241 117.626 102.207 117.689 102.157 117.739C102.107 117.789 102.044 117.823 101.976 117.839C101.907 117.854 101.836 117.85 101.77 117.826L99.2509 116.868C99.2026 116.844 99.1493 116.831 99.0953 116.831C99.0414 116.831 98.9881 116.844 98.9398 116.868L96.4239 117.833C96.3578 117.857 96.2862 117.862 96.2176 117.847C96.149 117.832 96.0861 117.797 96.0363 117.747C95.9865 117.698 95.9519 117.635 95.9365 117.566C95.9211 117.498 95.9256 117.426 95.9494 117.36Z" fill="white"/>
<path opacity="0.2" d="M53.372 34.398C50.439 31.4731 45.6903 31.4797 42.7654 34.4127C39.8406 37.3458 39.8472 42.0945 42.7802 45.0193C45.7132 47.9442 50.462 47.9376 53.3868 45.0046C56.3117 42.0716 56.3051 37.3228 53.372 34.398Z" fill="url(#paint15_linear_28_20)"/>
<path opacity="0.2" d="M51.5168 36.2584C49.6113 34.3581 46.5261 34.3624 44.6259 36.268C42.7256 38.1735 42.7299 41.2587 44.6355 43.1589C46.541 45.0592 49.6262 45.0549 51.5264 43.1493C53.4267 41.2438 53.4224 38.1586 51.5168 36.2584Z" fill="url(#paint16_linear_28_20)"/>
<path d="M43.4592 42.516L45.1426 39.8028C45.1796 39.7412 45.199 39.6707 45.1989 39.5989C45.1988 39.5271 45.1792 39.4567 45.1421 39.3952L43.4985 36.6866C43.459 36.6203 43.4398 36.5438 43.4432 36.4666C43.4467 36.3895 43.4727 36.3151 43.5179 36.2525C43.5632 36.1899 43.6258 36.142 43.698 36.1146C43.7702 36.0872 43.8488 36.0816 43.9242 36.0983L46.9821 36.8287C47.052 36.8445 47.1249 36.8414 47.1932 36.8197C47.2615 36.7979 47.3227 36.7583 47.3705 36.7049L49.4383 34.2992C49.4896 34.2363 49.5591 34.1907 49.6373 34.1686C49.7155 34.1466 49.7985 34.1492 49.8752 34.176C49.9518 34.2028 50.0184 34.2526 50.0658 34.3185C50.1132 34.3845 50.1391 34.4634 50.14 34.5447L50.372 37.7292C50.3746 37.8016 50.3985 37.8717 50.4407 37.9307C50.4829 37.9896 50.5416 38.0348 50.6094 38.0606L53.5305 39.2887C53.6019 39.3187 53.6627 39.3692 53.7051 39.4339C53.7476 39.4986 53.7698 39.5744 53.7689 39.6518C53.7679 39.7291 53.744 39.8045 53.7 39.8681C53.656 39.9318 53.5941 39.9809 53.5221 40.0091L50.5948 41.217C50.5279 41.2433 50.4697 41.288 50.427 41.3459C50.3844 41.4038 50.3589 41.4726 50.3536 41.5443L50.0736 44.7201C50.0734 44.8028 50.0473 44.8834 49.9989 44.9505C49.9505 45.0176 49.8822 45.0678 49.8038 45.0941C49.7253 45.1204 49.6406 45.1214 49.5615 45.097C49.4825 45.0726 49.4131 45.024 49.3631 44.958L47.3549 42.5106C47.3088 42.4562 47.2485 42.4155 47.1808 42.393C47.113 42.3705 47.0404 42.3671 46.9709 42.3832L43.8913 43.0984C43.8157 43.1192 43.7355 43.1167 43.6613 43.0912C43.5872 43.0657 43.5224 43.0183 43.4757 42.9553C43.4289 42.8923 43.4023 42.8166 43.3994 42.7382C43.3965 42.6598 43.4173 42.5824 43.4592 42.516V42.516Z" fill="white"/>
<path opacity="0.2" d="M110.307 9.07143C104.127 9.05343 99.1025 14.0488 99.0845 20.2288C99.0665 26.4088 104.062 31.4333 110.242 31.4513C116.422 31.4693 121.446 26.474 121.464 20.294C121.482 14.1139 116.487 9.08942 110.307 9.07143Z" fill="url(#paint17_linear_28_20)"/>
<path opacity="0.2" d="M110.296 12.9914C106.281 12.9797 103.016 16.2251 103.005 20.2402C102.993 24.2553 106.238 27.5197 110.253 27.5314C114.268 27.543 117.533 24.2976 117.544 20.2826C117.556 16.2675 114.311 13.0031 110.296 12.9914Z" fill="url(#paint18_linear_28_20)"/>
<path d="M108.332 28.0858L107.265 23.4426C107.24 23.3386 107.186 23.2435 107.111 23.1675C107.035 23.0915 106.94 23.0376 106.836 23.0114L102.25 21.868C102.138 21.8392 102.038 21.7784 101.96 21.693C101.883 21.6076 101.832 21.5015 101.814 21.3876C101.797 21.2738 101.813 21.1573 101.86 21.0524C101.908 20.9475 101.985 20.8589 102.083 20.7975L106.09 18.3592C106.181 18.3026 106.255 18.2227 106.304 18.1279C106.354 18.0331 106.377 17.9268 106.372 17.82L106.035 13.099C106.024 12.9784 106.049 12.8571 106.109 12.7516C106.169 12.6462 106.259 12.5616 106.369 12.5095C106.478 12.4574 106.601 12.4402 106.72 12.4603C106.84 12.4804 106.95 12.5369 107.037 12.6219L110.628 15.7524C110.706 15.8265 110.805 15.8756 110.912 15.8937C111.019 15.9118 111.128 15.898 111.227 15.8541L115.612 14.0869C115.72 14.0437 115.837 14.0333 115.95 14.0573C116.063 14.0812 116.166 14.1383 116.246 14.2212C116.327 14.3041 116.38 14.4091 116.401 14.5228C116.421 14.6364 116.407 14.7535 116.36 14.8591L114.528 19.2138C114.484 19.312 114.47 19.4204 114.485 19.5266C114.501 19.6328 114.546 19.7324 114.616 19.814L117.655 23.4729C117.742 23.5608 117.799 23.6736 117.818 23.7956C117.837 23.9175 117.818 24.0424 117.762 24.1527C117.707 24.2629 117.618 24.353 117.508 24.4102C117.399 24.4674 117.274 24.4888 117.152 24.4714L112.454 23.9877C112.348 23.9785 112.241 23.9987 112.146 24.046C112.05 24.0934 111.97 24.1661 111.913 24.2562L109.401 28.2489C109.343 28.3504 109.255 28.432 109.15 28.4829C109.045 28.5337 108.926 28.5515 108.811 28.5339C108.695 28.5162 108.587 28.464 108.502 28.384C108.416 28.304 108.357 28.2 108.332 28.0858V28.0858Z" fill="white"/>
<g clip-path="url(#clip3_28_20)">
<path opacity="0.2" d="M95.2653 67.8989C92.2619 64.9039 87.3992 64.9107 84.4042 67.9141C81.4091 70.9175 81.4159 75.7802 84.4193 78.7752C87.4227 81.7702 92.2854 81.7635 95.2805 78.7601C98.2755 75.7567 98.2687 70.894 95.2653 67.8989Z" fill="url(#paint19_linear_28_20)"/>
<path opacity="0.2" d="M97.7368 65.4206C93.3646 61.0606 86.2858 61.0705 81.9259 65.4426C77.5659 69.8148 77.5757 76.8935 81.9479 81.2535C86.32 85.6135 93.3988 85.6036 97.7588 81.2315C102.119 76.8593 102.109 69.7806 97.7368 65.4206Z" fill="url(#paint20_linear_28_20)"/>
<path d="M95.1843 70.6143L94.0557 72.6524C94.006 72.7394 93.9841 72.8396 93.9931 72.9395C94.0021 73.0394 94.0415 73.1341 94.106 73.2109L95.6146 74.9836C95.6709 75.0504 95.7088 75.1307 95.7244 75.2166C95.74 75.3025 95.7328 75.391 95.7036 75.4733C95.6744 75.5555 95.6242 75.6287 95.5579 75.6856C95.4916 75.7424 95.4116 75.7809 95.3258 75.7972L93.0283 76.1752C92.9303 76.1943 92.8403 76.2422 92.7698 76.3129C92.6994 76.3836 92.6516 76.4737 92.6328 76.5717L92.1835 78.8634C92.1655 78.948 92.1258 79.0265 92.0683 79.0912C92.0109 79.1559 91.9376 79.2046 91.8557 79.2325C91.7738 79.2604 91.686 79.2666 91.601 79.2504C91.516 79.2343 91.4366 79.1963 91.3707 79.1403L89.6149 77.6012C89.539 77.5333 89.4441 77.4902 89.343 77.4777C89.2419 77.4652 89.1393 77.4839 89.0491 77.5313L86.9859 78.609C86.9083 78.6475 86.8221 78.6651 86.7356 78.6603C86.6491 78.6554 86.5654 78.6282 86.4926 78.5812C86.4199 78.5343 86.3605 78.4692 86.3204 78.3925C86.2804 78.3157 86.2609 78.2298 86.264 78.1433L86.4022 75.8096C86.4088 75.7104 86.3844 75.6115 86.3323 75.5267C86.2802 75.4419 86.2031 75.3753 86.1116 75.3363L83.9819 74.3847C83.9025 74.3498 83.8338 74.2944 83.7828 74.2243C83.7318 74.1542 83.7003 74.0718 83.6916 73.9855C83.6828 73.8993 83.6971 73.8122 83.733 73.7333C83.7689 73.6544 83.8251 73.5864 83.8958 73.5362L85.7961 72.183C85.8769 72.1268 85.9385 72.0472 85.9725 71.9548C86.0066 71.8624 86.0114 71.7618 85.9863 71.6666L85.4033 69.4188C85.3784 69.3344 85.3767 69.2449 85.3984 69.1596C85.42 69.0744 85.4642 68.9965 85.5263 68.9342C85.5885 68.8719 85.6662 68.8275 85.7514 68.8056C85.8366 68.7837 85.9261 68.7852 86.0106 68.8098L88.2247 69.4219C88.3205 69.4514 88.4231 69.4501 88.5182 69.4183C88.6133 69.3865 88.696 69.3257 88.7548 69.2444L90.1452 67.3828C90.1963 67.3107 90.266 67.2539 90.3468 67.2182C90.4276 67.1825 90.5166 67.1693 90.6043 67.1801C90.692 67.1908 90.7752 67.2251 90.845 67.2792C90.9148 67.3334 90.9687 67.4054 91.0009 67.4877L91.8878 69.6431C91.9283 69.7346 91.9949 69.8122 92.0792 69.8661C92.1636 69.9201 92.2619 69.948 92.362 69.9465L94.6882 69.8655C94.781 69.8533 94.8754 69.8675 94.9605 69.9063C95.0457 69.9452 95.1182 70.0071 95.1699 70.0851C95.2216 70.1632 95.2503 70.2541 95.2529 70.3477C95.2554 70.4412 95.2316 70.5336 95.1843 70.6143Z" fill="url(#paint21_linear_28_20)"/>
</g>
<path d="M77.2276 173.011C92.224 174.728 90.7127 149.66 88.0825 136.912C84.4624 123.801 64.2912 112.209 54.1431 113.715C43.995 115.22 40.9141 135.139 51.7854 143.158C62.6567 151.178 58.4821 170.865 77.2276 173.011Z" fill="url(#paint22_linear_28_20)"/>
<path opacity="0.2" d="M94.0886 139.905C97.3333 135.832 96.6612 129.899 92.5875 126.654C88.5137 123.409 82.5809 124.081 79.3362 128.155C76.0915 132.229 76.7635 138.162 80.8373 141.407C84.911 144.651 90.8438 143.979 94.0886 139.905Z" fill="url(#paint23_linear_28_20)"/>
<path opacity="0.2" d="M91.5073 137.849C93.6165 135.201 93.1796 131.345 90.5315 129.235C87.8833 127.126 84.0267 127.563 81.9175 130.211C79.8082 132.859 80.2451 136.716 82.8932 138.825C85.5414 140.934 89.398 140.498 91.5073 137.849Z" fill="url(#paint24_linear_28_20)"/>
<path d="M83.7093 131.204L86.3438 131.845C86.4271 131.862 86.5137 131.849 86.5889 131.81L89.0211 130.602C89.0841 130.571 89.1547 130.558 89.2246 130.566C89.2945 130.573 89.3608 130.6 89.4158 130.644C89.4708 130.688 89.5121 130.747 89.5351 130.813C89.558 130.879 89.5615 130.951 89.5452 131.019L88.9043 133.654C88.8852 133.739 88.8953 133.828 88.9329 133.907L90.1469 136.331C90.1781 136.394 90.1907 136.465 90.1832 136.535C90.1757 136.605 90.1485 136.671 90.1047 136.726C90.0609 136.781 90.0024 136.822 89.9359 136.845C89.8694 136.868 89.7978 136.872 89.7295 136.855L87.1199 136.183C87.0377 136.162 86.9506 136.169 86.8732 136.204L84.4177 137.457C84.3547 137.488 84.2841 137.501 84.2142 137.493C84.1443 137.486 84.078 137.459 84.023 137.415C83.968 137.371 83.9267 137.312 83.9037 137.246C83.8808 137.18 83.8773 137.108 83.8936 137.04L84.5658 134.43C84.5842 134.379 84.5906 134.325 84.5846 134.271C84.5785 134.218 84.5601 134.166 84.5308 134.121L83.2919 131.728C83.2607 131.665 83.2481 131.594 83.2556 131.524C83.2631 131.454 83.2903 131.388 83.3341 131.333C83.3779 131.278 83.4364 131.237 83.5029 131.214C83.5694 131.191 83.641 131.187 83.7093 131.204Z" fill="white"/>
<path opacity="0.2" d="M60.8441 149.542C63.4867 146.225 62.9394 141.393 59.6216 138.75C56.3038 136.108 51.472 136.655 48.8295 139.973C46.1869 143.29 46.7342 148.122 50.052 150.765C53.3697 153.407 58.2015 152.86 60.8441 149.542Z" fill="url(#paint25_linear_28_20)"/>
<path opacity="0.2" d="M63.5818 151.723C67.4287 146.893 66.6319 139.859 61.8022 136.012C56.9724 132.166 49.9386 132.962 46.0917 137.792C42.2449 142.622 43.0416 149.656 47.8714 153.503C52.7011 157.349 59.7349 156.553 63.5818 151.723Z" fill="url(#paint26_linear_28_20)"/>
<path d="M58.1365 149.764L55.9857 148.869C55.8936 148.829 55.7916 148.818 55.6933 148.838C55.595 148.858 55.5053 148.908 55.4362 148.981L53.8421 150.677C53.7821 150.74 53.7065 150.787 53.6228 150.812C53.5392 150.837 53.4504 150.84 53.3654 150.82C53.2804 150.8 53.2021 150.758 53.1382 150.699C53.0744 150.639 53.0272 150.564 53.0015 150.48L52.3704 148.239C52.3406 148.144 52.2829 148.06 52.2048 147.998C52.1268 147.935 52.0319 147.898 51.9324 147.89L49.605 147.698C49.5189 147.69 49.4364 147.659 49.3658 147.609C49.2951 147.559 49.2385 147.492 49.2017 147.414C49.1648 147.335 49.149 147.249 49.1556 147.163C49.1622 147.076 49.1911 146.993 49.2395 146.922L50.5738 145.006C50.6328 144.923 50.6651 144.823 50.6663 144.722C50.6674 144.62 50.6375 144.52 50.5804 144.435L49.28 142.505C49.2331 142.432 49.2059 142.348 49.2012 142.262C49.1964 142.175 49.2141 142.089 49.2527 142.012C49.2913 141.934 49.3493 141.868 49.4212 141.819C49.493 141.771 49.5762 141.742 49.6625 141.736L51.9971 141.614C52.0965 141.609 52.192 141.574 52.2705 141.513C52.349 141.451 52.4065 141.367 52.4352 141.272L53.1441 139.05C53.17 138.967 53.2173 138.893 53.2814 138.834C53.3454 138.776 53.4238 138.735 53.5085 138.717C53.5933 138.699 53.6814 138.703 53.7638 138.73C53.8462 138.757 53.92 138.805 53.9777 138.87L55.5338 140.608C55.5986 140.682 55.6847 140.734 55.7803 140.758C55.8759 140.782 55.9764 140.775 56.0682 140.74L58.2373 139.91C58.3183 139.876 58.4071 139.865 58.4943 139.877C58.5814 139.889 58.6637 139.924 58.7325 139.979C58.8013 140.034 58.8541 140.106 58.8853 140.188C58.9165 140.27 58.925 140.359 58.9099 140.446L58.5478 142.715C58.5292 142.813 58.5418 142.915 58.584 143.006C58.6262 143.097 58.6959 143.172 58.7831 143.222L60.7878 144.396C60.8651 144.439 60.9293 144.502 60.9738 144.579C61.0182 144.655 61.0412 144.742 61.0403 144.83C61.0393 144.919 61.0145 145.005 60.9685 145.08C60.9225 145.156 60.8569 145.217 60.7787 145.259L58.7352 146.38C58.6488 146.43 58.5791 146.505 58.5349 146.595C58.4906 146.684 58.4738 146.785 58.4864 146.885L58.8256 149.187C58.848 149.278 58.8444 149.374 58.8152 149.463C58.7861 149.551 58.7326 149.63 58.6608 149.69C58.589 149.75 58.5018 149.789 58.4091 149.802C58.3165 149.815 58.222 149.802 58.1365 149.764Z" fill="url(#paint27_linear_28_20)"/>
<path opacity="0.2" d="M58.6694 134.617C61.2501 131.377 60.7156 126.658 57.4756 124.077C54.2356 121.497 49.517 122.031 46.9364 125.271C44.3557 128.511 44.8902 133.23 48.1302 135.811C51.3702 138.391 56.0888 137.857 58.6694 134.617Z" fill="url(#paint28_linear_28_20)"/>
<path opacity="0.2" d="M56.6165 132.981C58.294 130.875 57.9466 127.808 55.8404 126.13C53.7342 124.453 50.6669 124.8 48.9894 126.907C47.3118 129.013 47.6593 132.08 49.7654 133.758C51.8716 135.435 54.9389 135.088 56.6165 132.981Z" fill="url(#paint29_linear_28_20)"/>
<path d="M50.4145 127.696L52.5098 128.206C52.576 128.219 52.6449 128.209 52.7047 128.178L54.6391 127.217C54.6892 127.193 54.7454 127.183 54.801 127.188C54.8566 127.194 54.9093 127.216 54.953 127.251C54.9968 127.286 55.0297 127.332 55.0479 127.385C55.0661 127.438 55.0689 127.495 55.0559 127.549L54.5462 129.645C54.5311 129.712 54.5391 129.783 54.569 129.846L55.5345 131.774C55.5593 131.824 55.5693 131.88 55.5634 131.936C55.5575 131.991 55.5358 132.044 55.501 132.088C55.4661 132.132 55.4196 132.165 55.3667 132.183C55.3139 132.201 55.2569 132.204 55.2025 132.191L53.1271 131.656C53.0617 131.639 52.9924 131.645 52.9308 131.673L50.9779 132.669C50.9278 132.694 50.8717 132.704 50.8161 132.698C50.7605 132.692 50.7077 132.671 50.664 132.636C50.6203 132.601 50.5873 132.554 50.5691 132.502C50.5509 132.449 50.5481 132.392 50.5611 132.337L51.0957 130.262C51.1103 130.222 51.1154 130.178 51.1106 130.136C51.1058 130.093 51.0911 130.052 51.0679 130.016L50.0825 128.113C50.0577 128.063 50.0477 128.007 50.0536 127.951C50.0596 127.895 50.0812 127.843 50.1161 127.799C50.1509 127.755 50.1975 127.722 50.2503 127.704C50.3032 127.686 50.3601 127.683 50.4145 127.696Z" fill="white"/>
</g>
<defs>
<radialGradient id="paint0_radial_28_20" cx="0" cy="0" r="1" gradientUnits="userSpaceOnUse" gradientTransform="translate(82.1791 131.221) rotate(-92.604) scale(152.529 141.226)">
<stop offset="0.217217" stop-color="#037CC2"/>
<stop offset="0.723719" stop-color="#692584"/>
</radialGradient>
<linearGradient id="paint1_linear_28_20" x1="16.1467" y1="57.4803" x2="14.4165" y2="43.8639" gradientUnits="userSpaceOnUse">
<stop stop-color="#FCFAED"/>
<stop offset="1" stop-color="#FDFEFF"/>
</linearGradient>
<linearGradient id="paint2_linear_28_20" x1="16.4112" y1="59.5518" x2="13.8875" y2="39.7351" gradientUnits="userSpaceOnUse">
<stop stop-color="#FCFAED"/>
<stop offset="1" stop-color="#FDFEFF"/>
</linearGradient>
<linearGradient id="paint3_linear_28_20" x1="15.4403" y1="56.4169" x2="15.4883" y2="45.6336" gradientUnits="userSpaceOnUse">
<stop stop-color="#FCFAED"/>
<stop offset="1" stop-color="#FDFEFF"/>
</linearGradient>
<linearGradient id="paint4_linear_28_20" x1="144.879" y1="85.5853" x2="143.149" y2="71.9688" gradientUnits="userSpaceOnUse">
<stop stop-color="#FCFAED"/>
<stop offset="1" stop-color="#FDFEFF"/>
</linearGradient>
<linearGradient id="paint5_linear_28_20" x1="145.144" y1="87.6567" x2="142.62" y2="67.84" gradientUnits="userSpaceOnUse">
<stop stop-color="#FCFAED"/>
<stop offset="1" stop-color="#FDFEFF"/>
</linearGradient>
<linearGradient id="paint6_linear_28_20" x1="144.173" y1="84.5219" x2="144.221" y2="73.7386" gradientUnits="userSpaceOnUse">
<stop stop-color="#FCFAED"/>
<stop offset="1" stop-color="#FDFEFF"/>
</linearGradient>
<linearGradient id="paint7_linear_28_20" x1="74.3061" y1="87.7696" x2="72.1685" y2="71.0353" gradientUnits="userSpaceOnUse">
<stop stop-color="#FCFAED"/>
<stop offset="1" stop-color="#FDFEFF"/>
</linearGradient>
<linearGradient id="paint8_linear_28_20" x1="74.0488" y1="85.8183" x2="72.6689" y2="74.952" gradientUnits="userSpaceOnUse">
<stop stop-color="#FCFAED"/>
<stop offset="1" stop-color="#FDFEFF"/>
</linearGradient>
<linearGradient id="paint9_linear_28_20" x1="113.619" y1="40.6296" x2="112.145" y2="29.0949" gradientUnits="userSpaceOnUse">
<stop stop-color="#FCFAED"/>
<stop offset="1" stop-color="#FDFEFF"/>
</linearGradient>
<linearGradient id="paint10_linear_28_20" x1="113.441" y1="39.2846" x2="112.49" y2="31.7946" gradientUnits="userSpaceOnUse">
<stop stop-color="#FCFAED"/>
<stop offset="1" stop-color="#FDFEFF"/>
</linearGradient>
<linearGradient id="paint11_linear_28_20" x1="149.722" y1="69.5707" x2="148.248" y2="58.036" gradientUnits="userSpaceOnUse">
<stop stop-color="#FCFAED"/>
<stop offset="1" stop-color="#FDFEFF"/>
</linearGradient>
<linearGradient id="paint12_linear_28_20" x1="149.544" y1="68.2257" x2="148.593" y2="60.7357" gradientUnits="userSpaceOnUse">
<stop stop-color="#FCFAED"/>
<stop offset="1" stop-color="#FDFEFF"/>
</linearGradient>
<linearGradient id="paint13_linear_28_20" x1="99.8072" y1="120.261" x2="97.6697" y2="103.527" gradientUnits="userSpaceOnUse">
<stop stop-color="#FCFAED"/>
<stop offset="1" stop-color="#FDFEFF"/>
</linearGradient>
<linearGradient id="paint14_linear_28_20" x1="99.5499" y1="118.31" x2="98.1701" y2="107.443" gradientUnits="userSpaceOnUse">
<stop stop-color="#FCFAED"/>
<stop offset="1" stop-color="#FDFEFF"/>
</linearGradient>
<linearGradient id="paint15_linear_28_20" x1="48.6416" y1="44.1439" x2="46.9453" y2="30.8382" gradientUnits="userSpaceOnUse">
<stop stop-color="#FCFAED"/>
<stop offset="1" stop-color="#FDFEFF"/>
</linearGradient>
<linearGradient id="paint16_linear_28_20" x1="48.4404" y1="42.5896" x2="47.343" y2="33.9514" gradientUnits="userSpaceOnUse">
<stop stop-color="#FCFAED"/>
<stop offset="1" stop-color="#FDFEFF"/>
</linearGradient>
<linearGradient id="paint17_linear_28_20" x1="115.533" y1="24.3667" x2="99.7583" y2="12.0507" gradientUnits="userSpaceOnUse">
<stop stop-color="#FCFAED"/>
<stop offset="1" stop-color="#FDFEFF"/>
</linearGradient>
<linearGradient id="paint18_linear_28_20" x1="113.687" y1="22.9313" x2="103.45" y2="14.9315" gradientUnits="userSpaceOnUse">
<stop stop-color="#FCFAED"/>
<stop offset="1" stop-color="#FDFEFF"/>
</linearGradient>
<linearGradient id="paint19_linear_28_20" x1="90.4214" y1="77.883" x2="88.6912" y2="64.2665" gradientUnits="userSpaceOnUse">
<stop stop-color="#FCFAED"/>
<stop offset="1" stop-color="#FDFEFF"/>
</linearGradient>
<linearGradient id="paint20_linear_28_20" x1="90.6859" y1="79.9544" x2="88.1622" y2="60.1377" gradientUnits="userSpaceOnUse">
<stop stop-color="#FCFAED"/>
<stop offset="1" stop-color="#FDFEFF"/>
</linearGradient>
<linearGradient id="paint21_linear_28_20" x1="89.715" y1="76.8196" x2="89.763" y2="66.0362" gradientUnits="userSpaceOnUse">
<stop stop-color="#FCFAED"/>
<stop offset="1" stop-color="#FDFEFF"/>
</linearGradient>
<linearGradient id="paint22_linear_28_20" x1="90.8861" y1="133.392" x2="47.7742" y2="129.736" gradientUnits="userSpaceOnUse">
<stop stop-color="#037CC2"/>
<stop offset="1" stop-color="#8AC58D"/>
</linearGradient>
<linearGradient id="paint23_linear_28_20" x1="81.2554" y1="135.36" x2="97.6482" y2="131.375" gradientUnits="userSpaceOnUse">
<stop stop-color="#FCFAED"/>
<stop offset="1" stop-color="#FDFEFF"/>
</linearGradient>
<linearGradient id="paint24_linear_28_20" x1="83.1659" y1="134.888" x2="93.8115" y2="132.308" gradientUnits="userSpaceOnUse">
<stop stop-color="#FCFAED"/>
<stop offset="1" stop-color="#FDFEFF"/>
</linearGradient>
<linearGradient id="paint25_linear_28_20" x1="50.3835" y1="145.838" x2="63.7232" y2="142.605" gradientUnits="userSpaceOnUse">
<stop stop-color="#FCFAED"/>
<stop offset="1" stop-color="#FDFEFF"/>
</linearGradient>
<linearGradient id="paint26_linear_28_20" x1="48.3542" y1="146.332" x2="67.7675" y2="141.62" gradientUnits="userSpaceOnUse">
<stop stop-color="#FCFAED"/>
<stop offset="1" stop-color="#FDFEFF"/>
</linearGradient>
<linearGradient id="paint27_linear_28_20" x1="51.3617" y1="145.018" x2="62.0835" y2="143.867" gradientUnits="userSpaceOnUse">
<stop stop-color="#FCFAED"/>
<stop offset="1" stop-color="#FDFEFF"/>
</linearGradient>
<linearGradient id="paint28_linear_28_20" x1="48.4628" y1="131.002" x2="61.5006" y2="127.832" gradientUnits="userSpaceOnUse">
<stop stop-color="#FCFAED"/>
<stop offset="1" stop-color="#FDFEFF"/>
</linearGradient>
<linearGradient id="paint29_linear_28_20" x1="49.9823" y1="130.626" x2="58.4491" y2="128.574" gradientUnits="userSpaceOnUse">
<stop stop-color="#FCFAED"/>
<stop offset="1" stop-color="#FDFEFF"/>
</linearGradient>
<clipPath id="clip0_28_20">
<rect width="173" height="183" fill="white"/>
</clipPath>
<clipPath id="clip1_28_20">
<rect width="22.35" height="22.35" fill="white" transform="translate(15.5896 68.7453) rotate(-135.08)"/>
</clipPath>
<clipPath id="clip2_28_20">
<rect width="22.35" height="22.35" fill="white" transform="translate(144.322 96.8503) rotate(-135.08)"/>
</clipPath>
<clipPath id="clip3_28_20">
<rect width="22.35" height="22.35" fill="white" transform="translate(89.8643 89.1479) rotate(-135.08)"/>
</clipPath>
</defs>
</svg>
