<svg width="156" height="167" viewBox="0 0 156 167" fill="none" xmlns="http://www.w3.org/2000/svg">
<g clip-path="url(#clip0_13_55)">
<path opacity="0.2" d="M31.917 51.3471C29.7003 47.7309 24.9717 46.5965 21.3556 48.8133C17.7394 51.0301 16.605 55.7586 18.8218 59.3748C21.0386 62.9909 25.7671 64.1253 29.3833 61.9085C32.9994 59.6918 34.1338 54.9632 31.917 51.3471Z" fill="url(#paint0_linear_13_55)"/>
<path opacity="0.2" d="M34.901 49.5178C31.6739 44.2537 24.7905 42.6023 19.5263 45.8293C14.2622 49.0564 12.6108 55.9398 15.8378 61.204C19.0649 66.4681 25.9483 68.1195 31.2125 64.8925C36.4766 61.6655 38.128 54.782 34.901 49.5178Z" fill="url(#paint1_linear_13_55)"/>
<path d="M31.2011 53.9676L29.6258 55.684C29.557 55.7569 29.5122 55.8492 29.4975 55.9484C29.4828 56.0476 29.4989 56.149 29.5437 56.2387L30.5942 58.316C30.6332 58.394 30.6512 58.481 30.6462 58.5682C30.6412 58.6553 30.6135 58.7397 30.5658 58.8128C30.5181 58.8859 30.4521 58.9453 30.3743 58.985C30.2966 59.0247 30.2098 59.0433 30.1226 59.0391L27.8005 58.8674C27.7008 58.8629 27.602 58.8884 27.5169 58.9406C27.4318 58.9928 27.3643 59.0692 27.323 59.16L26.3485 61.2823C26.3111 61.3603 26.2541 61.4273 26.1831 61.4768C26.112 61.5262 26.0294 61.5563 25.9432 61.5642C25.8571 61.5721 25.7703 61.5575 25.6915 61.5219C25.6126 61.4862 25.5444 61.4307 25.4934 61.3607L24.1478 59.4527C24.0899 59.3688 24.0078 59.3047 23.9124 59.2688C23.8171 59.2329 23.713 59.2271 23.6142 59.2519L21.3557 59.8154C21.2713 59.8346 21.1833 59.8316 21.1004 59.8066C21.0174 59.7815 20.9424 59.7354 20.8827 59.6727C20.823 59.61 20.7806 59.5328 20.7596 59.4488C20.7387 59.3648 20.7399 59.2767 20.7632 59.1933L21.4451 56.9573C21.4748 56.8623 21.4743 56.7604 21.4436 56.6658C21.4129 56.5711 21.3535 56.4884 21.2737 56.4289L19.4267 55.0042C19.3578 54.9516 19.304 54.8817 19.2709 54.8016C19.2377 54.7214 19.2265 54.634 19.2382 54.5481C19.2499 54.4622 19.2843 54.3809 19.3377 54.3126C19.3911 54.2443 19.4617 54.1914 19.5422 54.1592L21.7069 53.2897C21.7987 53.254 21.8772 53.191 21.932 53.1092C21.9867 53.0274 22.015 52.9307 22.013 52.8323L21.9737 50.5105C21.9693 50.4226 21.9887 50.3352 22.0297 50.2574C22.0708 50.1796 22.132 50.1142 22.207 50.0683C22.282 50.0223 22.368 49.9974 22.456 49.9961C22.5439 49.9948 22.6306 50.0172 22.7069 50.061L24.7156 51.1755C24.8018 51.2267 24.9019 51.2495 25.0018 51.2409C25.1017 51.2322 25.1963 51.1925 25.2725 51.1273L27.0609 49.6439C27.1275 49.5859 27.2086 49.547 27.2956 49.5313C27.3825 49.5155 27.4721 49.5236 27.5548 49.5546C27.6375 49.5857 27.7103 49.6385 27.7655 49.7075C27.8206 49.7765 27.8561 49.8591 27.8682 49.9467L28.2245 52.25C28.2425 52.3485 28.289 52.4396 28.3583 52.5118C28.4276 52.584 28.5166 52.6342 28.6143 52.6562L30.8946 53.1233C30.9877 53.1333 31.076 53.1692 31.1497 53.2269C31.2234 53.2847 31.2793 53.3619 31.3113 53.4499C31.3432 53.5378 31.3498 53.633 31.3303 53.7245C31.3108 53.8161 31.2661 53.9003 31.2011 53.9676Z" fill="url(#paint2_linear_13_55)"/>
</g>
<path opacity="0.2" d="M117.008 90.0396C114.286 85.5995 108.48 84.2066 104.04 86.9285C99.5994 89.6504 98.2065 95.4564 100.928 99.8966C103.65 104.337 109.456 105.73 113.897 103.008C118.337 100.286 119.73 94.4798 117.008 90.0396Z" fill="url(#paint3_linear_13_55)"/>
<path opacity="0.2" d="M114.194 91.7643C112.425 88.878 108.651 87.9725 105.764 89.7419C102.878 91.5113 101.973 95.2855 103.742 98.1718C105.511 101.058 109.285 101.964 112.172 100.194C115.058 98.4249 115.964 94.6507 114.194 91.7643Z" fill="url(#paint4_linear_13_55)"/>
<path d="M105.286 96.8263L106.788 94.5687C106.832 94.4961 106.85 94.4106 106.839 94.3264L106.533 91.628C106.526 91.5582 106.538 91.4875 106.569 91.4244C106.6 91.3612 106.648 91.3082 106.708 91.2714C106.768 91.2347 106.837 91.2158 106.907 91.2169C106.977 91.2181 107.046 91.2392 107.105 91.2779L109.362 92.7793C109.436 92.8263 109.523 92.8472 109.61 92.8387L112.303 92.525C112.373 92.5171 112.443 92.5294 112.507 92.5603C112.57 92.5911 112.623 92.6394 112.659 92.6993C112.696 92.7592 112.715 92.8284 112.714 92.8987C112.713 92.969 112.692 93.0375 112.653 93.0962L111.131 95.3197C111.082 95.3896 111.06 95.474 111.066 95.5587L111.406 98.2944C111.414 98.3643 111.402 98.4349 111.371 98.4981C111.34 98.5612 111.292 98.6143 111.232 98.651C111.172 98.6877 111.103 98.7067 111.032 98.7055C110.962 98.7044 110.893 98.6832 110.835 98.6446L108.611 97.1222C108.57 97.0876 108.521 97.063 108.468 97.0504C108.416 97.0378 108.361 97.0375 108.309 97.0496L105.637 97.3975C105.567 97.4053 105.496 97.393 105.433 97.3622C105.37 97.3313 105.317 97.2831 105.28 97.2231C105.243 97.1632 105.224 97.0941 105.225 97.0238C105.227 96.9535 105.248 96.885 105.286 96.8263Z" fill="white"/>
<path opacity="0.2" d="M94.4803 45.5417C92.6042 42.4811 88.6021 41.521 85.5416 43.3972C82.481 45.2734 81.5209 49.2754 83.3971 52.3359C85.2733 55.3965 89.2753 56.3566 92.3359 54.4804C95.3964 52.6042 96.3565 48.6022 94.4803 45.5417Z" fill="url(#paint5_linear_13_55)"/>
<path opacity="0.2" d="M92.5411 46.7305C91.3215 44.741 88.7199 44.1168 86.7304 45.3364C84.7409 46.5561 84.1168 49.1576 85.3364 51.1471C86.556 53.1366 89.1575 53.7608 91.1471 52.5411C93.1366 51.3215 93.7607 48.72 92.5411 46.7305Z" fill="url(#paint6_linear_13_55)"/>
<path d="M86.401 50.2196L87.4359 48.6635C87.4665 48.6135 87.4788 48.5545 87.471 48.4964L87.2606 46.6365C87.2552 46.5884 87.2636 46.5397 87.2849 46.4961C87.3062 46.4526 87.3394 46.416 87.3807 46.3907C87.4221 46.3654 87.4697 46.3524 87.5182 46.3531C87.5666 46.3539 87.6138 46.3685 87.6543 46.3951L89.2105 47.4301C89.2612 47.4624 89.3212 47.4769 89.3811 47.471L91.2374 47.2548C91.2856 47.2494 91.3342 47.2578 91.3778 47.2791C91.4213 47.3004 91.4579 47.3336 91.4832 47.3749C91.5085 47.4162 91.5216 47.4639 91.5208 47.5124C91.52 47.5608 91.5054 47.608 91.4788 47.6485L90.4294 49.1811C90.3961 49.2293 90.3803 49.2875 90.3849 49.3459L90.6192 51.2316C90.6245 51.2797 90.6161 51.3284 90.5948 51.372C90.5735 51.4155 90.5403 51.4521 90.499 51.4774C90.4577 51.5027 90.41 51.5157 90.3616 51.5149C90.3131 51.5142 90.2659 51.4996 90.2254 51.4729L88.6928 50.4236C88.6642 50.3997 88.6306 50.3828 88.5944 50.3741C88.5582 50.3654 88.5205 50.3652 88.4843 50.3735L86.6423 50.6133C86.5942 50.6187 86.5455 50.6103 86.502 50.589C86.4584 50.5677 86.4219 50.5345 86.3965 50.4932C86.3712 50.4519 86.3582 50.4042 86.359 50.3557C86.3598 50.3073 86.3743 50.2601 86.401 50.2196Z" fill="white"/>
<path opacity="0.2" d="M65.2599 108.565C60.0665 108.956 56.1736 113.483 56.5647 118.676C56.9558 123.87 61.4829 127.763 66.6762 127.371C71.8696 126.98 75.7626 122.453 75.3714 117.26C74.9803 112.067 70.4532 108.174 65.2599 108.565Z" fill="url(#paint7_linear_13_55)"/>
<path opacity="0.2" d="M65.5077 111.855C62.1318 112.11 59.6011 115.052 59.8554 118.428C60.1096 121.804 63.0525 124.335 66.4284 124.081C69.8044 123.827 72.335 120.884 72.0808 117.508C71.8265 114.132 68.8837 111.601 65.5077 111.855Z" fill="url(#paint8_linear_13_55)"/>
<path d="M65.9377 122.092L64.6162 119.725C64.5719 119.652 64.504 119.597 64.4239 119.569L61.8845 118.607C61.8188 118.582 61.7615 118.538 61.7195 118.482C61.6774 118.426 61.6523 118.359 61.647 118.288C61.6417 118.218 61.6565 118.148 61.6897 118.086C61.7228 118.024 61.7729 117.973 61.8342 117.938L64.2016 116.617C64.277 116.573 64.3354 116.505 64.3676 116.424L65.3196 113.885C65.3446 113.82 65.3878 113.762 65.4441 113.72C65.5004 113.678 65.5676 113.653 65.6377 113.648C65.7078 113.642 65.7779 113.657 65.8399 113.69C65.9019 113.724 65.9532 113.774 65.9877 113.835L67.2694 116.205C67.3094 116.28 67.3741 116.339 67.4524 116.372L70.0409 117.32C70.1066 117.345 70.1639 117.389 70.2059 117.445C70.248 117.501 70.2731 117.568 70.2784 117.638C70.2837 117.709 70.2689 117.779 70.2357 117.841C70.2026 117.903 70.1525 117.954 70.0912 117.988L67.7208 119.27C67.6711 119.291 67.6269 119.323 67.5917 119.364C67.5565 119.405 67.5313 119.454 67.5179 119.506L66.6058 122.042C66.5808 122.107 66.5376 122.165 66.4813 122.207C66.425 122.249 66.3578 122.274 66.2877 122.279C66.2176 122.284 66.1475 122.27 66.0855 122.236C66.0235 122.203 65.9722 122.153 65.9377 122.092Z" fill="white"/>
<path opacity="0.2" d="M77.0077 17.0396C74.2857 12.5995 68.4797 11.2066 64.0396 13.9285C59.5995 16.6504 58.2065 22.4564 60.9285 26.8965C63.6504 31.3367 69.4564 32.7296 73.8965 30.0077C78.3367 27.2858 79.7296 21.4798 77.0077 17.0396Z" fill="url(#paint9_linear_13_55)"/>
<path opacity="0.2" d="M74.1942 18.7643C72.4248 15.878 68.6506 14.9725 65.7643 16.7419C62.878 18.5113 61.9725 22.2855 63.7419 25.1718C65.5113 28.0581 69.2855 28.9636 72.1718 27.1942C75.0581 25.4248 75.9636 21.6506 74.1942 18.7643Z" fill="url(#paint10_linear_13_55)"/>
<path d="M65.2864 23.8262L66.7878 21.5686C66.8321 21.4961 66.8501 21.4105 66.8387 21.3263L66.5335 18.628C66.5256 18.5581 66.5379 18.4875 66.5687 18.4243C66.5996 18.3612 66.6478 18.3081 66.7078 18.2714C66.7677 18.2347 66.8369 18.2157 66.9072 18.2169C66.9774 18.218 67.046 18.2392 67.1047 18.2778L69.3623 19.7793C69.4358 19.8262 69.523 19.8472 69.6098 19.8387L72.3029 19.5249C72.3727 19.5171 72.4434 19.5294 72.5065 19.5602C72.5697 19.5911 72.6228 19.6393 72.6595 19.6993C72.6962 19.7592 72.7151 19.8284 72.714 19.8986C72.7129 19.9689 72.6917 20.0374 72.6531 20.0961L71.1307 22.3196C71.0823 22.3895 71.0595 22.4739 71.0661 22.5586L71.406 25.2944C71.4138 25.3642 71.4015 25.4349 71.3707 25.498C71.3398 25.5612 71.2916 25.6142 71.2316 25.651C71.1717 25.6877 71.1025 25.7066 71.0323 25.7055C70.962 25.7043 70.8935 25.6832 70.8347 25.6445L68.6112 24.1221C68.5698 24.0875 68.521 24.063 68.4685 24.0504C68.416 24.0378 68.3613 24.0375 68.3087 24.0496L65.6365 24.3974C65.5667 24.4053 65.496 24.393 65.4329 24.3621C65.3697 24.3313 65.3167 24.283 65.2799 24.2231C65.2432 24.1632 65.2243 24.094 65.2254 24.0237C65.2265 23.9534 65.2477 23.8849 65.2864 23.8262Z" fill="white"/>
<path opacity="0.2" d="M125.217 126.547C125.563 122.518 122.577 118.972 118.547 118.626C114.518 118.28 110.972 121.266 110.626 125.296C110.28 129.325 113.266 132.871 117.296 133.217C121.325 133.563 124.871 130.577 125.217 126.547Z" fill="url(#paint11_linear_13_55)"/>
<path opacity="0.2" d="M122.664 126.328C122.889 123.709 120.948 121.404 118.328 121.179C115.709 120.954 113.404 122.895 113.179 125.515C112.954 128.134 114.895 130.439 117.515 130.664C120.134 130.889 122.439 128.948 122.664 126.328Z" fill="url(#paint12_linear_13_55)"/>
<path d="M114.764 125.386L116.743 124.667C116.804 124.642 116.855 124.597 116.887 124.539L117.94 122.712C117.967 122.665 118.007 122.626 118.056 122.601C118.104 122.576 118.159 122.565 118.213 122.57C118.267 122.574 118.319 122.594 118.363 122.627C118.406 122.661 118.439 122.705 118.458 122.757L119.177 124.735C119.201 124.799 119.246 124.852 119.304 124.887L121.132 125.932C121.179 125.959 121.217 125.999 121.243 126.048C121.268 126.096 121.279 126.151 121.274 126.205C121.269 126.26 121.249 126.312 121.216 126.355C121.183 126.398 121.138 126.431 121.087 126.45L119.111 127.138C119.048 127.159 118.995 127.202 118.96 127.258L117.912 129.124C117.884 129.171 117.844 129.21 117.796 129.235C117.747 129.26 117.693 129.271 117.638 129.266C117.584 129.262 117.532 129.242 117.489 129.208C117.445 129.175 117.412 129.131 117.393 129.079L116.706 127.103C116.696 127.062 116.677 127.025 116.65 126.992C116.623 126.96 116.588 126.935 116.55 126.918L114.72 125.904C114.673 125.877 114.634 125.836 114.609 125.788C114.584 125.74 114.573 125.685 114.577 125.631C114.582 125.576 114.602 125.524 114.635 125.481C114.668 125.438 114.713 125.405 114.764 125.386Z" fill="white"/>
<path opacity="0.2" d="M26.7081 66.3942C24.5433 62.8628 19.9256 61.755 16.3941 63.9198C12.8627 66.0846 11.7549 70.7023 13.9198 74.2337C16.0846 77.7651 20.7023 78.873 24.2337 76.7081C27.7651 74.5433 28.8729 69.9256 26.7081 66.3942Z" fill="url(#paint13_linear_13_55)"/>
<path opacity="0.2" d="M24.4681 67.7673C23.0617 65.473 20.0616 64.7533 17.7673 66.1598C15.473 67.5662 14.7533 70.5663 16.1597 72.8606C17.5662 75.1549 20.5662 75.8746 22.8606 74.4682C25.1549 73.0617 25.8746 70.0616 24.4681 67.7673Z" fill="url(#paint14_linear_13_55)"/>
<path d="M15.1672 71.9596L17.4402 69.7172C17.4906 69.6659 17.526 69.602 17.5428 69.5322C17.5595 69.4624 17.5569 69.3893 17.5353 69.3208L16.5732 66.3022C16.5503 66.2284 16.5496 66.1496 16.5711 66.0754C16.5925 66.0012 16.6352 65.9349 16.6939 65.8847C16.7526 65.8346 16.8247 65.8027 16.9013 65.793C16.9779 65.7833 17.0557 65.7962 17.125 65.8302L19.9262 67.2577C19.9904 67.2895 20.062 67.3036 20.1335 67.2984C20.205 67.2933 20.2738 67.2692 20.3328 67.2285L22.9073 65.3751C22.972 65.326 23.0502 65.298 23.1314 65.2949C23.2126 65.2919 23.2927 65.3138 23.3609 65.3579C23.4292 65.4019 23.4822 65.4659 23.5128 65.5412C23.5433 65.6164 23.55 65.6993 23.5319 65.7784L23.0101 68.9284C22.9956 68.9995 23.0024 69.0732 23.0296 69.1405C23.0569 69.2077 23.1033 69.2654 23.1631 69.3063L25.7146 71.1856C25.7769 71.2314 25.8241 71.2948 25.8502 71.3677C25.8763 71.4405 25.8801 71.5195 25.861 71.5944C25.842 71.6694 25.801 71.737 25.7434 71.7886C25.6857 71.8402 25.6139 71.8733 25.5373 71.8839L22.4084 72.3712C22.3371 72.3811 22.2701 72.4108 22.215 72.4571C22.1599 72.5034 22.119 72.5643 22.097 72.6328L21.0798 75.6542C21.0601 75.7346 21.0158 75.8068 20.953 75.8607C20.8902 75.9145 20.8121 75.9473 20.7297 75.9545C20.6472 75.9616 20.5646 75.9427 20.4935 75.9004C20.4224 75.8581 20.3663 75.7946 20.3332 75.7188L18.9554 72.8685C18.9233 72.8047 18.8743 72.751 18.8137 72.7133C18.7531 72.6755 18.6833 72.6552 18.6119 72.6545L15.4505 72.6271C15.3721 72.6297 15.2948 72.6084 15.2287 72.5662C15.1625 72.524 15.1108 72.4627 15.0801 72.3905C15.0494 72.3183 15.0413 72.2385 15.0569 72.1616C15.0724 72.0847 15.1109 72.0143 15.1672 71.9596V71.9596Z" fill="white"/>
<path opacity="0.2" d="M79.1845 46.6574C73.1812 45.1898 67.1249 48.8667 65.6573 54.8699C64.1897 60.8732 67.8666 66.9296 73.8699 68.3972C79.8732 69.8648 85.9295 66.1879 87.3971 60.1846C88.8647 54.1813 85.1878 48.1249 79.1845 46.6574Z" fill="url(#paint15_linear_13_55)"/>
<path opacity="0.2" d="M78.2536 50.4652C74.3534 49.5117 70.4186 51.9006 69.4651 55.8008C68.5117 59.7011 70.9005 63.6358 74.8008 64.5893C78.701 65.5428 82.6357 63.1539 83.5892 59.2537C84.5427 55.3534 82.1539 51.4187 78.2536 50.4652Z" fill="url(#paint16_linear_13_55)"/>
<path d="M72.8027 64.6773L72.8555 59.9136C72.855 59.8065 72.8254 59.7015 72.7698 59.6099C72.7142 59.5183 72.6347 59.4436 72.5399 59.3938L68.3495 57.2061C68.2478 57.1519 68.1642 57.0692 68.1091 56.968C68.0539 56.8669 68.0295 56.7518 68.039 56.637C68.0484 56.5222 68.0913 56.4126 68.1623 56.3219C68.2333 56.2311 68.3293 56.1632 68.4385 56.1264L72.9059 54.6963C73.0073 54.6626 73.098 54.6023 73.1683 54.5218C73.2387 54.4412 73.2862 54.3434 73.3061 54.2383L74.087 49.5702C74.1039 49.4502 74.1574 49.3383 74.2401 49.2498C74.3229 49.1613 74.4309 49.1004 74.5495 49.0754C74.668 49.0504 74.7914 49.0625 74.9029 49.1101C75.0143 49.1577 75.1084 49.2384 75.1723 49.3414L77.9285 53.227C77.9877 53.3175 78.0724 53.3885 78.1719 53.4312C78.2713 53.4738 78.3811 53.4861 78.4875 53.4666L83.1649 52.7777C83.2791 52.7608 83.3958 52.7783 83.4999 52.8281C83.6041 52.8778 83.691 52.9575 83.7496 53.057C83.8082 53.1564 83.8358 53.2711 83.8289 53.3863C83.8219 53.5015 83.7808 53.6121 83.7106 53.7038L80.9073 57.5068C80.8422 57.5922 80.8025 57.6941 80.7927 57.801C80.783 57.9079 80.8036 58.0154 80.8523 58.1111L82.9482 62.3809C83.0119 62.4867 83.0408 62.6098 83.0308 62.7328C83.0209 62.8559 82.9726 62.9727 82.8927 63.0668C82.8129 63.161 82.7055 63.2277 82.5857 63.2576C82.466 63.2876 82.3398 63.2791 82.2251 63.2336L77.7711 61.6609C77.6702 61.6271 77.5618 61.6217 77.458 61.6453C77.3541 61.669 77.2588 61.7207 77.1825 61.795L73.8041 65.0869C73.7237 65.1719 73.6194 65.2307 73.505 65.2554C73.3906 65.2801 73.2714 65.2696 73.163 65.2253C73.0547 65.181 72.9623 65.1049 72.898 65.0071C72.8337 64.9093 72.8005 64.7944 72.8027 64.6773V64.6773Z" fill="white"/>
<g clip-path="url(#clip1_13_55)">
<path opacity="0.2" d="M127.917 77.3471C125.7 73.7309 120.972 72.5965 117.356 74.8133C113.739 77.0301 112.605 81.7586 114.822 85.3748C117.039 88.9909 121.767 90.1253 125.383 87.9085C128.999 85.6918 130.134 80.9632 127.917 77.3471Z" fill="url(#paint17_linear_13_55)"/>
<path opacity="0.2" d="M130.901 75.5178C127.674 70.2537 120.79 68.6023 115.526 71.8293C110.262 75.0564 108.611 81.9398 111.838 87.204C115.065 92.4681 121.948 94.1195 127.212 90.8925C132.477 87.6655 134.128 80.782 130.901 75.5178Z" fill="url(#paint18_linear_13_55)"/>
<path d="M127.201 79.9676L125.626 81.684C125.557 81.7569 125.512 81.8492 125.498 81.9484C125.483 82.0476 125.499 82.149 125.544 82.2387L126.594 84.316C126.633 84.394 126.651 84.481 126.646 84.5682C126.641 84.6553 126.613 84.7397 126.566 84.8128C126.518 84.8859 126.452 84.9453 126.374 84.985C126.297 85.0247 126.21 85.0433 126.123 85.0391L123.8 84.8674C123.701 84.8629 123.602 84.8884 123.517 84.9406C123.432 84.9928 123.364 85.0692 123.323 85.16L122.348 87.2823C122.311 87.3603 122.254 87.4273 122.183 87.4768C122.112 87.5262 122.029 87.5563 121.943 87.5642C121.857 87.5721 121.77 87.5575 121.691 87.5219C121.613 87.4862 121.544 87.4307 121.493 87.3607L120.148 85.4527C120.09 85.3688 120.008 85.3047 119.912 85.2688C119.817 85.2329 119.713 85.2271 119.614 85.2519L117.356 85.8154C117.271 85.8346 117.183 85.8316 117.1 85.8066C117.017 85.7815 116.942 85.7354 116.883 85.6727C116.823 85.61 116.781 85.5328 116.76 85.4488C116.739 85.3648 116.74 85.2767 116.763 85.1933L117.445 82.9573C117.475 82.8623 117.474 82.7604 117.444 82.6658C117.413 82.5711 117.353 82.4884 117.274 82.4289L115.427 81.0042C115.358 80.9516 115.304 80.8817 115.271 80.8016C115.238 80.7214 115.226 80.634 115.238 80.5481C115.25 80.4622 115.284 80.3809 115.338 80.3126C115.391 80.2443 115.462 80.1914 115.542 80.1592L117.707 79.2897C117.799 79.254 117.877 79.191 117.932 79.1092C117.987 79.0274 118.015 78.9307 118.013 78.8323L117.974 76.5105C117.969 76.4226 117.989 76.3352 118.03 76.2574C118.071 76.1796 118.132 76.1142 118.207 76.0683C118.282 76.0223 118.368 75.9974 118.456 75.9961C118.544 75.9948 118.631 76.0172 118.707 76.061L120.716 77.1755C120.802 77.2267 120.902 77.2495 121.002 77.2409C121.102 77.2322 121.196 77.1925 121.272 77.1273L123.061 75.6439C123.128 75.5859 123.209 75.547 123.296 75.5313C123.382 75.5155 123.472 75.5236 123.555 75.5546C123.637 75.5857 123.71 75.6385 123.765 75.7075C123.821 75.7765 123.856 75.8591 123.868 75.9467L124.224 78.25C124.242 78.3485 124.289 78.4396 124.358 78.5118C124.428 78.584 124.517 78.6342 124.614 78.6562L126.895 79.1233C126.988 79.1333 127.076 79.1692 127.15 79.2269C127.223 79.2847 127.279 79.3619 127.311 79.4499C127.343 79.5378 127.35 79.633 127.33 79.7245C127.311 79.8161 127.266 79.9003 127.201 79.9676Z" fill="url(#paint19_linear_13_55)"/>
</g>
<defs>
<linearGradient id="paint0_linear_13_55" x1="24.8657" y1="59.9158" x2="26.3788" y2="46.2735" gradientUnits="userSpaceOnUse">
<stop stop-color="#FCFAED"/>
<stop offset="1" stop-color="#FDFEFF"/>
</linearGradient>
<linearGradient id="paint1_linear_13_55" x1="24.6367" y1="61.9915" x2="26.8334" y2="42.1358" gradientUnits="userSpaceOnUse">
<stop stop-color="#FCFAED"/>
<stop offset="1" stop-color="#FDFEFF"/>
</linearGradient>
<linearGradient id="paint2_linear_13_55" x1="24.4285" y1="58.7163" x2="27.0054" y2="48.2453" gradientUnits="userSpaceOnUse">
<stop stop-color="#FCFAED"/>
<stop offset="1" stop-color="#FDFEFF"/>
</linearGradient>
<linearGradient id="paint3_linear_13_55" x1="108.356" y1="100.551" x2="110.204" y2="83.7827" gradientUnits="userSpaceOnUse">
<stop stop-color="#FCFAED"/>
<stop offset="1" stop-color="#FDFEFF"/>
</linearGradient>
<linearGradient id="paint4_linear_13_55" x1="108.564" y1="98.5941" x2="109.772" y2="87.7074" gradientUnits="userSpaceOnUse">
<stop stop-color="#FCFAED"/>
<stop offset="1" stop-color="#FDFEFF"/>
</linearGradient>
<linearGradient id="paint5_linear_13_55" x1="88.5167" y1="52.7872" x2="89.791" y2="41.2288" gradientUnits="userSpaceOnUse">
<stop stop-color="#FCFAED"/>
<stop offset="1" stop-color="#FDFEFF"/>
</linearGradient>
<linearGradient id="paint6_linear_13_55" x1="88.6599" y1="51.4382" x2="89.4928" y2="43.9341" gradientUnits="userSpaceOnUse">
<stop stop-color="#FCFAED"/>
<stop offset="1" stop-color="#FDFEFF"/>
</linearGradient>
<linearGradient id="paint7_linear_13_55" x1="70.6539" y1="121.065" x2="56.585" y2="111.755" gradientUnits="userSpaceOnUse">
<stop stop-color="#FCFAED"/>
<stop offset="1" stop-color="#FDFEFF"/>
</linearGradient>
<linearGradient id="paint8_linear_13_55" x1="69.0082" y1="119.985" x2="59.8779" y2="113.934" gradientUnits="userSpaceOnUse">
<stop stop-color="#FCFAED"/>
<stop offset="1" stop-color="#FDFEFF"/>
</linearGradient>
<linearGradient id="paint9_linear_13_55" x1="68.3558" y1="27.5513" x2="70.2045" y2="10.7827" gradientUnits="userSpaceOnUse">
<stop stop-color="#FCFAED"/>
<stop offset="1" stop-color="#FDFEFF"/>
</linearGradient>
<linearGradient id="paint10_linear_13_55" x1="68.5635" y1="25.5941" x2="69.7719" y2="14.7074" gradientUnits="userSpaceOnUse">
<stop stop-color="#FCFAED"/>
<stop offset="1" stop-color="#FDFEFF"/>
</linearGradient>
<linearGradient id="paint11_linear_13_55" x1="114.965" y1="129.128" x2="123.85" y2="119.502" gradientUnits="userSpaceOnUse">
<stop stop-color="#FCFAED"/>
<stop offset="1" stop-color="#FDFEFF"/>
</linearGradient>
<linearGradient id="paint12_linear_13_55" x1="115.997" y1="128.001" x2="121.77" y2="121.755" gradientUnits="userSpaceOnUse">
<stop stop-color="#FCFAED"/>
<stop offset="1" stop-color="#FDFEFF"/>
</linearGradient>
<linearGradient id="paint13_linear_13_55" x1="19.8229" y1="74.758" x2="21.296" y2="61.4258" gradientUnits="userSpaceOnUse">
<stop stop-color="#FCFAED"/>
<stop offset="1" stop-color="#FDFEFF"/>
</linearGradient>
<linearGradient id="paint14_linear_13_55" x1="19.992" y1="73.2" x2="20.9522" y2="64.5454" gradientUnits="userSpaceOnUse">
<stop stop-color="#FCFAED"/>
<stop offset="1" stop-color="#FDFEFF"/>
</linearGradient>
<linearGradient id="paint15_linear_13_55" x1="80.6752" y1="62.7517" x2="68.2312" y2="47.0783" gradientUnits="userSpaceOnUse">
<stop stop-color="#FCFAED"/>
<stop offset="1" stop-color="#FDFEFF"/>
</linearGradient>
<linearGradient id="paint16_linear_13_55" x1="79.2177" y1="60.9233" x2="71.1438" y2="50.7448" gradientUnits="userSpaceOnUse">
<stop stop-color="#FCFAED"/>
<stop offset="1" stop-color="#FDFEFF"/>
</linearGradient>
<linearGradient id="paint17_linear_13_55" x1="120.866" y1="85.9158" x2="122.379" y2="72.2735" gradientUnits="userSpaceOnUse">
<stop stop-color="#FCFAED"/>
<stop offset="1" stop-color="#FDFEFF"/>
</linearGradient>
<linearGradient id="paint18_linear_13_55" x1="120.637" y1="87.9915" x2="122.833" y2="68.1358" gradientUnits="userSpaceOnUse">
<stop stop-color="#FCFAED"/>
<stop offset="1" stop-color="#FDFEFF"/>
</linearGradient>
<linearGradient id="paint19_linear_13_55" x1="120.428" y1="84.7163" x2="123.005" y2="74.2453" gradientUnits="userSpaceOnUse">
<stop stop-color="#FCFAED"/>
<stop offset="1" stop-color="#FDFEFF"/>
</linearGradient>
<clipPath id="clip0_13_55">
<rect width="22.35" height="22.35" fill="white" transform="translate(21.6809 70.7356) rotate(-121.509)"/>
</clipPath>
<clipPath id="clip1_13_55">
<rect width="22.35" height="22.35" fill="white" transform="translate(117.681 96.7356) rotate(-121.509)"/>
</clipPath>
</defs>
</svg>
