<svg width="59" height="46" viewBox="0 0 59 46" fill="none" xmlns="http://www.w3.org/2000/svg">
<path opacity="0.2" d="M35.8511 12.2445C33.0149 15.3984 33.2725 20.2542 36.4263 23.0904C39.5802 25.9266 44.4361 25.6691 47.2723 22.5152C50.1084 19.3613 49.8509 14.5055 46.697 11.6693C43.5432 8.8331 38.6873 9.09064 35.8511 12.2445Z" fill="url(#paint0_linear_13_76)"/>
<path opacity="0.2" d="M33.2486 9.90417C29.1199 14.4953 29.4948 21.5642 34.086 25.6929C38.6772 29.8216 45.746 29.4467 49.8747 24.8555C54.0034 20.2644 53.6285 13.1955 49.0374 9.0668C44.4462 4.9381 37.3773 5.313 33.2486 9.90417Z" fill="url(#paint1_linear_13_76)"/>
<path d="M38.5671 12.1854L40.6606 13.2073C40.7501 13.2526 40.8514 13.2692 40.9506 13.2551C41.0499 13.241 41.1425 13.1967 41.2158 13.1283L42.9084 11.5303C42.9722 11.4706 43.0504 11.4287 43.1354 11.4087C43.2204 11.3887 43.3091 11.3913 43.3928 11.4162C43.4765 11.4411 43.5522 11.4875 43.6123 11.5508C43.6725 11.614 43.7151 11.6919 43.7358 11.7768L44.2317 14.0518C44.2559 14.1486 44.3084 14.236 44.3826 14.3028C44.4568 14.3695 44.5493 14.4125 44.6481 14.4262L46.9599 14.7568C47.0454 14.7704 47.1258 14.806 47.1934 14.8601C47.261 14.9141 47.3134 14.9848 47.3455 15.0651C47.3776 15.1455 47.3883 15.2328 47.3765 15.3185C47.3647 15.4043 47.3309 15.4855 47.2784 15.5542L45.8319 17.387C45.768 17.4664 45.7299 17.5634 45.7226 17.665C45.7153 17.7666 45.7393 17.868 45.7913 17.9557L46.9739 19.9606C47.0163 20.0361 47.0384 20.1213 47.0381 20.2079C47.0377 20.2945 47.0148 20.3795 46.9716 20.4546C46.9285 20.5297 46.8666 20.5923 46.792 20.6363C46.7174 20.6803 46.6327 20.7042 46.5461 20.7056L44.2084 20.6879C44.1089 20.6864 44.0114 20.7159 43.9294 20.7723C43.8474 20.8286 43.7849 20.9091 43.7507 21.0025L42.9101 23.1785C42.8794 23.2595 42.8277 23.331 42.7603 23.3855C42.6929 23.4401 42.6122 23.4758 42.5265 23.489C42.4408 23.5021 42.3531 23.4924 42.2725 23.4606C42.1918 23.4288 42.121 23.3762 42.0673 23.3081L40.6179 21.4802C40.5576 21.4024 40.4748 21.345 40.3808 21.3158C40.2868 21.2865 40.1861 21.287 40.0923 21.3169L37.8776 22.015C37.7946 22.0442 37.7053 22.0505 37.619 22.0333C37.5327 22.0161 37.4527 21.976 37.3873 21.9171C37.3219 21.8583 37.2735 21.783 37.2473 21.699C37.221 21.615 37.2178 21.5256 37.2381 21.44L37.7352 19.1972C37.7597 19.1 37.7531 18.9976 37.7164 18.9043C37.6797 18.811 37.6147 18.7315 37.5306 18.677L35.5997 17.3845C35.5251 17.3371 35.4648 17.2705 35.425 17.1916C35.3852 17.1127 35.3674 17.0245 35.3736 16.9364C35.3798 16.8483 35.4098 16.7634 35.4602 16.6909C35.5107 16.6184 35.5798 16.5609 35.6603 16.5245L37.7672 15.5276C37.8565 15.4824 37.9305 15.4119 37.98 15.3249C38.0296 15.2379 38.0524 15.1383 38.0457 15.0384L37.8448 12.7194C37.8279 12.6273 37.8372 12.5324 37.8716 12.4454C37.906 12.3583 37.9641 12.2827 38.0394 12.2271C38.1146 12.1714 38.204 12.138 38.2973 12.1307C38.3906 12.1233 38.484 12.1423 38.5671 12.1854Z" fill="url(#paint2_linear_13_76)"/>
<path opacity="0.2" d="M37.1297 27.2734C34.36 30.3533 34.6115 35.0954 37.6914 37.8651C40.7714 40.6348 45.5135 40.3833 48.2832 37.3034C51.0529 34.2234 50.8014 29.4814 47.7214 26.7117C44.6415 23.942 39.8994 24.1935 37.1297 27.2734Z" fill="url(#paint3_linear_13_76)"/>
<path opacity="0.2" d="M39.0813 29.0284C37.2808 31.0305 37.4443 34.1131 39.4464 35.9136C41.4485 37.714 44.5311 37.5505 46.3316 35.5484C48.132 33.5463 47.9686 30.4637 45.9664 28.6632C43.9643 26.8628 40.8817 27.0263 39.0813 29.0284Z" fill="url(#paint4_linear_13_76)"/>
<path d="M44.9562 34.6752L42.8951 34.0411C42.8298 34.0238 42.7605 34.0294 42.6989 34.0572L40.7105 34.9004C40.659 34.9221 40.6024 34.9288 40.5472 34.9195C40.4921 34.9103 40.4407 34.8855 40.3992 34.8481C40.3576 34.8107 40.3275 34.7623 40.3125 34.7084C40.2975 34.6546 40.2981 34.5976 40.3143 34.5441L40.9484 32.483C40.9675 32.4163 40.9637 32.3451 40.9376 32.2808L40.0891 30.2984C40.0673 30.2469 40.0607 30.1903 40.0699 30.1351C40.0792 30.08 40.104 30.0286 40.1414 29.987C40.1787 29.9455 40.2272 29.9154 40.281 29.9004C40.3349 29.8853 40.3919 29.886 40.4454 29.9022L42.4852 30.5599C42.5494 30.5809 42.619 30.5793 42.6821 30.5551L44.6911 29.677C44.7426 29.6552 44.7992 29.6486 44.8544 29.6578C44.9095 29.6671 44.9609 29.6918 45.0024 29.7292C45.044 29.7666 45.0741 29.8151 45.0891 29.8689C45.1041 29.9228 45.1035 29.9798 45.0873 30.0333L44.4296 32.0731C44.4126 32.1125 44.4049 32.1553 44.4072 32.1982C44.4094 32.241 44.4216 32.2828 44.4427 32.3202L45.3125 34.279C45.3343 34.3305 45.3409 34.3871 45.3317 34.4422C45.3224 34.4974 45.2976 34.5487 45.2603 34.5903C45.2229 34.6319 45.1744 34.662 45.1206 34.677C45.0667 34.692 45.0097 34.6914 44.9562 34.6752Z" fill="white"/>
<path opacity="0.2" d="M16.7081 31.3941C14.5433 27.8627 9.92557 26.7549 6.39416 28.9197C2.86276 31.0846 1.75494 35.7023 3.91977 39.2337C6.0846 42.7651 10.7023 43.8729 14.2337 41.7081C17.7651 39.5433 18.8729 34.9255 16.7081 31.3941Z" fill="url(#paint5_linear_13_76)"/>
<path opacity="0.2" d="M14.4682 32.7673C13.0617 30.473 10.0616 29.7532 7.76732 31.1597C5.47301 32.5662 4.75327 35.5662 6.15973 37.8605C7.5662 40.1548 10.5663 40.8746 12.8606 39.4681C15.1549 38.0617 15.8746 35.0616 14.4682 32.7673Z" fill="url(#paint6_linear_13_76)"/>
<path d="M5.16717 36.9596L7.44023 34.7171C7.49057 34.6659 7.52602 34.6019 7.54277 34.5321C7.55952 34.4623 7.55694 34.3892 7.53532 34.3208L6.57318 31.3021C6.55035 31.2283 6.54962 31.1495 6.57108 31.0753C6.59254 31.0011 6.63524 30.9349 6.69393 30.8847C6.75262 30.8345 6.82472 30.8026 6.90133 30.7929C6.97794 30.7832 7.05571 30.7962 7.12504 30.8302L9.92619 32.2576C9.99042 32.2894 10.062 32.3035 10.1335 32.2984C10.205 32.2933 10.2738 32.2691 10.3328 32.2285L12.9073 30.3751C12.972 30.326 13.0503 30.298 13.1314 30.2949C13.2126 30.2918 13.2927 30.3138 13.361 30.3578C13.4292 30.4019 13.4822 30.4659 13.5128 30.5411C13.5434 30.6164 13.55 30.6992 13.5319 30.7784L13.0101 33.9284C12.9956 33.9994 13.0024 34.0732 13.0297 34.1404C13.0569 34.2076 13.1033 34.2653 13.1632 34.3063L15.7146 36.1855C15.7769 36.2314 15.8241 36.2948 15.8502 36.3676C15.8763 36.4404 15.8801 36.5194 15.8611 36.5944C15.842 36.6694 15.801 36.737 15.7434 36.7885C15.6857 36.8401 15.6139 36.8733 15.5373 36.8838L12.4084 37.3711C12.3371 37.381 12.2701 37.4108 12.215 37.4571C12.1599 37.5033 12.1191 37.5642 12.0971 37.6327L11.0798 40.6541C11.0602 40.7345 11.0158 40.8067 10.953 40.8606C10.8902 40.9145 10.8121 40.9473 10.7297 40.9544C10.6472 40.9615 10.5646 40.9426 10.4935 40.9003C10.4224 40.8581 10.3663 40.7945 10.3332 40.7187L8.9554 37.8684C8.92331 37.8046 8.87429 37.7509 8.81371 37.7132C8.75313 37.6755 8.68333 37.6551 8.61196 37.6544L5.45055 37.627C5.37214 37.6296 5.2948 37.6084 5.22868 37.5661C5.16256 37.5239 5.11077 37.4626 5.08011 37.3904C5.04945 37.3182 5.04136 37.2384 5.0569 37.1615C5.07244 37.0846 5.11088 37.0142 5.16717 36.9596V36.9596Z" fill="white"/>
<defs>
<linearGradient id="paint0_linear_13_76" x1="46.0717" y1="16.5671" x2="32.5625" y2="18.9972" gradientUnits="userSpaceOnUse">
<stop stop-color="#FCFAED"/>
<stop offset="1" stop-color="#FDFEFF"/>
</linearGradient>
<linearGradient id="paint1_linear_13_76" x1="48.1267" y1="16.1961" x2="28.4665" y2="19.7384" gradientUnits="userSpaceOnUse">
<stop stop-color="#FCFAED"/>
<stop offset="1" stop-color="#FDFEFF"/>
</linearGradient>
<linearGradient id="paint2_linear_13_76" x1="45.0461" y1="17.3274" x2="34.2747" y2="17.8355" gradientUnits="userSpaceOnUse">
<stop stop-color="#FCFAED"/>
<stop offset="1" stop-color="#FDFEFF"/>
</linearGradient>
<linearGradient id="paint3_linear_13_76" x1="47.102" y1="31.4921" x2="33.8981" y2="33.8763" gradientUnits="userSpaceOnUse">
<stop stop-color="#FCFAED"/>
<stop offset="1" stop-color="#FDFEFF"/>
</linearGradient>
<linearGradient id="paint4_linear_13_76" x1="45.5627" y1="31.7765" x2="36.9885" y2="33.3181" gradientUnits="userSpaceOnUse">
<stop stop-color="#FCFAED"/>
<stop offset="1" stop-color="#FDFEFF"/>
</linearGradient>
<linearGradient id="paint5_linear_13_76" x1="9.82288" y1="39.758" x2="11.2961" y2="26.4258" gradientUnits="userSpaceOnUse">
<stop stop-color="#FCFAED"/>
<stop offset="1" stop-color="#FDFEFF"/>
</linearGradient>
<linearGradient id="paint6_linear_13_76" x1="9.99197" y1="38.1999" x2="10.9522" y2="29.5454" gradientUnits="userSpaceOnUse">
<stop stop-color="#FCFAED"/>
<stop offset="1" stop-color="#FDFEFF"/>
</linearGradient>
</defs>
</svg>
