<svg width="153" height="163" viewBox="0 0 153 163" fill="none" xmlns="http://www.w3.org/2000/svg">
<path opacity="0.2" d="M106.821 120.518L104.273 100.915C104.161 100.073 104.311 99.2171 104.7 98.4622C105.09 97.7073 105.701 97.0897 106.452 96.6925L123.889 87.3821C124.539 87.034 125.086 86.5198 125.474 85.892C125.861 85.2641 126.076 84.5449 126.095 83.8073C126.115 83.0698 125.939 82.3402 125.585 81.6927C125.231 81.0452 124.712 80.5029 124.081 80.1208L107.172 69.8921C106.444 69.4539 105.867 68.8036 105.518 68.0284C105.17 67.2531 105.067 66.3899 105.223 65.5544L108.819 46.1229C108.955 45.3969 108.895 44.648 108.647 43.9525C108.399 43.257 107.971 42.6396 107.406 42.1633C106.842 41.687 106.161 41.3687 105.434 41.2408C104.707 41.1128 103.958 41.1799 103.266 41.4351L84.721 48.2829C83.9277 48.5629 83.0684 48.5977 82.255 48.3826C81.4417 48.1675 80.7119 47.7126 80.1607 47.077L67.1709 32.1602C66.6867 31.6025 66.0634 31.1831 65.3645 30.9446C64.6656 30.7061 63.916 30.657 63.192 30.8024C62.4679 30.9477 61.7953 31.2823 61.2426 31.772C60.6898 32.2617 60.2767 32.8891 60.0452 33.5904L53.8249 52.3578C53.5574 53.1633 53.0512 53.8682 52.3734 54.379C51.6957 54.8898 50.8785 55.1821 50.0305 55.2172L30.2788 56.0322C29.5406 56.0624 28.8237 56.2877 28.2009 56.6852C27.5782 57.0827 27.0719 57.6381 26.7337 58.2948C26.3954 58.9516 26.2373 59.6863 26.2753 60.4241C26.3134 61.1619 26.5463 61.8764 26.9504 62.4949L37.7762 79.0443C38.238 79.7564 38.4728 80.592 38.4493 81.4404C38.4259 82.2888 38.1453 83.1101 37.6447 83.7955L25.9618 99.7939C25.5268 100.39 25.2575 101.091 25.1811 101.825C25.1048 102.559 25.2241 103.3 25.5269 103.973C25.8298 104.646 26.3054 105.227 26.9055 105.656C27.5055 106.086 28.2086 106.349 28.9433 106.419L48.6058 108.259C49.4496 108.342 50.2482 108.68 50.8959 109.227C51.5437 109.774 52.0102 110.505 52.2338 111.323L57.4252 130.401C57.6197 131.114 57.9997 131.763 58.5267 132.282C59.0536 132.8 59.7086 133.169 60.4248 133.352C61.1411 133.535 61.893 133.524 62.6039 133.322C63.3147 133.119 63.9592 132.731 64.4714 132.199L78.2063 117.994C78.797 117.383 79.5598 116.967 80.3929 116.801C81.226 116.635 82.09 116.726 82.8698 117.064L100.995 124.896C101.674 125.195 102.421 125.307 103.158 125.222C103.895 125.137 104.596 124.857 105.189 124.411C105.782 123.966 106.246 123.37 106.533 122.686C106.82 122.002 106.919 121.254 106.821 120.518Z" fill="#FFFBDC"/>
<path opacity="0.2" d="M111.2 98.8451L102.417 84.9715C102.039 84.3744 101.851 83.6763 101.88 82.9701C101.908 82.2638 102.151 81.5829 102.575 81.018L112.415 67.8928C112.784 67.4025 113.016 66.8232 113.089 66.214C113.161 65.6047 113.07 64.9871 112.825 64.4244C112.581 63.8616 112.192 63.3736 111.697 63.0103C111.203 62.647 110.621 62.4212 110.011 62.356L93.6807 60.5946C92.9788 60.5201 92.3166 60.2328 91.7827 59.7712C91.2488 59.3096 90.8689 58.6958 90.6938 58.0121L86.5661 42.1012C86.4135 41.5068 86.1059 40.9636 85.6749 40.5268C85.2438 40.0901 84.7046 39.7755 84.1123 39.615C83.52 39.4546 82.8957 39.4542 82.3032 39.6137C81.7106 39.7732 81.171 40.087 80.7392 40.5231L69.1722 52.1938C68.6744 52.6948 68.0363 53.033 67.3422 53.1637C66.6481 53.2943 65.9307 53.2113 65.2848 52.9256L50.2794 46.2111C49.7173 45.9623 49.0993 45.8668 48.4883 45.9344C47.8773 46.002 47.2951 46.2302 46.801 46.5958C46.3068 46.9614 45.9183 47.4514 45.675 48.0159C45.4317 48.5804 45.3423 49.1993 45.4158 49.8096L47.3238 66.1247C47.4061 66.8259 47.2732 67.5355 46.9428 68.1594C46.6123 68.7833 46.0999 69.2919 45.4736 69.6177L30.9121 77.1591C30.369 77.4435 29.9107 77.8664 29.5835 78.3849C29.2563 78.9035 29.072 79.4992 29.0491 80.1119C29.0261 80.7246 29.1655 81.3324 29.453 81.8739C29.7406 82.4154 30.166 82.8714 30.6864 83.1956L44.6201 91.927C45.2203 92.2996 45.6924 92.8466 45.9734 93.4948C46.2544 94.143 46.3309 94.8615 46.1926 95.5543L43.003 111.667C42.8841 112.27 42.9268 112.893 43.1266 113.473C43.3265 114.054 43.6764 114.571 44.1409 114.973C44.6054 115.375 45.1679 115.646 45.7712 115.76C46.3746 115.874 46.9974 115.827 47.5764 115.622L63.0755 110.062C63.7406 109.827 64.4616 109.799 65.1428 109.982C65.824 110.166 66.4333 110.553 66.8899 111.09L77.4704 123.633C77.8664 124.103 78.3798 124.459 78.9583 124.665C79.5368 124.871 80.1597 124.92 80.7632 124.807C81.3668 124.693 81.9295 124.422 82.3939 124.02C82.8582 123.618 83.2076 123.1 83.4063 122.519L88.7686 107C88.9985 106.333 89.4255 105.752 89.9933 105.333C90.561 104.915 91.2426 104.678 91.9477 104.656L108.361 104.183C108.976 104.168 109.576 103.99 110.1 103.666C110.623 103.343 111.051 102.886 111.34 102.343C111.629 101.8 111.768 101.19 111.744 100.575C111.719 99.9606 111.532 99.3635 111.2 98.8451V98.8451Z" fill="#FFFBDC"/>
<path d="M40.4141 109.694C42.163 109.151 43.8683 108.476 45.5155 107.676C51.7003 104.663 56.8869 99.9328 60.4556 94.0509C60.6614 93.7706 60.8064 93.4504 60.8815 93.1108C60.9565 92.7712 60.9599 92.4197 60.8913 92.0787C60.8228 91.7378 60.6838 91.4149 60.4834 91.1306C60.283 90.8464 60.0254 90.6072 59.7273 90.4281C59.4291 90.2491 59.0969 90.1343 58.7518 90.0909C58.4067 90.0476 58.0564 90.0768 57.7232 90.1765C57.3901 90.2763 57.0814 90.4445 56.8169 90.6703C56.5524 90.8961 56.338 91.1747 56.1873 91.4881C53.0938 96.5277 48.6398 100.591 43.3381 103.21C38.0956 105.759 32.2379 106.769 26.4445 106.124C25.7846 106.051 25.1226 106.242 24.6041 106.657C24.0855 107.072 23.753 107.675 23.6795 108.335C23.6061 108.995 23.7978 109.657 24.2125 110.176C24.6271 110.694 25.2308 111.027 25.8907 111.1C30.777 111.628 35.7197 111.149 40.4141 109.694V109.694Z" fill="url(#paint0_linear_31_2)"/>
<path d="M105.967 142.691C106.426 142.551 106.835 142.281 107.145 141.914C107.455 141.547 107.652 141.099 107.714 140.623C107.935 139.011 107.867 137.373 107.515 135.785C106.674 132.12 101.2 126.979 91.2692 120.494C84.719 116.24 79.7276 108.803 76.4894 98.406C76.2892 97.7765 75.8489 97.2514 75.264 96.9445C74.6792 96.6375 73.9969 96.5735 73.3651 96.7662V96.7662C73.0519 96.8631 72.761 97.0209 72.5089 97.2306C72.2569 97.4402 72.0487 97.6976 71.8963 97.9878C71.744 98.2781 71.6505 98.5956 71.6211 98.9222C71.5918 99.2487 71.6272 99.5778 71.7254 99.8906C75.2962 111.431 81.0147 119.763 88.5562 124.683C97.7353 130.667 102.248 135.102 102.684 136.882C102.91 137.901 102.951 138.952 102.806 139.985C102.763 140.311 102.785 140.642 102.871 140.959C102.957 141.276 103.105 141.573 103.306 141.833C103.507 142.093 103.757 142.31 104.043 142.473C104.328 142.636 104.643 142.74 104.969 142.78C105.304 142.823 105.645 142.793 105.967 142.691V142.691Z" fill="url(#paint1_linear_31_2)"/>
<path d="M123.482 105.01C123.918 104.873 124.31 104.621 124.617 104.282C124.836 104.035 125.004 103.748 125.111 103.436C125.218 103.124 125.262 102.793 125.241 102.464C125.22 102.135 125.134 101.813 124.988 101.518C124.842 101.222 124.639 100.958 124.39 100.741C124.201 100.569 124.007 100.347 123.775 100.104C122.5 98.4401 120.683 97.2731 118.64 96.8049C114.151 96.1003 110.709 98.7459 107.939 100.89C106.247 102.189 104.694 103.392 103.283 103.671C99.2054 104.43 93.1352 99.1906 86.1557 88.9145C85.7698 88.4054 85.2036 88.0633 84.5734 87.9585C83.9432 87.8537 83.2968 87.9942 82.7669 88.351C82.237 88.7079 81.8638 89.2541 81.724 89.8775C81.5842 90.5008 81.6883 91.1541 82.015 91.7031C90.4914 104.28 97.7383 109.804 104.167 108.59C106.771 108.108 108.907 106.453 110.966 104.853C113.372 102.988 115.457 101.37 117.805 101.753C118.715 102.096 119.503 102.701 120.07 103.491C120.382 103.847 120.713 104.184 121.063 104.502C121.387 104.79 121.781 104.988 122.205 105.077C122.629 105.167 123.069 105.143 123.482 105.01V105.01Z" fill="url(#paint2_linear_31_2)"/>
<path d="M90.4474 107.182L79.3785 102.872C78.9033 102.685 78.3822 102.648 77.8855 102.766C77.3887 102.884 76.94 103.152 76.5997 103.532L68.6587 112.375C68.3625 112.705 67.9839 112.951 67.5616 113.088C67.1393 113.224 66.6884 113.246 66.2549 113.152C65.8213 113.057 65.4205 112.849 65.0935 112.549C64.7664 112.249 64.5247 111.868 64.393 111.444L60.8813 100.095C60.7301 99.607 60.4334 99.1766 60.031 98.8616C59.6286 98.5465 59.1397 98.3618 58.6295 98.3321L46.6782 97.665C46.235 97.6379 45.8068 97.4941 45.437 97.2483C45.0672 97.0024 44.769 96.6632 44.5725 96.265C44.3759 95.8668 44.2881 95.4238 44.3179 94.9807C44.3477 94.5377 44.494 94.1104 44.7421 93.742L51.414 83.9105C51.6979 83.4866 51.8464 82.9865 51.84 82.4764C51.8335 81.9662 51.6724 81.4701 51.3779 81.0535L44.5316 71.3433C44.2747 70.9811 44.1185 70.5573 44.0789 70.115C44.0393 69.6727 44.1177 69.2278 44.3062 68.8258C44.4947 68.4237 44.7864 68.0788 45.1517 67.8263C45.517 67.5739 45.9427 67.4228 46.3854 67.3886L58.2702 66.4537C58.7793 66.4138 59.2641 66.2196 59.6599 65.897C60.0557 65.5744 60.3437 65.1387 60.4855 64.6482L63.8009 53.2383C63.9241 52.8113 64.1585 52.4247 64.4801 52.118C64.8017 51.8113 65.1989 51.5955 65.6312 51.4926C66.0636 51.3897 66.5154 51.4034 66.9407 51.5324C67.366 51.6613 67.7494 51.9008 68.0518 52.2265L76.1316 60.9164C76.4814 61.2885 76.9357 61.5461 77.4347 61.6551C77.9336 61.7641 78.4539 61.7196 78.9271 61.5274L89.9319 56.9707C90.3429 56.8024 90.7909 56.7457 91.2308 56.8063C91.6707 56.8669 92.0868 57.0426 92.4369 57.3157C92.7871 57.5888 93.0588 57.9496 93.2247 58.3615C93.3905 58.7734 93.4446 59.2218 93.3814 59.6613L91.6465 71.4091C91.5687 71.9157 91.6484 72.4341 91.8749 72.8938C92.1014 73.3536 92.4638 73.7327 92.913 73.9796L103.292 79.7494C103.682 79.964 104.008 80.2783 104.236 80.6601C104.464 81.042 104.587 81.4777 104.591 81.9225C104.596 82.3674 104.482 82.8054 104.262 83.1919C104.041 83.5783 103.722 83.8991 103.337 84.1216L93.0723 90.124C92.6302 90.3787 92.277 90.763 92.0605 91.2251C91.844 91.6871 91.7746 92.2045 91.8619 92.7073L93.7839 104.433C93.8487 104.864 93.8008 105.304 93.6449 105.71C93.489 106.117 93.2304 106.476 92.8944 106.753C92.5584 107.03 92.1564 107.215 91.7275 107.29C91.2987 107.365 90.8576 107.328 90.4474 107.182V107.182Z" fill="url(#paint3_linear_31_2)"/>
<path d="M76.0595 93.8704C83.0325 54.5312 111.735 1.21424 111.735 1.21424C96.7526 2.18639 75.0834 59.6602 72.9146 70.4117C70.7458 81.1633 76.0595 93.8704 76.0595 93.8704Z" fill="url(#paint4_linear_31_2)"/>
<path d="M76.0595 93.8704C100.257 84.5198 105.775 59.019 105.775 59.019L94.6409 56.864L108.65 50.7182C108.65 50.7182 121.514 7.98626 111.735 1.21423C111.735 1.21423 83.0325 54.5312 76.0595 93.8704Z" fill="url(#paint5_linear_31_2)"/>
<path d="M69.6374 123.116L70.998 122.946C71.2101 121.331 71.5028 119.503 71.8741 117.692C72.0206 116.917 72.3481 116.188 72.8299 115.565C73.3118 114.941 73.9344 114.44 74.6468 114.102C75.7481 105.519 77.3053 97.0004 79.3118 88.5827C85.2457 63.4767 92.5484 42.9298 101.055 27.5268C101.311 27.0618 101.372 26.5141 101.224 26.0043C101.076 25.4945 100.732 25.0644 100.267 24.8085C99.8016 24.5527 99.2539 24.492 98.7442 24.6399C98.2344 24.7879 97.8042 25.1322 97.5484 25.5973C88.908 41.3137 81.4397 62.2049 75.3836 87.6942C72.6188 99.3478 70.6984 111.186 69.6374 123.116V123.116Z" fill="url(#paint6_linear_31_2)"/>
<path d="M73.9994 100.338C81.3672 99.9952 88.1194 98.1361 92.647 95.4476C95.5403 93.7359 97.5332 91.6851 98.2091 89.5394C99.1146 86.5795 97.6137 83.5896 94.1426 81.1674C93.0293 82.4506 91.8444 83.67 90.5936 84.8197C92.4702 85.9452 93.689 87.2116 93.4212 88.0376C92.7418 90.3414 85.3637 94.8122 73.7724 95.3422C73.1098 95.3723 72.4864 95.6644 72.0392 96.1542C71.592 96.6439 71.3577 97.2913 71.3878 97.9538C71.4179 98.6163 71.71 99.2398 72.1997 99.687C72.6895 100.134 73.3368 100.368 73.9994 100.338V100.338Z" fill="url(#paint7_linear_31_2)"/>
<path d="M67.6719 88.1438C66.7961 88.4148 65.8664 87.9245 65.5954 87.0487C65.3244 86.1729 65.8147 85.2432 66.6906 84.9722C67.5664 84.7012 68.4961 85.1915 68.7671 86.0673C69.0381 86.9432 68.5478 87.8728 67.6719 88.1438Z" fill="#3C3C3B"/>
<path d="M64.1625 92.1607C64.4138 92.5244 64.7993 92.7733 65.2342 92.8527C65.669 92.9321 66.1176 92.8355 66.4813 92.5842C66.8449 92.3329 67.0939 91.9474 67.1733 91.5125C67.2527 91.0776 67.1561 90.629 66.9048 90.2654L64.1625 92.1607Z" fill="#3C3C3B" stroke="#3C3C3B" stroke-linecap="round" stroke-linejoin="round"/>
<path d="M58.5637 90.7109L61.3632 90.5565L59.9205 92.7615" stroke="#3C3C3B" stroke-linecap="round" stroke-linejoin="round"/>
<defs>
<linearGradient id="paint0_linear_31_2" x1="28.505" y1="112.919" x2="76.8221" y2="74.447" gradientUnits="userSpaceOnUse">
<stop stop-color="#FFF4AD"/>
<stop offset="0.81" stop-color="#F9B233"/>
</linearGradient>
<linearGradient id="paint1_linear_31_2" x1="101.64" y1="128.266" x2="73.5363" y2="108.28" gradientUnits="userSpaceOnUse">
<stop stop-color="#FFF4AD"/>
<stop offset="0.81" stop-color="#F9B233"/>
</linearGradient>
<linearGradient id="paint2_linear_31_2" x1="114.785" y1="107.555" x2="92.9432" y2="89.3684" gradientUnits="userSpaceOnUse">
<stop stop-color="#FFF4AD"/>
<stop offset="0.81" stop-color="#F9B233"/>
</linearGradient>
<linearGradient id="paint3_linear_31_2" x1="49.1242" y1="69.6191" x2="102.548" y2="98.4442" gradientUnits="userSpaceOnUse">
<stop stop-color="#FFF4AD"/>
<stop offset="0.81" stop-color="#F9B233"/>
</linearGradient>
<linearGradient id="paint4_linear_31_2" x1="123.234" y1="38.3759" x2="64.3672" y2="56.5907" gradientUnits="userSpaceOnUse">
<stop stop-color="#4A9ABA"/>
<stop offset="1" stop-color="#FBE5CF"/>
</linearGradient>
<linearGradient id="paint5_linear_31_2" x1="124.54" y1="38.0658" x2="64.5371" y2="56.6323" gradientUnits="userSpaceOnUse">
<stop stop-color="#578AC8"/>
<stop offset="1" stop-color="#BCE4FA"/>
</linearGradient>
<linearGradient id="paint6_linear_31_2" x1="113.291" y1="65.0049" x2="57.0419" y2="82.4098" gradientUnits="userSpaceOnUse">
<stop stop-color="#26224F"/>
<stop offset="1" stop-color="#3D93B5"/>
</linearGradient>
<linearGradient id="paint7_linear_31_2" x1="84.7147" y1="97.7555" x2="85.5597" y2="77.4483" gradientUnits="userSpaceOnUse">
<stop stop-color="#FFF4AD"/>
<stop offset="1" stop-color="#F9B233"/>
</linearGradient>
</defs>
</svg>
