<svg width="62" height="42" viewBox="0 0 62 42" fill="none" xmlns="http://www.w3.org/2000/svg">
<path opacity="0.2" d="M55.5665 20.5354C58.8112 16.4617 58.1391 10.5289 54.0654 7.28413C49.9916 4.0394 44.0588 4.71147 40.8141 8.78522C37.5694 12.859 38.2414 18.7918 42.3152 22.0365C46.3889 25.2812 52.3217 24.6092 55.5665 20.5354Z" fill="url(#paint0_linear_7_29)"/>
<path opacity="0.2" d="M52.9852 18.4794C55.0944 15.8313 54.6576 11.9747 52.0094 9.86541C49.3612 7.75616 45.5046 8.19304 43.3954 10.8412C41.2861 13.4894 41.723 17.346 44.3712 19.4552C47.0193 21.5645 50.8759 21.1276 52.9852 18.4794Z" fill="url(#paint1_linear_7_29)"/>
<path d="M45.1872 11.8337L47.8217 12.4747C47.905 12.4915 47.9916 12.4792 48.0668 12.4398L50.499 11.232C50.562 11.2008 50.6326 11.1882 50.7025 11.1957C50.7724 11.2032 50.8387 11.2304 50.8937 11.2742C50.9487 11.318 50.9901 11.3766 51.013 11.443C51.0359 11.5095 51.0394 11.5811 51.0231 11.6495L50.3822 14.2839C50.3631 14.3691 50.3732 14.4581 50.4108 14.5369L51.6248 16.9612C51.656 17.0242 51.6686 17.0948 51.6611 17.1647C51.6536 17.2346 51.6264 17.3009 51.5826 17.3559C51.5388 17.4109 51.4803 17.4523 51.4138 17.4752C51.3474 17.4981 51.2757 17.5016 51.2074 17.4853L48.5978 16.8131C48.5156 16.7915 48.4285 16.7988 48.3511 16.8339L45.8956 18.087C45.8326 18.1182 45.762 18.1308 45.6921 18.1233C45.6222 18.1159 45.5559 18.0886 45.5009 18.0448C45.4459 18.001 45.4046 17.9425 45.3816 17.876C45.3587 17.8096 45.3552 17.738 45.3715 17.6696L46.0437 15.06C46.0621 15.0093 46.0685 14.955 46.0625 14.9014C46.0564 14.8477 46.038 14.7962 46.0087 14.7509L44.7698 12.3578C44.7386 12.2948 44.726 12.2242 44.7335 12.1543C44.741 12.0844 44.7682 12.0181 44.812 11.9631C44.8558 11.9081 44.9143 11.8668 44.9808 11.8439C45.0473 11.8209 45.1189 11.8174 45.1872 11.8337Z" fill="white"/>
<path opacity="0.2" d="M22.322 30.1723C24.9646 26.8545 24.4172 22.0227 21.0995 19.3801C17.7817 16.7375 12.9499 17.2849 10.3073 20.6026C7.66477 23.9204 8.21211 28.7522 11.5299 31.3948C14.8476 34.0374 19.6794 33.49 22.322 30.1723Z" fill="url(#paint2_linear_7_29)"/>
<path opacity="0.2" d="M25.0597 32.3528C28.9066 27.5231 28.1098 20.4893 23.2801 16.6424C18.4503 12.7955 11.4165 13.5923 7.56963 18.4221C3.72276 23.2518 4.51954 30.2856 9.34929 34.1325C14.179 37.9794 21.2128 37.1826 25.0597 32.3528Z" fill="url(#paint3_linear_7_29)"/>
<path d="M19.6144 30.3936L17.4636 29.4986C17.3715 29.4588 17.2695 29.4482 17.1712 29.4683C17.0729 29.4883 16.9832 29.538 16.9141 29.6107L15.32 31.307C15.26 31.3704 15.1844 31.4169 15.1007 31.442C15.0171 31.467 14.9283 31.4698 14.8433 31.4499C14.7583 31.43 14.68 31.3882 14.6161 31.3287C14.5523 31.2691 14.5051 31.1939 14.4794 31.1105L13.8483 28.8692C13.8185 28.7739 13.7608 28.6898 13.6827 28.6276C13.6047 28.5655 13.5098 28.5281 13.4103 28.5203L11.0829 28.3285C10.9968 28.32 10.9143 28.2893 10.8436 28.2394C10.773 28.1895 10.7164 28.1221 10.6796 28.0438C10.6427 27.9655 10.6269 27.8789 10.6335 27.7926C10.6401 27.7064 10.669 27.6233 10.7173 27.5515L12.0517 25.6355C12.1107 25.5525 12.143 25.4534 12.1442 25.3515C12.1453 25.2497 12.1154 25.1498 12.0582 25.0655L10.7579 23.1348C10.711 23.062 10.6838 22.9783 10.6791 22.8918C10.6743 22.8053 10.692 22.7191 10.7306 22.6415C10.7692 22.564 10.8272 22.4978 10.899 22.4494C10.9709 22.4011 11.0541 22.3722 11.1404 22.3656L13.4749 22.2435C13.5744 22.239 13.6699 22.2038 13.7484 22.1426C13.8269 22.0814 13.8844 21.9974 13.9131 21.9021L14.622 19.6798C14.6479 19.597 14.6952 19.5226 14.7592 19.4641C14.8233 19.4056 14.9017 19.3652 14.9864 19.3469C15.0712 19.3286 15.1593 19.3332 15.2417 19.3601C15.3241 19.3869 15.3979 19.4352 15.4556 19.5L17.0117 21.238C17.0765 21.3121 17.1626 21.3644 17.2582 21.388C17.3538 21.4115 17.4543 21.4051 17.5461 21.3696L19.7151 20.5403C19.7962 20.5062 19.885 20.4946 19.9721 20.5066C20.0593 20.5187 20.1416 20.5539 20.2104 20.6087C20.2792 20.6635 20.332 20.7359 20.3632 20.8181C20.3944 20.9003 20.4029 20.9895 20.3878 21.0761L20.0257 23.3446C20.007 23.4431 20.0197 23.5449 20.0619 23.6359C20.1041 23.7268 20.1738 23.8023 20.261 23.8516L22.2657 25.0264C22.343 25.0693 22.4072 25.1322 22.4517 25.2085C22.4961 25.2849 22.5191 25.3719 22.5182 25.4602C22.5172 25.5485 22.4924 25.635 22.4464 25.7104C22.4004 25.7858 22.3348 25.8474 22.2566 25.8885L20.2131 27.0096C20.1267 27.06 20.057 27.1348 20.0128 27.2246C19.9685 27.3144 19.9517 27.4152 19.9643 27.5145L20.3035 29.8174C20.3258 29.9082 20.3223 30.0036 20.2931 30.0925C20.264 30.1814 20.2105 30.2604 20.1387 30.3204C20.0669 30.3805 19.9797 30.4192 19.887 30.4321C19.7944 30.445 19.6999 30.4317 19.6144 30.3936Z" fill="url(#paint4_linear_7_29)"/>
<path opacity="0.2" d="M20.1473 15.2466C22.728 12.0067 22.1935 7.28809 18.9535 4.70745C15.7135 2.12681 10.9949 2.66132 8.41427 5.90132C5.83363 9.14132 6.36814 13.8599 9.60814 16.4405C12.8481 19.0212 17.5667 18.4866 20.1473 15.2466Z" fill="url(#paint5_linear_7_29)"/>
<path opacity="0.2" d="M18.0944 13.6115C19.7719 11.5053 19.4245 8.43799 17.3183 6.76043C15.2121 5.08288 12.1448 5.43034 10.4673 7.53651C8.7897 9.64268 9.13716 12.71 11.2433 14.3875C13.3495 16.0651 16.4168 15.7176 18.0944 13.6115Z" fill="url(#paint6_linear_7_29)"/>
<path d="M11.8924 8.32591L13.9877 8.83566C14.0539 8.84908 14.1228 8.83928 14.1826 8.80792L16.117 7.84736C16.1671 7.82255 16.2233 7.81253 16.2789 7.81847C16.3345 7.82441 16.3872 7.84606 16.4309 7.88089C16.4747 7.91573 16.5076 7.9623 16.5258 8.01515C16.544 8.06801 16.5468 8.12496 16.5338 8.17935L16.0241 10.2746C16.009 10.3423 16.017 10.4132 16.0469 10.4758L17.0124 12.404C17.0372 12.4541 17.0472 12.5102 17.0413 12.5658C17.0353 12.6214 17.0137 12.6741 16.9789 12.7179C16.944 12.7616 16.8975 12.7945 16.8446 12.8127C16.7917 12.831 16.7348 12.8338 16.6804 12.8208L14.6049 12.2862C14.5396 12.269 14.4703 12.2748 14.4087 12.3027L12.4558 13.2993C12.4057 13.3242 12.3495 13.3342 12.294 13.3282C12.2384 13.3223 12.1856 13.3006 12.1419 13.2658C12.0981 13.231 12.0652 13.1844 12.047 13.1315C12.0288 13.0787 12.026 13.0217 12.039 12.9674L12.5736 10.8919C12.5882 10.8515 12.5933 10.8083 12.5885 10.7657C12.5837 10.723 12.569 10.6821 12.5458 10.646L11.5604 8.74273C11.5356 8.69263 11.5256 8.63649 11.5315 8.5809C11.5375 8.5253 11.5591 8.47255 11.5939 8.42882C11.6288 8.38509 11.6754 8.35218 11.7282 8.33396C11.7811 8.31573 11.838 8.31294 11.8924 8.32591Z" fill="white"/>
<defs>
<linearGradient id="paint0_linear_7_29" x1="42.7333" y1="15.9901" x2="59.1262" y2="12.0054" gradientUnits="userSpaceOnUse">
<stop stop-color="#FCFAED"/>
<stop offset="1" stop-color="#FDFEFF"/>
</linearGradient>
<linearGradient id="paint1_linear_7_29" x1="44.6438" y1="15.5175" x2="55.2894" y2="12.9381" gradientUnits="userSpaceOnUse">
<stop stop-color="#FCFAED"/>
<stop offset="1" stop-color="#FDFEFF"/>
</linearGradient>
<linearGradient id="paint2_linear_7_29" x1="11.8613" y1="26.4683" x2="25.2011" y2="23.2351" gradientUnits="userSpaceOnUse">
<stop stop-color="#FCFAED"/>
<stop offset="1" stop-color="#FDFEFF"/>
</linearGradient>
<linearGradient id="paint3_linear_7_29" x1="9.83214" y1="26.9615" x2="29.2454" y2="22.2503" gradientUnits="userSpaceOnUse">
<stop stop-color="#FCFAED"/>
<stop offset="1" stop-color="#FDFEFF"/>
</linearGradient>
<linearGradient id="paint4_linear_7_29" x1="12.8396" y1="25.6481" x2="23.5614" y2="24.497" gradientUnits="userSpaceOnUse">
<stop stop-color="#FCFAED"/>
<stop offset="1" stop-color="#FDFEFF"/>
</linearGradient>
<linearGradient id="paint5_linear_7_29" x1="9.94066" y1="11.6316" x2="22.9785" y2="8.46242" gradientUnits="userSpaceOnUse">
<stop stop-color="#FCFAED"/>
<stop offset="1" stop-color="#FDFEFF"/>
</linearGradient>
<linearGradient id="paint6_linear_7_29" x1="11.4602" y1="11.2557" x2="19.927" y2="9.20428" gradientUnits="userSpaceOnUse">
<stop stop-color="#FCFAED"/>
<stop offset="1" stop-color="#FDFEFF"/>
</linearGradient>
</defs>
</svg>
