<svg width="134" height="118" viewBox="0 0 134 118" fill="none" xmlns="http://www.w3.org/2000/svg">
<g clip-path="url(#clip0_6_28)">
<path opacity="0.2" d="M122.18 18.86C126.422 18.86 129.86 15.4215 129.86 11.18C129.86 6.93845 126.422 3.5 122.18 3.5C117.938 3.5 114.5 6.93845 114.5 11.18C114.5 15.4215 117.938 18.86 122.18 18.86Z" fill="url(#paint0_linear_6_28)"/>
<path opacity="0.2" d="M122.18 22.36C128.355 22.36 133.36 17.3545 133.36 11.18C133.36 5.00546 128.355 0 122.18 0C116.005 0 111 5.00546 111 11.18C111 17.3545 116.005 22.36 122.18 22.36Z" fill="url(#paint1_linear_6_28)"/>
<path d="M120.32 16.88L119.68 14.64C119.654 14.5432 119.598 14.4568 119.522 14.3924C119.445 14.328 119.35 14.2888 119.25 14.28L116.93 14.09C116.843 14.0825 116.76 14.0523 116.688 14.0025C116.616 13.9527 116.559 13.885 116.521 13.8061C116.484 13.7273 116.468 13.6399 116.475 13.5529C116.481 13.4659 116.511 13.3821 116.56 13.31L117.92 11.42C117.976 11.3373 118.006 11.2398 118.006 11.14C118.006 11.0402 117.976 10.9427 117.92 10.86L116.62 8.91999C116.573 8.84734 116.546 8.76372 116.541 8.67733C116.536 8.59094 116.553 8.50473 116.591 8.42713C116.63 8.34953 116.688 8.2832 116.759 8.23462C116.831 8.18604 116.914 8.15688 117 8.14999L119.33 7.99999C119.432 7.99445 119.529 7.95796 119.61 7.89541C119.69 7.83286 119.75 7.74723 119.78 7.64999L120.48 5.42999C120.508 5.34796 120.556 5.27454 120.621 5.21693C120.686 5.15931 120.764 5.11949 120.849 5.10134C120.934 5.08319 121.021 5.08735 121.104 5.11341C121.187 5.13947 121.261 5.18653 121.32 5.24999L122.87 6.99999C122.935 7.07496 123.023 7.12774 123.119 7.15103C123.216 7.17432 123.318 7.16697 123.41 7.12999L125.59 6.29999C125.671 6.26865 125.759 6.25933 125.844 6.27297C125.93 6.28661 126.01 6.32272 126.077 6.37763C126.144 6.43253 126.196 6.50426 126.226 6.58549C126.256 6.66672 126.265 6.75454 126.25 6.83999L125.86 9.13999C125.842 9.23686 125.855 9.33679 125.896 9.42623C125.937 9.51567 126.005 9.5903 126.09 9.63999L128.09 10.82C128.167 10.8622 128.232 10.9244 128.276 11C128.321 11.0757 128.345 11.162 128.345 11.25C128.345 11.338 128.321 11.4243 128.276 11.5C128.232 11.5756 128.167 11.6378 128.09 11.68L126.09 12.81C126.001 12.8568 125.93 12.9302 125.885 13.0198C125.84 13.1095 125.824 13.211 125.84 13.31L126.17 15.61C126.185 15.6971 126.175 15.7866 126.143 15.8689C126.111 15.9513 126.058 16.0234 125.988 16.0777C125.918 16.132 125.835 16.1665 125.748 16.1775C125.66 16.1884 125.571 16.1755 125.49 16.14L123.34 15.24C123.247 15.2038 123.145 15.1959 123.047 15.2172C122.949 15.2386 122.86 15.2882 122.79 15.36L121.2 17.06C121.143 17.1341 121.066 17.1907 120.978 17.2233C120.891 17.2559 120.796 17.2633 120.704 17.2445C120.612 17.2258 120.528 17.1817 120.46 17.1172C120.392 17.0528 120.343 16.9706 120.32 16.88Z" fill="url(#paint2_linear_6_28)"/>
</g>
<g clip-path="url(#clip1_6_28)">
<path opacity="0.2" d="M11.18 89.86C15.4215 89.86 18.86 86.4215 18.86 82.18C18.86 77.9385 15.4215 74.5 11.18 74.5C6.93845 74.5 3.5 77.9385 3.5 82.18C3.5 86.4215 6.93845 89.86 11.18 89.86Z" fill="url(#paint3_linear_6_28)"/>
<path opacity="0.2" d="M11.18 93.36C17.3545 93.36 22.36 88.3545 22.36 82.18C22.36 76.0055 17.3545 71 11.18 71C5.00546 71 0 76.0055 0 82.18C0 88.3545 5.00546 93.36 11.18 93.36Z" fill="url(#paint4_linear_6_28)"/>
<path d="M9.32 87.88L8.68 85.64C8.65378 85.5432 8.59849 85.4568 8.52159 85.3924C8.4447 85.328 8.3499 85.2888 8.25 85.28L5.93 85.09C5.84301 85.0825 5.75951 85.0523 5.68779 85.0025C5.61608 84.9527 5.55866 84.885 5.52124 84.8061C5.48382 84.7273 5.46771 84.6399 5.47451 84.5529C5.48131 84.4659 5.51078 84.3821 5.56 84.31L6.92 82.42C6.97589 82.3373 7.00575 82.2398 7.00575 82.14C7.00575 82.0402 6.97589 81.9427 6.92 81.86L5.62 79.92C5.573 79.8473 5.54565 79.7637 5.54065 79.6773C5.53564 79.5909 5.55314 79.5047 5.59144 79.4271C5.62973 79.3495 5.68751 79.2832 5.75913 79.2346C5.83074 79.186 5.91374 79.1569 6 79.15L8.33 79C8.43173 78.9944 8.52935 78.958 8.60977 78.8954C8.69019 78.8329 8.74958 78.7472 8.78 78.65L9.48 76.43C9.50776 76.348 9.55634 76.2745 9.621 76.2169C9.68566 76.1593 9.76418 76.1195 9.84886 76.1013C9.93354 76.0832 10.0215 76.0874 10.1041 76.1134C10.1867 76.1395 10.2611 76.1865 10.32 76.25L11.87 78C11.9354 78.075 12.0225 78.1277 12.1193 78.151C12.216 78.1743 12.3176 78.167 12.41 78.13L14.59 77.3C14.6708 77.2687 14.7586 77.2593 14.8442 77.273C14.9298 77.2866 15.0103 77.3227 15.0774 77.3776C15.1445 77.4325 15.1958 77.5043 15.2262 77.5855C15.2565 77.6667 15.2647 77.7545 15.25 77.84L14.86 80.14C14.8424 80.2369 14.8551 80.3368 14.8962 80.4262C14.9374 80.5157 15.005 80.5903 15.09 80.64L17.09 81.82C17.1672 81.8622 17.2316 81.9244 17.2765 82C17.3214 82.0757 17.3451 82.162 17.3451 82.25C17.3451 82.338 17.3214 82.4243 17.2765 82.5C17.2316 82.5756 17.1672 82.6378 17.09 82.68L15.09 83.81C15.0013 83.8568 14.9295 83.9302 14.8847 84.0198C14.8399 84.1095 14.8242 84.211 14.84 84.31L15.17 86.61C15.1846 86.6971 15.1755 86.7866 15.1434 86.8689C15.1114 86.9513 15.0577 87.0234 14.988 87.0777C14.9183 87.132 14.8352 87.1665 14.7476 87.1775C14.6599 87.1884 14.5709 87.1755 14.49 87.14L12.34 86.24C12.2467 86.2038 12.1447 86.1959 12.0469 86.2172C11.9491 86.2386 11.8598 86.2882 11.79 86.36L10.2 88.06C10.1429 88.1341 10.0661 88.1907 9.97835 88.2233C9.89064 88.2559 9.79553 88.2633 9.70384 88.2445C9.61216 88.2258 9.52758 88.1817 9.45972 88.1172C9.39186 88.0528 9.34345 87.9706 9.32 87.88Z" fill="url(#paint5_linear_6_28)"/>
</g>
<path opacity="0.2" d="M60.43 40.86C65.638 40.86 69.86 36.638 69.86 31.43C69.86 26.222 65.638 22 60.43 22C55.222 22 51 26.222 51 31.43C51 36.638 55.222 40.86 60.43 40.86Z" fill="url(#paint6_linear_6_28)"/>
<path opacity="0.2" d="M60.43 37.56C63.8155 37.56 66.56 34.8155 66.56 31.43C66.56 28.0445 63.8155 25.3 60.43 25.3C57.0445 25.3 54.3 28.0445 54.3 31.43C54.3 34.8155 57.0445 37.56 60.43 37.56Z" fill="url(#paint7_linear_6_28)"/>
<path d="M60.77 27.32L61.91 29.78C61.9487 29.8557 62.0123 29.9157 62.09 29.95L64.55 31.1C64.6137 31.1298 64.6675 31.1772 64.7052 31.2365C64.7429 31.2959 64.7629 31.3647 64.7629 31.435C64.7629 31.5053 64.7429 31.5741 64.7052 31.6335C64.6675 31.6928 64.6137 31.7402 64.55 31.77L62.09 32.91C62.0116 32.9482 61.9482 33.0116 61.91 33.09L60.77 35.55C60.7402 35.6137 60.6928 35.6675 60.6335 35.7052C60.5741 35.7429 60.5053 35.7629 60.435 35.7629C60.3647 35.7629 60.2959 35.7429 60.2365 35.7052C60.1772 35.6675 60.1298 35.6137 60.1 35.55L59 33.09C58.9657 33.0123 58.9057 32.9487 58.83 32.91L56.32 31.77C56.2564 31.7402 56.2025 31.6928 56.1648 31.6335C56.1271 31.5741 56.1071 31.5053 56.1071 31.435C56.1071 31.3647 56.1271 31.2959 56.1648 31.2365C56.2025 31.1772 56.2564 31.1298 56.32 31.1L58.78 30C58.8312 29.9828 58.8776 29.954 58.9158 29.9158C58.954 29.8776 58.9828 29.8312 59 29.78L60.1 27.32C60.1298 27.2564 60.1772 27.2025 60.2365 27.1648C60.2959 27.1271 60.3647 27.1071 60.435 27.1071C60.5053 27.1071 60.5741 27.1271 60.6335 27.1648C60.6928 27.2025 60.7402 27.2564 60.77 27.32Z" fill="white"/>
<path opacity="0.2" d="M64.5 98C68.0899 98 71 95.0899 71 91.5C71 87.9101 68.0899 85 64.5 85C60.9101 85 58 87.9101 58 91.5C58 95.0899 60.9101 98 64.5 98Z" fill="url(#paint8_linear_6_28)"/>
<path opacity="0.2" d="M64.5 95.7253C66.8336 95.7253 68.7253 93.8336 68.7253 91.5C68.7253 89.1664 66.8336 87.2747 64.5 87.2747C62.1664 87.2747 60.2747 89.1664 60.2747 91.5C60.2747 93.8336 62.1664 95.7253 64.5 95.7253Z" fill="url(#paint9_linear_6_28)"/>
<path d="M64.7344 88.667L65.5202 90.3627C65.5468 90.4148 65.5906 90.4562 65.6442 90.4799L67.3399 91.2725C67.3837 91.2931 67.4209 91.3258 67.4468 91.3666C67.4728 91.4075 67.4866 91.455 67.4866 91.5035C67.4866 91.5519 67.4728 91.5994 67.4468 91.6403C67.4209 91.6811 67.3837 91.7138 67.3399 91.7344L65.6442 92.5202C65.5902 92.5465 65.5465 92.5902 65.5202 92.6442L64.7344 94.3399C64.7138 94.3837 64.6811 94.4209 64.6403 94.4468C64.5994 94.4728 64.5519 94.4866 64.5035 94.4866C64.455 94.4866 64.4075 94.4728 64.3666 94.4468C64.3258 94.4209 64.2931 94.3837 64.2725 94.3399L63.5143 92.6442C63.4907 92.5906 63.4493 92.5468 63.3971 92.5202L61.667 91.7344C61.6232 91.7138 61.5861 91.6811 61.5601 91.6403C61.5341 91.5994 61.5203 91.5519 61.5203 91.5035C61.5203 91.455 61.5341 91.4075 61.5601 91.3666C61.5861 91.3258 61.6232 91.2931 61.667 91.2725L63.3627 90.5143C63.3979 90.5024 63.43 90.4826 63.4563 90.4563C63.4826 90.43 63.5024 90.3979 63.5143 90.3627L64.2725 88.667C64.2931 88.6232 64.3258 88.5861 64.3666 88.5601C64.4075 88.5341 64.455 88.5203 64.5035 88.5203C64.5519 88.5203 64.5994 88.5341 64.6403 88.5601C64.6811 88.5861 64.7138 88.6232 64.7344 88.667Z" fill="white"/>
<path opacity="0.2" d="M18.5 103C22.0899 103 25 100.09 25 96.5C25 92.9101 22.0899 90 18.5 90C14.9101 90 12 92.9101 12 96.5C12 100.09 14.9101 103 18.5 103Z" fill="url(#paint10_linear_6_28)"/>
<path opacity="0.2" d="M18.5 100.725C20.8336 100.725 22.7253 98.8336 22.7253 96.5C22.7253 94.1664 20.8336 92.2747 18.5 92.2747C16.1664 92.2747 14.2747 94.1664 14.2747 96.5C14.2747 98.8336 16.1664 100.725 18.5 100.725Z" fill="url(#paint11_linear_6_28)"/>
<path d="M18.7344 93.667L19.5201 95.3627C19.5468 95.4148 19.5906 95.4562 19.6442 95.4799L21.3399 96.2725C21.3837 96.2931 21.4208 96.3258 21.4468 96.3666C21.4728 96.4075 21.4866 96.455 21.4866 96.5035C21.4866 96.5519 21.4728 96.5994 21.4468 96.6403C21.4208 96.6811 21.3837 96.7138 21.3399 96.7344L19.6442 97.5202C19.5902 97.5465 19.5465 97.5902 19.5201 97.6442L18.7344 99.3399C18.7138 99.3837 18.6811 99.4209 18.6402 99.4468C18.5994 99.4728 18.5519 99.4866 18.5034 99.4866C18.455 99.4866 18.4075 99.4728 18.3666 99.4468C18.3258 99.4209 18.2931 99.3837 18.2725 99.3399L17.5143 97.6442C17.4907 97.5906 17.4493 97.5468 17.3971 97.5202L15.667 96.7344C15.6231 96.7138 15.586 96.6811 15.5601 96.6403C15.5341 96.5994 15.5203 96.5519 15.5203 96.5035C15.5203 96.455 15.5341 96.4075 15.5601 96.3666C15.586 96.3258 15.6231 96.2931 15.667 96.2725L17.3627 95.5143C17.3979 95.5024 17.43 95.4826 17.4563 95.4563C17.4826 95.43 17.5024 95.3979 17.5143 95.3627L18.2725 93.667C18.2931 93.6232 18.3258 93.5861 18.3666 93.5601C18.4075 93.5341 18.455 93.5203 18.5034 93.5203C18.5519 93.5203 18.5994 93.5341 18.6402 93.5601C18.6811 93.5861 18.7138 93.6232 18.7344 93.667Z" fill="white"/>
<path opacity="0.2" d="M19.43 35.86C24.638 35.86 28.86 31.638 28.86 26.43C28.86 21.222 24.638 17 19.43 17C14.222 17 10 21.222 10 26.43C10 31.638 14.222 35.86 19.43 35.86Z" fill="url(#paint12_linear_6_28)"/>
<path opacity="0.2" d="M19.43 32.56C22.8155 32.56 25.56 29.8155 25.56 26.43C25.56 23.0445 22.8155 20.3 19.43 20.3C16.0445 20.3 13.3 23.0445 13.3 26.43C13.3 29.8155 16.0445 32.56 19.43 32.56Z" fill="url(#paint13_linear_6_28)"/>
<path d="M19.77 22.32L20.91 24.78C20.9487 24.8557 21.0123 24.9157 21.09 24.95L23.55 26.1C23.6136 26.1298 23.6675 26.1772 23.7052 26.2365C23.7429 26.2959 23.7629 26.3647 23.7629 26.435C23.7629 26.5053 23.7429 26.5741 23.7052 26.6335C23.6675 26.6928 23.6136 26.7402 23.55 26.77L21.09 27.91C21.0116 27.9482 20.9482 28.0116 20.91 28.09L19.77 30.55C19.7402 30.6137 19.6928 30.6675 19.6335 30.7052C19.5741 30.7429 19.5053 30.7629 19.435 30.7629C19.3647 30.7629 19.2959 30.7429 19.2365 30.7052C19.1772 30.6675 19.1298 30.6137 19.1 30.55L18 28.09C17.9657 28.0123 17.9057 27.9487 17.83 27.91L15.32 26.77C15.2564 26.7402 15.2025 26.6928 15.1648 26.6335C15.1271 26.5741 15.1071 26.5053 15.1071 26.435C15.1071 26.3647 15.1271 26.2959 15.1648 26.2365C15.2025 26.1772 15.2564 26.1298 15.32 26.1L17.78 25C17.8312 24.9828 17.8776 24.954 17.9158 24.9158C17.954 24.8776 17.9828 24.8312 18 24.78L19.1 22.32C19.1298 22.2564 19.1772 22.2025 19.2365 22.1648C19.2959 22.1271 19.3647 22.1071 19.435 22.1071C19.5053 22.1071 19.5741 22.1271 19.6335 22.1648C19.6928 22.2025 19.7402 22.2564 19.77 22.32Z" fill="white"/>
<path opacity="0.2" d="M108.5 51C112.642 51 116 47.6421 116 43.5C116 39.3579 112.642 36 108.5 36C104.358 36 101 39.3579 101 43.5C101 47.6421 104.358 51 108.5 51Z" fill="url(#paint14_linear_6_28)"/>
<path opacity="0.2" d="M108.5 48.3727C111.191 48.3727 113.373 46.1911 113.373 43.5C113.373 40.8089 111.191 38.6273 108.5 38.6273C105.809 38.6273 103.627 40.8089 103.627 43.5C103.627 46.1911 105.809 48.3727 108.5 48.3727Z" fill="url(#paint15_linear_6_28)"/>
<path d="M109.787 38.252L110.511 41.3619C110.528 41.4316 110.564 41.4952 110.615 41.546C110.666 41.5968 110.729 41.6328 110.799 41.6501L113.875 42.4075C113.95 42.4266 114.018 42.4672 114.07 42.5242C114.122 42.5813 114.156 42.6524 114.168 42.7286C114.18 42.8049 114.17 42.883 114.138 42.9534C114.106 43.0238 114.054 43.0833 113.989 43.1247L111.308 44.7668C111.248 44.8049 111.198 44.8585 111.165 44.9222C111.132 44.9858 111.117 45.0571 111.121 45.1287L111.355 48.2922C111.363 48.373 111.346 48.4544 111.306 48.5252C111.267 48.596 111.206 48.6528 111.133 48.688C111.06 48.7231 110.977 48.7349 110.897 48.7216C110.817 48.7084 110.743 48.6708 110.685 48.6139L108.272 46.5228C108.219 46.4733 108.153 46.4405 108.081 46.4286C108.01 46.4167 107.936 46.4261 107.87 46.4558L104.934 47.6488C104.863 47.678 104.784 47.6851 104.708 47.6693C104.632 47.6535 104.563 47.6154 104.509 47.56C104.455 47.5046 104.419 47.4343 104.405 47.3582C104.391 47.2821 104.401 47.2036 104.432 47.1327L105.651 44.2105C105.68 44.1445 105.69 44.0718 105.679 44.0007C105.669 43.9295 105.638 43.8629 105.591 43.8083L103.547 41.3619C103.489 41.3032 103.45 41.2277 103.437 41.146C103.424 41.0643 103.437 40.9805 103.474 40.9065C103.511 40.8325 103.57 40.772 103.643 40.7334C103.717 40.6949 103.8 40.6803 103.882 40.6917L107.032 41.0067C107.103 41.0127 107.175 40.9989 107.239 40.967C107.302 40.9351 107.356 40.8862 107.394 40.8257L109.07 38.1448C109.109 38.0766 109.167 38.0217 109.238 37.9874C109.308 37.9532 109.387 37.941 109.465 37.9526C109.543 37.9642 109.615 37.999 109.672 38.0525C109.73 38.1059 109.77 38.1755 109.787 38.252Z" fill="white"/>
<path opacity="0.2" d="M86.0684 109.137C90.4571 104.785 90.4876 97.7003 86.1365 93.3116C81.7854 88.9229 74.7004 88.8924 70.3116 93.2435C65.9229 97.5946 65.8924 104.68 70.2435 109.068C74.5946 113.457 81.6796 113.488 86.0684 109.137Z" fill="url(#paint16_linear_6_28)"/>
<path opacity="0.2" d="M83.3085 106.353C86.1598 103.526 86.1796 98.9228 83.3527 96.0715C80.5259 93.2202 75.9228 93.2004 73.0715 96.0272C70.2202 98.8541 70.2004 103.457 73.0272 106.308C75.8541 109.16 80.4572 109.18 83.3085 106.353Z" fill="url(#paint17_linear_6_28)"/>
<path d="M74.0407 94.2778L78.0745 96.8125C78.1661 96.8681 78.2711 96.8977 78.3782 96.8982C78.4853 96.8986 78.5906 96.8699 78.6826 96.8151L82.7377 94.3859C82.8371 94.3276 82.9513 94.2996 83.0664 94.3054C83.1815 94.3112 83.2923 94.3506 83.3853 94.4186C83.4782 94.4867 83.5492 94.5805 83.5895 94.6885C83.6297 94.7964 83.6375 94.9138 83.6118 95.0261L82.4962 99.5822C82.4719 99.6863 82.4759 99.7951 82.5078 99.8972C82.5397 99.9993 82.5983 100.091 82.6775 100.163L86.2492 103.268C86.3427 103.345 86.4101 103.449 86.4423 103.566C86.4745 103.683 86.47 103.807 86.4293 103.921C86.3887 104.035 86.3138 104.134 86.215 104.204C86.1162 104.274 85.9982 104.312 85.877 104.313L81.1238 104.632C81.0157 104.635 80.9109 104.67 80.8226 104.733C80.7343 104.795 80.6664 104.883 80.6274 104.984L78.7701 109.331C78.7249 109.438 78.649 109.528 78.5521 109.591C78.4553 109.653 78.3419 109.686 78.2265 109.684C78.111 109.682 77.9989 109.645 77.9043 109.579C77.8096 109.513 77.7369 109.42 77.6954 109.313L75.9182 104.935C75.8795 104.835 75.8133 104.748 75.7273 104.684C75.6412 104.619 75.5388 104.581 75.4318 104.572L70.6961 104.128C70.5726 104.127 70.4526 104.087 70.3529 104.014C70.2532 103.941 70.1789 103.839 70.1403 103.722C70.1018 103.605 70.101 103.478 70.1381 103.36C70.1752 103.243 70.2483 103.139 70.3471 103.065L74.0157 100.09C74.0973 100.022 74.1586 99.9322 74.1927 99.8313C74.2268 99.7304 74.2325 99.6221 74.2091 99.5182L73.1682 94.9175C73.1377 94.8045 73.1421 94.6849 73.1809 94.5745C73.2196 94.464 73.2908 94.3678 73.3852 94.2986C73.4796 94.2294 73.5928 94.1904 73.7097 94.1867C73.8267 94.1829 73.9421 94.2147 74.0407 94.2778Z" fill="white"/>
<g clip-path="url(#clip2_6_28)">
<path opacity="0.2" d="M55.18 56.86C59.4215 56.86 62.86 53.4215 62.86 49.18C62.86 44.9385 59.4215 41.5 55.18 41.5C50.9385 41.5 47.5 44.9385 47.5 49.18C47.5 53.4215 50.9385 56.86 55.18 56.86Z" fill="url(#paint18_linear_6_28)"/>
<path opacity="0.2" d="M55.18 60.36C61.3545 60.36 66.36 55.3545 66.36 49.18C66.36 43.0055 61.3545 38 55.18 38C49.0055 38 44 43.0055 44 49.18C44 55.3545 49.0055 60.36 55.18 60.36Z" fill="url(#paint19_linear_6_28)"/>
<path d="M53.32 54.88L52.68 52.64C52.6538 52.5432 52.5985 52.4568 52.5216 52.3924C52.4447 52.328 52.3499 52.2888 52.25 52.28L49.93 52.09C49.843 52.0825 49.7595 52.0523 49.6878 52.0025C49.6161 51.9527 49.5587 51.885 49.5212 51.8061C49.4838 51.7273 49.4677 51.6399 49.4745 51.5529C49.4813 51.4659 49.5108 51.3821 49.56 51.31L50.92 49.42C50.9759 49.3373 51.0058 49.2398 51.0058 49.14C51.0058 49.0402 50.9759 48.9427 50.92 48.86L49.62 46.92C49.573 46.8473 49.5457 46.7637 49.5407 46.6773C49.5356 46.5909 49.5531 46.5047 49.5914 46.4271C49.6297 46.3495 49.6875 46.2832 49.7591 46.2346C49.8307 46.186 49.9137 46.1569 50 46.15L52.33 46C52.4317 45.9944 52.5293 45.958 52.6098 45.8954C52.6902 45.8329 52.7496 45.7472 52.78 45.65L53.48 43.43C53.5078 43.348 53.5563 43.2745 53.621 43.2169C53.6857 43.1593 53.7642 43.1195 53.8489 43.1013C53.9335 43.0832 54.0215 43.0874 54.1041 43.1134C54.1867 43.1395 54.2611 43.1865 54.32 43.25L55.87 45C55.9354 45.075 56.0225 45.1277 56.1193 45.151C56.216 45.1743 56.3176 45.167 56.41 45.13L58.59 44.3C58.6708 44.2687 58.7586 44.2593 58.8442 44.273C58.9298 44.2866 59.0103 44.3227 59.0774 44.3776C59.1445 44.4325 59.1958 44.5043 59.2262 44.5855C59.2565 44.6667 59.2647 44.7545 59.25 44.84L58.86 47.14C58.8424 47.2369 58.8551 47.3368 58.8962 47.4262C58.9374 47.5157 59.005 47.5903 59.09 47.64L61.09 48.82C61.1672 48.8622 61.2316 48.9244 61.2765 49C61.3214 49.0757 61.3451 49.162 61.3451 49.25C61.3451 49.338 61.3214 49.4243 61.2765 49.5C61.2316 49.5756 61.1672 49.6378 61.09 49.68L59.09 50.81C59.0013 50.8568 58.9295 50.9302 58.8847 51.0198C58.8399 51.1095 58.8242 51.211 58.84 51.31L59.17 53.61C59.1847 53.6971 59.1755 53.7866 59.1434 53.8689C59.1114 53.9513 59.0577 54.0234 58.988 54.0777C58.9183 54.132 58.8353 54.1665 58.7476 54.1775C58.6599 54.1884 58.5709 54.1755 58.49 54.14L56.34 53.24C56.2467 53.2038 56.1447 53.1959 56.0469 53.2172C55.9491 53.2386 55.8598 53.2882 55.79 53.36L54.2 55.06C54.1429 55.1341 54.0661 55.1907 53.9784 55.2233C53.8906 55.2559 53.7955 55.2633 53.7038 55.2445C53.6122 55.2258 53.5276 55.1817 53.4597 55.1172C53.3919 55.0528 53.3435 54.9706 53.32 54.88Z" fill="url(#paint20_linear_6_28)"/>
</g>
<defs>
<linearGradient id="paint0_linear_6_28" x1="118.56" y1="8.37" x2="129.4" y2="16.79" gradientUnits="userSpaceOnUse">
<stop stop-color="#FCFAED"/>
<stop offset="1" stop-color="#FDFEFF"/>
</linearGradient>
<linearGradient id="paint1_linear_6_28" x1="116.91" y1="7.09" x2="132.69" y2="19.34" gradientUnits="userSpaceOnUse">
<stop stop-color="#FCFAED"/>
<stop offset="1" stop-color="#FDFEFF"/>
</linearGradient>
<linearGradient id="paint2_linear_6_28" x1="119.811" y1="8.62414" x2="127.391" y2="16.2936" gradientUnits="userSpaceOnUse">
<stop stop-color="#FCFAED"/>
<stop offset="1" stop-color="#FDFEFF"/>
</linearGradient>
<linearGradient id="paint3_linear_6_28" x1="7.56" y1="79.37" x2="18.4" y2="87.79" gradientUnits="userSpaceOnUse">
<stop stop-color="#FCFAED"/>
<stop offset="1" stop-color="#FDFEFF"/>
</linearGradient>
<linearGradient id="paint4_linear_6_28" x1="5.91" y1="78.09" x2="21.69" y2="90.34" gradientUnits="userSpaceOnUse">
<stop stop-color="#FCFAED"/>
<stop offset="1" stop-color="#FDFEFF"/>
</linearGradient>
<linearGradient id="paint5_linear_6_28" x1="8.81108" y1="79.6241" x2="16.3914" y2="87.2936" gradientUnits="userSpaceOnUse">
<stop stop-color="#FCFAED"/>
<stop offset="1" stop-color="#FDFEFF"/>
</linearGradient>
<linearGradient id="paint6_linear_6_28" x1="55.99" y1="27.99" x2="69.32" y2="38.33" gradientUnits="userSpaceOnUse">
<stop stop-color="#FCFAED"/>
<stop offset="1" stop-color="#FDFEFF"/>
</linearGradient>
<linearGradient id="paint7_linear_6_28" x1="57.55" y1="29.19" x2="66.2" y2="35.91" gradientUnits="userSpaceOnUse">
<stop stop-color="#FCFAED"/>
<stop offset="1" stop-color="#FDFEFF"/>
</linearGradient>
<linearGradient id="paint8_linear_6_28" x1="61.4396" y1="89.1288" x2="70.6278" y2="96.2561" gradientUnits="userSpaceOnUse">
<stop stop-color="#FCFAED"/>
<stop offset="1" stop-color="#FDFEFF"/>
</linearGradient>
<linearGradient id="paint9_linear_6_28" x1="62.5148" y1="89.956" x2="68.4772" y2="94.588" gradientUnits="userSpaceOnUse">
<stop stop-color="#FCFAED"/>
<stop offset="1" stop-color="#FDFEFF"/>
</linearGradient>
<linearGradient id="paint10_linear_6_28" x1="15.4396" y1="94.1288" x2="24.6278" y2="101.256" gradientUnits="userSpaceOnUse">
<stop stop-color="#FCFAED"/>
<stop offset="1" stop-color="#FDFEFF"/>
</linearGradient>
<linearGradient id="paint11_linear_6_28" x1="16.5148" y1="94.956" x2="22.4772" y2="99.588" gradientUnits="userSpaceOnUse">
<stop stop-color="#FCFAED"/>
<stop offset="1" stop-color="#FDFEFF"/>
</linearGradient>
<linearGradient id="paint12_linear_6_28" x1="14.99" y1="22.99" x2="28.32" y2="33.33" gradientUnits="userSpaceOnUse">
<stop stop-color="#FCFAED"/>
<stop offset="1" stop-color="#FDFEFF"/>
</linearGradient>
<linearGradient id="paint13_linear_6_28" x1="16.55" y1="24.19" x2="25.2" y2="30.91" gradientUnits="userSpaceOnUse">
<stop stop-color="#FCFAED"/>
<stop offset="1" stop-color="#FDFEFF"/>
</linearGradient>
<linearGradient id="paint14_linear_6_28" x1="104.968" y1="40.7587" x2="115.564" y2="48.9826" gradientUnits="userSpaceOnUse">
<stop stop-color="#FCFAED"/>
<stop offset="1" stop-color="#FDFEFF"/>
</linearGradient>
<linearGradient id="paint15_linear_6_28" x1="106.208" y1="41.7172" x2="113.084" y2="47.059" gradientUnits="userSpaceOnUse">
<stop stop-color="#FCFAED"/>
<stop offset="1" stop-color="#FDFEFF"/>
</linearGradient>
<linearGradient id="paint16_linear_6_28" x1="71.5679" y1="101.996" x2="91.4341" y2="99.5782" gradientUnits="userSpaceOnUse">
<stop stop-color="#FCFAED"/>
<stop offset="1" stop-color="#FDFEFF"/>
</linearGradient>
<linearGradient id="paint17_linear_6_28" x1="73.8885" y1="101.709" x2="86.7859" y2="100.145" gradientUnits="userSpaceOnUse">
<stop stop-color="#FCFAED"/>
<stop offset="1" stop-color="#FDFEFF"/>
</linearGradient>
<linearGradient id="paint18_linear_6_28" x1="51.56" y1="46.37" x2="62.4" y2="54.79" gradientUnits="userSpaceOnUse">
<stop stop-color="#FCFAED"/>
<stop offset="1" stop-color="#FDFEFF"/>
</linearGradient>
<linearGradient id="paint19_linear_6_28" x1="49.91" y1="45.09" x2="65.69" y2="57.34" gradientUnits="userSpaceOnUse">
<stop stop-color="#FCFAED"/>
<stop offset="1" stop-color="#FDFEFF"/>
</linearGradient>
<linearGradient id="paint20_linear_6_28" x1="52.8111" y1="46.6241" x2="60.3914" y2="54.2936" gradientUnits="userSpaceOnUse">
<stop stop-color="#FCFAED"/>
<stop offset="1" stop-color="#FDFEFF"/>
</linearGradient>
<clipPath id="clip0_6_28">
<rect width="22.35" height="22.35" fill="white" transform="translate(111)"/>
</clipPath>
<clipPath id="clip1_6_28">
<rect width="22.35" height="22.35" fill="white" transform="translate(0 71)"/>
</clipPath>
<clipPath id="clip2_6_28">
<rect width="22.35" height="22.35" fill="white" transform="translate(44 38)"/>
</clipPath>
</defs>
</svg>
