<svg width="148" height="200" viewBox="0 0 148 200" fill="none" xmlns="http://www.w3.org/2000/svg">
<path d="M19.2453 163.626C29.0984 183.577 53.2595 191.763 73.2106 181.91C93.1618 172.057 101.348 147.896 91.4947 127.945C81.6416 107.994 57.4805 99.8077 37.5293 109.661C17.5782 119.514 9.39215 143.675 19.2453 163.626Z" fill="url(#paint0_radial_30_2)"/>
<path d="M78.8555 111.69L79.2753 114.154L78.8555 111.69ZM56.5979 124.121C55.9187 125.323 54.3936 125.747 53.1915 125.068C51.9894 124.388 51.5655 122.863 52.2447 121.661L56.5979 124.121ZM83.3143 82.6271C86.0563 86.321 89.4475 92.9838 90.1393 99.2575C90.4878 102.418 90.1813 105.768 88.4433 108.583C86.6518 111.485 83.5905 113.419 79.2753 114.154L78.4356 109.225C81.6539 108.677 83.3067 107.386 84.1886 105.957C85.1241 104.441 85.4503 102.353 85.1694 99.8055C84.6022 94.6618 81.6857 88.8219 79.2995 85.6072L83.3143 82.6271ZM79.2753 114.154C75.9227 114.725 73.0335 115.059 70.6476 115.383C68.2104 115.714 66.3217 116.033 64.6952 116.559C61.7115 117.524 59.345 119.259 56.5979 124.121L52.2447 121.661C55.4527 115.983 58.7088 113.241 63.1562 111.802C65.2452 111.126 67.5241 110.761 69.9744 110.428C72.4758 110.088 75.1937 109.777 78.4356 109.225L79.2753 114.154Z" fill="url(#paint1_linear_30_2)"/>
<path opacity="0.2" d="M70.7767 118.355L82.9145 102.754C83.4367 102.085 84.1504 101.592 84.9603 101.34C85.7702 101.087 86.6378 101.088 87.4474 101.341L106.323 107.176C107.028 107.395 107.779 107.423 108.5 107.258C109.22 107.093 109.883 106.739 110.422 106.234C110.961 105.729 111.357 105.09 111.569 104.382C111.78 103.674 111.801 102.923 111.627 102.204L106.996 82.9841C106.8 82.159 106.859 81.2936 107.165 80.5026C107.471 79.7116 108.01 79.0321 108.711 78.5539L125.034 67.425C125.643 67.0093 126.131 66.4398 126.449 65.7743C126.767 65.1087 126.904 64.3709 126.844 63.6357C126.785 62.9004 126.532 62.194 126.111 61.5881C125.691 60.9822 125.117 60.4984 124.449 60.1858L106.546 51.822C105.775 51.4659 105.13 50.8819 104.7 50.1486C104.27 49.4153 104.075 48.5679 104.142 47.7204L105.598 27.9922C105.643 27.2662 105.498 26.5411 105.177 25.8884C104.856 25.2357 104.37 24.6781 103.768 24.2707C103.165 23.8632 102.466 23.6201 101.741 23.5653C101.016 23.5106 100.289 23.646 99.6318 23.9583L81.9231 32.7418C81.1631 33.1223 80.3048 33.2608 79.4638 33.1388C78.6227 33.0169 77.8391 32.6402 77.2185 32.0595L62.7488 18.6085C62.207 18.1062 61.542 17.7561 60.8213 17.5937C60.1006 17.4313 59.3498 17.4623 58.6449 17.6837C57.9401 17.905 57.3063 18.3087 56.8078 18.854C56.3093 19.3993 55.9638 20.0666 55.8064 20.7884L51.6466 40.11C51.4669 40.9392 51.0396 41.6942 50.4214 42.2753C49.8033 42.8564 49.0232 43.2361 48.1845 43.3643L28.6825 46.3089C27.9533 46.4209 27.2665 46.7234 26.6917 47.1858C26.1169 47.6483 25.6743 48.2543 25.4088 48.9427C25.1433 49.631 25.0643 50.3773 25.1797 51.106C25.2952 51.8347 25.6009 52.52 26.0662 53.0926L38.5743 68.396C39.1091 69.0529 39.4307 69.8575 39.4959 70.7021C39.5611 71.5468 39.3669 72.3912 38.9393 73.1224L29.0389 90.2357C28.6703 90.8747 28.4774 91.5998 28.4796 92.3374C28.4819 93.0751 28.6794 93.799 29.052 94.4356C29.4245 95.0723 29.9589 95.599 30.6009 95.9623C31.2429 96.3256 31.9696 96.5126 32.7072 96.5042L52.4303 96.2561C53.2803 96.2449 54.1134 96.4937 54.818 96.9693C55.5226 97.4449 56.0651 98.1244 56.3727 98.9169L63.5805 117.329C63.8512 118.016 64.2991 118.62 64.8787 119.078C65.4583 119.536 66.1489 119.832 66.8802 119.936C67.6115 120.04 68.3573 119.949 69.0418 119.671C69.7263 119.393 70.3249 118.939 70.7767 118.355Z" fill="#FFFBDC"/>
<path opacity="0.2" d="M89.229 106.217L92.8922 90.1978C93.053 89.5118 93.4171 88.8902 93.9369 88.4145C94.4567 87.9388 95.1081 87.631 95.8057 87.5315L112.109 85.3067C112.71 85.2191 113.278 84.9753 113.755 84.5997C114.232 84.224 114.602 83.7297 114.829 83.166C115.055 82.6024 115.13 81.9892 115.045 81.3878C114.96 80.7864 114.718 80.2178 114.345 79.7389L104.103 66.8971C103.66 66.3421 103.398 65.665 103.351 64.9566C103.304 64.2482 103.475 63.5425 103.841 62.934L112.281 48.8122C112.595 48.2819 112.763 47.6777 112.767 47.0613C112.771 46.445 112.611 45.8386 112.304 45.3042C111.997 44.7698 111.553 44.3266 111.019 44.0199C110.484 43.7132 109.878 43.5539 109.261 43.5585L92.8459 43.5399C92.1408 43.5406 91.4522 43.3263 90.8718 42.9258C90.2915 42.5253 89.8469 41.9574 89.5974 41.2979L83.7633 25.9051C83.5457 25.3316 83.1803 24.8257 82.7042 24.4389C82.2281 24.052 81.6582 23.7979 81.0522 23.7023C80.4463 23.6066 79.8258 23.6728 79.2537 23.8942C78.6816 24.1156 78.1782 24.4843 77.7945 24.963L67.5489 37.8104C67.1071 38.3614 66.5085 38.7655 65.8322 38.9692C65.1559 39.1728 64.4337 39.1665 63.7611 38.951L48.1268 33.9011C47.5431 33.7108 46.9195 33.6788 46.3194 33.8082C45.7194 33.9377 45.1644 34.224 44.7111 34.638C44.2578 35.0519 43.9225 35.5787 43.7393 36.1646C43.5561 36.7505 43.5316 37.3745 43.6683 37.973L47.3233 53.9886C47.4868 54.6855 47.4314 55.4158 47.1646 56.0801C46.8979 56.7443 46.4328 57.3102 45.8327 57.7005L32.1365 66.7698C31.633 67.1159 31.2294 67.5885 30.9664 68.14C30.7035 68.6916 30.5903 69.3027 30.6385 69.9118C30.6866 70.5209 30.8942 71.1066 31.2405 71.61C31.5868 72.1135 32.0595 72.5168 32.6112 72.7796L47.4107 79.9081C48.0465 80.2165 48.5733 80.7112 48.9211 81.3263C49.2689 81.9414 49.4212 82.6479 49.3577 83.3517L47.8964 99.7373C47.8407 100.349 47.9484 100.965 48.2085 101.521C48.4687 102.078 48.8718 102.555 49.3769 102.905C49.882 103.254 50.4708 103.464 51.0832 103.511C51.6957 103.559 52.3098 103.443 52.8628 103.176L67.6761 96.0205C68.3043 95.7213 69.0082 95.6184 69.6958 95.7254C70.3833 95.8323 71.0227 96.1441 71.5304 96.62L83.4719 107.967C83.9168 108.385 84.464 108.678 85.0584 108.817C85.6527 108.956 86.2731 108.935 86.8571 108.758C87.441 108.58 87.9677 108.252 88.3842 107.806C88.8006 107.359 89.092 106.811 89.229 106.217Z" fill="#FFFBDC"/>
<path d="M90.907 76.5986C105.457 81.2347 117.37 96.385 119.431 103.463" stroke="#FFF4AD" stroke-width="5" stroke-linecap="round" stroke-linejoin="round"/>
<path d="M72.9186 133.692C75.2506 135.816 78.1112 137.274 81.2004 137.912C81.5205 137.999 81.8548 138.022 82.1838 137.979C82.5128 137.935 82.83 137.827 83.1167 137.66C83.4035 137.493 83.6541 137.271 83.8541 137.006C84.054 136.741 84.1992 136.439 84.2812 136.118C84.3633 135.796 84.3804 135.462 84.3318 135.133C84.2832 134.805 84.1697 134.49 83.9979 134.206C83.8262 133.922 83.5997 133.675 83.3315 133.48C83.0634 133.284 82.759 133.144 82.4362 133.067C78.7453 132.119 76.3744 130.623 75.3898 128.618C74.2373 126.263 75.2295 123.598 76.9371 119.45C78.3037 116.402 79.2902 113.198 79.8743 109.909C81.1941 101.331 77.8262 91.9025 69.9566 81.9961C69.7525 81.7389 69.4998 81.5244 69.2128 81.3649C68.9258 81.2053 68.6102 81.1039 68.284 81.0663C67.9578 81.0287 67.6274 81.0558 67.3117 81.1459C66.9959 81.236 66.701 81.3874 66.4438 81.5915C66.1866 81.7956 65.9721 82.0483 65.8126 82.3353C65.653 82.6223 65.5516 82.9379 65.514 83.2641C65.4764 83.5903 65.5035 83.9207 65.5936 84.2364C65.6837 84.5521 65.8351 84.847 66.0392 85.1043C73.0221 93.8885 76.0091 101.984 74.9296 109.166C74.3755 112.06 73.4666 114.875 72.2234 117.547C70.4755 121.839 68.5999 126.342 70.8124 130.834C71.3472 131.899 72.0595 132.866 72.9186 133.692Z" fill="url(#paint2_linear_30_2)"/>
<path d="M71.5438 97.7137L78.8376 88.3256C79.1528 87.9249 79.5816 87.6288 80.0679 87.4761C80.5542 87.3233 81.0753 87.321 81.5629 87.4695L92.9228 90.9537C93.3514 91.0937 93.8099 91.1157 94.2499 91.0173C94.69 90.9189 95.0954 90.7037 95.4236 90.3944C95.7518 90.0852 95.9906 89.6932 96.1149 89.2598C96.2392 88.8263 96.2445 88.3674 96.1301 87.9312L93.3436 76.3809C93.23 75.8826 93.2711 75.3615 93.4615 74.8872C93.652 74.413 93.9827 74.0081 94.4094 73.7269L104.236 67.0477C104.601 66.7966 104.894 66.4536 105.084 66.0534C105.274 65.6532 105.355 65.2099 105.32 64.7682C105.284 64.3266 105.132 63.9021 104.88 63.5377C104.628 63.1733 104.284 62.8818 103.884 62.6927L93.1202 57.6699C92.657 57.4547 92.2705 57.1033 92.0123 56.6626C91.7541 56.2219 91.6365 55.713 91.6751 55.2037L92.5119 43.4058C92.5452 42.9625 92.4608 42.5182 92.267 42.1181C92.0732 41.718 91.777 41.3763 91.4085 41.1276C91.04 40.8789 90.6123 40.7322 90.1687 40.7022C89.7252 40.6723 89.2816 40.7602 88.883 40.9571L78.2466 46.2443C77.7889 46.4715 77.2727 46.5535 76.7671 46.4795C76.2615 46.4055 75.7905 46.1789 75.4172 45.8301L66.7134 37.7442C66.3887 37.4407 65.9892 37.2289 65.5558 37.1304C65.1224 37.0319 64.6706 37.0503 64.2466 37.1836C63.8226 37.317 63.4417 37.5605 63.1426 37.8893C62.8436 38.2181 62.6372 38.6204 62.5446 39.0552L60.0369 50.667C59.9263 51.165 59.6677 51.618 59.2951 51.9665C58.9224 52.3149 58.4532 52.5426 57.9489 52.6196L46.2012 54.3677C45.7615 54.4325 45.3468 54.6129 44.9996 54.8905C44.6524 55.1681 44.3852 55.5329 44.2252 55.9477C44.0652 56.3624 44.0183 56.8122 44.0891 57.251C44.16 57.6899 44.3461 58.102 44.6284 58.4453L52.1496 67.6512C52.4723 68.0449 52.667 68.5278 52.7078 69.0353C52.7486 69.5427 52.6335 70.0505 52.3779 70.4908L46.4179 80.8241C46.1944 81.208 46.0768 81.6443 46.0771 82.0885C46.0774 82.5327 46.1956 82.9689 46.4196 83.3525C46.6435 83.7361 46.9653 84.0534 47.352 84.272C47.7388 84.4906 48.1766 84.6026 48.6207 84.5967L60.5277 84.4643C61.0389 84.4599 61.5393 84.6104 61.9633 84.8961C62.3872 85.1817 62.7146 85.5891 62.9024 86.0645L67.2327 97.1248C67.4013 97.5312 67.6734 97.8865 68.022 98.1551C68.3705 98.4237 68.7833 98.5964 69.2193 98.656C69.6553 98.7156 70.0993 98.6599 70.5071 98.4946C70.9149 98.3293 71.2723 98.0601 71.5438 97.7137Z" fill="url(#paint3_linear_30_2)"/>
<path d="M85.7418 73.2527C84.891 72.9111 84.4783 71.9445 84.8199 71.0937C85.1616 70.2429 86.1282 69.8302 86.979 70.1719C87.8297 70.5135 88.2425 71.4801 87.9008 72.3309C87.5592 73.1817 86.5925 73.5944 85.7418 73.2527Z" fill="#3C3C3B"/>
<path d="M77.6343 73.2622C76.7835 72.9205 76.3708 71.9539 76.7125 71.1031C77.0541 70.2524 78.0207 69.8397 78.8715 70.1813C79.7222 70.5229 80.135 71.4896 79.7933 72.3403C79.4517 73.1911 78.4851 73.6038 77.6343 73.2622Z" fill="#3C3C3B"/>
<path d="M83.9588 75.2263C83.9672 75.6682 83.7997 76.0954 83.4931 76.4139C83.1865 76.7324 82.766 76.916 82.324 76.9244C81.8821 76.9328 81.4549 76.7653 81.1364 76.4587C80.8179 76.1521 80.6343 75.7316 80.6259 75.2896L83.9588 75.2263Z" fill="#3C3C3B" stroke="#3C3C3B" stroke-linecap="round" stroke-linejoin="round"/>
<path d="M129.7 86.17L118.557 119.988L99.5092 112.716C99.0617 112.724 98.6183 112.665 98.2115 112.543C97.8047 112.422 97.4448 112.241 97.1581 112.013C96.8715 111.786 96.6654 111.518 96.5549 111.229C96.4444 110.94 96.4323 110.637 96.5195 110.343L104.409 80.8672C104.527 80.3979 104.89 79.9699 105.433 79.6597C105.977 79.3494 106.666 79.177 107.377 79.1732L129.7 86.17Z" fill="url(#paint4_linear_30_2)"/>
<path d="M129.7 86.17L118.557 119.987L95.1859 115.505C94.7384 115.513 94.2951 115.454 93.8883 115.333C93.4814 115.211 93.1215 115.03 92.8349 114.802C92.5482 114.575 92.3421 114.307 92.2316 114.018C92.1211 113.729 92.109 113.427 92.1963 113.133L100.086 83.6566C100.204 83.1873 100.567 82.7593 101.11 82.4491C101.654 82.1388 102.342 81.9664 103.053 81.9626L129.7 86.17Z" fill="url(#paint5_linear_30_2)"/>
<path d="M131.83 86.0623L120.687 119.88L95.6984 119.925C95.251 119.933 94.8076 119.874 94.4008 119.752C93.994 119.631 93.6341 119.45 93.3474 119.222C93.0607 118.995 92.8546 118.727 92.7441 118.438C92.6336 118.149 92.6216 117.846 92.7088 117.552L100.598 88.0762C100.716 87.6069 101.079 87.1789 101.623 86.8687C102.166 86.5584 102.855 86.386 103.566 86.3823L131.83 86.0623Z" fill="url(#paint6_linear_30_2)"/>
<path d="M135.679 78.4211L129.485 107.25C129.172 108.71 128.639 110.086 127.929 111.265L123.199 115.047L129.522 86.6826L134.646 77.7158C134.742 77.5451 134.87 77.4209 135.01 77.3642C135.149 77.3074 135.291 77.3215 135.412 77.4041C135.533 77.4866 135.626 77.6326 135.674 77.8177C135.723 78.0028 135.724 78.2158 135.679 78.4211Z" fill="url(#paint7_linear_30_2)"/>
<path d="M138.917 78.033L130.865 106.786C130.457 108.243 129.692 109.609 128.632 110.774L120.744 119.447L129.585 86.1649L137.215 77.3004C137.358 77.1315 137.556 77.0102 137.776 76.9568C137.996 76.9033 138.225 76.9209 138.424 77.0067C138.623 77.0924 138.781 77.2411 138.87 77.4279C138.96 77.6147 138.977 77.8283 138.917 78.033Z" fill="url(#paint8_linear_30_2)"/>
<path d="M129.324 86.0521L120.765 120.048" stroke="url(#paint9_linear_30_2)" stroke-width="2" stroke-linecap="round"/>
<path d="M101.371 105.284C102.013 105.466 102.7 105.386 103.282 105.061C103.864 104.736 104.294 104.193 104.475 103.551C104.657 102.91 104.577 102.222 104.252 101.64C103.927 101.058 103.384 100.629 102.742 100.447C94.9033 98.0398 87.4872 94.4254 80.7614 89.7339C73.3967 84.5938 66.9681 78.2288 61.755 70.9157C61.5703 70.6342 61.3307 70.3928 61.0505 70.2061C60.7703 70.0194 60.4552 69.8913 60.1243 69.8294C59.7933 69.7674 59.4533 69.773 59.1245 69.8457C58.7957 69.9184 58.4851 70.0568 58.2111 70.2525C57.9371 70.4483 57.7055 70.6973 57.5302 70.9848C57.3548 71.2722 57.2394 71.5921 57.1907 71.9253C57.142 72.2584 57.1611 72.598 57.2469 72.9236C57.3327 73.2492 57.4834 73.5541 57.6899 73.82C63.2491 81.5856 70.0949 88.3437 77.9314 93.8023C85.0672 98.8017 92.9357 102.663 101.256 105.249L101.371 105.284Z" fill="url(#paint10_linear_30_2)"/>
<defs>
<radialGradient id="paint0_radial_30_2" cx="0" cy="0" r="1" gradientUnits="userSpaceOnUse" gradientTransform="translate(67.6544 135.023) rotate(63.7169) scale(60.79)">
<stop stop-color="#95C11F"/>
<stop offset="0.06" stop-color="#90C026"/>
<stop offset="0.15" stop-color="#81BD39"/>
<stop offset="0.25" stop-color="#6AB758"/>
<stop offset="0.37" stop-color="#49B083"/>
<stop offset="0.5" stop-color="#1FA6BA"/>
<stop offset="0.58" stop-color="#009FE3"/>
<stop offset="0.62" stop-color="#09A2E4"/>
<stop offset="0.68" stop-color="#22ACE7"/>
<stop offset="0.76" stop-color="#4BBBED"/>
<stop offset="0.85" stop-color="#83CFF4"/>
<stop offset="0.89" stop-color="#A4DBF8"/>
</radialGradient>
<linearGradient id="paint1_linear_30_2" x1="82.2805" y1="84.5081" x2="65.1386" y2="127.195" gradientUnits="userSpaceOnUse">
<stop stop-color="#F9B233"/>
<stop offset="1" stop-color="#FFF4AD"/>
</linearGradient>
<linearGradient id="paint2_linear_30_2" x1="73.361" y1="134.468" x2="74.9048" y2="109.075" gradientUnits="userSpaceOnUse">
<stop stop-color="#FFF4AD"/>
<stop offset="1" stop-color="#F9B233"/>
</linearGradient>
<linearGradient id="paint3_linear_30_2" x1="89.615" y1="59.6195" x2="39.2074" y2="81.5099" gradientUnits="userSpaceOnUse">
<stop stop-color="#FFF4AD"/>
<stop offset="1" stop-color="#F9B233"/>
</linearGradient>
<linearGradient id="paint4_linear_30_2" x1="98.8811" y1="72.8427" x2="119.613" y2="107.654" gradientUnits="userSpaceOnUse">
<stop offset="0.151092" stop-color="white"/>
<stop offset="1" stop-color="#692584"/>
</linearGradient>
<linearGradient id="paint5_linear_30_2" x1="98.6957" y1="101.855" x2="118.625" y2="130.467" gradientUnits="userSpaceOnUse">
<stop stop-color="white"/>
<stop offset="1" stop-color="#692584"/>
</linearGradient>
<linearGradient id="paint6_linear_30_2" x1="100.825" y1="101.747" x2="120.754" y2="130.36" gradientUnits="userSpaceOnUse">
<stop stop-color="#9E3769"/>
<stop offset="1" stop-color="#692584"/>
</linearGradient>
<linearGradient id="paint7_linear_30_2" x1="134.424" y1="78.9" x2="109.363" y2="105.6" gradientUnits="userSpaceOnUse">
<stop stop-color="white"/>
<stop offset="1" stop-color="#6D186F"/>
</linearGradient>
<linearGradient id="paint8_linear_30_2" x1="121.121" y1="122.256" x2="138.235" y2="99.6292" gradientUnits="userSpaceOnUse">
<stop stop-color="#611E6B"/>
<stop offset="1" stop-color="#6F1851"/>
</linearGradient>
<linearGradient id="paint9_linear_30_2" x1="130.278" y1="86.3512" x2="119.81" y2="119.749" gradientUnits="userSpaceOnUse">
<stop stop-color="#7B2B7B"/>
<stop offset="1" stop-color="#9E3769"/>
</linearGradient>
<linearGradient id="paint10_linear_30_2" x1="75.6874" y1="83.3583" x2="50.4416" y2="58.4548" gradientUnits="userSpaceOnUse">
<stop stop-color="#FFF4AD"/>
<stop offset="1" stop-color="#F9B233"/>
</linearGradient>
</defs>
</svg>
