<svg width="155" height="136" viewBox="0 0 155 136" fill="none" xmlns="http://www.w3.org/2000/svg">
<path opacity="0.2" d="M86.6102 111.708L88.2385 92.0091C88.31 91.1638 88.6376 90.3603 89.1776 89.706C89.7176 89.0518 90.4443 88.5777 91.2607 88.3472L110.253 82.9072C110.964 82.705 111.608 82.318 112.121 81.7856C112.633 81.2533 112.995 80.5947 113.17 79.8768C113.345 79.159 113.327 78.4076 113.117 77.6991C112.907 76.9907 112.513 76.3506 111.975 75.844L97.5855 62.2867C96.9699 61.7033 96.5458 60.9467 96.3694 60.117C96.193 59.2874 96.2726 58.4237 96.5976 57.6402L104.175 39.3956C104.458 38.7143 104.556 37.9704 104.458 37.2393C104.36 36.5081 104.071 35.8159 103.619 35.2329C103.167 34.6498 102.569 34.1967 101.885 33.9196C101.202 33.6425 100.457 33.5511 99.7266 33.6549L80.1645 36.4451C79.3235 36.5692 78.4648 36.4327 77.7038 36.0539C76.9427 35.6752 76.316 35.0724 75.9079 34.3267L66.3368 17.0144C65.9774 16.382 65.4592 15.8543 64.8335 15.4835C64.2077 15.1127 63.4959 14.9117 62.7686 14.9002C62.0413 14.8887 61.3236 15.0672 60.6864 15.4181C60.0493 15.769 59.5147 16.28 59.1355 16.9008L49.1147 33.9399C48.6866 34.6741 48.0439 35.2595 47.273 35.6175C46.5022 35.9754 45.6402 36.0886 44.8031 35.9419L25.3324 32.5957C24.6042 32.4715 23.856 32.5421 23.1638 32.8004C22.4716 33.0586 21.86 33.4953 21.391 34.0661C20.922 34.6369 20.6122 35.3216 20.4931 36.0507C20.3741 36.7798 20.4499 37.5275 20.7129 38.2178L27.7986 56.6683C28.1016 57.4607 28.157 58.3265 27.9573 59.1511C27.7576 59.9757 27.3123 60.7202 26.6802 61.2862L11.9646 74.4182C11.4153 74.9108 11.0058 75.5396 10.7775 76.2412C10.5493 76.9428 10.5103 77.6922 10.6645 78.4136C10.8188 79.1351 11.1608 79.8031 11.656 80.35C12.1511 80.8969 12.782 81.3033 13.4846 81.5282L32.3263 87.4982C33.1333 87.7556 33.8426 88.2533 34.3592 88.9247C34.8757 89.5961 35.175 90.4092 35.217 91.2553L36.2891 110.997C36.33 111.733 36.5651 112.446 36.9704 113.062C37.3758 113.679 37.9371 114.177 38.5972 114.506C39.2573 114.835 39.9928 114.984 40.7289 114.937C41.4651 114.89 42.1757 114.649 42.7886 114.238L59.1643 103.243C59.8697 102.769 60.7033 102.521 61.5533 102.534C62.4033 102.547 63.2291 102.819 63.92 103.314L80.0249 114.786C80.6274 115.213 81.3324 115.473 82.0681 115.539C82.8037 115.606 83.5439 115.476 84.2131 115.163C84.8823 114.85 85.4567 114.366 85.8777 113.759C86.2988 113.152 86.5515 112.444 86.6102 111.708Z" fill="#FFFBDC"/>
<path opacity="0.2" d="M95.4187 91.4539L89.7238 76.0401C89.4831 75.3778 89.448 74.6583 89.623 73.9757C89.7979 73.2931 90.1749 72.6793 90.7044 72.2144L103.136 61.4346C103.591 61.0326 103.933 60.518 104.127 59.9425C104.321 59.367 104.361 58.7506 104.242 58.1549C104.123 57.5593 103.85 57.0052 103.45 56.5482C103.05 56.0912 102.537 55.7471 101.962 55.5505L86.3642 50.402C85.69 50.1796 85.1 49.7562 84.6733 49.1888C84.2467 48.6214 84.0037 47.937 83.9772 47.2276L83.3191 30.7888C83.2921 30.173 83.102 29.5755 82.7682 29.0573C82.4345 28.5391 81.9691 28.1188 81.4197 27.8394C80.8703 27.56 80.2565 27.4316 79.6412 27.4673C79.0259 27.5029 78.431 27.7013 77.9175 28.0423L64.165 37.0053C63.5751 37.3915 62.8814 37.5888 62.1765 37.5709C61.4716 37.553 60.7889 37.3208 60.2192 36.9052L46.9159 27.21C46.42 26.8489 45.8375 26.6253 45.2273 26.5618C44.6172 26.4984 44.0011 26.5973 43.4415 26.8487C42.8819 27.1001 42.3987 27.4949 42.0408 27.9931C41.683 28.4914 41.4632 29.0754 41.4038 29.686L39.8536 46.0452C39.7852 46.7482 39.5051 47.4138 39.0503 47.9543C38.5955 48.4947 37.9874 48.8844 37.3064 49.0718L21.456 53.3957C20.8633 53.5556 20.3237 53.8699 19.8921 54.3064C19.4606 54.743 19.1526 55.2862 18.9995 55.8807C18.8465 56.4752 18.8539 57.0996 19.021 57.6903C19.1881 58.281 19.5089 58.8168 19.9506 59.243L31.7704 70.6515C32.2884 71.1455 32.6415 71.7872 32.7815 72.4892C32.9215 73.1912 32.8416 73.9193 32.5528 74.5742L26.0475 89.658C25.8152 90.2232 25.7358 90.8395 25.8174 91.4451C25.8989 92.0506 26.1384 92.6241 26.5118 93.1077C26.8853 93.5913 27.3795 93.9681 27.9447 94.2001C28.51 94.4321 29.1264 94.5113 29.7319 94.4295L46.0205 92.3024C46.7214 92.2129 47.433 92.3389 48.0606 92.6636C48.6882 92.9883 49.2021 93.4964 49.5339 94.1203L57.2728 108.637C57.5608 109.18 57.9877 109.636 58.5098 109.96C59.032 110.283 59.6307 110.462 60.2447 110.479C60.8588 110.495 61.4662 110.349 62.005 110.053C62.5437 109.758 62.9945 109.325 63.3111 108.799L71.7987 94.7068C72.1609 94.1126 72.6939 93.6416 73.328 93.355C73.9621 93.0685 74.6679 92.9798 75.3532 93.1005L91.5567 96.0685C92.1576 96.1749 92.7761 96.121 93.3495 95.9121C93.923 95.7032 94.4312 95.3468 94.823 94.8787C95.2147 94.4107 95.476 93.8476 95.5806 93.2463C95.6852 92.645 95.6293 92.0268 95.4187 91.4539V91.4539Z" fill="#FFFBDC"/>
<path d="M80.6236 65.7411C95.3404 61.6638 113.599 67.8316 119.196 72.6296" stroke="#FFF4AD" stroke-width="5" stroke-linecap="round" stroke-linejoin="round"/>
<path d="M85.2331 123.363C85.6804 123.209 86.0751 122.932 86.3714 122.564C86.6677 122.196 86.8534 121.751 86.907 121.281C86.9607 120.811 86.88 120.336 86.6744 119.91C86.4688 119.484 86.1467 119.126 85.7454 118.876C82.8929 117.099 81.2798 115.249 81.2179 113.66C81.156 112.072 82.4765 110.921 84.6446 109.01C86.8127 107.099 89.3496 104.84 89.83 101.471C90.6488 95.7091 85.2412 89.7619 72.8366 82.7324C72.2589 82.4055 71.575 82.3214 70.9353 82.4987C70.2956 82.676 69.7526 83.1002 69.4256 83.6779C69.0987 84.2556 69.0146 84.9395 69.1919 85.5792C69.3692 86.2188 69.7934 86.7619 70.3711 87.0888C84.1559 94.8525 85.1126 99.2402 84.896 100.762C84.6795 102.284 83.0627 103.738 81.3459 105.253C78.9973 107.333 76.0856 109.912 76.2325 113.87C76.3641 117.239 78.6786 120.357 83.1152 123.122C83.4282 123.317 83.7807 123.44 84.147 123.481C84.5134 123.523 84.8845 123.482 85.2331 123.363Z" fill="url(#paint0_linear_34_2)"/>
<path d="M121.801 96.7866C124.737 95.6335 127.309 93.7118 129.247 91.2228C129.467 90.9743 129.635 90.6845 129.742 90.3703C129.848 90.0561 129.892 89.7238 129.869 89.3928C129.846 89.0618 129.757 88.7386 129.608 88.4422C129.458 88.1458 129.252 87.8821 129 87.6664C128.747 87.4507 128.455 87.2874 128.139 87.1859C127.823 87.0844 127.49 87.0469 127.159 87.0754C126.829 87.104 126.507 87.198 126.213 87.3522C125.92 87.5063 125.659 87.7174 125.448 87.9731C122.965 90.8645 120.576 92.3302 118.342 92.327C115.72 92.3198 113.768 90.2517 110.802 86.8867C108.672 84.3135 106.234 82.0122 103.542 80.0345C96.4315 75.0592 86.4851 73.9125 74.1205 76.5927C73.7996 76.6621 73.4954 76.794 73.2255 76.9809C72.9555 77.1678 72.725 77.406 72.5471 77.682C72.3692 77.958 72.2474 78.2663 72.1887 78.5894C72.13 78.9124 72.1355 79.2439 72.2048 79.5648C72.2742 79.8858 72.4061 80.1899 72.593 80.4599C72.7799 80.7298 73.0181 80.9603 73.2941 81.1382C73.5701 81.3161 73.8784 81.4379 74.2015 81.4966C74.5245 81.5553 74.856 81.5499 75.1769 81.4805C86.143 79.0996 94.7246 79.9984 100.69 84.1416C103.041 85.9179 105.165 87.9775 107.012 90.2736C110.089 93.7386 113.299 97.4116 118.306 97.4123C119.498 97.4035 120.68 97.1919 121.801 96.7866V96.7866Z" fill="url(#paint1_linear_34_2)"/>
<path d="M75.9626 94.0088L76.9338 82.16C76.9785 81.6522 77.1755 81.1698 77.4991 80.7759C77.8226 80.3821 78.2576 80.0951 78.7471 79.9527L90.1628 76.6561C90.5982 76.5389 90.994 76.3066 91.3086 75.9835C91.6232 75.6604 91.8449 75.2585 91.9505 74.8201C92.0561 74.3817 92.0416 73.923 91.9086 73.4921C91.7756 73.0613 91.529 72.6742 91.1946 72.3716L82.5444 64.2262C82.1767 63.8712 81.9261 63.4125 81.8261 62.9113C81.7261 62.4101 81.7816 61.8903 81.985 61.4214L86.5583 50.4551C86.7266 50.0451 86.7838 49.5981 86.7241 49.159C86.6645 48.7199 86.4901 48.3043 86.2186 47.9541C85.9471 47.6039 85.5881 47.3315 85.1777 47.1644C84.7673 46.9972 84.3201 46.9412 83.8812 47.002L72.1231 48.6843C71.6177 48.7575 71.1019 48.6747 70.6447 48.447C70.1875 48.2194 69.8107 47.8577 69.5645 47.4102L63.812 37.0757C63.5975 36.6864 63.2838 36.3607 62.9027 36.1317C62.5216 35.9027 62.0868 35.7786 61.6423 35.772C61.1978 35.7654 60.7594 35.8765 60.3717 36.0941C59.984 36.3116 59.6607 36.6278 59.4347 37.0107L53.4223 47.2545C53.1633 47.6951 52.7761 48.0461 52.3124 48.2607C51.8486 48.4753 51.3304 48.5432 50.827 48.4554L39.118 46.4468C38.6801 46.3704 38.2299 46.4115 37.8132 46.5661C37.3964 46.7207 37.0283 46.9832 36.7462 47.3267C36.4642 47.6703 36.2785 48.0825 36.208 48.5213C36.1375 48.9602 36.1848 49.4099 36.3451 49.8244L40.5969 60.917C40.7767 61.3945 40.808 61.9151 40.6866 62.4106C40.5652 62.9061 40.2969 63.3534 39.9168 63.6937L31.0384 71.5827C30.7057 71.8774 30.4572 72.2553 30.3183 72.6776C30.1795 73.0999 30.1553 73.5514 30.2483 73.9861C30.3412 74.4208 30.5479 74.8231 30.8472 75.1517C31.1466 75.4803 31.5278 75.7235 31.952 75.8565L43.2836 79.4495C43.7691 79.6027 44.1963 79.9004 44.508 80.3029C44.8196 80.7054 45.001 81.1935 45.0279 81.7018L45.6903 93.6123C45.7132 94.0559 45.8534 94.4855 46.0966 94.8573C46.3398 95.229 46.6773 95.5295 47.0746 95.7281C47.472 95.9268 47.9149 96.0164 48.3582 95.9879C48.8015 95.9593 49.2293 95.8137 49.5979 95.5657L59.4935 88.9423C59.919 88.659 60.4203 88.5113 60.9315 88.5186C61.4426 88.5258 61.9395 88.6878 62.3568 88.983L72.0314 95.8738C72.3949 96.1218 72.817 96.2704 73.2557 96.3046C73.6944 96.3389 74.1345 96.2577 74.532 96.0691C74.9296 95.8804 75.2709 95.591 75.5218 95.2296C75.7728 94.8681 75.9248 94.4472 75.9626 94.0088Z" fill="url(#paint2_linear_34_2)"/>
<path d="M74.4694 65.7653C73.5704 65.9447 72.6961 65.3612 72.5168 64.4621C72.3375 63.563 72.921 62.6888 73.8201 62.5095C74.7192 62.3301 75.5934 62.9136 75.7727 63.8127C75.952 64.7118 75.3685 65.586 74.4694 65.7653Z" fill="#3C3C3B"/>
<path d="M67.6873 70.2077C66.7882 70.387 65.914 69.8035 65.7347 68.9045C65.5554 68.0054 66.1389 67.1311 67.038 66.9518C67.937 66.7725 68.8113 67.356 68.9906 68.2551C69.1699 69.1542 68.5864 70.0284 67.6873 70.2077Z" fill="#3C3C3B"/>
<path d="M71.0059 69.6682C71.2575 70.0062 71.6282 70.2359 72.0429 70.3108C72.4576 70.3856 72.8852 70.2999 73.239 70.0711C73.5929 69.8423 73.8464 69.4875 73.9483 69.0786C74.0503 68.6697 73.9929 68.2374 73.7878 67.8693" stroke="#3C3C3B" stroke-linecap="round" stroke-linejoin="round"/>
<path d="M105.073 84.0321C105.71 83.8335 106.241 83.3902 106.551 82.7997C106.861 82.2092 106.923 81.5199 106.724 80.8834C106.526 80.2469 106.083 79.7154 105.492 79.4058C104.902 79.0961 104.212 79.0338 103.576 79.2324C95.6965 81.5051 87.5112 82.5356 79.3146 82.2868C70.3378 82.0119 61.4746 80.1996 53.1104 76.9287C52.8018 76.794 52.4692 76.723 52.1325 76.72C51.7958 76.717 51.462 76.782 51.1511 76.9112C50.8401 77.0404 50.5585 77.231 50.323 77.4717C50.0876 77.7124 49.9032 77.9982 49.7809 78.3119C49.6586 78.6256 49.6009 78.9608 49.6114 79.2973C49.6218 79.6339 49.7001 79.9648 49.8416 80.2704C49.983 80.5759 50.1848 80.8497 50.4347 81.0754C50.6846 81.301 50.9775 81.4739 51.2958 81.5836C60.1972 85.0438 69.6246 86.9571 79.1707 87.2406C87.8789 87.5229 96.5782 86.4518 104.958 84.0654L105.073 84.0321Z" fill="url(#paint3_linear_34_2)"/>
<path d="M94.6885 81.4536L143.407 64.1094L140.088 39.3401C140.04 38.8952 139.892 38.4669 139.656 38.0865C139.42 37.706 139.103 37.3832 138.726 37.1415C138.349 36.8999 137.923 36.7456 137.479 36.6899C137.035 36.6343 136.584 36.6787 136.159 36.8199L93.448 50.1312C92.7669 50.3354 92.1805 50.7749 91.7933 51.3714C91.4062 51.9678 91.2434 52.6823 91.3341 53.3876L94.6885 81.4536Z" fill="url(#paint4_linear_34_2)"/>
<path d="M84.795 95.3471L126.023 80.068C128.112 79.2948 129.989 78.04 131.502 76.4055L142.772 64.2464L94.9475 81.2694L83.3371 93.0988C83.1153 93.3207 82.9764 93.6119 82.9436 93.9238C82.9107 94.2358 82.9859 94.5495 83.1566 94.8127C83.3272 95.0759 83.583 95.2725 83.8812 95.3698C84.1794 95.467 84.502 95.459 84.795 95.3471V95.3471Z" fill="#878787"/>
<path opacity="0.2" d="M116.269 48.8529L115.829 54.4164C115.818 54.5779 115.772 54.7351 115.695 54.8772C115.618 55.0194 115.511 55.1431 115.381 55.2399L111 58.4794C110.227 59.0516 110.485 60.3461 111.379 60.3819L116.516 60.5709C116.67 60.5773 116.821 60.623 116.953 60.7037C117.085 60.7844 117.194 60.8975 117.27 61.0322L120.1 65.9131C120.217 66.0987 120.391 66.2407 120.597 66.3172C120.802 66.3938 121.027 66.4007 121.237 66.3368C121.447 66.2729 121.63 66.1419 121.758 65.9638C121.886 65.7857 121.952 65.5704 121.945 65.3512L122.335 59.4307C122.346 59.2631 122.393 59.0999 122.472 58.952C122.552 58.8042 122.662 58.6752 122.796 58.5739L127.448 55.209C127.638 55.091 127.785 54.9155 127.868 54.7082C127.951 54.5008 127.966 54.2724 127.91 54.0561C127.854 53.8398 127.731 53.6468 127.558 53.5053C127.385 53.3638 127.172 53.2811 126.949 53.2692L121.54 53.1957C121.387 53.1952 121.237 53.1554 121.104 53.0801C120.972 53.0048 120.86 52.8966 120.781 52.7658L118.009 48.2203C117.875 48.0733 117.701 47.9692 117.508 47.9215C117.316 47.8738 117.113 47.8845 116.926 47.9524C116.74 48.0202 116.578 48.1421 116.46 48.3025C116.343 48.4628 116.277 48.6544 116.269 48.8529Z" fill="white"/>
<path opacity="0.2" d="M122.96 49.1192L118.716 52.7392C118.592 52.8439 118.448 52.922 118.292 52.9688C118.137 53.0156 117.973 53.0301 117.812 53.0113L112.419 52.2005C111.472 52.0529 110.744 53.1566 111.353 53.81L114.882 57.593C114.98 57.711 115.047 57.8519 115.077 58.0026C115.108 58.1534 115.099 58.3093 115.054 58.456L113.601 63.9053C113.551 64.1197 113.572 64.3447 113.663 64.5455C113.753 64.7463 113.907 64.9117 114.101 65.016C114.295 65.1202 114.518 65.1576 114.736 65.1222C114.953 65.0867 115.152 64.9806 115.303 64.8201L119.757 60.8727C119.887 60.7575 120.041 60.6723 120.207 60.6232C120.374 60.5742 120.549 60.5624 120.72 60.5889L126.368 61.5018C126.593 61.606 126.848 61.6231 127.085 61.5497C127.321 61.4763 127.522 61.3177 127.649 61.1046C127.775 60.8915 127.818 60.6391 127.769 60.3963C127.72 60.1534 127.582 59.9375 127.383 59.7903L123.612 55.913C123.503 55.8053 123.424 55.6708 123.384 55.5231C123.344 55.3753 123.343 55.2196 123.383 55.0716L124.617 49.9104C124.829 49.0319 123.7 48.4822 122.96 49.1192Z" fill="white"/>
<path d="M117.6 52.4621L117.354 55.5704C117.348 55.6623 117.323 55.7518 117.279 55.8328C117.235 55.9137 117.174 55.9841 117.1 56.039L114.646 57.8439C114.549 57.9088 114.474 58.001 114.429 58.1088C114.384 58.2166 114.373 58.3352 114.396 58.4496C114.419 58.564 114.475 58.6691 114.557 58.7515C114.64 58.834 114.745 58.8901 114.859 58.9129L117.744 59.0105C117.831 59.0151 117.915 59.0417 117.988 59.0877C118.061 59.1337 118.122 59.1977 118.164 59.2735L119.731 62.02C119.795 62.1264 119.893 62.2086 120.008 62.2535C120.124 62.2985 120.252 62.3037 120.371 62.2682C120.49 62.2328 120.594 62.1588 120.666 62.0579C120.739 61.9569 120.775 61.8348 120.771 61.7107L120.984 58.3847C120.991 58.2916 121.017 58.2012 121.063 58.1198C121.108 58.0385 121.171 57.9682 121.247 57.9141L123.829 56.0328C123.934 55.966 124.015 55.8678 124.061 55.7521C124.107 55.6364 124.115 55.5092 124.084 55.3887C124.053 55.2681 123.985 55.1604 123.89 55.081C123.794 55.0015 123.675 54.9543 123.551 54.9461L120.486 54.9151C120.4 54.9167 120.315 54.8951 120.24 54.8526C120.165 54.8102 120.103 54.7483 120.061 54.6736L118.534 52.1331C118.313 51.6878 117.646 51.9228 117.6 52.4621Z" fill="white"/>
<defs>
<linearGradient id="paint0_linear_34_2" x1="86.0197" y1="114.675" x2="75.3976" y2="86.6538" gradientUnits="userSpaceOnUse">
<stop stop-color="#FFF4AD"/>
<stop offset="1" stop-color="#F9B233"/>
</linearGradient>
<linearGradient id="paint1_linear_34_2" x1="122.693" y1="96.7328" x2="100.598" y2="84.1236" gradientUnits="userSpaceOnUse">
<stop stop-color="#FFF4AD"/>
<stop offset="1" stop-color="#F9B233"/>
</linearGradient>
<linearGradient id="paint2_linear_34_2" x1="70.2551" y1="52.2336" x2="40.0291" y2="98.1303" gradientUnits="userSpaceOnUse">
<stop stop-color="#FFF4AD"/>
<stop offset="1" stop-color="#F9B233"/>
</linearGradient>
<linearGradient id="paint3_linear_34_2" x1="71.5796" y1="79.7247" x2="36.8237" y2="72.6849" gradientUnits="userSpaceOnUse">
<stop stop-color="#FFF4AD"/>
<stop offset="1" stop-color="#F9B233"/>
</linearGradient>
<linearGradient id="paint4_linear_34_2" x1="143.423" y1="48.9787" x2="89.8458" y2="67.2279" gradientUnits="userSpaceOnUse">
<stop stop-color="#DADADA"/>
<stop offset="1" stop-color="#B2B2B2"/>
</linearGradient>
</defs>
</svg>
