<svg width="191" height="195" viewBox="0 0 191 195" fill="none" xmlns="http://www.w3.org/2000/svg">
<path d="M100.401 181.108C121.785 187.26 144.108 174.913 150.261 153.529C156.413 132.145 144.066 109.822 122.682 103.669C101.298 97.5167 78.975 109.864 72.8224 131.248C66.6698 152.632 79.0173 174.955 100.401 181.108Z" fill="url(#paint0_radial_33_2)"/>
<path d="M59.5196 90.751C59.8507 90.7725 60.1827 90.7273 60.496 90.6181C60.8094 90.509 61.0976 90.3381 61.3437 90.1156C62.507 89.0804 63.7328 88.1177 65.0142 87.2329C71.5634 82.8107 79.2395 80.3513 87.1392 80.1442C87.4691 80.1296 87.7929 80.0503 88.0922 79.9106C88.3914 79.7709 88.6602 79.5737 88.8832 79.3302C89.1061 79.0866 89.279 78.8015 89.3918 78.4912C89.5046 78.1809 89.5552 77.8513 89.5407 77.5214C89.5262 77.1915 89.4468 76.8677 89.3071 76.5685C89.1675 76.2693 88.9702 76.0005 88.7267 75.7775C88.4832 75.5545 88.1981 75.3817 87.8877 75.2689C87.5774 75.156 87.2479 75.1054 86.918 75.12C78.0772 75.3721 69.492 78.1419 62.1708 83.1039C60.719 84.1039 59.331 85.1935 58.0151 86.3665C57.6438 86.6952 57.3782 87.1265 57.2517 87.606C57.1253 88.0855 57.1437 88.5916 57.3046 89.0607C57.4656 89.5297 57.7618 89.9406 58.156 90.2414C58.5502 90.5422 59.0247 90.7195 59.5196 90.751Z" fill="url(#paint1_linear_33_2)"/>
<path opacity="0.2" d="M102.697 132.298L115.602 117.368C116.155 116.724 116.891 116.264 117.712 116.049C118.533 115.835 119.4 115.876 120.198 116.167L138.737 122.908C139.426 123.158 140.169 123.221 140.89 123.093C141.612 122.964 142.287 122.648 142.848 122.176C143.409 121.704 143.836 121.093 144.086 120.404C144.337 119.715 144.401 118.973 144.274 118.251L140.61 98.8289C140.443 97.9853 140.539 97.1106 140.887 96.324C141.235 95.5374 141.817 94.8772 142.553 94.4334L159.46 84.1567C160.089 83.7709 160.605 83.2257 160.956 82.5764C161.307 81.9271 161.48 81.1967 161.458 80.4591C161.436 79.7214 161.219 79.0027 160.83 78.3757C160.441 77.7486 159.893 77.2355 159.242 76.8882L141.794 67.6411C141.042 67.2456 140.428 66.6297 140.035 65.8758C139.643 65.122 139.49 64.2661 139.597 63.423L142.058 43.8197C142.154 43.0858 142.055 42.3394 141.768 41.6569C141.482 40.9743 141.02 40.3799 140.428 39.9346C139.837 39.4893 139.138 39.2091 138.403 39.1224C137.668 39.0358 136.923 39.1459 136.244 39.4415L118.128 47.3065C117.349 47.6468 116.485 47.7422 115.651 47.5799C114.816 47.4176 114.051 47.0053 113.456 46.3979L99.6763 32.2639C99.1598 31.7357 98.5129 31.3534 97.8011 31.1558C97.0892 30.9582 96.3378 30.9524 95.6229 31.1388C94.9081 31.3253 94.2553 31.6974 93.7306 32.2175C93.2059 32.7376 92.8281 33.3871 92.6354 34.1003L87.5128 53.1834C87.2855 54.0016 86.8144 54.7312 86.1622 55.275C85.51 55.8188 84.7077 56.1511 83.862 56.2277L64.1987 58.1724C63.4681 58.2523 62.7713 58.523 62.1783 58.9573C61.5853 59.3915 61.117 59.9742 60.8204 60.6467C60.5238 61.3192 60.4093 62.0579 60.4884 62.7886C60.5675 63.5193 60.8375 64.2164 61.2711 64.8098L72.9917 80.7566C73.4948 81.4421 73.7775 82.2644 73.8021 83.1143C73.8268 83.9642 73.5923 84.8016 73.1297 85.515L62.3946 102.097C61.9917 102.716 61.7603 103.432 61.724 104.17C61.6877 104.908 61.8478 105.643 62.188 106.299C62.5282 106.955 63.0362 107.509 63.6605 107.905C64.2847 108.301 65.0027 108.524 65.7413 108.552L85.4938 109.299C86.3464 109.33 87.1693 109.62 87.8528 110.131C88.5363 110.642 89.048 111.349 89.3199 112.157L95.5923 130.894C95.8262 131.591 96.2403 132.214 96.7926 132.699C97.3449 133.185 98.0158 133.516 98.7372 133.658C99.4586 133.801 100.205 133.75 100.9 133.511C101.596 133.272 102.216 132.854 102.697 132.298Z" fill="#FFFBDC"/>
<path opacity="0.2" d="M121.767 121.107L126.23 105.298C126.419 104.619 126.811 104.013 127.353 103.562C127.896 103.111 128.564 102.837 129.267 102.776L145.639 101.363C146.25 101.309 146.836 101.095 147.338 100.741C147.839 100.388 148.238 99.9079 148.495 99.3505C148.751 98.793 148.855 98.1777 148.797 97.567C148.739 96.9563 148.52 96.3717 148.163 95.8727L138.582 82.5271C138.169 81.954 137.94 81.2689 137.926 80.5629C137.912 79.8568 138.113 79.1631 138.503 78.5741L147.61 64.895C147.948 64.3833 148.145 63.7913 148.181 63.179C148.217 62.5666 148.09 61.9558 147.813 61.4082C147.537 60.8607 147.121 60.3959 146.607 60.061C146.093 59.7261 145.5 59.5329 144.887 59.5011L128.477 58.6769C127.771 58.6401 127.093 58.3895 126.534 57.9583C125.974 57.5271 125.559 56.9358 125.344 56.263L120.327 40.6227C120.143 40.0329 119.804 39.503 119.347 39.0877C118.889 38.6725 118.329 38.3869 117.724 38.2606C117.12 38.1342 116.492 38.1717 115.906 38.369C115.321 38.5664 114.799 38.9166 114.394 39.3833L103.508 51.7166C103.041 52.2466 102.423 52.6213 101.737 52.7907C101.052 52.9601 100.33 52.9162 99.6703 52.6647L84.3194 46.8378C83.745 46.6195 83.123 46.5573 82.5168 46.6574C81.9105 46.7574 81.3415 47.0163 80.8677 47.4075C80.3939 47.7988 80.0321 48.3085 79.8191 48.885C79.6062 49.4614 79.5497 50.0839 79.6553 50.6892L82.5011 66.9028C82.6228 67.5984 82.53 68.3146 82.235 68.9563C81.94 69.5979 81.4568 70.1346 80.8495 70.4951L66.7193 78.8643C66.1976 79.1797 65.7679 79.6265 65.4732 80.1601C65.1785 80.6937 65.0291 81.2954 65.04 81.9049C65.0509 82.5144 65.2218 83.1103 65.5354 83.633C65.849 84.1557 66.2945 84.5869 66.8271 84.8833L81.2568 92.7459C81.8755 93.0854 82.3768 93.6045 82.6945 94.2348C83.0121 94.865 83.1312 95.5768 83.0361 96.2761L80.768 112.545C80.6865 113.151 80.7661 113.767 80.9986 114.332C81.2311 114.898 81.6085 115.392 82.0926 115.765C82.5767 116.138 83.1506 116.377 83.7564 116.458C84.3623 116.539 84.9787 116.459 85.5438 116.226L100.679 109.854C101.331 109.579 102.051 109.509 102.744 109.653C103.436 109.798 104.068 110.15 104.556 110.662L115.822 122.572C116.242 123.04 116.781 123.385 117.382 123.57C117.983 123.755 118.623 123.773 119.234 123.623C119.844 123.472 120.403 123.159 120.849 122.715C121.295 122.272 121.612 121.716 121.767 121.107Z" fill="#FFFBDC"/>
<path d="M63.2832 155.982C63.7845 156.277 64.3737 156.385 64.9471 156.288L66.0382 156.147C68.4813 155.862 72.5502 155.379 75.0231 151.949C78.6499 146.92 80.6699 141.948 82.8985 136.689C84.2233 133.507 85.5844 130.227 87.3861 126.794L87.3925 126.694C90.3608 120.991 94.405 113.182 103.716 105.589C104.231 105.17 104.557 104.563 104.625 103.903C104.692 103.243 104.495 102.584 104.076 102.069C103.657 101.555 103.05 101.228 102.39 101.161C101.73 101.094 101.071 101.291 100.556 101.71C90.4614 109.965 85.9003 118.653 82.9694 124.399L82.963 124.498C81.0894 128.117 79.6813 131.504 78.3009 134.773C76.2304 139.752 74.2769 144.467 70.9906 149.027C69.8035 150.675 67.502 150.94 65.4726 151.181C64.9978 151.241 64.5436 151.292 64.1587 151.358C63.6512 151.442 63.1819 151.68 62.8147 152.04C62.4474 152.4 62.2002 152.864 62.1066 153.37C62.0131 153.876 62.0778 154.398 62.2919 154.866C62.506 155.333 62.8592 155.724 63.3031 155.983L63.2832 155.982Z" fill="url(#paint2_linear_33_2)"/>
<path d="M93.9704 136.853C94.5047 137.165 95.1359 137.268 95.7418 137.142C96.3476 137.016 96.8852 136.669 97.2504 136.17C98.1063 135.002 101.308 129.414 100.043 125.666C98.3587 120.649 90.9457 115.738 83.0689 110.557C77.2123 106.697 67.4239 100.222 68.3364 97.5348C68.5094 97.3354 70.8379 94.7581 91.4048 95.1455C91.7334 95.1519 92.06 95.0936 92.366 94.9738C92.672 94.854 92.9514 94.6751 93.1883 94.4473C93.6667 93.9873 93.9428 93.3561 93.9558 92.6926C93.9688 92.029 93.7177 91.3875 93.2577 90.9091C92.7977 90.4307 92.1665 90.1546 91.5029 90.1416C68.895 89.7045 64.759 92.6577 63.6506 95.9038C61.4831 102.249 70.2238 108.026 80.3494 114.713C86.8499 119.004 94.2155 123.872 95.3432 127.251C95.6988 128.275 94.2587 131.851 93.2597 133.22C93.0649 133.484 92.9242 133.785 92.8458 134.104C92.7674 134.422 92.7529 134.754 92.803 135.078C92.8531 135.403 92.9669 135.714 93.1379 135.994C93.3088 136.275 93.5335 136.518 93.799 136.712L93.9704 136.853Z" fill="url(#paint3_linear_33_2)"/>
<path d="M82.0756 97.8282L93.9495 98.1432C94.459 98.157 94.9523 98.3249 95.3643 98.6249C95.7764 98.9248 96.0878 99.3426 96.2575 99.8232L100.149 111.093C100.297 111.511 100.551 111.884 100.888 112.172C101.225 112.46 101.632 112.654 102.068 112.735C102.504 112.816 102.954 112.78 103.372 112.631C103.789 112.482 104.161 112.226 104.448 111.888L112.101 102.796C112.429 102.405 112.868 102.125 113.36 101.991C113.852 101.858 114.373 101.878 114.854 102.049L126.065 106.009C126.483 106.155 126.933 106.187 127.368 106.103C127.804 106.019 128.209 105.821 128.543 105.531C128.878 105.24 129.13 104.866 129.274 104.447C129.418 104.028 129.449 103.578 129.363 103.143L127.032 91.4413C126.936 90.9374 126.996 90.4159 127.205 89.9473C127.414 89.4786 127.762 89.0853 128.201 88.8203L138.282 82.518C138.658 82.2828 138.965 81.9523 139.171 81.5599C139.378 81.1676 139.477 80.7275 139.459 80.2844C139.44 79.8413 139.304 79.4111 139.065 79.0375C138.826 78.6639 138.493 78.3603 138.098 78.1575L127.533 72.7153C127.077 72.4837 126.704 72.1176 126.464 71.6667C126.224 71.2158 126.128 70.702 126.19 70.1949L127.542 58.397C127.608 57.9467 127.549 57.4871 127.373 57.0674C127.197 56.6477 126.911 56.2838 126.544 56.0144C126.177 55.7451 125.744 55.5805 125.291 55.5383C124.838 55.4961 124.382 55.5779 123.972 55.7749L113.138 60.6765C112.673 60.888 112.153 60.9516 111.65 60.8587C111.148 60.7657 110.685 60.5208 110.326 60.1568L101.944 51.7373C101.631 51.4227 101.239 51.1968 100.81 51.0826C100.381 50.9685 99.9296 50.9702 99.5014 51.0876C99.0732 51.205 98.6838 51.4339 98.373 51.7509C98.0621 52.0679 97.8409 52.4617 97.7319 52.8921L94.775 64.3975C94.6512 64.8869 94.3822 65.3274 94.0032 65.661C93.6243 65.9946 93.1532 66.2056 92.652 66.2664L80.8454 67.5689C80.4045 67.6174 79.9843 67.7819 79.6276 68.0456C79.2709 68.3093 78.9904 68.6628 78.8148 69.0702C78.6392 69.4775 78.5747 69.9241 78.6278 70.3645C78.6809 70.8049 78.8498 71.2233 79.1173 71.5772L86.2699 81.0508C86.5773 81.4579 86.7534 81.9491 86.7747 82.4589C86.796 82.9686 86.6614 83.4728 86.3888 83.9041L80.0477 93.9516C79.8051 94.3249 79.6661 94.7562 79.6451 95.201C79.6241 95.6458 79.7218 96.0882 79.9282 96.4828C80.1346 96.8774 80.4423 97.2099 80.8196 97.4464C81.197 97.6828 81.6304 97.8146 82.0756 97.8282Z" fill="url(#paint4_linear_33_2)"/>
<path d="M94.9525 87.9096L119.044 82.6005L119.901 86.4872L95.809 91.7964L94.9525 87.9096Z" fill="url(#paint5_linear_33_2)"/>
<path d="M90.6411 90.4575L94.9319 87.9049L95.797 91.7877L90.8198 91.2705C90.7287 91.26 90.6431 91.2214 90.5751 91.16C90.507 91.0985 90.4598 91.0174 90.4401 90.9278C90.4204 90.8382 90.4292 90.7448 90.4653 90.6604C90.5013 90.5761 90.5628 90.5052 90.6411 90.4575Z" fill="#3C3C3B"/>
<path d="M122.047 86.0037C122.311 85.9503 122.456 85.5688 122.372 85.1626L121.844 82.7542C121.749 82.3473 121.457 82.0582 121.192 82.1215L122.047 86.0037Z" fill="#3C3C3B"/>
<path d="M118.451 82.7253L121.196 82.1206L122.052 86.0073L119.308 86.6121L118.451 82.7253Z" fill="#3C3C3B"/>
<path d="M120.665 86.3065L121.125 88.3699L111.999 90.3842" stroke="#3C3C3B" stroke-width="2" stroke-linecap="round" stroke-linejoin="round"/>
<path d="M97.8787 76.5592C96.9637 76.501 96.2692 75.712 96.3275 74.7971C96.3857 73.8822 97.1746 73.1877 98.0896 73.2459C99.0045 73.3041 99.699 74.0931 99.6408 75.008C99.5825 75.9229 98.7936 76.6174 97.8787 76.5592Z" fill="#3C3C3B"/>
<path d="M98.5284 78.9453C98.6627 79.3643 98.9578 79.7128 99.3489 79.9144C99.7401 80.1159 100.195 80.1539 100.614 80.02" stroke="#3C3C3B" stroke-linecap="round" stroke-linejoin="round"/>
<path d="M103.504 78.2299C103.524 78.5158 103.62 78.7911 103.781 79.0283C103.941 79.2655 104.162 79.4561 104.42 79.5809C104.66 79.7059 104.927 79.7702 105.198 79.7682C105.469 79.7663 105.735 79.6981 105.974 79.5695" stroke="#3C3C3B" stroke-linecap="round" stroke-linejoin="round"/>
<path d="M106.416 105.049C108.418 107.752 110.661 109.518 112.917 109.962C116.797 110.71 120.325 107.548 122.361 101.545C122.572 100.915 122.525 100.227 122.229 99.6326C121.934 99.0379 121.414 98.5849 120.784 98.3734C120.154 98.1619 119.467 98.2092 118.872 98.5049C118.277 98.8006 117.824 99.3204 117.613 99.9501C116.597 102.992 114.917 105.3 113.868 105.103C111.542 104.644 106.316 97.7981 104.562 86.3135C104.532 85.9745 104.432 85.6453 104.269 85.3462C104.107 85.047 103.885 84.7843 103.617 84.574C103.349 84.3636 103.042 84.2102 102.712 84.1231C102.383 84.036 102.04 84.017 101.703 84.0674C101.367 84.1177 101.044 84.2362 100.754 84.4158C100.465 84.5953 100.216 84.832 100.021 85.1114C99.8265 85.3908 99.6911 85.707 99.6231 86.0406C99.5551 86.3742 99.556 86.7181 99.6256 87.0514C100.727 94.306 103.278 100.821 106.416 105.049Z" fill="url(#paint6_linear_33_2)"/>
<path d="M34.8475 126.5L53.5837 119.757C53.9405 119.629 54.3307 119.628 54.688 119.755C55.0453 119.882 55.3476 120.128 55.5435 120.453C57.3673 123.285 62.4682 130.674 68.1312 133.639C68.4001 133.76 68.6297 133.954 68.7942 134.199C68.9586 134.444 69.0513 134.73 69.0617 135.024C69.0722 135.319 68.9999 135.611 68.8532 135.866C68.7065 136.122 68.4911 136.332 68.2315 136.471L52.2398 143.86C51.6325 144.135 50.972 144.272 50.3057 144.26C49.6393 144.249 48.9838 144.09 48.3861 143.795C45.6355 142.458 40.5378 138.797 34.1606 128.791C34.0278 128.603 33.9395 128.387 33.9025 128.16C33.8655 127.932 33.8806 127.7 33.9468 127.479C34.0129 127.258 34.1284 127.055 34.2844 126.886C34.4405 126.716 34.633 126.585 34.8475 126.5Z" fill="#AFCEE0"/>
<path d="M32.2188 117.896L51.0998 112.184C51.4351 112.079 51.7967 112.095 52.1214 112.229C52.4462 112.363 52.7135 112.607 52.8768 112.918C54.3426 115.707 58.5285 122.988 63.7023 126.083C63.9498 126.222 64.1529 126.429 64.2884 126.678C64.4238 126.928 64.4861 127.211 64.4681 127.494C64.45 127.778 64.3524 128.05 64.1864 128.281C64.0203 128.511 63.7927 128.69 63.5295 128.797L47.3168 135.25C46.7153 135.487 46.0691 135.588 45.4242 135.547C44.7792 135.506 44.1511 135.323 43.5844 135.013C41.0278 133.617 36.4941 129.912 31.3486 120.075C31.2425 119.878 31.181 119.66 31.1682 119.437C31.1555 119.214 31.1919 118.99 31.2748 118.782C31.3578 118.575 31.4853 118.388 31.6484 118.234C31.8115 118.081 32.0062 117.966 32.2188 117.896Z" fill="#C1DEED"/>
<path d="M46.8357 135.41C47.4638 135.162 47.9899 134.71 48.3289 134.126C48.6679 133.542 48.8 132.861 48.7039 132.192C48.6874 132.024 48.7278 131.854 48.8186 131.711C48.9094 131.568 49.0454 131.459 49.2051 131.402L67.3231 124.139C67.4535 124.088 67.5949 124.072 67.7334 124.092C67.8719 124.112 68.0028 124.168 68.1134 124.253C68.224 124.339 68.3105 124.452 68.3644 124.581C68.4184 124.71 68.4379 124.851 68.4212 124.99C68.3101 125.867 67.8726 126.669 67.196 127.237C67.1169 127.303 67.0291 127.358 66.9351 127.401L46.8357 135.41Z" fill="#E5F4FE"/>
<path d="M79.7768 104.801L61.8399 96.1539C61.5042 95.992 61.2337 95.7205 61.073 95.3842C60.9123 95.0479 60.8709 94.667 60.9556 94.304C61.7054 91.025 63.3892 82.2042 61.5443 76.0846C61.4376 75.8044 61.4129 75.4997 61.473 75.2059C61.5331 74.9122 61.6755 74.6416 61.8836 74.4258C62.0918 74.21 62.357 74.0579 62.6483 73.9872C62.9397 73.9165 63.2451 73.9301 63.529 74.0265L79.9598 80.2029C80.5807 80.4431 81.1404 80.8184 81.5983 81.3016C82.0563 81.7848 82.4011 82.3638 82.6077 82.9967C83.6043 85.9159 84.5428 92.108 81.8522 103.68C81.81 103.902 81.7189 104.112 81.5855 104.294C81.4521 104.477 81.2797 104.627 81.081 104.734C80.8822 104.842 80.662 104.903 80.4364 104.915C80.2108 104.926 79.9855 104.887 79.7768 104.801Z" fill="#90A9B7"/>
<path d="M77.7097 105.792L59.7416 97.6336C59.4128 97.4968 59.1429 97.248 58.9797 96.9314C58.8165 96.6148 58.7705 96.2507 58.8498 95.9035C59.585 92.854 61.2313 84.622 59.3609 78.9016C59.2768 78.6348 59.2685 78.3499 59.3369 78.0787C59.4053 77.8075 59.5476 77.5606 59.7481 77.3655C59.9486 77.1705 60.1994 77.0349 60.4724 76.974C60.7454 76.9131 61.0299 76.9293 61.2943 77.0206L77.8185 82.8321C78.4286 83.0471 78.9839 83.3937 79.4451 83.8474C79.9063 84.301 80.262 84.8505 80.4871 85.457C81.4858 88.1859 82.4709 93.9602 79.8498 104.755C79.7979 104.977 79.697 105.185 79.5546 105.363C79.4122 105.541 79.2319 105.685 79.0268 105.784C78.8217 105.883 78.597 105.935 78.3691 105.937C78.1412 105.938 77.9159 105.888 77.7097 105.792Z" fill="#A8C6D6"/>
<path d="M78.2892 82.9924C77.654 82.7656 76.9608 82.7596 76.3216 82.9752C75.6825 83.1909 75.1347 83.6157 74.7666 84.181C74.6655 84.3162 74.5233 84.415 74.3613 84.4625C74.1992 84.51 74.0262 84.5037 73.8681 84.4444L55.4321 77.9701C55.2996 77.9227 55.1817 77.8415 55.0901 77.7346C54.9984 77.6277 54.9363 77.4988 54.9097 77.3606C54.8831 77.2223 54.893 77.0795 54.9384 76.9463C54.9838 76.813 55.0631 76.6939 55.1686 76.6006C55.8328 76.0257 56.6894 75.7224 57.5674 75.7513C57.6675 75.7374 57.7693 75.7439 57.8668 75.7704L78.2892 82.9924Z" fill="#CCDEE9"/>
<defs>
<radialGradient id="paint0_radial_33_2" cx="0" cy="0" r="1" gradientUnits="userSpaceOnUse" gradientTransform="translate(111.859 126.06) rotate(16.0516) scale(60.79)">
<stop stop-color="#95C11F"/>
<stop offset="0.06" stop-color="#90C026"/>
<stop offset="0.15" stop-color="#81BD39"/>
<stop offset="0.25" stop-color="#6AB758"/>
<stop offset="0.37" stop-color="#49B083"/>
<stop offset="0.5" stop-color="#1FA6BA"/>
<stop offset="0.58" stop-color="#009FE3"/>
<stop offset="0.62" stop-color="#09A2E4"/>
<stop offset="0.68" stop-color="#22ACE7"/>
<stop offset="0.76" stop-color="#4BBBED"/>
<stop offset="0.85" stop-color="#83CFF4"/>
<stop offset="0.89" stop-color="#A4DBF8"/>
</radialGradient>
<linearGradient id="paint1_linear_33_2" x1="62.7676" y1="97.8116" x2="71.9452" y2="84.9186" gradientUnits="userSpaceOnUse">
<stop stop-color="#FFF4AD"/>
<stop offset="1" stop-color="#F9B233"/>
</linearGradient>
<linearGradient id="paint2_linear_33_2" x1="77.8779" y1="139.935" x2="88.7979" y2="117.535" gradientUnits="userSpaceOnUse">
<stop stop-color="#FFF4AD"/>
<stop offset="1" stop-color="#F9B233"/>
</linearGradient>
<linearGradient id="paint3_linear_33_2" x1="81.3309" y1="121.396" x2="83.5543" y2="81.4885" gradientUnits="userSpaceOnUse">
<stop stop-color="#FFF4AD"/>
<stop offset="1" stop-color="#F9B233"/>
</linearGradient>
<linearGradient id="paint4_linear_33_2" x1="100.026" y1="43.3553" x2="115.888" y2="117.627" gradientUnits="userSpaceOnUse">
<stop stop-color="#FFF4AD"/>
<stop offset="1" stop-color="#F9B233"/>
</linearGradient>
<linearGradient id="paint5_linear_33_2" x1="119.471" y1="84.5341" x2="95.3688" y2="89.8454" gradientUnits="userSpaceOnUse">
<stop stop-color="#951B81"/>
<stop offset="1" stop-color="#662483"/>
</linearGradient>
<linearGradient id="paint6_linear_33_2" x1="105.342" y1="98.0168" x2="123.304" y2="92.5204" gradientUnits="userSpaceOnUse">
<stop stop-color="#FFF4AD"/>
<stop offset="1" stop-color="#F9B233"/>
</linearGradient>
</defs>
</svg>
